<svg width="565" height="91" viewBox="0 0 565 91" fill="none" xmlns="http://www.w3.org/2000/svg">
<g id="Property 1=Default">
<g id="Frame 842">
<rect x="98" y="4" width="467" height="84" rx="12" fill="#0E9FE9"/>
<path id="Hemoglobina e/ou hemograma" d="M128.975 39.4H131.315V52H128.975V39.4ZM122.459 52H120.119V39.4H122.459V52ZM129.155 46.6H122.261V44.602H129.155V46.6ZM138.993 52.126C137.925 52.126 136.989 51.916 136.185 51.496C135.393 51.064 134.775 50.476 134.331 49.732C133.899 48.988 133.683 48.142 133.683 47.194C133.683 46.234 133.893 45.388 134.313 44.656C134.745 43.912 135.333 43.33 136.077 42.91C136.833 42.49 137.691 42.28 138.651 42.28C139.587 42.28 140.421 42.484 141.153 42.892C141.885 43.3 142.461 43.876 142.881 44.62C143.301 45.364 143.511 46.24 143.511 47.248C143.511 47.344 143.505 47.452 143.493 47.572C143.493 47.692 143.487 47.806 143.475 47.914H135.465V46.42H142.287L141.405 46.888C141.417 46.336 141.303 45.85 141.063 45.43C140.823 45.01 140.493 44.68 140.073 44.44C139.665 44.2 139.191 44.08 138.651 44.08C138.099 44.08 137.613 44.2 137.193 44.44C136.785 44.68 136.461 45.016 136.221 45.448C135.993 45.868 135.879 46.366 135.879 46.942V47.302C135.879 47.878 136.011 48.388 136.275 48.832C136.539 49.276 136.911 49.618 137.391 49.858C137.871 50.098 138.423 50.218 139.047 50.218C139.587 50.218 140.073 50.134 140.505 49.966C140.937 49.798 141.321 49.534 141.657 49.174L142.863 50.56C142.431 51.064 141.885 51.454 141.225 51.73C140.577 51.994 139.833 52.126 138.993 52.126ZM157.804 42.28C158.572 42.28 159.25 42.43 159.838 42.73C160.438 43.03 160.906 43.492 161.242 44.116C161.578 44.728 161.746 45.52 161.746 46.492V52H159.496V46.78C159.496 45.928 159.31 45.292 158.938 44.872C158.566 44.452 158.032 44.242 157.336 44.242C156.844 44.242 156.406 44.35 156.022 44.566C155.65 44.782 155.356 45.1 155.14 45.52C154.936 45.94 154.834 46.474 154.834 47.122V52H152.584V46.78C152.584 45.928 152.398 45.292 152.026 44.872C151.654 44.452 151.12 44.242 150.424 44.242C149.932 44.242 149.494 44.35 149.11 44.566C148.738 44.782 148.444 45.1 148.228 45.52C148.024 45.94 147.922 46.474 147.922 47.122V52H145.672V42.388H147.814V44.944L147.436 44.188C147.76 43.564 148.228 43.09 148.84 42.766C149.464 42.442 150.172 42.28 150.964 42.28C151.864 42.28 152.644 42.502 153.304 42.946C153.976 43.39 154.42 44.062 154.636 44.962L153.754 44.656C154.066 43.936 154.582 43.36 155.302 42.928C156.022 42.496 156.856 42.28 157.804 42.28ZM168.959 52.126C167.975 52.126 167.099 51.916 166.331 51.496C165.563 51.064 164.957 50.476 164.513 49.732C164.069 48.988 163.847 48.142 163.847 47.194C163.847 46.234 164.069 45.388 164.513 44.656C164.957 43.912 165.563 43.33 166.331 42.91C167.099 42.49 167.975 42.28 168.959 42.28C169.955 42.28 170.837 42.49 171.605 42.91C172.385 43.33 172.991 43.906 173.423 44.638C173.867 45.37 174.089 46.222 174.089 47.194C174.089 48.142 173.867 48.988 173.423 49.732C172.991 50.476 172.385 51.064 171.605 51.496C170.837 51.916 169.955 52.126 168.959 52.126ZM168.959 50.2C169.511 50.2 170.003 50.08 170.435 49.84C170.867 49.6 171.203 49.252 171.443 48.796C171.695 48.34 171.821 47.806 171.821 47.194C171.821 46.57 171.695 46.036 171.443 45.592C171.203 45.136 170.867 44.788 170.435 44.548C170.003 44.308 169.517 44.188 168.977 44.188C168.425 44.188 167.933 44.308 167.501 44.548C167.081 44.788 166.745 45.136 166.493 45.592C166.241 46.036 166.115 46.57 166.115 47.194C166.115 47.806 166.241 48.34 166.493 48.796C166.745 49.252 167.081 49.6 167.501 49.84C167.933 50.08 168.419 50.2 168.959 50.2ZM180.597 55.618C179.709 55.618 178.839 55.498 177.987 55.258C177.147 55.03 176.457 54.694 175.917 54.25L176.925 52.558C177.345 52.906 177.873 53.182 178.509 53.386C179.157 53.602 179.811 53.71 180.471 53.71C181.527 53.71 182.301 53.464 182.793 52.972C183.285 52.492 183.531 51.766 183.531 50.794V49.084L183.711 46.906L183.639 44.728V42.388H185.781V50.542C185.781 52.282 185.337 53.56 184.449 54.376C183.561 55.204 182.277 55.618 180.597 55.618ZM180.309 51.568C179.397 51.568 178.569 51.376 177.825 50.992C177.093 50.596 176.511 50.05 176.079 49.354C175.659 48.658 175.449 47.842 175.449 46.906C175.449 45.982 175.659 45.172 176.079 44.476C176.511 43.78 177.093 43.24 177.825 42.856C178.569 42.472 179.397 42.28 180.309 42.28C181.125 42.28 181.857 42.442 182.505 42.766C183.153 43.09 183.669 43.594 184.053 44.278C184.449 44.962 184.647 45.838 184.647 46.906C184.647 47.974 184.449 48.856 184.053 49.552C183.669 50.236 183.153 50.746 182.505 51.082C181.857 51.406 181.125 51.568 180.309 51.568ZM180.651 49.66C181.215 49.66 181.719 49.546 182.163 49.318C182.607 49.078 182.949 48.754 183.189 48.346C183.441 47.926 183.567 47.446 183.567 46.906C183.567 46.366 183.441 45.892 183.189 45.484C182.949 45.064 182.607 44.746 182.163 44.53C181.719 44.302 181.215 44.188 180.651 44.188C180.087 44.188 179.577 44.302 179.121 44.53C178.677 44.746 178.329 45.064 178.077 45.484C177.837 45.892 177.717 46.366 177.717 46.906C177.717 47.446 177.837 47.926 178.077 48.346C178.329 48.754 178.677 49.078 179.121 49.318C179.577 49.546 180.087 49.66 180.651 49.66ZM188.739 52V38.644H190.989V52H188.739ZM198.262 52.126C197.278 52.126 196.402 51.916 195.634 51.496C194.866 51.064 194.26 50.476 193.816 49.732C193.372 48.988 193.15 48.142 193.15 47.194C193.15 46.234 193.372 45.388 193.816 44.656C194.26 43.912 194.866 43.33 195.634 42.91C196.402 42.49 197.278 42.28 198.262 42.28C199.258 42.28 200.14 42.49 200.908 42.91C201.688 43.33 202.294 43.906 202.726 44.638C203.17 45.37 203.392 46.222 203.392 47.194C203.392 48.142 203.17 48.988 202.726 49.732C202.294 50.476 201.688 51.064 200.908 51.496C200.14 51.916 199.258 52.126 198.262 52.126ZM198.262 50.2C198.814 50.2 199.306 50.08 199.738 49.84C200.17 49.6 200.506 49.252 200.746 48.796C200.998 48.34 201.124 47.806 201.124 47.194C201.124 46.57 200.998 46.036 200.746 45.592C200.506 45.136 200.17 44.788 199.738 44.548C199.306 44.308 198.82 44.188 198.28 44.188C197.728 44.188 197.236 44.308 196.804 44.548C196.384 44.788 196.048 45.136 195.796 45.592C195.544 46.036 195.418 46.57 195.418 47.194C195.418 47.806 195.544 48.34 195.796 48.796C196.048 49.252 196.384 49.6 196.804 49.84C197.236 50.08 197.722 50.2 198.262 50.2ZM210.871 52.126C210.055 52.126 209.329 51.946 208.693 51.586C208.057 51.226 207.553 50.686 207.181 49.966C206.821 49.234 206.641 48.31 206.641 47.194C206.641 46.066 206.827 45.142 207.199 44.422C207.583 43.702 208.093 43.168 208.729 42.82C209.377 42.46 210.091 42.28 210.871 42.28C211.819 42.28 212.653 42.484 213.373 42.892C214.105 43.3 214.681 43.87 215.101 44.602C215.533 45.334 215.749 46.198 215.749 47.194C215.749 48.19 215.533 49.054 215.101 49.786C214.681 50.518 214.105 51.094 213.373 51.514C212.653 51.922 211.819 52.126 210.871 52.126ZM205.543 52V38.644H207.793V44.62L207.613 47.176L207.685 49.732V52H205.543ZM210.619 50.2C211.159 50.2 211.639 50.08 212.059 49.84C212.491 49.6 212.833 49.252 213.085 48.796C213.337 48.34 213.463 47.806 213.463 47.194C213.463 46.57 213.337 46.036 213.085 45.592C212.833 45.136 212.491 44.788 212.059 44.548C211.639 44.308 211.159 44.188 210.619 44.188C210.079 44.188 209.593 44.308 209.161 44.548C208.729 44.788 208.387 45.136 208.135 45.592C207.883 46.036 207.757 46.57 207.757 47.194C207.757 47.806 207.883 48.34 208.135 48.796C208.387 49.252 208.729 49.6 209.161 49.84C209.593 50.08 210.079 50.2 210.619 50.2ZM217.883 52V42.388H220.133V52H217.883ZM219.017 40.804C218.597 40.804 218.249 40.672 217.973 40.408C217.709 40.144 217.577 39.826 217.577 39.454C217.577 39.07 217.709 38.752 217.973 38.5C218.249 38.236 218.597 38.104 219.017 38.104C219.437 38.104 219.779 38.23 220.043 38.482C220.319 38.722 220.457 39.028 220.457 39.4C220.457 39.796 220.325 40.132 220.061 40.408C219.797 40.672 219.449 40.804 219.017 40.804ZM228.54 42.28C229.308 42.28 229.992 42.43 230.592 42.73C231.204 43.03 231.684 43.492 232.032 44.116C232.38 44.728 232.554 45.52 232.554 46.492V52H230.304V46.78C230.304 45.928 230.1 45.292 229.692 44.872C229.296 44.452 228.738 44.242 228.018 44.242C227.49 44.242 227.022 44.35 226.614 44.566C226.206 44.782 225.888 45.106 225.66 45.538C225.444 45.958 225.336 46.492 225.336 47.14V52H223.086V42.388H225.228V44.98L224.85 44.188C225.186 43.576 225.672 43.108 226.308 42.784C226.956 42.448 227.7 42.28 228.54 42.28ZM241.331 52V50.056L241.205 49.642V46.24C241.205 45.58 241.007 45.07 240.611 44.71C240.215 44.338 239.615 44.152 238.811 44.152C238.271 44.152 237.737 44.236 237.209 44.404C236.693 44.572 236.255 44.806 235.895 45.106L235.013 43.468C235.529 43.072 236.141 42.778 236.849 42.586C237.569 42.382 238.313 42.28 239.081 42.28C240.473 42.28 241.547 42.616 242.303 43.288C243.071 43.948 243.455 44.974 243.455 46.366V52H241.331ZM238.307 52.126C237.587 52.126 236.957 52.006 236.417 51.766C235.877 51.514 235.457 51.172 235.157 50.74C234.869 50.296 234.725 49.798 234.725 49.246C234.725 48.706 234.851 48.22 235.103 47.788C235.367 47.356 235.793 47.014 236.381 46.762C236.969 46.51 237.749 46.384 238.721 46.384H241.511V47.878H238.883C238.115 47.878 237.599 48.004 237.335 48.256C237.071 48.496 236.939 48.796 236.939 49.156C236.939 49.564 237.101 49.888 237.425 50.128C237.749 50.368 238.199 50.488 238.775 50.488C239.327 50.488 239.819 50.362 240.251 50.11C240.695 49.858 241.013 49.486 241.205 48.994L241.583 50.344C241.367 50.908 240.977 51.346 240.413 51.658C239.861 51.97 239.159 52.126 238.307 52.126ZM255.835 52.126C254.767 52.126 253.831 51.916 253.027 51.496C252.235 51.064 251.617 50.476 251.173 49.732C250.741 48.988 250.525 48.142 250.525 47.194C250.525 46.234 250.735 45.388 251.155 44.656C251.587 43.912 252.175 43.33 252.919 42.91C253.675 42.49 254.533 42.28 255.493 42.28C256.429 42.28 257.263 42.484 257.995 42.892C258.727 43.3 259.303 43.876 259.723 44.62C260.143 45.364 260.353 46.24 260.353 47.248C260.353 47.344 260.347 47.452 260.335 47.572C260.335 47.692 260.329 47.806 260.317 47.914H252.307V46.42H259.129L258.247 46.888C258.259 46.336 258.145 45.85 257.905 45.43C257.665 45.01 257.335 44.68 256.915 44.44C256.507 44.2 256.033 44.08 255.493 44.08C254.941 44.08 254.455 44.2 254.035 44.44C253.627 44.68 253.303 45.016 253.063 45.448C252.835 45.868 252.721 46.366 252.721 46.942V47.302C252.721 47.878 252.853 48.388 253.117 48.832C253.381 49.276 253.753 49.618 254.233 49.858C254.713 50.098 255.265 50.218 255.889 50.218C256.429 50.218 256.915 50.134 257.347 49.966C257.779 49.798 258.163 49.534 258.499 49.174L259.705 50.56C259.273 51.064 258.727 51.454 258.067 51.73C257.419 51.994 256.675 52.126 255.835 52.126ZM260.498 53.8L266.438 36.844H268.454L262.514 53.8H260.498ZM272.336 52.126C271.352 52.126 270.476 51.916 269.708 51.496C268.94 51.064 268.334 50.476 267.89 49.732C267.446 48.988 267.224 48.142 267.224 47.194C267.224 46.234 267.446 45.388 267.89 44.656C268.334 43.912 268.94 43.33 269.708 42.91C270.476 42.49 271.352 42.28 272.336 42.28C273.332 42.28 274.214 42.49 274.982 42.91C275.762 43.33 276.368 43.906 276.8 44.638C277.244 45.37 277.466 46.222 277.466 47.194C277.466 48.142 277.244 48.988 276.8 49.732C276.368 50.476 275.762 51.064 274.982 51.496C274.214 51.916 273.332 52.126 272.336 52.126ZM272.336 50.2C272.888 50.2 273.38 50.08 273.812 49.84C274.244 49.6 274.58 49.252 274.82 48.796C275.072 48.34 275.198 47.806 275.198 47.194C275.198 46.57 275.072 46.036 274.82 45.592C274.58 45.136 274.244 44.788 273.812 44.548C273.38 44.308 272.894 44.188 272.354 44.188C271.802 44.188 271.31 44.308 270.878 44.548C270.458 44.788 270.122 45.136 269.87 45.592C269.618 46.036 269.492 46.57 269.492 47.194C269.492 47.806 269.618 48.34 269.87 48.796C270.122 49.252 270.458 49.6 270.878 49.84C271.31 50.08 271.796 50.2 272.336 50.2ZM283.686 52.126C282.87 52.126 282.15 51.976 281.526 51.676C280.902 51.364 280.416 50.896 280.068 50.272C279.72 49.636 279.546 48.838 279.546 47.878V42.388H281.796V47.572C281.796 48.436 281.988 49.084 282.372 49.516C282.768 49.936 283.326 50.146 284.046 50.146C284.574 50.146 285.03 50.038 285.414 49.822C285.81 49.606 286.116 49.282 286.332 48.85C286.56 48.418 286.674 47.884 286.674 47.248V42.388H288.924V52H286.782V49.408L287.16 50.2C286.836 50.824 286.362 51.304 285.738 51.64C285.114 51.964 284.43 52.126 283.686 52.126ZM302.298 42.28C303.066 42.28 303.75 42.43 304.35 42.73C304.962 43.03 305.442 43.492 305.79 44.116C306.138 44.728 306.312 45.52 306.312 46.492V52H304.062V46.78C304.062 45.928 303.858 45.292 303.45 44.872C303.054 44.452 302.496 44.242 301.776 44.242C301.248 44.242 300.78 44.35 300.372 44.566C299.964 44.782 299.646 45.106 299.418 45.538C299.202 45.958 299.094 46.492 299.094 47.14V52H296.844V38.644H299.094V44.98L298.608 44.188C298.944 43.576 299.43 43.108 300.066 42.784C300.714 42.448 301.458 42.28 302.298 42.28ZM313.702 52.126C312.634 52.126 311.698 51.916 310.894 51.496C310.102 51.064 309.484 50.476 309.04 49.732C308.608 48.988 308.392 48.142 308.392 47.194C308.392 46.234 308.602 45.388 309.022 44.656C309.454 43.912 310.042 43.33 310.786 42.91C311.542 42.49 312.4 42.28 313.36 42.28C314.296 42.28 315.13 42.484 315.862 42.892C316.594 43.3 317.17 43.876 317.59 44.62C318.01 45.364 318.22 46.24 318.22 47.248C318.22 47.344 318.214 47.452 318.202 47.572C318.202 47.692 318.196 47.806 318.184 47.914H310.174V46.42H316.996L316.114 46.888C316.126 46.336 316.012 45.85 315.772 45.43C315.532 45.01 315.202 44.68 314.782 44.44C314.374 44.2 313.9 44.08 313.36 44.08C312.808 44.08 312.322 44.2 311.902 44.44C311.494 44.68 311.17 45.016 310.93 45.448C310.702 45.868 310.588 46.366 310.588 46.942V47.302C310.588 47.878 310.72 48.388 310.984 48.832C311.248 49.276 311.62 49.618 312.1 49.858C312.58 50.098 313.132 50.218 313.756 50.218C314.296 50.218 314.782 50.134 315.214 49.966C315.646 49.798 316.03 49.534 316.366 49.174L317.572 50.56C317.14 51.064 316.594 51.454 315.934 51.73C315.286 51.994 314.542 52.126 313.702 52.126ZM332.513 42.28C333.281 42.28 333.959 42.43 334.547 42.73C335.147 43.03 335.615 43.492 335.951 44.116C336.287 44.728 336.455 45.52 336.455 46.492V52H334.205V46.78C334.205 45.928 334.019 45.292 333.647 44.872C333.275 44.452 332.741 44.242 332.045 44.242C331.553 44.242 331.115 44.35 330.731 44.566C330.359 44.782 330.065 45.1 329.849 45.52C329.645 45.94 329.543 46.474 329.543 47.122V52H327.293V46.78C327.293 45.928 327.107 45.292 326.735 44.872C326.363 44.452 325.829 44.242 325.133 44.242C324.641 44.242 324.203 44.35 323.819 44.566C323.447 44.782 323.153 45.1 322.937 45.52C322.733 45.94 322.631 46.474 322.631 47.122V52H320.381V42.388H322.523V44.944L322.145 44.188C322.469 43.564 322.937 43.09 323.549 42.766C324.173 42.442 324.881 42.28 325.673 42.28C326.573 42.28 327.353 42.502 328.013 42.946C328.685 43.39 329.129 44.062 329.345 44.962L328.463 44.656C328.775 43.936 329.291 43.36 330.011 42.928C330.731 42.496 331.565 42.28 332.513 42.28ZM343.668 52.126C342.684 52.126 341.808 51.916 341.04 51.496C340.272 51.064 339.666 50.476 339.222 49.732C338.778 48.988 338.556 48.142 338.556 47.194C338.556 46.234 338.778 45.388 339.222 44.656C339.666 43.912 340.272 43.33 341.04 42.91C341.808 42.49 342.684 42.28 343.668 42.28C344.664 42.28 345.546 42.49 346.314 42.91C347.094 43.33 347.7 43.906 348.132 44.638C348.576 45.37 348.798 46.222 348.798 47.194C348.798 48.142 348.576 48.988 348.132 49.732C347.7 50.476 347.094 51.064 346.314 51.496C345.546 51.916 344.664 52.126 343.668 52.126ZM343.668 50.2C344.22 50.2 344.712 50.08 345.144 49.84C345.576 49.6 345.912 49.252 346.152 48.796C346.404 48.34 346.53 47.806 346.53 47.194C346.53 46.57 346.404 46.036 346.152 45.592C345.912 45.136 345.576 44.788 345.144 44.548C344.712 44.308 344.226 44.188 343.686 44.188C343.134 44.188 342.642 44.308 342.21 44.548C341.79 44.788 341.454 45.136 341.202 45.592C340.95 46.036 340.824 46.57 340.824 47.194C340.824 47.806 340.95 48.34 341.202 48.796C341.454 49.252 341.79 49.6 342.21 49.84C342.642 50.08 343.128 50.2 343.668 50.2ZM355.306 55.618C354.418 55.618 353.548 55.498 352.696 55.258C351.856 55.03 351.166 54.694 350.626 54.25L351.634 52.558C352.054 52.906 352.582 53.182 353.218 53.386C353.866 53.602 354.52 53.71 355.18 53.71C356.236 53.71 357.01 53.464 357.502 52.972C357.994 52.492 358.24 51.766 358.24 50.794V49.084L358.42 46.906L358.348 44.728V42.388H360.49V50.542C360.49 52.282 360.046 53.56 359.158 54.376C358.27 55.204 356.986 55.618 355.306 55.618ZM355.018 51.568C354.106 51.568 353.278 51.376 352.534 50.992C351.802 50.596 351.22 50.05 350.788 49.354C350.368 48.658 350.158 47.842 350.158 46.906C350.158 45.982 350.368 45.172 350.788 44.476C351.22 43.78 351.802 43.24 352.534 42.856C353.278 42.472 354.106 42.28 355.018 42.28C355.834 42.28 356.566 42.442 357.214 42.766C357.862 43.09 358.378 43.594 358.762 44.278C359.158 44.962 359.356 45.838 359.356 46.906C359.356 47.974 359.158 48.856 358.762 49.552C358.378 50.236 357.862 50.746 357.214 51.082C356.566 51.406 355.834 51.568 355.018 51.568ZM355.36 49.66C355.924 49.66 356.428 49.546 356.872 49.318C357.316 49.078 357.658 48.754 357.898 48.346C358.15 47.926 358.276 47.446 358.276 46.906C358.276 46.366 358.15 45.892 357.898 45.484C357.658 45.064 357.316 44.746 356.872 44.53C356.428 44.302 355.924 44.188 355.36 44.188C354.796 44.188 354.286 44.302 353.83 44.53C353.386 44.746 353.038 45.064 352.786 45.484C352.546 45.892 352.426 46.366 352.426 46.906C352.426 47.446 352.546 47.926 352.786 48.346C353.038 48.754 353.386 49.078 353.83 49.318C354.286 49.546 354.796 49.66 355.36 49.66ZM363.448 52V42.388H365.59V45.034L365.338 44.26C365.626 43.612 366.076 43.12 366.688 42.784C367.312 42.448 368.086 42.28 369.01 42.28V44.422C368.914 44.398 368.824 44.386 368.74 44.386C368.656 44.374 368.572 44.368 368.488 44.368C367.636 44.368 366.958 44.62 366.454 45.124C365.95 45.616 365.698 46.354 365.698 47.338V52H363.448ZM376.155 52V50.056L376.029 49.642V46.24C376.029 45.58 375.831 45.07 375.435 44.71C375.039 44.338 374.439 44.152 373.635 44.152C373.095 44.152 372.561 44.236 372.033 44.404C371.517 44.572 371.079 44.806 370.719 45.106L369.837 43.468C370.353 43.072 370.965 42.778 371.673 42.586C372.393 42.382 373.137 42.28 373.905 42.28C375.297 42.28 376.371 42.616 377.127 43.288C377.895 43.948 378.279 44.974 378.279 46.366V52H376.155ZM373.131 52.126C372.411 52.126 371.781 52.006 371.241 51.766C370.701 51.514 370.281 51.172 369.981 50.74C369.693 50.296 369.549 49.798 369.549 49.246C369.549 48.706 369.675 48.22 369.927 47.788C370.191 47.356 370.617 47.014 371.205 46.762C371.793 46.51 372.573 46.384 373.545 46.384H376.335V47.878H373.707C372.939 47.878 372.423 48.004 372.159 48.256C371.895 48.496 371.763 48.796 371.763 49.156C371.763 49.564 371.925 49.888 372.249 50.128C372.573 50.368 373.023 50.488 373.599 50.488C374.151 50.488 374.643 50.362 375.075 50.11C375.519 49.858 375.837 49.486 376.029 48.994L376.407 50.344C376.191 50.908 375.801 51.346 375.237 51.658C374.685 51.97 373.983 52.126 373.131 52.126ZM393.298 42.28C394.066 42.28 394.744 42.43 395.332 42.73C395.932 43.03 396.4 43.492 396.736 44.116C397.072 44.728 397.24 45.52 397.24 46.492V52H394.99V46.78C394.99 45.928 394.804 45.292 394.432 44.872C394.06 44.452 393.526 44.242 392.83 44.242C392.338 44.242 391.9 44.35 391.516 44.566C391.144 44.782 390.85 45.1 390.634 45.52C390.43 45.94 390.328 46.474 390.328 47.122V52H388.078V46.78C388.078 45.928 387.892 45.292 387.52 44.872C387.148 44.452 386.614 44.242 385.918 44.242C385.426 44.242 384.988 44.35 384.604 44.566C384.232 44.782 383.938 45.1 383.722 45.52C383.518 45.94 383.416 46.474 383.416 47.122V52H381.166V42.388H383.308V44.944L382.93 44.188C383.254 43.564 383.722 43.09 384.334 42.766C384.958 42.442 385.666 42.28 386.458 42.28C387.358 42.28 388.138 42.502 388.798 42.946C389.47 43.39 389.914 44.062 390.13 44.962L389.248 44.656C389.56 43.936 390.076 43.36 390.796 42.928C391.516 42.496 392.35 42.28 393.298 42.28ZM406.038 52V50.056L405.912 49.642V46.24C405.912 45.58 405.714 45.07 405.318 44.71C404.922 44.338 404.322 44.152 403.518 44.152C402.978 44.152 402.444 44.236 401.916 44.404C401.4 44.572 400.962 44.806 400.602 45.106L399.72 43.468C400.236 43.072 400.848 42.778 401.556 42.586C402.276 42.382 403.02 42.28 403.788 42.28C405.18 42.28 406.254 42.616 407.01 43.288C407.778 43.948 408.162 44.974 408.162 46.366V52H406.038ZM403.014 52.126C402.294 52.126 401.664 52.006 401.124 51.766C400.584 51.514 400.164 51.172 399.864 50.74C399.576 50.296 399.432 49.798 399.432 49.246C399.432 48.706 399.558 48.22 399.81 47.788C400.074 47.356 400.5 47.014 401.088 46.762C401.676 46.51 402.456 46.384 403.428 46.384H406.218V47.878H403.59C402.822 47.878 402.306 48.004 402.042 48.256C401.778 48.496 401.646 48.796 401.646 49.156C401.646 49.564 401.808 49.888 402.132 50.128C402.456 50.368 402.906 50.488 403.482 50.488C404.034 50.488 404.526 50.362 404.958 50.11C405.402 49.858 405.72 49.486 405.912 48.994L406.29 50.344C406.074 50.908 405.684 51.346 405.12 51.658C404.568 51.97 403.866 52.126 403.014 52.126Z" fill="white"/>
<path id="Vector" d="M521.791 41.5397H530.211C530.544 41.5392 530.869 41.6329 531.151 41.8099C531.432 41.9869 531.658 42.2399 531.801 42.5397C531.969 42.8955 532.034 43.2913 531.988 43.682C531.942 44.0727 531.787 44.4427 531.541 44.7497L527.331 49.8497C527.166 50.0404 526.962 50.1932 526.732 50.298C526.503 50.4028 526.254 50.457 526.001 50.457C525.749 50.457 525.5 50.4028 525.27 50.298C525.041 50.1932 524.836 50.0404 524.671 49.8497L520.461 44.7497C520.215 44.4427 520.06 44.0727 520.014 43.682C519.969 43.2913 520.033 42.8955 520.201 42.5397C520.345 42.2399 520.57 41.9869 520.852 41.8099C521.133 41.6329 521.459 41.5392 521.791 41.5397Z" fill="white"/>
</g>
<g id="Group 1420">
<path id="Vector_2" d="M30.1786 14.2499V81.8924C28.7143 93.7138 12.6073 94.1067 10.2144 82.6067V14.2499C9.96443 14.0356 6.89302 14.9285 6.32159 12.9285C5.75017 10.9285 6.0716 3.10713 6.28588 1.60713C6.50016 0.107142 6.42874 0.75 6.67873 0.428574L8.17873 0L33 0.178571C33.6072 0.499997 33.6429 0.999995 33.7143 1.60713C33.8929 2.85713 33.8929 12.5714 33.6429 13.3571C33.25 14.4642 31.0715 14.3571 30.1429 14.3214L30.1786 14.2499ZM30.8929 2.82142H9.64301C8.82158 3.32141 9.46444 3.57141 9.46444 3.71427V11.3928H30.8929V2.82142ZM27.3215 14.2499H13.0358V34.2498H27.3215V14.2499ZM27.3215 37.1069H13.0358V82.2853C13.0358 82.5353 14.0358 84.571 14.3216 84.9281C17.1787 89.071 23.5358 89.0353 26.2143 84.7139C28.8929 80.3924 27.3572 82.2853 27.3572 81.9281V37.1069H27.3215Z" fill="#0E9FE9"/>
<path id="Vector_3" d="M61.4999 12.5371C63.3928 12.0372 64.2856 14.5728 65.3571 15.7157C76.0356 27.1442 90.3212 41.7156 85.7141 58.9298C80.1784 79.5725 52 82.7153 41.4286 64.2869C30.2144 44.7513 49.8929 26.2514 61.4999 12.5371ZM62.1428 16.3943C51.2143 28.8585 32.9644 46.8584 44.8929 64.3583C53.3928 76.8225 72.607 76.644 80.4641 63.644C91.1784 45.9298 73.2499 28.5014 62.1428 16.3943Z" fill="#0E9FE9"/>
<path id="Vector_4" d="M27.3214 37.1094V81.9306C27.3214 82.2877 26.4642 84.2877 26.1785 84.7163C23.5 89.0377 17.1428 89.0734 14.2857 84.9306C11.4286 80.7877 13 82.502 13 82.2877V37.1094H27.2857H27.3214Z" fill="white"/>
<path id="Vector_5" d="M27.3213 14.2539H13.0356V34.2538H27.3213V14.2539Z" fill="white"/>
<path id="Vector_6" d="M30.8929 2.82031V11.3917H9.46444V3.71316C9.46444 3.57031 8.82158 3.32031 9.64301 2.82031H30.8929Z" fill="white"/>
<path id="Vector_7" d="M62.1427 16.3945C73.2498 28.4659 91.1783 45.9301 80.464 63.6443C72.6069 76.6442 53.357 76.8228 44.8928 64.3586C33 46.8587 51.2142 28.8588 62.1427 16.3945ZM55.107 38.6444C43.3571 39.6801 47.2142 57.8586 58.6427 53.6086C66.5712 50.6801 63.9641 37.8587 55.107 38.6444ZM72.2498 45.073C71.6784 45.2158 70.8569 46.0015 70.3569 46.3944C68.0355 48.3229 60.7141 55.3943 59.107 57.6443C56.5713 61.18 64.0713 63.43 66.7141 63.3943C72.6069 63.3229 77.714 57.8586 77.2855 51.9658C76.8569 46.0729 75.1783 44.2515 72.2498 45.0372V45.073Z" fill="white"/>
<path id="Vector_8" d="M72.2498 45.074C75.2141 44.2883 77.1069 49.6455 77.2855 52.0026C77.7141 57.8954 72.607 63.3597 66.7141 63.4311C60.8213 63.5025 56.5713 61.2168 59.107 57.6811C61.6427 54.1454 68.0355 48.324 70.357 46.4312C72.6784 44.5383 71.6784 45.2526 72.2498 45.1098V45.074ZM61.9641 59.2525C69.4641 63.2168 77.6426 55.7883 73.0355 48.1812L61.9641 59.2525Z" fill="#0E9FE9"/>
<path id="Vector_9" d="M55.107 38.6479C63.9641 37.8622 66.5355 50.6835 58.6427 53.6121C47.2499 57.8264 43.357 39.6836 55.107 38.6479ZM54.357 41.8622C49.6427 42.8264 49.8927 50.6121 54.9998 51.0764C62.3569 51.7193 61.7141 40.3622 54.357 41.8622Z" fill="#0E9FE9"/>
<path id="Vector_10" d="M61.9641 59.2511L73.0355 48.1797C77.6783 55.7868 69.4641 63.2153 61.9641 59.2511Z" fill="white"/>
<path id="Vector_11" d="M54.357 41.8589C61.7141 40.3589 62.3569 51.7517 54.9998 51.0732C49.8927 50.6089 49.6427 42.8232 54.357 41.8589Z" fill="white"/>
</g>
</g>
</svg>
