<svg width="100%" viewBox="0 0 582 151" fill="none" xmlns="http://www.w3.org/2000/svg">
<g id="Frame 886" clip-path="url(#clip0_878_820)">
<g id="Component 15">
<path id="Vector" d="M178.644 3H40.4289L26.0259 17.403H193.047L178.644 3Z" fill="#A57826"/>
<g id="Vector_2" filter="url(#filter0_d_878_820)">
<path d="M22.9799 136H555.02C561.084 136 566 131.513 566 125.977V26.0228C566 20.4874 561.084 16 555.02 16H22.9799C16.9159 16 12 20.4874 12 26.0228V125.977C12 131.513 16.9159 136 22.9799 136Z" fill="white"/>
</g>
<g id="Group">
<g id="Group_2">
<text id="Atraso no crescimento e no desenvolvimento." fill="#EAC130" xml:space="preserve" style="white-space: pre" font-family="'Montserrat', sans-serif" font-size="24" font-weight="bold" letter-spacing="0em"><tspan x="201" y="79.104">Atraso no crescimento e no </tspan><tspan x="201" y="108.104">desenvolvimento.</tspan></text>
</g>
</g>
<path id="Vector_3" d="M158.414 151H60.5863C49.2171 151 40 144.245 40 135.914V3H179V135.913C179 144.245 169.783 151 158.414 151Z" fill="#F2A71B"/>
<g id="Group_3">
<path id="Vector_4" d="M126.049 118.447C126.098 118.412 126.164 117.659 126.44 117.282C126.967 116.552 127.968 115.977 128.132 115.129C128.593 112.738 127.343 109.643 127.797 107.113C127.734 106.091 126.572 106.293 125.923 105.85C122.622 103.585 122.985 98.1866 123.264 94.5714C123.606 90.1222 124.908 85.5683 128.83 83.0628C121.463 75.8324 126.021 62.565 137.044 63.3536C144.052 63.8527 148.054 71.2296 146.463 77.6819C145.922 79.8803 144.338 81.5797 143.127 83.4013C145.029 84.7378 146.431 86.0813 147.374 88.2309C149.052 92.052 150.28 102.301 146.927 105.34C145.925 106.248 144.38 106.059 144.17 107.113C144.641 109.399 143.507 112.323 143.846 114.42C144.038 115.607 145.678 117.142 146.093 118.447H153.24V39.8339C153.24 39.7745 153.777 39.2197 153.941 39.1429C154.555 38.8533 160.871 38.8009 161.772 38.9719C162.156 39.0452 163 39.5721 163 39.8339V119.669C163 119.731 162.19 120.541 162.128 120.541H106.35C105.659 120.541 105.659 118.451 106.35 118.451H126.045L126.049 118.447ZM160.91 41.0517H155.333V118.444H160.91V106.59L158.352 106.604C156.83 104.628 159.256 104.262 160.91 104.499V95.7788C159.765 95.7684 158.387 96.1208 157.839 94.8576L158.174 93.7374L160.91 93.6921V84.8285L158.174 84.5773L157.814 83.4501C158.6 82.2742 159.751 82.5184 160.906 82.8813V73.8154C156.809 74.3144 156.792 71.2296 160.91 71.7286L160.903 62.6627C159.716 63.2664 158.125 63.3083 157.755 61.7903L158.348 60.9737L160.91 60.9179V51.852L158.156 51.8206V50.1421L160.91 50.1107V41.0482V41.0517ZM135.397 65.1892C124.039 66.0022 125.075 85.0449 136.685 83.9352C148.33 82.822 146.704 64.3796 135.397 65.1892ZM143.828 118.447C143.455 117.669 142.719 117.041 142.37 116.249C141.155 113.492 142.52 109.339 142.453 106.405C142.432 105.417 141.647 105.047 141.459 104.259C140.995 102.304 142.513 100.807 142.453 98.389C142.425 97.2375 140.981 92.3381 142.917 92.6696C143.608 93.0779 143.957 93.8875 144.093 94.6517C144.261 95.5974 144.53 98.5007 144.523 99.4499C144.516 100.493 142.425 104.639 144.296 104.461C146.501 103.672 146.833 101.198 146.979 99.1149C147.248 95.3077 146.557 88.1925 143.106 85.8754C140.384 84.0469 139.899 85.687 137.341 85.9871C132.791 86.521 129.908 82.5743 127.022 87.8749C125.347 90.9493 124.754 98.4379 125.431 101.809C125.825 103.77 128.91 105.7 128.868 103.285C128.854 102.433 127.937 101.442 127.79 100.148C127.644 98.8532 127.947 93.3536 129.175 92.8092L130.247 93.2279C130.39 95.5171 129.556 97.8691 129.866 100.162C130.177 102.454 132.229 103.648 129.531 106.426L130.254 115.478C130.184 117.268 128.956 117.208 128.139 118.447H133.021V107.116C133.021 105.592 138.946 105.592 138.946 107.116V118.447H143.828ZM136.856 107.989H135.111V118.447H136.856V107.989Z" fill="#FFFBEB"/>
<path id="Vector_5" d="M94.4017 57.5156C94.1121 57.7982 93.0617 61.2006 92.1719 62.4324C90.9715 64.0899 89.1743 65.0426 88.0507 66.6722C90.6853 68.3053 93.1699 68.4031 95.2043 71.0272C98.2996 75.0193 98.0902 86.0115 97.8285 91.0993C97.5982 95.5171 97.1271 100.476 92.2906 102.119L91.5438 117.219C91.8264 118.73 94.1296 119.033 95.0229 120.363C99.0743 126.396 83.9819 125.227 82.8547 123.465L82.8198 101.013L80.8796 101.341L80.5481 123.322C79.728 125.154 74.6647 124.847 72.8885 124.718C70.3969 124.54 66.848 124.446 67.9856 120.869C68.6102 118.911 71.4228 118.876 71.6671 117.575C71.5869 112.428 71.6985 107.113 70.7738 102.081C66.2932 99.8477 65.6581 95.6881 65.3754 91.0923C64.9601 84.2841 64.161 71.7914 71.0809 68.1797C71.7474 67.8308 76.1652 66.6199 75.8476 66.1558C73.6597 65.3287 71.7334 63.1303 70.5609 61.1552C70.0759 60.3351 69.3884 58.1995 69.0429 57.7947C68.6975 57.3899 67.6262 57.2259 66.9562 56.7444C65.2253 55.5021 64.8101 53.7747 65.0718 51.7159C65.2323 50.4492 66.2513 49.3953 66.3385 48.8474C66.4188 48.331 65.9826 47.5772 66.0698 46.8235C66.52 43.0268 67.3365 39.6105 69.9119 36.6862C77.4145 28.1682 95.3684 31.7066 96.7258 43.7038C96.8898 45.145 96.5339 46.8723 96.7781 48.1844C97.1446 50.1491 99.0882 50.8086 98.3554 53.9771C97.6226 57.1457 95.473 56.4722 94.4017 57.5191V57.5156ZM73.0629 45.9336L71.5205 49.8001C70.1561 50.8539 67.1237 48.7427 66.8934 52.4277C66.6631 56.1127 70.2259 55.1566 70.7982 56.0325C71.1018 56.5001 71.4752 58.8835 72.0719 59.9862C76.221 67.6598 87.2167 67.8831 91.2472 60.1118C91.8299 58.9917 92.3743 56.036 92.7407 55.68C93.3549 55.0798 95.7627 55.6521 96.3419 53.7014C97.3086 50.4561 94.0842 50.0234 93.9795 49.5698C97.3923 42.0113 90.9854 34.7705 83.3328 34.0795C73.9807 33.235 67.9891 38.6334 68.1705 48.0204L70.2189 47.975C72.3825 37.782 75.8965 47.1899 79.1209 46.649C80.1224 45.2148 79.5501 43.0373 81.9265 43.1175C83.099 43.1594 90.469 46.2686 91.652 47.0189C91.973 47.2213 92.4371 47.5074 92.5069 47.8913C92.3743 49.5907 91.6031 49.1231 90.291 48.7288C89.0766 48.3624 82.1149 44.9182 81.7695 45.2287C81.8113 45.8569 80.911 48.6206 80.4853 48.7253C77.7146 49.4093 73.4259 45.651 73.056 45.9267L73.0629 45.9336ZM70.9657 99.6209V80.2711C70.9657 78.9451 72.4558 77.2108 73.056 79.2277C72.9338 90.6422 73.1293 102.029 73.391 113.405C73.4433 115.659 74.8008 118.182 72.536 119.843C71.6915 120.461 69.5489 120.764 69.9223 122.097L70.4423 122.628H78.4613C78.9603 122.321 78.9429 121.933 79.0022 121.424C79.3372 118.58 78.6777 115.436 78.6219 112.703C78.5416 108.753 78.7021 104.792 78.6428 100.842L78.9568 100.113C80.7261 98.7066 84.4355 98.2809 84.8891 101.205C85.8104 107.158 83.8039 115.125 84.5437 121.42C84.603 121.926 84.5855 122.317 85.0846 122.624H93.1036L93.6236 121.759C92.5243 120.23 90.0502 120.045 89.7711 117.938C89.279 114.211 90.1026 110.121 90.1514 106.429C90.2805 97.1328 90.0258 87.8261 90.1375 78.5263L90.6609 77.6574L91.7113 77.9924C91.638 78.795 92.2242 80.4491 92.2242 80.9656V99.9663C94.831 98.7659 95.4207 96.1313 95.7034 93.5106C96.2268 88.695 96.3036 80.4979 95.2706 75.8254C94.0214 70.1793 91.0168 70.8981 87.0736 68.6752C86.4211 68.3053 86.442 67.5411 85.7755 67.5027C85.0392 67.4609 84.1842 67.8936 83.3467 67.904C82.0731 67.9215 78.6637 67.4609 77.9204 67.6842C77.3377 67.8587 76.7026 68.595 75.9384 68.8637C72.4278 70.106 70.0724 69.6907 68.4497 73.9271C66.8166 78.1844 66.5688 93.9817 68.7917 97.7714C68.9976 98.1238 70.533 100.092 70.9552 99.6174L70.9657 99.6209Z" fill="#FFFBEB"/>
<path id="Vector_6" d="M105.83 81.1436L108.852 78.4043C109.85 78.1286 110.206 78.9975 109.958 79.8524C109.875 80.1386 106.479 84.2633 106.207 84.4796C105.561 85.0031 104.825 85.2578 104.085 84.8007C103.876 84.6715 101.14 81.6007 100.77 81.1436C100.421 80.7144 99.5524 79.6954 99.5454 79.2138C100.68 76.7397 102.424 80.0793 103.736 80.7911V57.2609C103.736 56.5699 105.827 56.5699 105.827 57.2609V81.1401L105.83 81.1436Z" fill="#FFFBEB"/>
<path id="Vector_7" d="M137.899 79.4023C138.576 82.4173 133.324 82.3999 134.085 79.9467C134.319 79.193 136.95 79.8455 137.899 79.4023Z" fill="#FFFBEB"/>
<path id="Vector_8" d="M131.499 75.2708C132.145 75.0893 134.647 74.9916 134.41 76.0839C133.335 77.6751 131.971 77.6995 131.084 75.9268C130.784 75.6686 131.269 75.3371 131.499 75.2743V75.2708Z" fill="#FFFBEB"/>
<path id="Vector_9" d="M140.688 75.2182C140.635 77.8598 138.58 78.0343 137.561 75.7381C138.315 74.8203 139.655 75.3194 140.688 75.2182Z" fill="#FFFBEB"/>
<path id="Vector_10" d="M79.0371 60.2762C79.2988 60.1087 83.6747 60.0563 84.3168 60.2971C85.3183 60.6705 85.1194 62.2897 84.0725 62.3036C83.5247 62.3106 82.7535 61.9372 81.9474 61.9372C80.6562 61.9372 79.3686 62.9073 78.7056 61.3963L79.0371 60.2762Z" fill="#FFFBEB"/>
<path id="Vector_11" d="M76.0606 52.9305C77.9484 52.3128 78.8208 55.4884 76.9225 55.8827C75.2894 56.2212 74.9753 53.2864 76.0606 52.9305Z" fill="#FFFBEB"/>
<path id="Vector_12" d="M87.262 53.3421C88.0332 54.1133 87.8343 56.057 86.1558 55.6871C83.6189 55.1287 85.6114 51.695 87.262 53.3421Z" fill="#FFFBEB"/>
</g>
</g>
</g>
<defs>
<filter id="filter0_d_878_820" x="12" y="16" width="570" height="136" filterUnits="userSpaceOnUse" color-interpolation-filters="sRGB">
<feFlood flood-opacity="0" result="BackgroundImageFix"/>
<feColorMatrix in="SourceAlpha" type="matrix" values="0 0 0 0 0 0 0 0 0 0 0 0 0 0 0 0 0 0 127 0" result="hardAlpha"/>
<feOffset dx="8" dy="8"/>
<feGaussianBlur stdDeviation="4"/>
<feComposite in2="hardAlpha" operator="out"/>
<feColorMatrix type="matrix" values="0 0 0 0 0 0 0 0 0 0 0 0 0 0 0 0 0 0 0.25 0"/>
<feBlend mode="normal" in2="BackgroundImageFix" result="effect1_dropShadow_878_820"/>
<feBlend mode="normal" in="SourceGraphic" in2="effect1_dropShadow_878_820" result="shape"/>
</filter>
<clipPath id="clip0_878_820">
<rect width="582" height="151" fill="white"/>
</clipPath>
</defs>
</svg>