<svg width="100%" viewBox="0 0 574 156" fill="none" xmlns="http://www.w3.org/2000/svg">
<g id="Frame 887" clip-path="url(#clip0_878_826)">
<g id="Component 14">
<path id="Vector" d="M172.644 2H34.4289L20.0259 16.403H187.047L172.644 2Z" fill="#A57826"/>
<g id="Vector_2" filter="url(#filter0_d_878_826)">
<path d="M16.9799 135H549.02C555.084 135 560 130.513 560 124.977V25.0228C560 19.4874 555.084 15 549.02 15H16.9799C10.9159 15 6 19.4874 6 25.0228V124.977C6 130.513 10.9159 135 16.9799 135Z" fill="white"/>
</g>
<g id="Group">
<g id="Group_2">
<text id="Baixo peso ao nascer." fill="#EAC130" xml:space="preserve" style="white-space: pre" font-family="'Montserrat', sans-serif" font-size="24" font-weight="bold" letter-spacing="0em"><tspan x="195" y="78.104">Baixo peso ao nascer.&#13;</tspan></text>
</g>
</g>
<path id="Vector_3" d="M152.414 150H54.5863C43.2171 150 34 143.245 34 134.914V2H173V134.913C173 143.245 163.783 150 152.414 150Z" fill="#EAC130"/>
<g id="Group_3">
<path id="Vector_4" d="M70.7016 65.3915C70.6458 64.4956 70.9126 63.4485 70.5065 62.6045C70.2716 62.1187 65.677 59.1844 64.5343 57.8386C54.3816 45.8942 65.5536 26.5921 81.4635 29.7733C85.5405 30.5895 89.0522 33.7547 91.2937 34.2922C92.1856 34.5072 92.9221 34.0534 93.7941 34.1449C95.5738 34.3281 97.7357 35.849 98.2812 37.6128C99.1372 40.368 97.4013 42.7489 99.3443 45.5041C109.545 41.431 122.56 36.713 130.965 46.6905C131.698 47.5625 133.394 50.8711 133.605 51.0064C134.238 51.4086 136.758 50.3535 138.932 51.4524C142.575 53.2918 148.053 63.5759 140.321 63.4167L140.306 65.3875H153.632C153.851 65.3875 154.834 66.0842 154.961 66.4466C155.419 70.9655 151.732 74.935 147.874 76.7347C146.632 77.312 143.312 78.5144 142.097 78.5144H124.396V83.6823C128.584 83.8018 132.864 85.8323 135.309 89.2803C137.53 92.4097 143.861 111.417 144.243 115.355C144.661 119.635 142.022 122.828 137.734 123.083C116.345 121.861 93.2566 124.652 72.0712 123.083C68.4441 122.816 65.4859 121.295 65.1076 117.322C64.7294 113.348 69.0572 100.592 70.6817 96.204C73.2935 89.1369 76.8888 84.2955 84.9951 83.6704L85.0149 78.5184H66.9152C64.813 78.5184 60.1069 76.4599 58.3989 75.1023C56.6112 73.6849 53.0677 68.8195 54.1785 66.5859C54.3139 66.3112 55.6079 65.3955 55.7791 65.3955H70.6936L70.7016 65.3915ZM87.0097 65.3915C87.7781 63.3729 90.7284 62.6204 92.5439 61.1831C96.4258 58.1054 98.7351 54.0881 98.0423 48.9878C97.7358 46.7303 95.7928 44.0747 95.7291 42.51C95.6494 40.5471 97.3734 40.1251 95.757 37.7442C93.9613 35.1005 92.309 37.0793 90.5811 36.5935C89.741 36.3586 87.0335 34.0653 85.4131 33.3765C76.5265 29.6061 68.6711 31.772 64.5423 40.7343C61.1341 48.1278 63.093 53.4749 68.9219 58.619C71.685 61.0596 74.0062 60.4425 72.6923 65.3915H87.0097ZM90.589 65.3915H110.875C112.618 61.4857 111.723 55.9753 106.499 56.6442L106.559 54.7132C112.654 52.8021 115.589 60.546 113.263 65.3915H117.635C115.318 62.0431 115.672 58.2925 117.699 54.9202C118.264 53.9806 121.724 50.0947 122.405 52.4796C122.656 53.3515 118.678 56.6561 118.427 59.6303C117.782 67.2269 125.148 65.2043 130.157 65.3875L133.696 62.6323C135.07 63.3609 134.516 64.1493 134.345 65.3915C137.865 65.706 139.653 65.3357 137.3 61.84C136.73 60.9959 132.474 56.7836 131.749 56.6482C130.909 56.4929 128.293 57.0503 127.979 56.039C127.461 54.3588 130.587 54.0443 131.558 54.2553C131.765 50.1982 127.995 46.0217 124.479 44.4291C116.528 40.8298 107.578 44.7436 100.196 47.9487C100.909 52.392 99.7265 56.68 96.9554 60.2156L104.91 59.8254C105.01 62.8752 100.387 61.9156 98.3528 62.2143C95.5539 62.6244 92.52 63.0822 90.593 65.3915H90.589ZM141.858 60.98C141.631 57.0463 138.586 51.6873 133.959 53.475C133.445 55.7922 135.846 56.6601 137.327 58.2288C138.896 59.8891 138.996 62.27 141.858 60.98ZM152.636 67.7804H56.3803C58.1361 73.3026 62.9656 75.7632 68.4919 76.1494C92.0542 77.7977 117.532 74.8833 141.293 76.1255C146.361 75.6278 151.227 72.9085 152.636 67.7804ZM122.409 78.5184H87.4078V83.6903H122.409V78.5184ZM83.7289 86.1787C80.6114 86.7759 77.8643 88.1575 75.9372 90.7176C73.6797 93.7196 68.1495 110.275 67.6199 114.22C67.1183 117.951 67.8946 120.511 72.0752 120.698H137.339C140.517 120.583 142.137 118.528 141.807 115.423C141.392 111.525 137.096 98.6805 135.44 94.7229C133.354 89.7381 130.746 86.5569 125.009 86.0632C111.874 84.9365 97.039 86.8516 83.7289 86.1787Z" fill="#FFFBEB"/>
<path id="Vector_5" d="M116.301 113.778C104.261 125.814 79.652 111.441 92.0145 95.6548C104.683 79.4781 130.34 99.7478 116.301 113.778ZM102.92 92.4378C88.686 93.2819 86.9699 113.695 101.968 115.467C120.936 117.708 123.376 94.8665 105.703 92.4378C106.519 97.5699 102.103 97.5858 102.916 92.4378H102.92Z" fill="#FFFBEB"/>
<path id="Vector_6" d="M88.5743 42.7448C90.6288 46.1529 87.344 50.3056 83.49 49.4217L83.1993 47.4748C83.6891 46.8059 86.4204 47.5743 86.9459 45.6115C87.2923 44.3255 85.8669 42.6532 88.5783 42.7448H88.5743Z" fill="#FFFBEB"/>
<path id="Vector_7" d="M74.5955 41.6146C76.3474 42.6059 76.8013 49.9278 73.2936 49.8841C71.7687 48.7692 73.5365 47.754 73.7913 46.8024C74.4204 44.4852 72.2903 43.7208 72.6844 41.5309C73.2617 41.5907 74.1138 41.3438 74.5916 41.6146H74.5955Z" fill="#FFFBEB"/>
<path id="Vector_8" d="M81.2326 53.5469C85.2977 55.0837 79.9705 60.8568 77.4662 59.6345C74.3606 58.1176 79.433 57.1143 79.879 56.4733C80.5001 55.5695 79.9586 54.0884 81.2326 53.5469Z" fill="#FFFBEB"/>
<path id="Vector_9" d="M69.1648 53.7975C68.8861 53.3476 69.2404 51.7032 69.0931 50.891C68.8542 49.597 67.0944 48.6773 67.9265 47.1086C70.837 46.4039 72.3897 52.2885 70.9007 53.8771C70.61 54.4743 69.2882 53.9926 69.1648 53.7975Z" fill="#FFFBEB"/>
<path id="Vector_10" d="M91.2199 55.2151C91.0068 55.5022 91.159 56.8478 90.8287 57.5614C89.6815 60.0498 88.3429 57.1214 89.1246 54.8652C89.8462 52.7822 93.5645 50.4244 93.1883 54.0551C92.8584 54.8008 91.4692 54.8707 91.2154 55.2117L91.2199 55.2151Z" fill="#FFFBEB"/>
<path id="Vector_11" d="M108.768 99.668C110.118 99.2778 110.687 100.066 110.484 101.372C110.269 102.754 108.334 102.925 108.159 103.825C107.928 104.995 109.756 106.018 107.873 108.73C104.309 113.87 96.4497 107.121 101.522 102.778C103.728 100.89 104.89 102.292 106.077 101.798C106.766 101.511 108.032 99.883 108.768 99.668ZM103.015 104.474C101.741 105.768 102.621 108.586 105.018 107.882C108.342 106.906 105.018 102.431 103.015 104.474Z" fill="#FFFBEB"/>
</g>
</g>
</g>
<defs>
<filter id="filter0_d_878_826" x="6" y="15" width="570" height="136" filterUnits="userSpaceOnUse" color-interpolation-filters="sRGB">
<feFlood flood-opacity="0" result="BackgroundImageFix"/>
<feColorMatrix in="SourceAlpha" type="matrix" values="0 0 0 0 0 0 0 0 0 0 0 0 0 0 0 0 0 0 127 0" result="hardAlpha"/>
<feOffset dx="8" dy="8"/>
<feGaussianBlur stdDeviation="4"/>
<feComposite in2="hardAlpha" operator="out"/>
<feColorMatrix type="matrix" values="0 0 0 0 0 0 0 0 0 0 0 0 0 0 0 0 0 0 0.25 0"/>
<feBlend mode="normal" in2="BackgroundImageFix" result="effect1_dropShadow_878_826"/>
<feBlend mode="normal" in="SourceGraphic" in2="effect1_dropShadow_878_826" result="shape"/>
</filter>
<clipPath id="clip0_878_826">
<rect width="574" height="156" fill="white"/>
</clipPath>
</defs>
</svg>
