<svg width="554" height="148" viewBox="0 0 554 148" fill="none" xmlns="http://www.w3.org/2000/svg">
<g id="Component 13">
<path id="Vector" d="M166.644 0H28.4289L14.0259 14.403H181.047L166.644 0Z" fill="#027EC7"/>
<g id="Vector_2" filter="url(#filter0_d_653_5100)">
<path d="M10.9799 133H543.02C549.084 133 554 128.513 554 122.977V23.0228C554 17.4874 549.084 13 543.02 13H10.9799C4.9159 13 0 17.4874 0 23.0228V122.977C0 128.513 4.9159 133 10.9799 133Z" fill="white"/>
</g>
<g id="Group">
<g id="Group_2">
<text id="Perda de peso significativa." fill="#027EC7" xml:space="preserve" style="white-space: pre" font-family="'Montserrat', sans-serif" font-size="24" font-weight="bold" letter-spacing="0em"><tspan x="189" y="78.104">Perda de peso significativa.</tspan></text>
</g>
</g>
<path id="Vector_3" d="M146.414 148H48.5863C37.2171 148 28 141.245 28 132.914V0H167V132.913C167 141.245 157.783 148 146.414 148Z" fill="#38B8F8"/>
<g id="Group_3">
<path id="Vector_4" d="M103.751 50.7797C113.419 53.3881 116.255 53.7208 118.413 63.8876C119.704 69.9535 121.446 79.1049 122.067 85.1534C122.496 89.3374 120.916 92.8824 116.198 92.3441C111.178 91.7751 113.196 84.9083 113.327 81.6608L110.75 73.0871C110.846 78.6935 110.61 84.3262 110.728 89.937C110.78 92.5235 111.581 95.4777 111.209 98.2525C111.017 99.688 110.076 99.8412 109.879 100.857C109.362 103.522 109.962 108.739 109.892 111.798C109.861 113.115 109.266 114.319 109.402 115.724C109.669 118.455 114.662 118.923 115.109 122.311C115.87 128.083 105.108 125.308 101.791 125.545C100.11 125.234 99.9219 123.23 99.7994 121.855C99.1998 115.33 100.263 107.898 99.8344 101.268L97.633 96.2611C95.576 104.362 97.4666 113.137 96.7708 121.413C96.5563 123.93 96.3069 125.672 93.484 126C91.1512 126.271 81.886 126.613 81.0982 123.925C79.7721 119.4 86.4026 118.945 86.7309 115.728C86.8709 114.328 86.2714 113.12 86.2407 111.798C86.1794 109.176 86.7922 102.432 86.2626 100.502C86.1225 99.9987 84.6258 99.9856 84.4813 97.7754C84.2406 94.0728 85.2954 88.1776 85.4004 84.2518C85.4967 80.6849 85.2954 77.0873 85.3785 73.5204C84.5382 73.6736 84.6564 74.4351 84.4857 75.0303C84.0568 76.5227 82.8489 81.2407 82.7832 82.5405C82.6913 84.278 83.7504 85.8405 83.6498 87.7137C83.2734 94.7556 73.1591 94.0466 74.0563 85.149C74.6778 79.0043 76.3847 69.5552 77.6451 63.3799C79.6058 53.7908 82.932 53.5194 91.6677 50.8103L91.9346 49.9131C90.5867 49.4317 89.068 48.4382 88.0001 47.506C84.849 44.7531 84.7352 42.9325 80.8531 40.2234C78.1528 38.3371 77.3913 35.4923 78.0478 32.2974C78.411 30.538 80.2098 29.5226 80.4811 28.6123C80.8663 27.33 80.468 25.1636 80.6825 23.5661C83.0196 6.23924 111.222 4.72932 115.428 23.5749C115.835 25.3912 115.673 28.0652 116.076 29.4876C116.277 30.201 117.485 31.0369 117.875 32.4987C118.89 36.3195 117.586 38.3415 114.632 40.4597C111.454 42.7312 112.439 42.4073 110.093 45.1033C108.211 47.2697 105.927 48.9503 103.751 50.7753V50.7797ZM113.367 28.9231C115.301 9.08839 84.3019 6.19548 82.7657 26.087C82.6826 27.1768 82.4594 28.6167 83.4178 29.3563C86.4946 27.8377 87.011 24.901 89.2037 22.8702L97.1909 24.9885C96.7708 23.6843 97.0859 22.3144 98.6615 22.3844C100.237 22.4545 105.485 24.1745 107.104 24.9185C109.599 26.0608 110.977 27.842 113.362 28.9274L113.367 28.9231ZM100.259 25.4262C99.8519 29.5883 92.7137 26.9142 90.4116 25.4393C89.4794 27.5576 87.3086 30.6781 84.9715 31.3521C83.0371 31.9123 80.4636 30.8225 80.1441 33.9911C79.9647 35.7636 81.0851 37.7244 82.7438 38.3502C83.4222 38.6084 84.477 38.3808 84.8665 38.6216C85.0109 38.7135 85.9212 41.125 86.337 41.7421C92.0616 50.2326 101.699 51.9876 108.299 43.3133C109.143 42.206 110.058 39.7989 110.715 39.173C112.036 37.9213 115.052 38.5253 115.533 35.2297C116.198 30.6649 113.769 32.1092 111.485 31.4571C110.623 31.212 108.837 28.713 107.555 27.9558C105.353 26.656 102.592 26.3759 100.255 25.4218L100.259 25.4262ZM101.476 51.318C101.191 51.1473 95.2215 51.2086 94.8845 51.3049C94.2105 51.5018 92.6524 53.1212 91.5101 53.6289C87.7069 55.3182 83.7723 54.5436 81.5315 58.9551C79.2907 63.3667 78.6298 74.2907 77.8289 79.7352C77.5007 81.9672 74.6034 90.7598 79.387 90.0639C82.7701 89.5737 80.0697 84.243 80.236 82.1729L84.3763 64.0101L85.6061 63.2179L86.7134 63.7869C88.1226 69.8397 87.4224 76.0982 87.5799 82.2692C94.4949 83.022 101.279 83.5559 108.089 81.7878C108.233 77.026 107.997 71.9623 108.623 67.2356C108.911 65.0473 110.312 60.6007 111.857 64.7716C112.57 66.7017 116.106 82.3086 115.962 83.7485C115.8 85.3459 113.713 90.2783 117.096 90.0901C121.927 89.8232 118.334 80.059 117.879 77.1092C117.196 72.6845 116.216 60.4082 113.568 57.3752C110.92 54.3422 105.174 54.793 102.211 52.5391C101.817 52.2415 101.699 51.4449 101.489 51.318H101.476ZM102.657 98.0074C104.767 97.9505 106.889 98.0468 108.999 98.0074L107.9 84.4444C101.239 85.823 94.3068 85.4728 87.5756 84.8864L87.1379 98.0074L94.6 98.2481C96.5563 90.6547 99.1385 90.2127 101.349 98.0249L101.843 98.3838C102.228 98.4494 102.535 98.003 102.662 98.003L102.657 98.0074ZM83.6367 123.37H93.4752L94.1317 122.713V101.29C92.8625 100.007 90.5735 100.861 88.8842 100.633V117.903C88.4509 119.181 82.4112 122.17 83.6367 123.37ZM102.438 100.633V122.713C102.714 123.138 104.01 123.37 104.408 123.37H112.496C112.61 121.033 109.734 120.45 108.325 119.015C105.892 116.533 107.226 116.196 107.27 113.549C107.336 109.246 107.178 104.927 107.253 100.629H102.443L102.438 100.633Z" fill="#F5F6F6"/>
<path id="Vector_5" d="M95.3134 40.8232C96.8496 40.3811 102.754 40.5562 101.996 43.1253C101.629 44.3682 98.9109 43.3134 97.8474 43.3134C96.7839 43.3134 95.1296 43.9656 94.4162 43.7555C92.845 43.2959 94.1711 41.1558 95.3177 40.8232H95.3134Z" fill="#F5F6F6"/>
<path id="Vector_6" d="M93.217 32.9012C94.2324 33.5839 93.7684 38.6914 90.9324 36.8226C89.1862 35.6715 91.5014 31.7414 93.217 32.9012Z" fill="#F5F6F6"/>
<path id="Vector_7" d="M102.705 32.8926L104.189 33.072C105.533 33.7504 105.436 36.5952 103.905 37.1641L102.071 36.07C101.926 35.1815 101.686 33.2252 102.705 32.8926Z" fill="#F5F6F6"/>
</g>
</g>
<defs>
<filter id="filter0_d_653_5100" x="0" y="13" width="570" height="136" filterUnits="userSpaceOnUse" color-interpolation-filters="sRGB">
<feFlood flood-opacity="0" result="BackgroundImageFix"/>
<feColorMatrix in="SourceAlpha" type="matrix" values="0 0 0 0 0 0 0 0 0 0 0 0 0 0 0 0 0 0 127 0" result="hardAlpha"/>
<feOffset dx="8" dy="8"/>
<feGaussianBlur stdDeviation="4"/>
<feComposite in2="hardAlpha" operator="out"/>
<feColorMatrix type="matrix" values="0 0 0 0 0 0 0 0 0 0 0 0 0 0 0 0 0 0 0.25 0"/>
<feBlend mode="normal" in2="BackgroundImageFix" result="effect1_dropShadow_653_5100"/>
<feBlend mode="normal" in="SourceGraphic" in2="effect1_dropShadow_653_5100" result="shape"/>
</filter>
</defs>
</svg>
