<svg width="100%" viewBox="0 0 573 160" fill="none" xmlns="http://www.w3.org/2000/svg">
<g id="Frame 888" clip-path="url(#clip0_883_830)">
<g id="Component 13">
<path id="Vector" d="M171.644 6H33.4289L19.0259 20.403H186.047L171.644 6Z" fill="#027EC7"/>
<g id="Vector_2" filter="url(#filter0_d_883_830)">
<path d="M15.9799 139H548.02C554.084 139 559 134.513 559 128.977V29.0228C559 23.4874 554.084 19 548.02 19H15.9799C9.9159 19 5 23.4874 5 29.0228V128.977C5 134.513 9.9159 139 15.9799 139Z" fill="white"/>
</g>
<g id="Group">
<g id="Group_2">
<text id="Complica&#195;&#167;&#195;&#181;es obst&#195;&#169;tricas, como pr&#195;&#169;-ecl&#195;&#162;mpsia e infec&#195;&#167;&#195;&#181;es." fill="#027EC7" xml:space="preserve" style="white-space: pre" font-family="'Montserrat', sans-serif" font-size="24" font-weight="bold" letter-spacing="0em"><tspan x="194" y="61.104">Complica&#xe7;&#xf5;es obst&#xe9;tricas, </tspan><tspan x="194" y="90.104">como pr&#xe9;-ecl&#xe2;mpsia e </tspan><tspan x="194" y="119.104">infec&#xe7;&#xf5;es.</tspan></text>
</g>
</g>
<path id="Vector_3" d="M151.414 154H53.5863C42.2171 154 33 147.245 33 138.914V6H172V138.913C172 147.245 162.783 154 151.414 154Z" fill="#38B8F8"/>
<g id="Group_3">
<path id="Vector_4" d="M113.98 59.9979C113.324 60.7864 113.678 63.1997 113.35 64.3383C112.44 67.4811 107.359 68.616 104.537 68.3323C102.603 68.137 99.6181 66.2653 102.474 70.0271C105.775 74.3785 115.399 76.5413 117.005 80.8964C118.612 85.2515 116.136 88.5859 113.523 91.7472C123.022 97.904 127.226 105.538 125.189 117.034C124.599 120.361 121.25 129.053 118.696 131.153C118.1 131.643 117.171 132.107 116.858 131.083C116.545 130.059 120.251 125.04 120.944 123.463C125.104 114.024 124.827 104.05 116.836 96.8908C115.723 95.896 110.852 92.8268 110.631 92.0347C110.167 90.3729 111.851 90.454 112.786 89.5365C114.968 87.3959 116.545 82.5397 113.977 80.1411C109.868 76.3018 99.725 74.7728 99.176 67.4075C98.8186 62.5623 102.264 65.9189 104.5 66.1621C106.737 66.4053 110.727 66.1363 111.515 63.605C111.983 62.1018 111.386 59.4858 112.602 58.0673C113.122 57.4593 114.964 57.7209 115.561 56.5935C116.276 55.2412 113.096 53.738 112.794 51.9657C112.492 50.1935 114.257 46.2584 114.268 43.8782C114.301 37.2719 108.015 32.1689 101.884 31.2367C87.7577 29.085 77.7543 43.3071 85.5359 55.6834C86.505 57.2272 87.813 57.813 88.0893 59.7584C88.6531 63.734 87.7135 67.658 86.2839 71.3167C94.7619 69.2681 99.3565 75.086 97.5842 83.1734C95.8599 91.0398 90.0642 98.9283 87.8314 106.784L106.103 130.711L104.924 131.654C98.0006 124.06 92.2491 115.38 85.6318 107.48L85.7202 105.538C88.3104 99.7721 91.5822 93.7516 93.8224 87.8748C96.2136 81.6112 98.2217 72.4221 88.2919 73.1442C83.7269 73.4758 81.4167 76.2355 80.0129 80.3216C78.2885 85.351 75.7536 98.5636 75.2857 103.939C75.0204 106.986 74.9578 109.654 76.8848 112.181C80.4992 116.916 87.8646 122.984 92.3633 127.255C92.8902 127.756 95.5468 130.232 95.4583 130.715L94.5077 131.625L93.2955 131.109L82.0467 120.28C81.5235 120.273 80.6356 124.941 80.4992 125.718C80.245 127.174 80.2892 130.014 79.965 131.076C79.7992 131.625 79.3312 131.835 78.7933 131.636L77.8722 130.692C78.259 126.588 78.8117 122.494 80.2671 118.611C76.3726 114.433 72.9239 112.476 73.0013 106.098C73.0639 101.095 77.1869 80.6459 79.4971 76.5008C80.7866 74.1869 83.0784 72.8974 84.2721 70.6019C85.8602 67.5548 86.9103 62.5476 85.6207 59.2758L82.7836 55.4918C78.4175 59.9021 76.8074 63.2808 77.4448 69.6587C77.6143 71.3572 78.4801 72.7831 78.7602 74.2533C79.0033 75.5318 78.1227 76.2982 77.1169 75.6865C76.5532 75.3439 75.3704 70.215 75.2783 69.2497C74.5156 61.1475 76.7926 60.7017 80.5434 55.1012C82.4557 52.2458 80.4882 48.5502 80.7572 45.0094C81.2583 38.5136 85.7496 32.9279 91.6596 30.5183C105.679 24.8036 121.066 35.9861 114.758 51.2694C114.831 53.0969 120.097 54.917 116.836 58.2699C116.125 58.9994 114.253 59.6737 113.973 60.009L113.98 59.9979Z" fill="#FFFBEB"/>
<path id="Vector_5" d="M145.722 116.588C147.767 116.227 148.688 113.331 147.83 111.533L128.814 80.4914C127.76 79.7951 126.36 80.0898 125.468 80.8783L118.475 91.5523C115.587 92.6687 116.482 90.6938 117.407 89.0137C118.332 87.3336 123.284 79.7472 124.54 78.8445C129.289 75.4363 131.802 80.9483 133.91 84.2275C139.602 93.0924 144.698 102.407 150.147 111.423C151.393 113.899 148.71 118.795 146.087 118.795H128.051C127.322 118.795 127.322 116.588 128.051 116.588H145.718H145.722Z" fill="#FFFBEB"/>
<path id="Vector_6" d="M99.7948 98.6374C100.908 98.4311 102.123 98.4753 103.229 98.7148C104.423 98.9727 105.764 100.259 106.394 100.318C107.064 100.384 108.811 98.8622 110.104 98.6411C115.745 97.6684 119.647 102.289 118.505 107.775C117.808 111.121 110.314 119.639 106.98 120.206C105.532 120.453 102.518 117.797 101.361 116.776C98.2289 114.009 93.837 109.127 94.4044 104.654C94.725 102.127 97.2378 99.1091 99.7948 98.6374ZM99.8022 100.852C99.349 100.97 98.1994 101.836 97.8568 102.215C94.5297 105.874 98.3431 110.7 100.992 113.468C101.714 114.223 105.491 117.613 106.173 117.889C106.965 118.213 110.163 115.645 110.944 114.938C114.083 112.093 119.363 105.317 114.64 101.666C111.655 99.3596 108.818 101.508 106.39 103.317C104.658 101.508 102.422 100.174 99.8022 100.856V100.852Z" fill="#FFFBEB"/>
<path id="Vector_7" d="M111.184 41.5496L111.847 41.498C113.008 42.3565 112.201 43.5319 111.449 44.4014C109.33 46.8664 101.545 51.1146 98.3249 50.2414C97.1237 49.9171 96.1658 48.1338 94.364 48.6386C91.8512 49.3387 91.6265 53.0121 93.6051 54.5965C94.5262 55.337 97.1274 55.2523 95.8563 57.1498C88.8521 58.0967 88.0783 46.0742 95.6536 46.6379C98.347 46.8406 98.0744 48.7971 101.074 48.0086C104.924 46.9953 108.487 44.3793 111.184 41.5459V41.5496Z" fill="#FFFBEB"/>
<path id="Vector_8" d="M125.664 91.3716C125.741 91.0953 126.574 90.4395 126.95 90.4395L127.871 91.0032V103.888C127.871 104.617 125.664 104.617 125.664 103.888V91.3716Z" fill="#FFFBEB"/>
</g>
</g>
</g>
<defs>
<filter id="filter0_d_883_830" x="5" y="19" width="570" height="136" filterUnits="userSpaceOnUse" color-interpolation-filters="sRGB">
<feFlood flood-opacity="0" result="BackgroundImageFix"/>
<feColorMatrix in="SourceAlpha" type="matrix" values="0 0 0 0 0 0 0 0 0 0 0 0 0 0 0 0 0 0 127 0" result="hardAlpha"/>
<feOffset dx="8" dy="8"/>
<feGaussianBlur stdDeviation="4"/>
<feComposite in2="hardAlpha" operator="out"/>
<feColorMatrix type="matrix" values="0 0 0 0 0 0 0 0 0 0 0 0 0 0 0 0 0 0 0.25 0"/>
<feBlend mode="normal" in2="BackgroundImageFix" result="effect1_dropShadow_883_830"/>
<feBlend mode="normal" in="SourceGraphic" in2="effect1_dropShadow_883_830" result="shape"/>
</filter>
<clipPath id="clip0_883_830">
<rect width="573" height="160" fill="white"/>
</clipPath>
</defs>
</svg>
