<svg width="554" height="148" viewBox="0 0 554 148" fill="none" xmlns="http://www.w3.org/2000/svg">
<g id="Component 15">
<path id="Vector" d="M166.644 0H28.4289L14.0259 14.403H181.047L166.644 0Z" fill="#A57826"/>
<g id="Vector_2" filter="url(#filter0_d_658_606)">
<path d="M10.9799 133H543.02C549.084 133 554 128.513 554 122.977V23.0228C554 17.4874 549.084 13 543.02 13H10.9799C4.9159 13 0 17.4874 0 23.0228V122.977C0 128.513 4.9159 133 10.9799 133Z" fill="white"/>
</g>
<g id="Group">
<g id="Group_2">
<text id="Atraso no crescimento e no desenvolvimento." fill="#EAC130" xml:space="preserve" style="white-space: pre" font-family="'Montserrat', sans-serif" font-size="24" font-weight="bold" letter-spacing="0em"><tspan x="189" y="76.104">Atraso no crescimento e no </tspan><tspan x="189" y="105.104">desenvolvimento.</tspan></text>
</g>
</g>
<path id="Vector_3" d="M146.414 148H48.5863C37.2171 148 28 141.245 28 132.914V0H167V132.913C167 141.245 157.783 148 146.414 148Z" fill="#EAC130"/>
<g id="Group_3">
<path id="Vector_4" d="M114.049 115.447C114.098 115.412 114.164 114.659 114.44 114.282C114.967 113.552 115.968 112.977 116.132 112.129C116.593 109.738 115.343 106.643 115.797 104.113C115.734 103.091 114.572 103.293 113.923 102.85C110.622 100.585 110.985 95.1866 111.264 91.5714C111.606 87.1222 112.908 82.5683 116.83 80.0628C109.463 72.8324 114.021 59.565 125.044 60.3536C132.052 60.8527 136.054 68.2296 134.463 74.6819C133.922 76.8803 132.338 78.5797 131.127 80.4013C133.029 81.7378 134.431 83.0813 135.374 85.2309C137.052 89.052 138.28 99.3009 134.927 102.34C133.925 103.248 132.38 103.059 132.17 104.113C132.641 106.399 131.507 109.323 131.846 111.42C132.038 112.607 133.678 114.142 134.093 115.447H141.24V36.8339C141.24 36.7745 141.777 36.2197 141.941 36.1429C142.555 35.8533 148.871 35.8009 149.772 35.9719C150.156 36.0452 151 36.5721 151 36.8339V116.669C151 116.731 150.19 117.541 150.128 117.541H94.3501C93.6592 117.541 93.6592 115.451 94.3501 115.451H114.045L114.049 115.447ZM148.91 38.0517H143.333V115.444H148.91V103.59L146.352 103.604C144.83 101.628 147.256 101.262 148.91 101.499V92.7788C147.765 92.7684 146.387 93.1208 145.839 91.8576L146.174 90.7374L148.91 90.6921V81.8285L146.174 81.5773L145.814 80.4501C146.6 79.2742 147.751 79.5184 148.906 79.8813V70.8154C144.809 71.3144 144.792 68.2296 148.91 68.7286L148.903 59.6627C147.716 60.2664 146.125 60.3083 145.755 58.7903L146.348 57.9737L148.91 57.9179V48.852L146.156 48.8206V47.1421L148.91 47.1107V38.0482V38.0517ZM123.397 62.1892C112.039 63.0022 113.075 82.0449 124.685 80.9352C136.33 79.822 134.704 61.3796 123.397 62.1892ZM131.828 115.447C131.455 114.669 130.719 114.041 130.37 113.249C129.155 110.492 130.52 106.339 130.453 103.405C130.432 102.417 129.647 102.047 129.459 101.259C128.995 99.3044 130.513 97.8073 130.453 95.389C130.425 94.2375 128.981 89.3381 130.917 89.6696C131.608 90.0779 131.957 90.8875 132.093 91.6517C132.261 92.5974 132.53 95.5007 132.523 96.4499C132.516 97.4933 130.425 101.639 132.296 101.461C134.501 100.672 134.833 98.1982 134.979 96.1149C135.248 92.3077 134.557 85.1925 131.106 82.8754C128.384 81.0469 127.899 82.687 125.341 82.9871C120.791 83.521 117.908 79.5743 115.022 84.8749C113.347 87.9493 112.754 95.4379 113.431 98.8088C113.825 100.77 116.91 102.7 116.868 100.285C116.854 99.4335 115.937 98.4424 115.79 97.1478C115.644 95.8532 115.947 90.3536 117.175 89.8092L118.247 90.228C118.39 92.5171 117.556 94.8691 117.866 97.1617C118.177 99.4544 120.229 100.648 117.531 103.426L118.254 112.478C118.184 114.268 116.956 114.208 116.139 115.447H121.021V104.116C121.021 102.592 126.946 102.592 126.946 104.116V115.447H131.828ZM124.856 104.989H123.111V115.447H124.856V104.989Z" fill="#FFFBEB"/>
<path id="Vector_5" d="M82.4017 54.5156C82.1121 54.7982 81.0617 58.2006 80.1719 59.4324C78.9715 61.0899 77.1743 62.0426 76.0507 63.6722C78.6853 65.3053 81.1699 65.4031 83.2043 68.0272C86.2996 72.0193 86.0902 83.0115 85.8285 88.0993C85.5982 92.5171 85.1271 97.4758 80.2906 99.1194L79.5438 114.219C79.8264 115.73 82.1296 116.033 83.0229 117.363C87.0743 123.396 71.9819 122.227 70.8547 120.465L70.8198 98.0132L68.8796 98.3412L68.5481 120.322C67.728 122.154 62.6647 121.847 60.8885 121.718C58.3969 121.54 54.848 121.446 55.9856 117.869C56.6102 115.911 59.4228 115.876 59.6671 114.575C59.5869 109.428 59.6985 104.113 58.7738 99.081C54.2932 96.8477 53.6581 92.6881 53.3754 88.0923C52.9601 81.2841 52.161 68.7914 59.0809 65.1797C59.7474 64.8308 64.1652 63.6199 63.8476 63.1558C61.6597 62.3287 59.7334 60.1303 58.5609 58.1552C58.0759 57.3351 57.3884 55.1995 57.0429 54.7947C56.6975 54.3899 55.6262 54.2259 54.9562 53.7444C53.2253 52.5021 52.8101 50.7747 53.0718 48.7159C53.2323 47.4492 54.2513 46.3953 54.3385 45.8474C54.4188 45.331 53.9826 44.5772 54.0698 43.8235C54.52 40.0268 55.3365 36.6105 57.9119 33.6862C65.4145 25.1682 83.3684 28.7066 84.7258 40.7038C84.8898 42.145 84.5339 43.8723 84.7781 45.1844C85.1446 47.1491 87.0882 47.8086 86.3554 50.9771C85.6226 54.1457 83.473 53.4722 82.4017 54.5191V54.5156ZM61.063 42.9336L59.5205 46.8001C58.1561 47.8539 55.1237 45.7427 54.8934 49.4277C54.6631 53.1127 58.2259 52.1566 58.7982 53.0325C59.1018 53.5001 59.4752 55.8835 60.0719 56.9862C64.221 64.6598 75.2167 64.8831 79.2472 57.1118C79.8299 55.9917 80.3743 53.036 80.7407 52.68C81.3549 52.0798 83.7627 52.6521 84.3419 50.7014C85.3086 47.4561 82.0842 47.0234 81.9795 46.5698C85.3923 39.0113 78.9854 31.7705 71.3328 31.0795C61.9807 30.235 55.9891 35.6334 56.1705 45.0204L58.2189 44.975C60.3825 34.782 63.8965 44.1899 67.1209 43.649C68.1224 42.2148 67.5501 40.0373 69.9265 40.1175C71.099 40.1594 78.469 43.2686 79.652 44.0189C79.973 44.2213 80.4371 44.5074 80.5069 44.8913C80.3743 46.5907 79.6031 46.1231 78.291 45.7288C77.0766 45.3624 70.1149 41.9182 69.7695 42.2287C69.8113 42.8569 68.911 45.6206 68.4853 45.7253C65.7146 46.4093 61.4259 42.651 61.056 42.9267L61.063 42.9336ZM58.9657 96.6209V77.2711C58.9657 75.9451 60.4558 74.2108 61.056 76.2277C60.9338 87.6422 61.1293 99.0287 61.391 110.405C61.4433 112.659 62.8008 115.182 60.536 116.843C59.6915 117.461 57.5489 117.764 57.9223 119.097L58.4423 119.628H66.4613C66.9603 119.321 66.9429 118.933 67.0022 118.424C67.3372 115.58 66.6777 112.436 66.6219 109.703C66.5416 105.753 66.7021 101.792 66.6428 97.8422L66.9568 97.1129C68.7261 95.7066 72.4355 95.2809 72.8891 98.2051C73.8104 104.158 71.8039 112.125 72.5437 118.42C72.603 118.926 72.5855 119.317 73.0846 119.624H81.1036L81.6236 118.759C80.5243 117.23 78.0502 117.045 77.7711 114.938C77.279 111.211 78.1026 107.121 78.1514 103.429C78.2805 94.1328 78.0258 84.8261 78.1375 75.5263L78.6609 74.6574L79.7113 74.9924C79.638 75.795 80.2242 77.4491 80.2242 77.9656V96.9663C82.831 95.7659 83.4207 93.1313 83.7034 90.5106C84.2268 85.695 84.3036 77.4979 83.2706 72.8254C82.0214 67.1793 79.0168 67.8981 75.0736 65.6752C74.4211 65.3054 74.442 64.5411 73.7755 64.5027C73.0392 64.4609 72.1842 64.8936 71.3467 64.904C70.0731 64.9215 66.6637 64.4609 65.9204 64.6842C65.3377 64.8587 64.7026 65.595 63.9384 65.8637C60.4278 67.106 58.0724 66.6907 56.4497 70.9271C54.8166 75.1844 54.5688 90.9817 56.7917 94.7714C56.9976 95.1238 58.533 97.0919 58.9552 96.6174L58.9657 96.6209Z" fill="#FFFBEB"/>
<path id="Vector_6" d="M93.8302 78.1436L96.8521 75.4043C97.8502 75.1286 98.2061 75.9975 97.9583 76.8524C97.8746 77.1386 94.4792 81.2633 94.207 81.4796C93.5614 82.0031 92.8252 82.2578 92.0854 81.8007C91.876 81.6715 89.1402 78.6007 88.7703 78.1436C88.4213 77.7144 87.5524 76.6954 87.5454 76.2138C88.6795 73.7397 90.4243 77.0793 91.7364 77.7911V54.2609C91.7364 53.5699 93.8267 53.5699 93.8267 54.2609V78.1401L93.8302 78.1436Z" fill="#FFFBEB"/>
<path id="Vector_7" d="M125.899 76.4023C126.576 79.4173 121.324 79.3999 122.085 76.9467C122.319 76.193 124.95 76.8455 125.899 76.4023Z" fill="#FFFBEB"/>
<path id="Vector_8" d="M119.499 72.2708C120.145 72.0893 122.647 71.9916 122.41 73.0839C121.335 74.6751 119.971 74.6995 119.084 72.9268C118.784 72.6686 119.269 72.3371 119.499 72.2743V72.2708Z" fill="#FFFBEB"/>
<path id="Vector_9" d="M128.688 72.2182C128.635 74.8598 126.58 75.0343 125.561 72.7381C126.315 71.8203 127.655 72.3194 128.688 72.2182Z" fill="#FFFBEB"/>
<path id="Vector_10" d="M67.0371 57.2762C67.2988 57.1087 71.6747 57.0563 72.3168 57.2971C73.3183 57.6705 73.1194 59.2897 72.0725 59.3036C71.5247 59.3106 70.7535 58.9372 69.9474 58.9372C68.6562 58.9372 67.3686 59.9073 66.7056 58.3963L67.0371 57.2762Z" fill="#FFFBEB"/>
<path id="Vector_11" d="M64.0606 49.9305C65.9484 49.3128 66.8208 52.4884 64.9225 52.8827C63.2894 53.2212 62.9753 50.2864 64.0606 49.9305Z" fill="#FFFBEB"/>
<path id="Vector_12" d="M75.262 50.3421C76.0332 51.1133 75.8343 53.057 74.1558 52.6871C71.6189 52.1287 73.6114 48.695 75.262 50.3421Z" fill="#FFFBEB"/>
</g>
</g>
<defs>
<filter id="filter0_d_658_606" x="0" y="13" width="570" height="136" filterUnits="userSpaceOnUse" color-interpolation-filters="sRGB">
<feFlood flood-opacity="0" result="BackgroundImageFix"/>
<feColorMatrix in="SourceAlpha" type="matrix" values="0 0 0 0 0 0 0 0 0 0 0 0 0 0 0 0 0 0 127 0" result="hardAlpha"/>
<feOffset dx="8" dy="8"/>
<feGaussianBlur stdDeviation="4"/>
<feComposite in2="hardAlpha" operator="out"/>
<feColorMatrix type="matrix" values="0 0 0 0 0 0 0 0 0 0 0 0 0 0 0 0 0 0 0.25 0"/>
<feBlend mode="normal" in2="BackgroundImageFix" result="effect1_dropShadow_658_606"/>
<feBlend mode="normal" in="SourceGraphic" in2="effect1_dropShadow_658_606" result="shape"/>
</filter>
</defs>
</svg>
