<svg width="100%" viewBox="0 0 588 156" fill="none" xmlns="http://www.w3.org/2000/svg">
<g id="Frame 886">
<g id="Group 1299">
<path id="Vector" d="M174.644 4H36.4289L22.0259 18.403H189.047L174.644 4Z" fill="#027EC7"/>
<g id="Vector_2" filter="url(#filter0_d_878_824)">
<path d="M18.9799 137H551.02C557.084 137 562 132.513 562 126.977V27.0228C562 21.4874 557.084 17 551.02 17H18.9799C12.9159 17 8 21.4874 8 27.0228V126.977C8 132.513 12.9159 137 18.9799 137Z" fill="white"/>
</g>
<g id="Group">
<g id="Group_2">
<text id="Defici&#195;&#170;ncias de nutrientes importantes, como vitaminas e minerais." fill="#027EC7" xml:space="preserve" style="white-space: pre" font-family="'Montserrat', sans-serif" font-size="24" font-weight="bold" letter-spacing="0em"><tspan x="197" y="56.104">Defici&#xea;ncias de nutrientes </tspan><tspan x="197" y="85.104">importantes, como </tspan><tspan x="197" y="114.104">vitaminas e minerais.</tspan></text>
</g>
</g>
<path id="Vector_3" d="M154.414 152H56.5863C45.2171 152 36 145.245 36 136.914V4H175V136.913C175 145.245 165.783 152 154.414 152Z" fill="#38B8F8"/>
<g id="Group_3">
<g id="Group_4">
<path id="Vector_4" d="M139.991 29.231C140.198 29.3802 140.567 30.8097 140.066 31.0667L110.24 61.2781C112.121 62.5502 115.15 67.0502 116.849 67.9245C117.247 68.1276 117.272 68.1276 117.669 67.9245C118.225 67.6386 124.622 61.1414 125.335 60.2463C128.538 56.2435 128.845 52.477 127.221 47.6662C129.326 45.5322 130.038 48.5156 130.32 50.285C130.797 53.2767 130.465 56.314 129.077 59.0198C127.535 62.0364 110.82 78.7644 107.517 81.3417C105.454 82.9536 102.736 84.1221 100.092 84.263C98.9318 84.3252 90.6361 83.6083 93.6486 81.5489C94.2825 81.1138 98.9607 81.9053 100.486 81.7603C106.552 81.1801 110.861 74.0986 115.121 70.3237C115.37 69.0516 109.345 63.8389 108.156 62.7243C108.156 63.2298 107.865 63.6193 107.546 63.9798C98.7204 74.0033 87.5574 82.966 78.5698 92.9647C77.3847 93.9468 76.3405 93.0062 76.7548 91.5807C77.2645 89.8197 88.4275 80.7326 88.6513 79.4356C86.277 75.2961 85.5394 71.5212 87.3792 67.0046C88.9662 63.1013 104.414 47.8071 108.346 44.5046C113.646 40.0501 119.505 38.9065 125.957 41.8402L138.139 29.5957C138.529 29.2352 139.631 28.9741 139.987 29.2352L139.991 29.231ZM117.16 42.5529C111.122 43.3402 107.211 49.4687 102.951 53.2062C102.557 54.0971 107.596 58.5019 108.359 59.4093L123.872 43.8913C122.128 42.3706 119.381 42.2628 117.156 42.5529H117.16ZM101.522 55.2822C100.917 55.1165 100.834 55.448 100.486 55.6842C98.2397 57.2173 90.5822 65.5005 89.5795 67.9619C88.2452 71.2271 88.2867 74.803 90.5574 77.6249L106.461 61.2201L101.522 55.2822Z" fill="#FFFBEB"/>
<path id="Vector_5" d="M103.908 112.511C105.574 114.243 103.038 117.077 101.932 118.399C88.3487 134.634 62.8818 127.245 59.4094 106.718C58.6345 102.143 58.6138 94.5022 62.4964 91.3613L64.9702 92.0575L103.908 112.515V112.511ZM97.8088 112.407C96.69 115.834 91.6885 118.838 88.2949 119.667C73.7299 123.214 63.1056 109.875 67.129 96.1307C66.9592 95.5796 64.3777 94.3613 63.7188 94.121C63.2837 93.9635 63.3003 93.516 62.8321 94.1997C62.0613 95.3227 61.4439 99.1266 61.3569 100.593C60.3376 118.482 78.8183 131.377 94.7797 121.598C96.1471 120.761 101.708 115.946 101.903 114.636C102.039 113.7 98.6623 112.73 97.8088 112.411V112.407ZM80.4178 103.295L69.2465 97.092C68.0655 101.07 68.2147 104.803 69.6608 108.682L80.4178 103.295ZM82.8998 104.542L70.9039 110.957C73.9164 115.419 78.6401 118.303 84.1429 118.2L82.8998 104.542ZM86.2147 117.785C88.1623 118.283 96.5076 112.908 96.1513 111.375L84.9758 105.363L86.2147 117.781V117.785Z" fill="#FFFBEB"/>
<path id="Vector_6" d="M142.1 85.9082C151.063 87.1803 153.827 95.1651 152.335 103.39C150.67 112.564 144.665 123.872 133.647 122.302C132.52 122.14 131.327 121.249 130.643 121.191C129.96 121.133 128.468 122.144 127.366 122.302C117.147 123.732 110.977 112.602 109.183 104.132C106.49 91.4234 115.25 81.4827 128.02 87.1554C126.475 76.2286 134.559 66.665 145.842 68.3059C147.512 72.4578 146.824 78.1844 144.653 82.0504C144.326 82.6305 141.823 85.6844 142.1 85.9123V85.9082ZM144.168 70.183C134.77 70.2203 129.048 78.1844 130.299 87.1554C131.431 85.6471 137.128 77.7617 138.5 77.7203C138.578 77.7203 139.573 78.0145 139.606 78.0601C140.393 79.1291 134.497 85.4524 133.407 86.5338C137.812 86.5877 141.682 83.4178 143.286 79.4399C143.464 78.9965 144.168 77.2355 144.168 77.0076V70.1788V70.183ZM119.223 88.0795C103.506 90.7853 113.182 122.878 127.726 119.762C128.617 119.571 129.408 118.672 130.332 118.614C131.899 118.515 133.987 120.189 137.294 119.807C151.179 118.204 157.585 85.4068 137.857 88.0877C135.566 88.3985 133.357 89.8902 131.149 90.0726C127.672 90.3585 125.977 88.3778 122.803 88.0297C121.668 87.9054 120.346 87.8888 119.219 88.0836L119.223 88.0795Z" fill="#FFFBEB"/>
<path id="Vector_7" d="M74.107 23.0983C84.3584 21.7723 90.7314 34.2074 97.8253 39.7309C98.4179 40.4727 98.4303 41.4961 97.8253 42.2627L80.944 58.539L79.7838 58.2075C76.2534 54.557 72.5904 51.039 69.0476 47.405C67.502 45.8221 65.8901 44.8774 64.6098 42.7392C59.5421 34.2986 64.5103 24.3455 74.1111 23.1024L74.107 23.0983ZM74.5297 25.5928C65.9481 26.5624 62.3017 35.2434 67.1705 42.2379L80.625 55.684L95.2894 40.6384C89.2811 35.7447 83.1816 24.6149 74.5297 25.5928Z" fill="#FFFBEB"/>
</g>
</g>
</g>
</g>
<defs>
<filter id="filter0_d_878_824" x="8" y="17" width="570" height="136" filterUnits="userSpaceOnUse" color-interpolation-filters="sRGB">
<feFlood flood-opacity="0" result="BackgroundImageFix"/>
<feColorMatrix in="SourceAlpha" type="matrix" values="0 0 0 0 0 0 0 0 0 0 0 0 0 0 0 0 0 0 127 0" result="hardAlpha"/>
<feOffset dx="8" dy="8"/>
<feGaussianBlur stdDeviation="4"/>
<feComposite in2="hardAlpha" operator="out"/>
<feColorMatrix type="matrix" values="0 0 0 0 0 0 0 0 0 0 0 0 0 0 0 0 0 0 0.25 0"/>
<feBlend mode="normal" in2="BackgroundImageFix" result="effect1_dropShadow_878_824"/>
<feBlend mode="normal" in="SourceGraphic" in2="effect1_dropShadow_878_824" result="shape"/>
</filter>
</defs>
</svg>
