<svg width="100%" viewBox="0 0 579 149" fill="none" xmlns="http://www.w3.org/2000/svg">
<g id="Frame 886" clip-path="url(#clip0_878_821)">
<g id="Group 1299">
<path id="Vector" d="M175.644 1H37.4289L23.0259 15.403H190.047L175.644 1Z" fill="#027EC7"/>
<g id="Vector_2" filter="url(#filter0_d_878_821)">
<path d="M19.9799 134H552.02C558.084 134 563 129.513 563 123.977V24.0228C563 18.4874 558.084 14 552.02 14H19.9799C13.9159 14 9 18.4874 9 24.0228V123.977C9 129.513 13.9159 134 19.9799 134Z" fill="white"/>
</g>
<g id="Group">
<g id="Group_2">
<text id="Falta de energia e cansa&#195;&#167;o frequente." fill="#027EC7" xml:space="preserve" style="white-space: pre" font-family="'Montserrat', sans-serif" font-size="24" font-weight="bold" letter-spacing="0em"><tspan x="198" y="70.104">Falta de energia e cansa&#xe7;o </tspan><tspan x="198" y="99.104">frequente.</tspan></text>
</g>
</g>
<path id="Vector_3" d="M155.414 149H57.5863C46.2171 149 37 142.245 37 133.914V1H176V133.913C176 142.245 166.783 149 155.414 149Z" fill="#38B8F8"/>
<g id="Group_3">
<path id="Vector_4" d="M80.3892 87.0144C72.0889 87.74 68.7987 76.1802 75.8551 72.1068C73.8818 57.7098 78.7499 44.6488 93.5807 40.441C113.007 34.9356 130.902 45.5472 131.462 66.4324C131.504 67.9796 130.729 69.9069 131.086 71.792C131.309 72.9629 133.048 73.796 133.674 74.9593C135.9 79.098 133.416 85.5939 128.802 86.784C127.911 87.0144 126.41 86.7226 125.899 87.3331C125.212 88.1508 123.695 92.443 122.655 94.0593C110.704 112.637 86.6625 106.721 80.3931 87.0144H80.3892ZM107.682 64.8967C107.459 63.2804 107.682 60.8809 107.682 59.1418C107.682 57.9171 109.978 58.228 110.884 58.6273C112.9 59.5218 116.938 63.1307 119.069 64.6318C120.497 65.6415 125.362 68.2906 126.087 69.1199C126.402 69.4769 126.636 69.6574 126.437 70.1948C125.876 72.2757 123.177 69.9914 122.06 69.3118C117.906 66.7933 114.12 63.6874 110.17 60.8694C109.421 60.7734 109.652 60.8848 109.59 61.4453C109.41 63.1192 111.41 66.6052 110.112 67.4191C103.847 68.9471 98.3068 64.6664 93.1162 62.0173C92.0835 65.845 85.0654 73.915 81.3107 74.6176C80.1666 74.8326 79.7634 73.9765 78.7345 73.8728C72.8836 73.2777 72.9757 83.7472 78.3621 84.6264C79.679 84.8414 80.7578 84.4076 82.0017 84.4191C85.6029 98.8545 100.545 108.852 114.324 99.534C119.676 95.9175 122.647 90.4428 124.548 84.4191C125.534 84.35 126.383 84.7262 127.443 84.6763C132.614 84.4421 134.169 74.9938 129.174 74.0532C128.207 73.8728 126.06 74.8556 125.715 73.7C125.273 72.2296 127.423 71.8956 128.418 71.8188L128.729 71.362C131.942 51.3636 116.654 38.364 97.251 41.8039C82.6851 44.3877 76.4195 55.675 77.7709 69.8877C77.9283 71.5539 78.7422 72.0415 80.4507 72.2181C83.1842 72.4984 88.5245 65.9448 89.9719 63.672C90.6207 62.6508 92.0374 58.5505 93.3158 58.6619C97.37 62.3552 102.472 65.2883 108.074 65.4688C108.27 65.3306 107.705 65.0042 107.69 64.8967H107.682Z" fill="#F0F9FF"/>
<path id="Vector_5" d="M160.897 42.936C162.072 44.226 160.379 46.8558 163.98 46.5449C165.37 47.1169 165.919 55.3328 161.761 53.5783C161.919 56.8109 161.013 58.2775 157.749 58.5808C152.989 59.0223 142.915 59.0415 138.181 58.5616C136.914 58.4349 134.879 57.9204 134.349 56.642C133.969 55.7244 133.954 45.9766 134.173 44.5907C134.461 42.7479 135.712 42.2104 137.394 42.0568C142.557 41.5846 152.973 41.5884 158.145 42.0568C158.886 42.1221 160.433 42.4215 160.905 42.9398L160.897 42.936ZM137.102 44.0686C136.76 44.1684 136.411 44.4371 136.257 44.7558C135.935 45.42 135.896 53.3633 136.05 54.5573C136.134 55.2099 136.192 55.7206 136.833 56.0738L158.145 56.2849C158.759 56.3118 159.085 56.1621 159.438 55.6591C160.037 54.8107 160.022 47.5431 159.857 46.0918C159.776 45.3701 159.657 44.6905 159.089 44.1761L137.11 44.0647L137.102 44.0686ZM162.913 48.2111H161.765V51.6625L162.848 51.0252L162.913 48.2111Z" fill="#F0F9FF"/>
<path id="Vector_6" d="M101.835 88.9686C103.701 88.7113 105.048 88.9225 106.795 89.5636C107.786 89.9284 111.037 91.5639 110.707 92.8193L109.479 93.8021C106.58 91.5792 104.062 90.3622 100.399 91.752C98.9402 92.3048 96.5714 94.8464 95.7728 92.5122C95.7767 91.0993 100.553 89.149 101.835 88.9724V88.9686Z" fill="#F0F9FF"/>
<path id="Vector_7" d="M96.0492 76.2686L97.1549 76.9865C96.4792 81.6204 89.5725 81.3862 87.7181 77.5547C88.8622 74.9056 90.5553 77.7774 91.4537 78.0538C94.2486 78.9099 94.6594 76.3876 96.0454 76.2724L96.0492 76.2686Z" fill="#F0F9FF"/>
<path id="Vector_8" d="M118.413 76.2224C119.484 77.7427 115.499 80.2727 113.967 80.4109C112.124 80.5798 108.615 79.2246 109.195 76.8405C109.586 75.2242 112.416 78.1765 113.637 78.1573C115.026 78.1343 117.537 74.9785 118.413 76.2224Z" fill="#F0F9FF"/>
<path id="Vector_9" d="M139.133 46.868L139.509 46.4764C142.051 44.8371 142.293 53.5943 140.093 53.5943L139.133 53.0031V46.868Z" fill="#F0F9FF"/>
</g>
</g>
</g>
<defs>
<filter id="filter0_d_878_821" x="9" y="14" width="570" height="136" filterUnits="userSpaceOnUse" color-interpolation-filters="sRGB">
<feFlood flood-opacity="0" result="BackgroundImageFix"/>
<feColorMatrix in="SourceAlpha" type="matrix" values="0 0 0 0 0 0 0 0 0 0 0 0 0 0 0 0 0 0 127 0" result="hardAlpha"/>
<feOffset dx="8" dy="8"/>
<feGaussianBlur stdDeviation="4"/>
<feComposite in2="hardAlpha" operator="out"/>
<feColorMatrix type="matrix" values="0 0 0 0 0 0 0 0 0 0 0 0 0 0 0 0 0 0 0.25 0"/>
<feBlend mode="normal" in2="BackgroundImageFix" result="effect1_dropShadow_878_821"/>
<feBlend mode="normal" in="SourceGraphic" in2="effect1_dropShadow_878_821" result="shape"/>
</filter>
<clipPath id="clip0_878_821">
<rect width="579" height="149" fill="white"/>
</clipPath>
</defs>
</svg>
