<svg width="554" height="148" viewBox="0 0 554 148" fill="none" xmlns="http://www.w3.org/2000/svg">
<g id="Group 1298">
<path id="Vector" d="M166.644 0H28.4289L14.0259 14.403H181.047L166.644 0Z" fill="#A57826"/>
<g id="Vector_2" filter="url(#filter0_d_653_5007)">
<path d="M10.9799 133H543.02C549.084 133 554 128.513 554 122.977V23.0228C554 17.4874 549.084 13 543.02 13H10.9799C4.9159 13 0 17.4874 0 23.0228V122.977C0 128.513 4.9159 133 10.9799 133Z" fill="white"/>
</g>
<g id="Group">
<g id="Group_2">
<text id="Maior vulnerabilidade a infec&#195;&#167;&#195;&#181;es." fill="#EAC130" xml:space="preserve" style="white-space: pre" font-family="'Montserrat', sans-serif" font-size="24" font-weight="bold" letter-spacing="0em"><tspan x="189" y="76.104">Maior vulnerabilidade a </tspan><tspan x="189" y="105.104">infec&#xe7;&#xf5;es.</tspan></text>
</g>
</g>
<path id="Vector_3" d="M146.414 148H48.5863C37.2171 148 28 141.245 28 132.914V0H167V132.913C167 141.245 157.783 148 146.414 148Z" fill="#EAC130"/>
<g id="Group_3">
<path id="Vector_4" d="M85.0418 40.2938C86.8358 39.9432 89.4917 42.1826 91.2362 42.9827C99.0224 46.5583 106.767 48.8842 115.032 50.9133C115.317 69.2572 112.203 89.7044 97.5089 102.229C95.7314 103.743 87.6523 109.306 85.7305 109.43C82.2415 109.657 71.5395 100.538 69.0898 97.6804C59.5632 86.566 54.4906 64.6547 56.2846 50.2905C56.3382 49.8493 56.2598 49.342 56.6929 49.0492C66.5824 47.6924 76.2987 45.1767 85.0418 40.2938ZM90.0855 72.3709L81.5239 67.158L88.6792 44.7767C86.3615 40.7639 83.4375 43.9601 80.4764 45.2344C73.5356 48.2203 66.3597 49.8781 58.9529 51.3133C57.4929 73.0183 64.0049 97.1896 85.2727 106.873C107.13 98.134 112.916 74.0824 112.706 52.6165C105.196 50.9463 97.8429 48.6285 90.9021 45.3499L84.0108 65.9744C84.1015 67.1003 92.1641 70.1975 92.4651 71.7852L86.2707 96.7607C83.2973 100.101 84.5922 94.2945 84.9304 92.5376C86.2254 85.8484 88.5225 79.023 90.0814 72.3709H90.0855Z" fill="#FFFBEB"/>
<path id="Vector_5" d="M52.6389 45.6174C52.0821 47.5434 52.1192 49.5642 52.1687 51.5644C52.61 70.065 55.5464 90.475 69.6837 103.676C72.0509 105.887 82.5921 113.578 85.3511 113.578C86.4811 113.578 90.6216 111.277 91.8589 110.588C112.034 99.3047 117.148 80.2597 118.925 58.5464C119.082 56.6081 119.181 44.7885 119.791 44.3761L121.631 44.7225C121.985 45.2256 121.862 48.9456 121.829 49.9147C120.967 75.2036 116.723 99.5109 92.8363 112.799C90.6588 114.011 86.6089 116.432 84.2087 115.933C82.7859 115.636 78.4144 112.993 76.9379 112.077C52.9193 97.2509 49.022 70.4815 50.1809 44.1864L50.8037 43.5719C59.4807 42.7966 68.3475 41.2954 76.3606 37.8147C79.4619 36.4661 82.2415 34.503 85.3428 33.1792C89.1782 34.5773 92.6507 36.9527 96.4036 38.6395C100.796 40.6149 105.39 41.9758 109.86 43.7327L108.846 45.4153C100.544 43.5183 92.9229 39.6458 85.417 35.7774C75.511 41.5758 64.178 45.1885 52.6389 45.6174Z" fill="#FFFBEB"/>
<path id="Vector_6" d="M142.77 50.9875C143.463 52.6 142.127 54.1094 141.999 55.293C141.764 57.4829 144.259 57.7468 145.294 59.4047C146.981 59.0212 147.79 57.4747 148.862 56.3282C154.112 57.4705 149.051 59.3016 147.748 60.5924C146.276 62.0524 148.268 64.0526 148.565 65.9909L153.262 66.2383C155.683 69.0674 149.872 69.1046 148.181 68.2302L146.528 75.6453L151.617 76.8455C153.592 82.083 146.503 77.3692 145.699 77.8806L143.381 82.4418C143.48 84.1657 150.742 86.9536 144.758 87.6093C143.9 86.6443 142.709 84.1987 141.183 84.9039C140.878 85.0441 139.277 86.7267 139.178 87.069C138.774 88.4795 141.15 94.4924 137.034 92.2613L137.055 87.1804L132.58 87.2381C132.044 88.3888 131.442 92.5706 129.512 92.0798C126.34 90.3931 131.689 88.1743 130.679 85.9597C130.559 85.6957 126.839 81.8975 126.551 81.8975C124.587 83.5595 121.276 84.8627 121.808 81.0025C126.419 81.3737 127.083 77.3898 128.019 73.8349C126.571 72.4203 120.962 73.2369 122.422 70.2882C123.499 68.1065 126.988 71.777 128.794 71.0924L129.631 62.8731L124.67 62.2751C123.214 56.5426 128.27 62.1967 130.79 60.7203C130.988 60.6048 132.559 57.8252 132.559 57.3056C132.559 56.2333 129 51.7216 131.532 50.9462C133.438 50.3647 133.413 55.1033 134.997 56.089L139.265 56.3034L140.313 51.1937C140.968 50.4225 141.942 50.5503 142.762 50.9751L142.77 50.9875ZM136.535 58.4479C131.186 59.4336 131.916 67.8879 131.095 71.9584C130.547 74.6721 127.916 79.2168 129.408 81.4438C131.965 85.2544 136.692 86.8917 140.11 83.0357C143.529 79.1797 146.462 69.4221 145.678 64.3495C145.088 60.5389 140.313 57.751 136.531 58.4479H136.535Z" fill="#FFFBEB"/>
<path id="Vector_7" d="M121.845 22.4611L125.73 24.4242C129.763 20.7084 132.279 23.3932 127.54 26.4037L128.448 31.5258L132.081 32.0125C132.77 35.7324 128.526 33.9013 127.978 34.2271C127.615 34.4416 125.907 37.9594 124.711 38.3636C126.068 39.11 128.444 41.8402 126.357 42.9207C124.909 43.6713 123.482 39.5059 122.86 39.4564L117.696 40.6277C117.746 42.1577 117.705 46.323 115.486 45.523C113.576 44.8342 116.24 41.1473 115.601 40.2565L110.953 38.1904C109.415 39.2214 109.823 41.37 107.423 41.0236C105.617 38.3966 109.341 37.4563 109.432 35.918C109.506 34.6767 108.067 32.3672 108.64 30.7382L104.986 30.2763C104.499 26.214 106.73 28.7462 108.458 28.6514C109.902 28.573 110.912 24.7665 112.323 23.9417C108.891 20.5022 111.457 18.1473 114.286 22.4487L119.09 22.0363C120.715 20.7579 119.878 18.8814 119.771 17.1576C124.485 15.9657 121.449 21.9085 121.853 22.4653L121.845 22.4611ZM117.172 24.251C106.8 25.9336 110.694 43.1805 121.771 37.5016C129.792 33.3899 125.252 22.9436 117.172 24.251Z" fill="#FFFBEB"/>
<path id="Vector_8" d="M141.142 69.4343C138.882 69.7106 136.308 67.3641 139.508 66.3537C142.041 65.5536 141.88 67.6486 141.142 69.4343Z" fill="#FFFBEB"/>
<path id="Vector_9" d="M138.296 76.4826L137.248 78.9694C135.611 79.2498 134.007 76.3547 135.628 75.2412L138.296 76.4867V76.4826Z" fill="#FFFBEB"/>
<path id="Vector_10" d="M116.146 31.8847C114.607 30.2185 116.183 27.3606 118.348 29.0597C120.237 30.5444 117.337 33.1755 116.146 31.8847Z" fill="#FFFBEB"/>
</g>
</g>
<defs>
<filter id="filter0_d_653_5007" x="0" y="13" width="570" height="136" filterUnits="userSpaceOnUse" color-interpolation-filters="sRGB">
<feFlood flood-opacity="0" result="BackgroundImageFix"/>
<feColorMatrix in="SourceAlpha" type="matrix" values="0 0 0 0 0 0 0 0 0 0 0 0 0 0 0 0 0 0 127 0" result="hardAlpha"/>
<feOffset dx="8" dy="8"/>
<feGaussianBlur stdDeviation="4"/>
<feComposite in2="hardAlpha" operator="out"/>
<feColorMatrix type="matrix" values="0 0 0 0 0 0 0 0 0 0 0 0 0 0 0 0 0 0 0.25 0"/>
<feBlend mode="normal" in2="BackgroundImageFix" result="effect1_dropShadow_653_5007"/>
<feBlend mode="normal" in="SourceGraphic" in2="effect1_dropShadow_653_5007" result="shape"/>
</filter>
</defs>
</svg>
