<svg width="554" height="148" viewBox="0 0 554 148" fill="none" xmlns="http://www.w3.org/2000/svg">
<g id="Group 1299">
<path id="Vector" d="M166.644 0H28.4289L14.0259 14.403H181.047L166.644 0Z" fill="#027EC7"/>
<g id="Vector_2" filter="url(#filter0_d_653_4991)">
<path d="M10.9799 133H543.02C549.084 133 554 128.513 554 122.977V23.0228C554 17.4874 549.084 13 543.02 13H10.9799C4.9159 13 0 17.4874 0 23.0228V122.977C0 128.513 4.9159 133 10.9799 133Z" fill="white"/>
</g>
<g id="Group">
<g id="Group_2">
<text id="Falta de energia e cansa&#195;&#167;o frequente." fill="#027EC7" xml:space="preserve" style="white-space: pre" font-family="'Montserrat', sans-serif" font-size="24" font-weight="bold" letter-spacing="0em"><tspan x="189" y="69.104">Falta de energia e cansa&#xe7;o </tspan><tspan x="189" y="98.104">frequente.</tspan></text>
</g>
</g>
<path id="Vector_3" d="M146.414 148H48.5863C37.2171 148 28 141.245 28 132.914V0H167V132.913C167 141.245 157.783 148 146.414 148Z" fill="#38B8F8"/>
<g id="Group_3">
<path id="Vector_4" d="M71.3892 86.0144C63.0889 86.74 59.7987 75.1802 66.8551 71.1068C64.8818 56.7098 69.7499 43.6488 84.5807 39.441C104.007 33.9356 121.902 44.5472 122.462 65.4324C122.504 66.9796 121.729 68.9069 122.086 70.792C122.309 71.9629 124.048 72.796 124.674 73.9593C126.9 78.098 124.416 84.5939 119.802 85.784C118.911 86.0144 117.41 85.7226 116.899 86.333C116.212 87.1508 114.695 91.443 113.655 93.0593C101.704 111.637 77.6625 105.721 71.3931 86.0144H71.3892ZM98.6821 63.8967C98.4595 62.2804 98.6821 59.8809 98.6821 58.1418C98.6821 56.9171 100.978 57.228 101.884 57.6273C103.9 58.5218 107.938 62.1307 110.069 63.6318C111.497 64.6415 116.362 67.2906 117.087 68.1199C117.402 68.4769 117.636 68.6574 117.437 69.1948C116.876 71.2757 114.177 68.9914 113.06 68.3118C108.906 65.7933 105.12 62.6874 101.17 59.8694C100.421 59.7734 100.652 59.8848 100.59 60.4453C100.41 62.1192 102.41 65.6052 101.112 66.4191C94.8468 67.9471 89.3068 63.6664 84.1162 61.0173C83.0835 64.845 76.0654 72.915 72.3107 73.6176C71.1666 73.8326 70.7634 72.9765 69.7345 72.8728C63.8836 72.2777 63.9757 82.7472 69.3621 83.6264C70.679 83.8414 71.7578 83.4076 73.0017 83.4191C76.6029 97.8545 91.5451 107.852 105.324 98.534C110.676 94.9175 113.647 89.4428 115.548 83.4191C116.534 83.35 117.383 83.7262 118.443 83.6763C123.614 83.4421 125.169 73.9938 120.174 73.0532C119.207 72.8728 117.06 73.8556 116.715 72.7C116.273 71.2296 118.423 70.8956 119.418 70.8188L119.729 70.362C122.942 50.3636 107.654 37.364 88.251 40.8039C73.6851 43.3877 67.4195 54.675 68.7709 68.8877C68.9283 70.5539 69.7422 71.0415 71.4507 71.2181C74.1842 71.4984 79.5245 64.9448 80.9719 62.672C81.6207 61.6508 83.0374 57.5505 84.3158 57.6619C88.37 61.3552 93.4723 64.2883 99.0737 64.4688C99.2695 64.3306 98.7052 64.0042 98.6898 63.8967H98.6821Z" fill="#F0F9FF"/>
<path id="Vector_5" d="M151.897 41.936C153.072 43.226 151.379 45.8558 154.98 45.5449C156.37 46.1169 156.919 54.3328 152.761 52.5783C152.919 55.8109 152.013 57.2775 148.749 57.5808C143.989 58.0223 133.915 58.0415 129.181 57.5616C127.914 57.4349 125.879 56.9204 125.349 55.642C124.969 54.7244 124.954 44.9766 125.173 43.5907C125.461 41.7479 126.712 41.2104 128.394 41.0568C133.557 40.5846 143.973 40.5884 149.145 41.0568C149.886 41.1221 151.433 41.4215 151.905 41.9398L151.897 41.936ZM128.102 43.0686C127.76 43.1684 127.411 43.4371 127.257 43.7558C126.935 44.42 126.896 52.3633 127.05 53.5573C127.134 54.2099 127.192 54.7206 127.833 55.0738L149.145 55.2849C149.759 55.3118 150.085 55.1621 150.438 54.6591C151.037 53.8107 151.022 46.5431 150.857 45.0918C150.776 44.3701 150.657 43.6905 150.089 43.1761L128.11 43.0647L128.102 43.0686ZM153.913 47.2111H152.765V50.6625L153.848 50.0252L153.913 47.2111Z" fill="#F0F9FF"/>
<path id="Vector_6" d="M92.8349 87.9686C94.7008 87.7113 96.0483 87.9225 97.7952 88.5636C98.7857 88.9284 102.037 90.5639 101.707 91.8193L100.479 92.8021C97.5802 90.5792 95.0617 89.3622 91.3991 90.752C89.9402 91.3048 87.5714 93.8464 86.7728 91.5122C86.7767 90.0993 91.5526 88.149 92.8349 87.9724V87.9686Z" fill="#F0F9FF"/>
<path id="Vector_7" d="M87.0492 75.2686L88.1549 75.9865C87.4792 80.6204 80.5725 80.3862 78.7181 76.5547C79.8622 73.9056 81.5553 76.7774 82.4537 77.0538C85.2486 77.9099 85.6594 75.3876 87.0454 75.2724L87.0492 75.2686Z" fill="#F0F9FF"/>
<path id="Vector_8" d="M109.413 75.2224C110.484 76.7427 106.499 79.2727 104.967 79.4109C103.124 79.5798 99.615 78.2246 100.195 75.8405C100.586 74.2242 103.416 77.1765 104.637 77.1573C106.026 77.1343 108.537 73.9785 109.413 75.2224Z" fill="#F0F9FF"/>
<path id="Vector_9" d="M130.133 45.868L130.509 45.4764C133.051 43.8371 133.293 52.5943 131.093 52.5943L130.133 52.0031V45.868Z" fill="#F0F9FF"/>
</g>
</g>
<defs>
<filter id="filter0_d_653_4991" x="0" y="13" width="570" height="136" filterUnits="userSpaceOnUse" color-interpolation-filters="sRGB">
<feFlood flood-opacity="0" result="BackgroundImageFix"/>
<feColorMatrix in="SourceAlpha" type="matrix" values="0 0 0 0 0 0 0 0 0 0 0 0 0 0 0 0 0 0 127 0" result="hardAlpha"/>
<feOffset dx="8" dy="8"/>
<feGaussianBlur stdDeviation="4"/>
<feComposite in2="hardAlpha" operator="out"/>
<feColorMatrix type="matrix" values="0 0 0 0 0 0 0 0 0 0 0 0 0 0 0 0 0 0 0.25 0"/>
<feBlend mode="normal" in2="BackgroundImageFix" result="effect1_dropShadow_653_4991"/>
<feBlend mode="normal" in="SourceGraphic" in2="effect1_dropShadow_653_4991" result="shape"/>
</filter>
</defs>
</svg>
