<svg width="554" height="148" viewBox="0 0 554 148" fill="none" xmlns="http://www.w3.org/2000/svg">
<g id="Group 1299">
<path id="Vector" d="M166.644 0H28.4289L14.0259 14.403H181.047L166.644 0Z" fill="#027EC7"/>
<g id="Vector_2" filter="url(#filter0_d_653_5025)">
<path d="M10.9799 133H543.02C549.084 133 554 128.513 554 122.977V23.0228C554 17.4874 549.084 13 543.02 13H10.9799C4.9159 13 0 17.4874 0 23.0228V122.977C0 128.513 4.9159 133 10.9799 133Z" fill="white"/>
</g>
<g id="Group">
<g id="Group_2">
<text id="Defici&#195;&#170;ncias de nutrientes importantes, como vitaminas e minerais." fill="#027EC7" xml:space="preserve" style="white-space: pre" font-family="'Montserrat', sans-serif" font-size="24" font-weight="bold" letter-spacing="0em"><tspan x="189" y="52.104">Defici&#xea;ncias de nutrientes </tspan><tspan x="189" y="81.104">importantes, como </tspan><tspan x="189" y="110.104">vitaminas e minerais.</tspan></text>
</g>
</g>
<path id="Vector_3" d="M146.414 148H48.5863C37.2171 148 28 141.245 28 132.914V0H167V132.913C167 141.245 157.783 148 146.414 148Z" fill="#38B8F8"/>
<g id="Group_3">
<g id="Group_4">
<path id="Vector_4" d="M131.991 25.231C132.198 25.3802 132.567 26.8097 132.066 27.0667L102.24 57.2781C104.121 58.5502 107.15 63.0502 108.849 63.9245C109.247 64.1276 109.272 64.1276 109.669 63.9245C110.225 63.6386 116.622 57.1414 117.335 56.2463C120.538 52.2435 120.845 48.477 119.221 43.6662C121.326 41.5322 122.038 44.5156 122.32 46.285C122.797 49.2767 122.465 52.314 121.077 55.0198C119.535 58.0364 102.82 74.7644 99.5174 77.3417C97.4538 78.9536 94.7356 80.1221 92.092 80.263C90.9318 80.3252 82.6361 79.6083 85.6486 77.5489C86.2825 77.1138 90.9607 77.9053 92.4856 77.7603C98.5519 77.1801 102.861 70.0986 107.121 66.3237C107.37 65.0516 101.345 59.8389 100.156 58.7243C100.156 59.2298 99.8655 59.6193 99.5464 59.9798C90.7204 70.0033 79.5574 78.966 70.5698 88.9647C69.3847 89.9468 68.3405 89.0062 68.7548 87.5807C69.2645 85.8197 80.4275 76.7326 80.6513 75.4356C78.277 71.2961 77.5394 67.5212 79.3792 63.0046C80.9662 59.1013 96.4138 43.8071 100.346 40.5046C105.646 36.0501 111.505 34.9065 117.957 37.8402L130.139 25.5957C130.529 25.2352 131.631 24.9741 131.987 25.2352L131.991 25.231ZM109.16 38.5529C103.122 39.3402 99.2108 45.4687 94.9511 49.2062C94.5574 50.0971 99.5961 54.5019 100.359 55.4093L115.872 39.8913C114.128 38.3706 111.381 38.2628 109.156 38.5529H109.16ZM93.5215 51.2822C92.9165 51.1165 92.8337 51.448 92.4856 51.6842C90.2397 53.2173 82.5822 61.5005 81.5795 63.9619C80.2452 67.2271 80.2867 70.803 82.5574 73.6249L98.4608 57.2201L93.5215 51.2822Z" fill="#FFFBEB"/>
<path id="Vector_5" d="M95.9082 108.511C97.574 110.243 95.038 113.077 93.9317 114.399C80.3487 130.634 54.8818 123.245 51.4094 102.718C50.6345 98.1431 50.6138 90.5022 54.4964 87.3613L56.9702 88.0575L95.9082 108.515V108.511ZM89.8088 108.407C88.69 111.834 83.6885 114.838 80.2949 115.667C65.7299 119.214 55.1056 105.875 59.129 92.1307C58.9592 91.5796 56.3777 90.3613 55.7188 90.121C55.2837 89.9635 55.3003 89.516 54.8321 90.1997C54.0613 91.3227 53.4439 95.1266 53.3569 96.5934C52.3376 114.482 70.8183 127.377 86.7797 117.598C88.1471 116.761 93.7079 111.946 93.9027 110.636C94.0394 109.7 90.6623 108.73 89.8088 108.411V108.407ZM72.4178 99.2951L61.2465 93.092C60.0655 97.0699 60.2147 100.803 61.6608 104.682L72.4178 99.2951ZM74.8998 100.542L62.9039 106.957C65.9164 111.419 70.6401 114.303 76.1429 114.2L74.8998 100.542ZM78.2147 113.785C80.1623 114.283 88.5076 108.908 88.1513 107.375L76.9758 101.363L78.2147 113.781V113.785Z" fill="#FFFBEB"/>
<path id="Vector_6" d="M134.1 81.9082C143.063 83.1803 145.827 91.1651 144.335 99.3903C142.67 108.564 136.665 119.872 125.647 118.302C124.52 118.14 123.327 117.249 122.643 117.191C121.96 117.133 120.468 118.144 119.366 118.302C109.147 119.732 102.977 108.602 101.183 100.132C98.4898 87.4234 107.25 77.4827 120.02 83.1554C118.475 72.2286 126.559 62.665 137.842 64.3059C139.512 68.4578 138.824 74.1844 136.653 78.0504C136.326 78.6305 133.823 81.6844 134.1 81.9123V81.9082ZM136.168 66.183C126.77 66.2203 121.048 74.1844 122.299 83.1554C123.431 81.6471 129.128 73.7617 130.5 73.7203C130.578 73.7203 131.573 74.0145 131.606 74.0601C132.393 75.1291 126.497 81.4524 125.407 82.5338C129.812 82.5877 133.682 79.4178 135.286 75.4399C135.464 74.9965 136.168 73.2355 136.168 73.0076V66.1788V66.183ZM111.223 84.0795C95.5064 86.7853 105.182 118.878 119.726 115.762C120.617 115.571 121.408 114.672 122.332 114.614C123.899 114.515 125.987 116.189 129.294 115.807C143.179 114.204 149.585 81.4068 129.857 84.0877C127.566 84.3985 125.357 85.8902 123.149 86.0726C119.672 86.3585 117.977 84.3778 114.803 84.0297C113.668 83.9054 112.346 83.8888 111.219 84.0836L111.223 84.0795Z" fill="#FFFBEB"/>
<path id="Vector_7" d="M66.107 19.0983C76.3584 17.7723 82.7314 30.2074 89.8253 35.7309C90.4179 36.4727 90.4303 37.4961 89.8253 38.2627L72.944 54.539L71.7838 54.2075C68.2534 50.557 64.5904 47.039 61.0476 43.405C59.502 41.8221 57.8901 40.8774 56.6098 38.7392C51.5421 30.2986 56.5103 20.3455 66.1111 19.1024L66.107 19.0983ZM66.5297 21.5928C57.9481 22.5624 54.3017 31.2434 59.1705 38.2379L72.625 51.684L87.2894 36.6384C81.2811 31.7447 75.1816 20.6149 66.5297 21.5928Z" fill="#FFFBEB"/>
</g>
</g>
</g>
<defs>
<filter id="filter0_d_653_5025" x="0" y="13" width="570" height="136" filterUnits="userSpaceOnUse" color-interpolation-filters="sRGB">
<feFlood flood-opacity="0" result="BackgroundImageFix"/>
<feColorMatrix in="SourceAlpha" type="matrix" values="0 0 0 0 0 0 0 0 0 0 0 0 0 0 0 0 0 0 127 0" result="hardAlpha"/>
<feOffset dx="8" dy="8"/>
<feGaussianBlur stdDeviation="4"/>
<feComposite in2="hardAlpha" operator="out"/>
<feColorMatrix type="matrix" values="0 0 0 0 0 0 0 0 0 0 0 0 0 0 0 0 0 0 0.25 0"/>
<feBlend mode="normal" in2="BackgroundImageFix" result="effect1_dropShadow_653_5025"/>
<feBlend mode="normal" in="SourceGraphic" in2="effect1_dropShadow_653_5025" result="shape"/>
</filter>
</defs>
</svg>
