<svg width="100%" viewBox="0 0 568 162" fill="none" xmlns="http://www.w3.org/2000/svg">
<g id="Frame 888" clip-path="url(#clip0_883_832)">
<g id="Component 14">
<path id="Vector" d="M166.644 8H28.4289L14.0259 22.403H181.047L166.644 8Z" fill="#A57826"/>
<g id="Vector_2" filter="url(#filter0_d_883_832)">
<path d="M10.9799 141H543.02C549.084 141 554 136.513 554 130.977V31.0228C554 25.4874 549.084 21 543.02 21H10.9799C4.9159 21 0 25.4874 0 31.0228V130.977C0 136.513 4.9159 141 10.9799 141Z" fill="white"/>
</g>
<g id="Group">
<g id="Group_2">
<text id="Maior risco de aborto espont&#195;&#162;neo e parto prematuro." fill="#EAC130" xml:space="preserve" style="white-space: pre" font-family="'Montserrat',sans-serif" font-size="24" font-weight="bold" letter-spacing="0em"><tspan x="189" y="60.104">Maior risco de aborto </tspan><tspan x="189" y="89.104">espont&#xe2;neo e parto </tspan><tspan x="189" y="118.104">prematuro.</tspan></text>
</g>
</g>
<path id="Vector_3" d="M146.414 156H48.5863C37.2171 156 28 149.245 28 140.914V8H167V140.913C167 149.245 157.783 156 146.414 156Z" fill="#F2A71B"/>
<g id="Group_3">
<path id="Vector_4" d="M142.465 65.9965C149.051 68.0199 149.574 74.0979 149.48 80.0066C149.468 80.8726 149.035 81.7347 149.059 82.7621C149.086 84.0258 150.566 86.4152 149.228 86.8483C147.35 87.4584 142.382 83.9431 141.229 82.3685C139.115 79.4909 140.005 77.125 139.257 73.9168C138.336 74.5781 137.753 77.0542 137.718 78.1052C137.517 83.9077 141.725 86.5884 143.382 91.2257C144.992 95.7369 146.386 109.802 145.898 114.569C145.508 118.36 143.638 120.895 141.308 123.718C141.091 124.808 144.036 132.457 144.299 134.382C144.563 136.307 142.996 136.637 142.233 135.24C140.997 132.98 140.497 128.044 139.65 125.43L128.447 136.063C127.305 136.078 127.16 134.555 127.837 133.862C131.71 128.993 142.705 121.549 143.552 115.364C143.992 112.133 143.485 106.972 143.189 103.602C142.855 99.7955 141.941 90.6391 139.076 88.0528C136.907 86.0924 132.659 86.9152 130.644 88.6945C122.999 95.4614 134.364 107.098 134.053 114.908L118.547 135.984C116.039 135.929 117.771 133.917 118.488 132.776C122.412 126.536 127.679 120.738 131.699 114.51C131.994 113.676 131.71 112.924 131.518 112.125C129.852 105.255 123.448 97.2997 126.912 90.0683C128.884 85.9507 132.884 84.5178 137.296 84.9154C135.745 82.4275 135.419 79.3846 135.765 76.507C136.226 72.7083 139.528 70.5156 140.005 66.587C142.288 47.6798 116.114 49.5536 116.421 63.8747C116.492 67.142 118.61 69.5669 114.894 72.5311C114.894 72.8224 117.291 74.6883 117.645 75.2709C118.381 76.4873 117.933 77.6014 119.456 78.5737C122.141 80.2861 123.637 78.7115 126.282 78.6249C126.715 82.4787 126.038 84.9233 123.349 87.6907C120.295 90.832 110.453 94.9693 111.41 99.9608C111.563 100.76 113.268 103.874 114.059 104.023C115.067 104.212 116.437 103.205 116.823 105.129C116.708 105.822 112.862 107.058 111.851 107.653C101.754 113.573 100.155 125.525 106.229 135.079C104.604 138.31 102.474 132.768 101.891 131.138C98.0296 120.372 101.868 110.751 111.729 105.362C112.004 104.964 110.245 102.913 109.961 102.22C106.273 93.0798 118.484 90.8045 122.672 85.0493C123.164 84.3722 125.239 81.5773 123.731 81.3765C121.566 81.0931 119.669 81.6166 117.641 79.9869C116.464 79.0382 116.586 77.8218 115.838 76.6763C115.205 75.704 112.792 74.0467 112.567 73.2318C112.15 71.7163 114.606 70.366 114.862 68.567C115.118 66.7681 114.217 63.8668 114.476 61.5167C114.953 57.2023 118.838 53.254 122.747 51.6951C133.616 47.361 142.855 54.5727 142.461 65.9886L142.465 65.9965ZM147.122 84.1399C147.417 78.3021 148.732 70.6455 142.02 68.0159C142.067 69.0827 140.453 71.0274 140.45 71.7517C140.45 72.2792 141.355 73.283 141.528 74.2002C141.823 75.7827 141.445 77.2392 141.886 78.9516C142.453 81.1403 145.079 83.2818 147.118 84.136L147.122 84.1399Z" fill="#FFFBEB"/>
<path id="Vector_5" d="M51.1689 89.8442C51.4445 91.6786 53.5427 92.6627 53.5427 93.3792L52.8971 94.3515C50.7832 94.2649 49.4684 92.6234 49.1889 90.6433C50.3423 74.1847 47.6891 55.7066 49.181 39.4882C49.6455 34.4297 54.4599 35.3666 58.2468 35.3784C57.5146 29.5051 65.2971 29.576 64.5335 35.3784H83.413C82.6847 29.5051 90.4633 29.576 89.6996 35.3784H108.579C107.768 29.5248 115.799 29.5721 114.866 35.3784C118.716 35.406 123.727 34.4061 124.306 39.5078C124.451 40.7754 124.483 47.1447 124.105 47.9556C124.018 48.1406 123.392 48.7469 123.325 48.7469H51.7516L51.1611 49.3373V89.8442H51.1689ZM62.5731 40.2912V34.0007C62.5731 33.2212 60.2151 33.2212 60.2151 34.0007V39.9015C60.2151 39.9881 60.6363 40.862 60.8568 40.9092C61.4039 40.988 62.4038 40.8423 62.5731 40.2952V40.2912ZM85.3852 34.0007V40.2912C85.3852 41.0706 87.7432 41.0706 87.7432 40.2912V34.0007C87.7432 33.359 85.6686 33.048 85.3852 34.0007ZM110.551 34.0007V40.2912C110.551 41.0706 112.909 41.0706 112.909 40.2912V34.0007C112.909 33.359 110.835 33.048 110.551 34.0007ZM58.2468 37.7364H52.5428C52.472 37.7364 51.5587 38.6497 51.5587 38.7205V46.7825H121.759L122.349 46.1921V39.9015C122.349 39.5197 121.467 37.9057 120.897 37.8112L114.874 37.7364C116.161 45.1646 107.316 45.2079 108.587 37.7364H89.7075C90.9947 45.1646 82.1494 45.2079 83.4209 37.7364H64.5413C65.8286 45.1646 56.9872 45.2119 58.2508 37.7364H58.2468Z" fill="#FFFBEB"/>
<path id="Vector_6" d="M69.1511 73.2199C71.9617 72.6491 73.6898 73.7789 75.3274 75.9086C81.9959 84.5611 86.9756 97.0871 93.467 106.145C95.6832 111.026 93.1284 114.782 87.9558 115.227C76.78 116.183 64.2619 114.483 52.9404 115.215C46.0436 113.554 45.8941 109.96 48.7441 104.33C52.6216 96.6698 60.475 83.0101 65.4744 76.2274C66.3994 74.9717 67.5135 73.5585 69.155 73.2239L69.1511 73.2199ZM69.5447 75.5661C68.2378 75.8574 67.4583 77.5895 66.738 78.6681C60.6009 87.8363 55.5504 98.2208 49.6377 107.578C48.3032 110.908 50.6022 112.593 53.7081 112.865C64.6201 113.821 76.8981 112.101 87.9598 112.865C93.5536 111.912 92.0695 108.779 90.1682 105.11C85.2003 95.5125 78.2326 86.2026 72.9695 76.6919C72.1546 75.5779 70.8713 75.2669 69.5447 75.5622V75.5661Z" fill="#FFFBEB"/>
<path id="Vector_7" d="M130.23 73.5116C128.896 71.5551 134.781 70.7875 134.155 67.0557C133.608 63.7923 130.955 66.0755 129.931 66.351C126.971 67.1423 121.011 64.371 118.81 62.3201C118.275 61.8241 117.106 61.0761 118.015 60.34C119.389 59.4425 122.83 62.5523 124.57 63.2491C125.467 63.6112 127.357 64.2489 128.242 64.3198C129.593 64.4261 130.474 63.2097 132.384 63.2688C136.029 63.375 137.418 67.5596 135.663 70.5198C135.072 71.5158 131.069 74.7477 130.23 73.5155V73.5116Z" fill="#FFFBEB"/>
<path id="Vector_8" d="M88.7276 92.0054H108.784C109.564 92.0054 109.564 94.3633 108.784 94.3633H88.334L87.7317 93.3792L88.7276 92.0054Z" fill="#FFFBEB"/>
<path id="Vector_9" d="M76.6936 56.6474C77.8824 59.5054 71.4894 59.0015 71.2493 57.5489C70.9541 55.746 75.5992 56.0137 76.6936 56.6474Z" fill="#FFFBEB"/>
<path id="Vector_10" d="M59.0736 56.6474C60.164 56.0137 64.813 55.746 64.5178 57.5489C64.2816 59.0054 57.8887 59.5054 59.0736 56.6474Z" fill="#FFFBEB"/>
<path id="Vector_11" d="M84.2439 56.6472C86.0075 56.1472 89.0583 55.3953 89.6212 57.5998C89.5189 58.9461 83.0236 59.5208 84.2439 56.6472Z" fill="#FFFBEB"/>
<path id="Vector_12" d="M72.6862 65.7448C73.8986 65.4653 77.3116 65.4535 76.725 67.4139C76.4062 68.4846 70.8242 68.4059 71.2257 66.6502C71.5918 66.1896 72.1154 65.8747 72.6862 65.7448Z" fill="#FFFBEB"/>
<path id="Vector_13" d="M89.2785 66.0871C91.0933 68.823 82.4329 68.8151 84.2437 66.0871C85.8498 65.4573 87.6685 65.4573 89.2785 66.0871Z" fill="#FFFBEB"/>
<path id="Vector_14" d="M64.1086 66.0873C65.4155 68.772 59.3297 68.3863 59.0384 67.4139C58.381 65.2134 62.9394 65.3709 64.1086 66.0873Z" fill="#FFFBEB"/>
<path id="Vector_15" d="M69.2615 86.305C69.3441 86.0098 70.2338 85.3091 70.6353 85.3091L71.6194 85.9114V99.2837C71.6194 100.063 69.2615 100.063 69.2615 99.2837V86.305Z" fill="#FFFBEB"/>
<path id="Vector_16" d="M70.2967 103.866C72.4539 103.477 72.8633 107.878 70.2495 107.763C68.6197 107.634 69.0016 104.098 70.2967 103.866Z" fill="#FFFBEB"/>
</g>
</g>
</g>
<defs>
<filter id="filter0_d_883_832" x="0" y="21" width="570" height="136" filterUnits="userSpaceOnUse" color-interpolation-filters="sRGB">
<feFlood flood-opacity="0" result="BackgroundImageFix"/>
<feColorMatrix in="SourceAlpha" type="matrix" values="0 0 0 0 0 0 0 0 0 0 0 0 0 0 0 0 0 0 127 0" result="hardAlpha"/>
<feOffset dx="8" dy="8"/>
<feGaussianBlur stdDeviation="4"/>
<feComposite in2="hardAlpha" operator="out"/>
<feColorMatrix type="matrix" values="0 0 0 0 0 0 0 0 0 0 0 0 0 0 0 0 0 0 0.25 0"/>
<feBlend mode="normal" in2="BackgroundImageFix" result="effect1_dropShadow_883_832"/>
<feBlend mode="normal" in="SourceGraphic" in2="effect1_dropShadow_883_832" result="shape"/>
</filter>
<clipPath id="clip0_883_832">
<rect width="568" height="162" fill="white"/>
</clipPath>
</defs>
</svg>

