<svg width="100%" viewBox="0 0 584 154" fill="none" xmlns="http://www.w3.org/2000/svg">
<g id="Frame 886">
<g id="Group 1298">
<path id="Vector" d="M177.644 3H39.4289L25.0259 17.403H192.047L177.644 3Z" fill="#A57826"/>
<g id="Vector_2" filter="url(#filter0_d_878_823)">
<path d="M21.9799 136H554.02C560.084 136 565 131.513 565 125.977V26.0228C565 20.4874 560.084 16 554.02 16H21.9799C15.9159 16 11 20.4874 11 26.0228V125.977C11 131.513 15.9159 136 21.9799 136Z" fill="white"/>
</g>
<g id="Group">
<g id="Group_2">
<text id="Maior vulnerabilidade a infec&#195;&#167;&#195;&#181;es." fill="#EAC130" xml:space="preserve" style="white-space: pre" font-family="'Montserrat', sans-serif" font-size="24" font-weight="bold" letter-spacing="0em"><tspan x="200" y="79.104">Maior vulnerabilidade a </tspan><tspan x="200" y="108.104">infec&#xe7;&#xf5;es.</tspan></text>
</g>
</g>
<path id="Vector_3" d="M157.414 151H59.5863C48.2171 151 39 144.245 39 135.914V3H178V135.913C178 144.245 168.783 151 157.414 151Z" fill="#F2A71B"/>
<g id="Group_3">
<path id="Vector_4" d="M96.0418 43.2938C97.8358 42.9432 100.492 45.1826 102.236 45.9827C110.022 49.5583 117.767 51.8842 126.032 53.9133C126.317 72.2572 123.203 92.7044 108.509 105.229C106.731 106.743 98.6523 112.306 96.7305 112.43C93.2415 112.657 82.5395 103.538 80.0898 100.68C70.5632 89.566 65.4906 67.6547 67.2846 53.2905C67.3382 52.8493 67.2598 52.342 67.6929 52.0492C77.5824 50.6924 87.2987 48.1767 96.0418 43.2938ZM101.086 75.3709L92.5239 70.158L99.6792 47.7767C97.3615 43.7639 94.4375 46.9601 91.4764 48.2344C84.5356 51.2203 77.3597 52.8781 69.9529 54.3133C68.4929 76.0183 75.0049 100.19 96.2727 109.873C118.13 101.134 123.916 77.0824 123.706 55.6165C116.196 53.9463 108.843 51.6285 101.902 48.3499L95.0108 68.9744C95.1015 70.1003 103.164 73.1975 103.465 74.7852L97.2707 99.7607C94.2973 103.101 95.5922 97.2945 95.9304 95.5376C97.2254 88.8484 99.5225 82.023 101.081 75.3709H101.086Z" fill="#FFFBEB"/>
<path id="Vector_5" d="M63.6389 48.6174C63.0821 50.5434 63.1192 52.5642 63.1687 54.5644C63.61 73.065 66.5464 93.475 80.6837 106.676C83.0509 108.887 93.5921 116.578 96.3511 116.578C97.4811 116.578 101.622 114.277 102.859 113.588C123.034 102.305 128.148 83.2597 129.925 61.5464C130.082 59.6081 130.181 47.7885 130.791 47.3761L132.631 47.7225C132.985 48.2256 132.862 51.9456 132.829 52.9147C131.967 78.2036 127.723 102.511 103.836 115.799C101.659 117.011 97.6089 119.432 95.2087 118.933C93.7859 118.636 89.4144 115.993 87.9379 115.077C63.9193 100.251 60.022 73.4815 61.1809 47.1864L61.8037 46.5719C70.4807 45.7966 79.3475 44.2954 87.3606 40.8147C90.4619 39.4661 93.2415 37.503 96.3428 36.1792C100.178 37.5773 103.651 39.9527 107.404 41.6395C111.796 43.6149 116.39 44.9758 120.86 46.7327L119.846 48.4153C111.544 46.5183 103.923 42.6458 96.417 38.7774C86.511 44.5758 75.178 48.1885 63.6389 48.6174Z" fill="#FFFBEB"/>
<path id="Vector_6" d="M153.77 53.9875C154.463 55.6 153.127 57.1094 152.999 58.293C152.764 60.4829 155.259 60.7468 156.294 62.4047C157.981 62.0212 158.79 60.4747 159.862 59.3282C165.112 60.4705 160.051 62.3016 158.748 63.5924C157.276 65.0524 159.268 67.0526 159.565 68.9909L164.262 69.2383C166.683 72.0674 160.872 72.1046 159.181 71.2302L157.528 78.6453L162.617 79.8455C164.592 85.083 157.503 80.3692 156.699 80.8806L154.381 85.4418C154.48 87.1657 161.742 89.9536 155.758 90.6093C154.9 89.6443 153.709 87.1987 152.183 87.9039C151.878 88.0441 150.277 89.7267 150.178 90.069C149.774 91.4795 152.15 97.4924 148.034 95.2613L148.055 90.1804L143.58 90.2381C143.044 91.3888 142.442 95.5706 140.512 95.0798C137.34 93.3931 142.689 91.1743 141.679 88.9597C141.559 88.6957 137.839 84.8975 137.551 84.8975C135.587 86.5595 132.276 87.8627 132.808 84.0025C137.419 84.3737 138.083 80.3898 139.019 76.8349C137.571 75.4203 131.962 76.2369 133.422 73.2882C134.499 71.1065 137.988 74.777 139.794 74.0924L140.631 65.8731L135.67 65.2751C134.214 59.5426 139.27 65.1967 141.79 63.7203C141.988 63.6048 143.559 60.8252 143.559 60.3056C143.559 59.2333 140 54.7216 142.532 53.9462C144.438 53.3647 144.413 58.1033 145.997 59.089L150.265 59.3034L151.313 54.1937C151.968 53.4225 152.942 53.5503 153.762 53.9751L153.77 53.9875ZM147.535 61.4479C142.186 62.4336 142.916 70.8879 142.095 74.9584C141.547 77.6721 138.916 82.2168 140.408 84.4438C142.965 88.2544 147.692 89.8917 151.11 86.0357C154.529 82.1797 157.462 72.4221 156.678 67.3495C156.088 63.5389 151.313 60.751 147.531 61.4479H147.535Z" fill="#FFFBEB"/>
<path id="Vector_7" d="M132.845 25.4611L136.73 27.4242C140.763 23.7084 143.279 26.3932 138.54 29.4037L139.448 34.5258L143.081 35.0125C143.77 38.7324 139.526 36.9013 138.978 37.2271C138.615 37.4416 136.907 40.9594 135.711 41.3636C137.068 42.11 139.444 44.8402 137.357 45.9207C135.909 46.6713 134.482 42.5059 133.86 42.4564L128.696 43.6277C128.746 45.1577 128.705 49.323 126.486 48.523C124.576 47.8342 127.24 44.1473 126.601 43.2565L121.953 41.1904C120.415 42.2214 120.823 44.37 118.423 44.0236C116.617 41.3966 120.341 40.4563 120.432 38.918C120.506 37.6767 119.067 35.3672 119.64 33.7382L115.986 33.2763C115.499 29.214 117.73 31.7462 119.458 31.6514C120.902 31.573 121.912 27.7665 123.323 26.9417C119.891 23.5022 122.457 21.1473 125.286 25.4487L130.09 25.0363C131.715 23.7579 130.878 21.8814 130.771 20.1576C135.485 18.9657 132.449 24.9085 132.853 25.4653L132.845 25.4611ZM128.172 27.251C117.8 28.9336 121.694 46.1805 132.771 40.5016C140.792 36.3899 136.252 25.9436 128.172 27.251Z" fill="#FFFBEB"/>
<path id="Vector_8" d="M152.142 72.4343C149.882 72.7106 147.308 70.3641 150.508 69.3537C153.041 68.5536 152.88 70.6486 152.142 72.4343Z" fill="#FFFBEB"/>
<path id="Vector_9" d="M149.296 79.4826L148.248 81.9694C146.611 82.2498 145.007 79.3547 146.628 78.2412L149.296 79.4867V79.4826Z" fill="#FFFBEB"/>
<path id="Vector_10" d="M127.146 34.8847C125.607 33.2185 127.183 30.3606 129.348 32.0597C131.237 33.5444 128.337 36.1755 127.146 34.8847Z" fill="#FFFBEB"/>
</g>
</g>
</g>
<defs>
<filter id="filter0_d_878_823" x="11" y="16" width="570" height="136" filterUnits="userSpaceOnUse" color-interpolation-filters="sRGB">
<feFlood flood-opacity="0" result="BackgroundImageFix"/>
<feColorMatrix in="SourceAlpha" type="matrix" values="0 0 0 0 0 0 0 0 0 0 0 0 0 0 0 0 0 0 127 0" result="hardAlpha"/>
<feOffset dx="8" dy="8"/>
<feGaussianBlur stdDeviation="4"/>
<feComposite in2="hardAlpha" operator="out"/>
<feColorMatrix type="matrix" values="0 0 0 0 0 0 0 0 0 0 0 0 0 0 0 0 0 0 0.25 0"/>
<feBlend mode="normal" in2="BackgroundImageFix" result="effect1_dropShadow_878_823"/>
<feBlend mode="normal" in="SourceGraphic" in2="effect1_dropShadow_878_823" result="shape"/>
</filter>
</defs>
</svg>
