<svg width="100%" viewBox="0 0 578 153" fill="none" xmlns="http://www.w3.org/2000/svg">
<g id="Frame 886">
<g id="Component 13">
<path id="Vector" d="M174.644 4H36.4289L22.0259 18.403H189.047L174.644 4Z" fill="#027EC7"/>
<g id="Vector_2" filter="url(#filter0_d_878_816)">
<path d="M18.9799 137H551.02C557.084 137 562 132.513 562 126.977V27.0228C562 21.4874 557.084 17 551.02 17H18.9799C12.9159 17 8 21.4874 8 27.0228V126.977C8 132.513 12.9159 137 18.9799 137Z" fill="white"/>
</g>
<g id="Group">
<g id="Group_2">
<text id="Perda de peso significativa." fill="#027EC7" xml:space="preserve" style="white-space: pre" font-family="'Montserrat', sans-serif" font-size="24" font-weight="bold" letter-spacing="0em"><tspan x="197" y="82.104">Perda de peso significativa.</tspan></text>
</g>
</g>
<path id="Vector_3" d="M154.414 152H56.5863C45.2171 152 36 145.245 36 136.914V4H175V136.913C175 145.245 165.783 152 154.414 152Z" fill="#38B8F8"/>
<g id="Group_3">
<path id="Vector_4" d="M111.751 54.7797C121.419 57.3881 124.255 57.7208 126.413 67.8876C127.704 73.9535 129.446 83.1049 130.067 89.1534C130.496 93.3374 128.916 96.8824 124.198 96.3441C119.178 95.7751 121.196 88.9083 121.327 85.6608L118.75 77.0871C118.846 82.6935 118.61 88.3262 118.728 93.937C118.78 96.5235 119.581 99.4777 119.209 102.252C119.017 103.688 118.076 103.841 117.879 104.857C117.362 107.522 117.962 112.739 117.892 115.798C117.861 117.115 117.266 118.319 117.402 119.724C117.669 122.455 122.662 122.923 123.109 126.311C123.87 132.083 113.108 129.308 109.791 129.545C108.11 129.234 107.922 127.23 107.799 125.855C107.2 119.33 108.263 111.898 107.834 105.268L105.633 100.261C103.576 108.362 105.467 117.137 104.771 125.413C104.556 127.93 104.307 129.672 101.484 130C99.1512 130.271 89.886 130.613 89.0982 127.925C87.7721 123.4 94.4026 122.945 94.7309 119.728C94.8709 118.328 94.2714 117.12 94.2407 115.798C94.1794 113.176 94.7922 106.432 94.2626 104.502C94.1225 103.999 92.6258 103.986 92.4813 101.775C92.2406 98.0728 93.2954 92.1776 93.4004 88.2518C93.4967 84.6849 93.2954 81.0873 93.3785 77.5204C92.5382 77.6736 92.6564 78.4351 92.4857 79.0303C92.0568 80.5227 90.8489 85.2407 90.7832 86.5405C90.6913 88.278 91.7504 89.8405 91.6498 91.7137C91.2734 98.7556 81.1591 98.0466 82.0563 89.149C82.6778 83.0043 84.3847 73.5552 85.6451 67.3799C87.6058 57.7908 90.932 57.5194 99.6677 54.8103L99.9346 53.9131C98.5867 53.4317 97.068 52.4382 96.0001 51.506C92.849 48.7531 92.7352 46.9325 88.8531 44.2234C86.1528 42.3371 85.3913 39.4923 86.0478 36.2974C86.411 34.538 88.2098 33.5226 88.4811 32.6123C88.8663 31.33 88.468 29.1636 88.6825 27.5661C91.0196 10.2392 119.222 8.72932 123.428 27.5749C123.835 29.3912 123.673 32.0652 124.076 33.4876C124.277 34.201 125.485 35.0369 125.875 36.4987C126.89 40.3195 125.586 42.3415 122.632 44.4597C119.454 46.7312 120.439 46.4073 118.093 49.1033C116.211 51.2697 113.927 52.9503 111.751 54.7753V54.7797ZM121.367 32.9231C123.301 13.0884 92.3019 10.1955 90.7657 30.087C90.6826 31.1768 90.4594 32.6167 91.4178 33.3563C94.4946 31.8377 95.011 28.901 97.2037 26.8702L105.191 28.9885C104.771 27.6843 105.086 26.3144 106.661 26.3844C108.237 26.4545 113.485 28.1745 115.104 28.9185C117.599 30.0608 118.977 31.842 121.362 32.9274L121.367 32.9231ZM108.259 29.4262C107.852 33.5883 100.714 30.9142 98.4116 29.4393C97.4794 31.5576 95.3086 34.6781 92.9715 35.3521C91.0371 35.9123 88.4636 34.8225 88.1441 37.9911C87.9647 39.7636 89.0851 41.7244 90.7438 42.3502C91.4222 42.6084 92.477 42.3808 92.8665 42.6216C93.0109 42.7135 93.9212 45.125 94.337 45.7421C100.062 54.2326 109.699 55.9876 116.299 47.3133C117.143 46.206 118.058 43.7989 118.715 43.173C120.036 41.9213 123.052 42.5253 123.533 39.2297C124.198 34.6649 121.769 36.1092 119.485 35.4571C118.623 35.212 116.837 32.713 115.555 31.9558C113.353 30.656 110.592 30.3759 108.255 29.4218L108.259 29.4262ZM109.476 55.318C109.191 55.1473 103.221 55.2086 102.884 55.3049C102.21 55.5018 100.652 57.1212 99.5101 57.6289C95.7069 59.3182 91.7723 58.5436 89.5315 62.9551C87.2907 67.3667 86.6298 78.2907 85.8289 83.7352C85.5007 85.9672 82.6034 94.7598 87.387 94.0639C90.7701 93.5737 88.0697 88.243 88.236 86.1729L92.3763 68.0101L93.6061 67.2179L94.7134 67.7869C96.1226 73.8397 95.4224 80.0982 95.5799 86.2692C102.495 87.022 109.279 87.5559 116.089 85.7878C116.233 81.026 115.997 75.9623 116.623 71.2356C116.911 69.0473 118.312 64.6007 119.857 68.7716C120.57 70.7017 124.106 86.3086 123.962 87.7485C123.8 89.3459 121.713 94.2783 125.096 94.0901C129.927 93.8232 126.334 84.059 125.879 81.1092C125.196 76.6845 124.216 64.4082 121.568 61.3752C118.92 58.3422 113.174 58.793 110.211 56.5391C109.817 56.2415 109.699 55.4449 109.489 55.318H109.476ZM110.657 102.007C112.767 101.95 114.889 102.047 116.999 102.007L115.9 88.4444C109.239 89.823 102.307 89.4728 95.5756 88.8864L95.1379 102.007L102.6 102.248C104.556 94.6547 107.138 94.2127 109.349 102.025L109.843 102.384C110.228 102.449 110.535 102.003 110.662 102.003L110.657 102.007ZM91.6367 127.37H101.475L102.132 126.713V105.29C100.862 104.007 98.5735 104.861 96.8842 104.633V121.903C96.4509 123.181 90.4112 126.17 91.6367 127.37ZM110.438 104.633V126.713C110.714 127.138 112.01 127.37 112.408 127.37H120.496C120.61 125.033 117.734 124.45 116.325 123.015C113.892 120.533 115.226 120.196 115.27 117.549C115.336 113.246 115.178 108.927 115.253 104.629H110.443L110.438 104.633Z" fill="#F5F6F6"/>
<path id="Vector_5" d="M103.313 44.8232C104.85 44.3811 110.754 44.5562 109.996 47.1253C109.629 48.3682 106.911 47.3134 105.847 47.3134C104.784 47.3134 103.13 47.9656 102.416 47.7555C100.845 47.2959 102.171 45.1558 103.318 44.8232H103.313Z" fill="#F5F6F6"/>
<path id="Vector_6" d="M101.217 36.9012C102.232 37.5839 101.768 42.6914 98.9324 40.8226C97.1862 39.6715 99.5014 35.7414 101.217 36.9012Z" fill="#F5F6F6"/>
<path id="Vector_7" d="M110.705 36.8926L112.189 37.072C113.533 37.7504 113.436 40.5952 111.905 41.1641L110.071 40.07C109.926 39.1815 109.686 37.2252 110.705 36.8926Z" fill="#F5F6F6"/>
</g>
</g>
</g>
<defs>
<filter id="filter0_d_878_816" x="8" y="17" width="570" height="136" filterUnits="userSpaceOnUse" color-interpolation-filters="sRGB">
<feFlood flood-opacity="0" result="BackgroundImageFix"/>
<feColorMatrix in="SourceAlpha" type="matrix" values="0 0 0 0 0 0 0 0 0 0 0 0 0 0 0 0 0 0 127 0" result="hardAlpha"/>
<feOffset dx="8" dy="8"/>
<feGaussianBlur stdDeviation="4"/>
<feComposite in2="hardAlpha" operator="out"/>
<feColorMatrix type="matrix" values="0 0 0 0 0 0 0 0 0 0 0 0 0 0 0 0 0 0 0.25 0"/>
<feBlend mode="normal" in2="BackgroundImageFix" result="effect1_dropShadow_878_816"/>
<feBlend mode="normal" in="SourceGraphic" in2="effect1_dropShadow_878_816" result="shape"/>
</filter>
</defs>
</svg>