<svg width="100%" viewBox="0 0 570 156" fill="none" xmlns="http://www.w3.org/2000/svg">
<g id="Frame 887">
<g id="Component 13">
<path id="Vector" d="M166.644 2H28.4289L14.0259 16.403H181.047L166.644 2Z" fill="#027EC7"/>
<g id="Vector_2" filter="url(#filter0_d_878_825)">
<path d="M10.9799 135H543.02C549.084 135 554 130.513 554 124.977V25.0228C554 19.4874 549.084 15 543.02 15H10.9799C4.9159 15 0 19.4874 0 25.0228V124.977C0 130.513 4.9159 135 10.9799 135Z" fill="white"/>
</g>
<g id="Group">
<g id="Group_2">
<text id="Restri&#195;&#167;&#195;&#163;o do crescimento do beb&#195;&#170; durante a gesta&#195;&#167;&#195;&#163;o." fill="#027EC7" xml:space="preserve" style="white-space: pre" font-family="'Montserrat', sans-serif" font-size="24" font-weight="bold" letter-spacing="0em"><tspan x="189" y="57.104">Restri&#xe7;&#xe3;o do crescimento </tspan><tspan x="189" y="86.104">do beb&#xea; durante a </tspan><tspan x="189" y="115.104">gesta&#xe7;&#xe3;o.</tspan></text>
</g>
</g>
<path id="Vector_3" d="M146.414 150H48.5863C37.2171 150 28 143.245 28 134.914V2H167V134.913C167 143.245 157.783 150 146.414 150Z" fill="#38B8F8"/>
<g id="Group_3">
<path id="Vector_4" d="M77.0395 57.1933C85.6429 56.8195 88.5518 67.8511 85.9675 74.5399L76.7108 96.3278C79.8827 100.482 83.0709 104.742 86.4852 108.695C87.5986 109.981 91.1115 114.381 92.4345 114.648C95.2776 115.215 94.9243 114.163 96.3048 112.791C96.7362 112.364 97.7674 111.986 97.9647 111.575C98.3426 110.79 95.7008 110.424 95.4995 109.533C93.1576 106.571 96.4814 103.781 99.6081 104.393C99.5465 103.74 98.6508 103.769 98.1454 103.193C95.179 99.7914 96.3376 92.3302 99.8135 89.6226C106.478 84.4375 115.96 89.5856 116.848 97.6221C117.074 99.664 116.379 102.072 116.523 103.686C116.614 104.722 117.612 106.106 117.891 107.249C120.085 116.271 114.457 124.92 104.945 125.331C106.034 126.921 109.087 128.691 106.802 130.676C103.943 133.166 95.6762 131.588 92.2373 130.442C84.5624 127.886 80.2483 120.573 74.3648 115.482C72.6392 117.688 71.3614 120.412 70.4575 123.063C69.6892 125.318 69.2907 129.599 68.6045 131.062C68.4484 131.391 68.0499 131.629 67.7869 131.892C65.5272 132.36 67.5856 124.862 67.8896 123.782C68.8716 120.306 70.5561 117.105 72.4173 114.032C68.4032 109.385 61.4227 105.893 61.4186 98.867C61.4186 91.7139 64.8246 72.1363 67.5158 65.5297C70.6465 57.8384 79.2664 53.664 79.4636 45.0154C79.4882 43.902 78.0297 38.758 80.7332 40.1467C82.6683 41.1369 81.1276 48.9063 80.3921 50.9072C79.5745 53.1299 77.9188 55.0117 77.0313 57.1892L77.0395 57.1933ZM96.9416 129.439C99.5588 129.747 102.677 129.213 105.356 129.439L103.269 127.216C102.044 125.971 98.0961 124.538 97.147 123.494C96.6828 122.98 96.6047 122.553 96.7731 121.896C97.9277 120.158 99.1726 122.105 100.311 122.381C110.738 124.911 118.84 116.961 115.225 106.645C114.909 105.745 113.569 103.773 113.569 103.374C113.569 102.483 115.065 101.476 114.752 98.4931C113.623 87.7655 99.263 86.8616 98.774 97.2071C98.5193 102.593 100.701 101.238 103.133 103.97C103.614 104.508 103.606 105.363 103.992 105.667C105.319 106.698 107.764 104.159 109.296 103.999C110.907 103.83 111.934 104.866 110.438 105.995C110.097 106.25 106.523 108.382 106.289 108.432C105.233 108.654 102.427 107.101 101.017 106.899C99.7642 106.723 98.4166 106.936 97.1512 106.866C95.9925 108.066 100.134 109.143 100.857 109.521C102.727 110.494 104.522 111.637 106.391 112.61C110.632 107.988 114.826 112.951 107.41 113.436C108.051 114.57 109.974 115.614 109.272 117.113C108.195 119.41 106.219 115.433 104.921 114.484C101.732 112.154 99.871 112.397 97.1552 115.277C99.0863 116.431 101.153 117.019 102.899 118.555C103.441 119.036 105.718 121.095 104.547 121.851C103.215 122.713 100.298 119.262 98.4947 118.444C95.9966 117.311 91.9003 117.413 90.5568 116.53C89.7351 115.988 87.7014 113.683 86.8961 112.799C82.467 107.955 78.5351 102.121 74.221 97.1167L74.3402 95.7691C77.1546 90.2512 79.1554 84.3923 81.4768 78.669C83.3216 74.1167 85.1499 72.9827 84.3898 67.2841C83.5434 60.9363 77.4052 55.7101 72.3105 61.7046C67.7253 67.0992 64.0563 90.1731 63.8837 97.6056C63.7112 105.038 70.589 108.567 75.6097 113.416C81.6001 119.2 88.2232 128.4 96.9416 129.435V129.439Z" fill="#F0F9FF"/>
<path id="Vector_5" d="M91.4032 55.5584C91.4155 58.2536 93.4862 60.0491 95.2899 61.7254C98.8562 65.0369 108.926 70.5712 110.303 74.6223C111.355 77.7243 110.163 79.3308 109.489 82.2068C127.485 90.2104 132.44 111.682 119.325 126.781C118.762 127.43 115.373 130.881 114.925 131.013C113.717 131.37 112.85 130.849 113.471 129.55C114.227 127.968 118.154 124.702 119.65 122.59C128.027 110.766 125.287 95.3092 113.454 87.0714C112.382 86.3236 107.39 83.7804 107.197 83.4723C106.141 81.7672 109.382 78.7022 108.454 75.6495C107.488 72.4694 96.9621 66.3928 93.8601 63.566C91.4032 61.3269 88.1738 58.1262 89.6652 54.4285C91.1567 50.7308 93.515 54.3093 95.5858 54.8599C97.3648 55.3365 99.9943 55.053 101.42 53.8697C102.184 53.2329 102.102 52.2879 102.669 51.8195C103.791 50.8992 104.14 52.1318 104.514 49.1613L109.288 48.6025C109.929 47.6904 108.705 44.0953 108.918 42.4848C109.132 40.8742 110.155 39.8101 110.586 38.409C115.159 23.5646 96.0665 12.5947 84.6445 21.498C79.176 25.7586 79.2746 31.9503 78.913 38.3392C72.1544 39.4444 67.943 44.5596 67.2404 51.2936C66.9282 54.2847 67.8609 57.9701 66.3078 60.6243C65.671 61.7131 61.7185 65.4396 61.0365 63.1388C60.6133 61.7131 64.0029 60.6284 64.5452 58.8617C65.2765 56.4869 64.8698 52.5755 65.1861 50.0652C66.0366 43.3928 70.0507 38.3392 76.5711 36.6136C77.1751 31.2436 77.1792 26.4817 80.7414 22.1102C91.6497 8.72023 116.195 19.0287 113.384 36.6916C113.027 38.9473 111.289 41.2481 111.12 43.0846C110.944 45.065 112.435 48.4053 110.886 50.2007C109.797 51.4621 108.006 50.7184 106.683 51.3347C105.36 51.951 103.487 55.2215 102.057 56.1459C100.023 57.4565 97.3031 57.7976 95.0105 57.0744C93.6424 56.643 92.8289 55.5625 91.4073 55.5543L91.4032 55.5584Z" fill="#F0F9FF"/>
<path id="Vector_6" d="M126.7 40.985L128.533 40.3481C128.652 40.381 129.161 41.7245 129.161 41.8067V68.0771C129.161 68.2456 128.105 68.7961 129.363 68.6893C129.437 68.6236 129.511 68.562 129.589 68.5003C130.324 67.9416 132.65 63.5864 133.899 65.3942C134.125 65.7229 134.149 66.0352 134.104 66.4173C134.03 67.0746 128.824 73.4799 128.134 73.4758C127.218 73.4758 122.021 67.1856 121.881 66.3597C121.684 65.2176 122.452 64.704 123.533 65.0779C124.819 65.5216 125.328 67.7731 126.7 68.2826V40.985Z" fill="#F0F9FF"/>
<path id="Vector_7" d="M108.532 31.8309C109.707 31.5844 110.159 32.5211 109.822 33.536C109.054 35.8696 95.9926 36.6831 93.4946 37.7062C91.8059 37.8418 90.7048 35.0808 89.4681 34.7028C87.8329 34.2057 85.5773 34.9 85.0185 36.6503C83.4983 41.4204 89.1189 42.2668 89.3243 43.4952L88.2355 44.8264C78.4735 42.3818 82.0233 27.8496 92.1962 33.6181C92.6811 33.8934 93.0262 34.6247 93.4617 34.8261C94.1971 35.1712 103.495 33.6387 105.036 33.273C106.297 32.9731 107.784 31.987 108.532 31.8268V31.8309Z" fill="#F0F9FF"/>
<path id="Vector_8" d="M105.299 41.9547C103.343 42.9572 101.219 41.8684 102.546 39.6128L104.97 39.7278L105.294 41.9547H105.299Z" fill="#F0F9FF"/>
<path id="Vector_9" d="M107 98.2466C107.386 100.391 105.557 100.934 103.77 100.658L103.388 99.3313L103.885 98.6246L107 98.2466Z" fill="#F0F9FF"/>
</g>
</g>
</g>
<defs>
<filter id="filter0_d_878_825" x="0" y="15" width="570" height="136" filterUnits="userSpaceOnUse" color-interpolation-filters="sRGB">
<feFlood flood-opacity="0" result="BackgroundImageFix"/>
<feColorMatrix in="SourceAlpha" type="matrix" values="0 0 0 0 0 0 0 0 0 0 0 0 0 0 0 0 0 0 127 0" result="hardAlpha"/>
<feOffset dx="8" dy="8"/>
<feGaussianBlur stdDeviation="4"/>
<feComposite in2="hardAlpha" operator="out"/>
<feColorMatrix type="matrix" values="0 0 0 0 0 0 0 0 0 0 0 0 0 0 0 0 0 0 0.25 0"/>
<feBlend mode="normal" in2="BackgroundImageFix" result="effect1_dropShadow_878_825"/>
<feBlend mode="normal" in="SourceGraphic" in2="effect1_dropShadow_878_825" result="shape"/>
</filter>
</defs>
</svg>
