<svg width="566" height="232" viewBox="0 0 566 232" fill="none" xmlns="http://www.w3.org/2000/svg">
<g id="Component 9">
<g id="Group">
<path id="Vector" d="M565.491 164.939H49.22C26.4953 164.939 8.07397 152.474 8.07397 137.098V8.07422H524.345C547.07 8.07422 565.491 20.5395 565.491 35.9159V164.939Z" fill="#F08A47"/>
</g>
<g id="Group_2">
<g id="Group_3">
<g id="Group_4" opacity="0.9">
<path id="Vector_2" d="M171.904 175.458C202.722 144.64 202.722 94.6727 171.904 63.854C141.085 33.0353 91.1178 33.0353 60.2991 63.854C29.4803 94.6727 29.4803 144.64 60.2991 175.458C91.1178 206.277 141.085 206.277 171.904 175.458Z" fill="white"/>
<path id="Vector_3" d="M171.817 175.31C202.634 144.493 202.634 94.5286 171.817 63.7116C141 32.8947 91.0356 32.8948 60.2185 63.7119C29.4014 94.529 29.4013 144.493 60.2182 175.31C91.0352 206.127 140.999 206.127 171.817 175.31Z" fill="#FEFEFE"/>
<path id="Vector_4" d="M171.73 175.162C202.545 144.347 202.545 94.385 171.73 63.5696C140.915 32.7543 90.953 32.7543 60.1377 63.5696C29.3223 94.385 29.3223 144.346 60.1377 175.162C90.953 205.977 140.915 205.977 171.73 175.162Z" fill="#FCFCFC"/>
<path id="Vector_5" d="M171.643 175.014C202.457 144.2 202.457 94.2414 171.643 63.4278C140.83 32.6142 90.8709 32.6142 60.0573 63.4278C29.2437 94.2414 29.2437 144.2 60.0573 175.014C90.8709 205.827 140.83 205.827 171.643 175.014Z" fill="#FBFBFB"/>
<path id="Vector_6" d="M171.556 174.866C202.368 144.054 202.368 94.0981 171.556 63.2862C140.745 32.4742 90.7885 32.4742 59.9765 63.2862C29.1645 94.0981 29.1646 144.054 59.9765 174.866C90.7885 205.678 140.745 205.678 171.556 174.866Z" fill="#F9F9F9"/>
<path id="Vector_7" d="M171.469 174.717C202.28 143.907 202.28 93.9541 171.469 63.1439C140.659 32.3337 90.7061 32.3337 59.8959 63.1439C29.0857 93.9541 29.0857 143.907 59.8959 174.717C90.7061 205.528 140.659 205.528 171.469 174.717Z" fill="#F8F8F8"/>
<path id="Vector_8" d="M171.383 174.57C202.191 143.761 202.191 93.811 171.383 63.0026C140.574 32.1942 90.624 32.1941 59.8155 63.0026C29.0071 93.811 29.0071 143.761 59.8156 174.57C90.624 205.378 140.574 205.378 171.383 174.57Z" fill="#F6F6F6"/>
<path id="Vector_9" d="M171.296 174.421C202.103 143.614 202.103 93.6668 171.296 62.86C140.489 32.0532 90.5413 32.0532 59.7345 62.86C28.9277 93.6668 28.9277 143.614 59.7345 174.421C90.5413 205.228 140.489 205.228 171.296 174.421Z" fill="#F5F5F5"/>
<path id="Vector_10" d="M171.209 174.273C202.014 143.468 202.014 93.5232 171.209 62.7182C140.404 31.9131 90.4592 31.9131 59.6542 62.7182C28.8491 93.5232 28.8491 143.468 59.6541 174.273C90.4592 205.078 140.404 205.078 171.209 174.273Z" fill="#F3F3F3"/>
<path id="Vector_11" d="M171.122 174.126C201.926 143.322 201.926 93.38 171.122 62.5766C140.319 31.7731 90.3768 31.7731 59.5734 62.5765C28.7699 93.38 28.7699 143.322 59.5734 174.126C90.3768 204.929 140.319 204.929 171.122 174.126Z" fill="#F2F2F2"/>
<path id="Vector_12" d="M171.035 173.977C201.837 143.175 201.837 93.2359 171.035 62.4343C140.234 31.6326 90.2944 31.6326 59.4928 62.4342C28.6911 93.2359 28.6911 143.175 59.4928 173.977C90.2944 204.779 140.234 204.779 171.035 173.977Z" fill="#F0F0F0"/>
<path id="Vector_13" d="M170.948 173.829C201.748 143.029 201.748 93.0923 170.948 62.2924C140.149 31.4925 90.212 31.4925 59.4122 62.2924C28.6123 93.0923 28.6123 143.029 59.4122 173.829C90.212 204.629 140.148 204.629 170.948 173.829Z" fill="#EFEFEF"/>
<path id="Vector_14" d="M170.862 173.681C201.66 142.882 201.66 92.9486 170.862 62.1503C140.064 31.3521 90.1299 31.3521 59.3316 62.1503C28.5333 92.9486 28.5333 142.882 59.3316 173.681C90.1299 204.479 140.064 204.479 170.862 173.681Z" fill="#EDEDED"/>
<path id="Vector_15" d="M170.775 173.532C201.571 142.736 201.571 92.805 170.775 62.0085C139.978 31.212 90.0475 31.212 59.251 62.0085C28.4545 92.805 28.4545 142.736 59.251 173.532C90.0475 204.329 139.978 204.329 170.775 173.532Z" fill="#ECECEC"/>
<path id="Vector_16" d="M170.688 173.384C201.483 142.59 201.483 92.6614 170.688 61.8667C139.894 31.072 89.9654 31.072 59.1707 61.8667C28.3759 92.6614 28.3759 142.59 59.1707 173.384C89.9654 204.179 139.893 204.179 170.688 173.384Z" fill="#EAEAEA"/>
<path id="Vector_17" d="M170.602 173.237C201.395 142.444 201.395 92.5182 170.602 61.7251C139.808 30.932 89.883 30.932 59.0898 61.7251C28.2967 92.5182 28.2967 142.444 59.0899 173.237C89.883 204.03 139.808 204.03 170.602 173.237Z" fill="#E9E9E9"/>
<path id="Vector_18" d="M170.514 173.088C201.306 142.297 201.306 92.3741 170.514 61.5828C139.723 30.7914 89.8003 30.7915 59.009 61.5828C28.2177 92.3741 28.2177 142.297 59.009 173.088C89.8003 203.879 139.723 203.879 170.514 173.088Z" fill="#E7E7E7"/>
<path id="Vector_19" d="M170.428 172.94C201.218 142.15 201.218 92.2304 170.428 61.4407C139.638 30.651 89.7182 30.651 58.9285 61.4407C28.1387 92.2304 28.1387 142.15 58.9285 172.94C89.7182 203.73 139.638 203.73 170.428 172.94Z" fill="#E6E6E6"/>
<path id="Vector_20" d="M170.341 172.792C201.129 142.004 201.129 92.0873 170.341 61.2994C139.553 30.5114 89.6358 30.5114 58.8479 61.2994C28.0599 92.0873 28.0599 142.004 58.8479 172.792C89.6358 203.58 139.553 203.58 170.341 172.792Z" fill="#E4E4E4"/>
<path id="Vector_21" d="M170.254 172.644C201.04 141.858 201.04 91.9432 170.254 61.1571C139.468 30.3709 89.5535 30.3709 58.7673 61.1571C27.9811 91.9432 27.9811 141.858 58.7673 172.644C89.5535 203.43 139.468 203.43 170.254 172.644Z" fill="#E3E3E3"/>
<path id="Vector_22" d="M170.167 172.496C200.952 141.711 200.952 91.7995 170.167 61.0149C139.383 30.2304 89.471 30.2304 58.6865 61.0149C27.9019 91.7995 27.9019 141.711 58.6865 172.496C89.471 203.28 139.383 203.28 170.167 172.496Z" fill="#E1E1E1"/>
<path id="Vector_23" d="M170.081 172.348C200.863 141.565 200.863 91.6559 170.081 60.8731C139.298 30.0903 89.3889 30.0903 58.6061 60.8731C27.8233 91.656 27.8233 141.565 58.6061 172.348C89.3889 203.13 139.298 203.13 170.081 172.348Z" fill="#E0E0E0"/>
<path id="Vector_24" d="M169.994 172.199C200.775 141.418 200.775 91.5124 169.994 60.7313C139.212 29.9503 89.3065 29.9503 58.5255 60.7313C27.7445 91.5124 27.7445 141.418 58.5255 172.199C89.3065 202.98 139.212 202.98 169.994 172.199Z" fill="#DEDEDE"/>
<path id="Vector_25" d="M169.907 172.051C200.686 141.272 200.686 91.3686 169.907 60.5892C139.127 29.8098 89.2241 29.8098 58.4447 60.5892C27.6653 91.3687 27.6653 141.272 58.4447 172.051C89.2241 202.831 139.127 202.831 169.907 172.051Z" fill="#DDDDDD"/>
<path id="Vector_26" d="M169.82 171.903C200.598 141.126 200.598 91.2251 169.82 60.4474C139.042 29.6698 89.142 29.6698 58.3643 60.4474C27.5867 91.2251 27.5867 141.126 58.3643 171.903C89.142 202.681 139.042 202.681 169.82 171.903Z" fill="#DBDBDB"/>
<path id="Vector_27" d="M169.733 171.755C200.509 140.979 200.509 91.0813 169.733 60.3053C138.957 29.5293 89.0593 29.5293 58.2833 60.3053C27.5073 91.0814 27.5073 140.979 58.2833 171.755C89.0593 202.531 138.957 202.531 169.733 171.755Z" fill="#DADADA"/>
<path id="Vector_28" d="M169.646 171.607C200.42 140.832 200.42 90.9373 169.646 60.163C138.872 29.3887 88.977 29.3887 58.2027 60.163C27.4284 90.9373 27.4284 140.832 58.2027 171.607C88.977 202.381 138.872 202.381 169.646 171.607Z" fill="#D8D8D8"/>
<path id="Vector_29" d="M169.56 171.459C200.332 140.686 200.332 90.7942 169.56 60.0217C138.787 29.2492 88.8951 29.2492 58.1226 60.0217C27.3501 90.7942 27.3501 140.686 58.1226 171.459C88.8951 202.231 138.787 202.231 169.56 171.459Z" fill="#D7D7D7"/>
<path id="Vector_30" d="M169.473 171.311C200.243 140.54 200.243 90.651 169.473 59.8801C138.702 29.1092 88.8122 29.1092 58.0413 59.8801C27.2704 90.651 27.2704 140.54 58.0413 171.311C88.8122 202.082 138.702 202.082 169.473 171.311Z" fill="#D5D5D5"/>
<path id="Vector_31" d="M169.386 171.163C200.155 140.394 200.155 90.5074 169.386 59.7383C138.616 28.9692 88.7298 28.9691 57.9607 59.7383C27.1916 90.5074 27.1916 140.394 57.9607 171.163C88.7298 201.932 138.616 201.932 169.386 171.163Z" fill="#D4D4D4"/>
<path id="Vector_32" d="M169.299 171.015C200.066 140.247 200.066 90.3632 169.299 59.5959C138.532 28.8285 88.6479 28.8286 57.8804 59.5962C27.1129 90.3637 27.1128 140.248 57.8801 171.015C88.6475 201.782 138.531 201.782 169.299 171.015Z" fill="#D2D2D2"/>
<path id="Vector_33" d="M169.212 170.866C199.978 140.101 199.978 90.2196 169.212 59.4539C138.446 28.6881 88.5651 28.6881 57.7993 59.4539C27.0336 90.2196 27.0336 140.101 57.7993 170.866C88.5651 201.632 138.446 201.632 169.212 170.866Z" fill="#D1D1D1"/>
<path id="Vector_34" d="M169.125 170.718C199.889 139.954 199.889 90.076 169.125 59.312C138.361 28.5481 88.4829 28.5481 57.719 59.312C26.955 90.076 26.955 139.954 57.719 170.718C88.4829 201.482 138.361 201.482 169.125 170.718Z" fill="#CFCFCF"/>
<path id="Vector_35" d="M169.039 170.571C199.801 139.808 199.801 89.9328 169.039 59.1704C138.276 28.4081 88.4008 28.4081 57.6384 59.1704C26.876 89.9328 26.8761 139.808 57.6384 170.571C88.4008 201.333 138.276 201.333 169.039 170.571Z" fill="#CECECE"/>
<path id="Vector_36" d="M168.952 170.423C199.712 139.662 199.712 89.7892 168.952 59.0286C138.191 28.268 88.3184 28.268 57.5578 59.0286C26.7972 89.7892 26.7972 139.662 57.5578 170.423C88.3184 201.183 138.191 201.183 168.952 170.423Z" fill="#CCCCCC"/>
<path id="Vector_37" d="M168.865 170.274C199.624 139.515 199.624 89.6451 168.865 58.8863C138.106 28.1275 88.236 28.1275 57.4772 58.8863C26.7184 89.6451 26.7184 139.515 57.4772 170.274C88.236 201.033 138.106 201.033 168.865 170.274Z" fill="#CBCBCB"/>
<path id="Vector_38" d="M168.778 170.126C199.535 139.369 199.535 89.5014 168.778 58.7442C138.021 27.987 88.1536 27.987 57.3964 58.7442C26.6392 89.5014 26.6392 139.369 57.3964 170.126C88.1536 200.883 138.021 200.883 168.778 170.126Z" fill="#C9C9C9"/>
<path id="Vector_39" d="M168.691 169.978C199.447 139.222 199.447 89.3578 168.691 58.6024C137.936 27.847 88.0712 27.847 57.3158 58.6024C26.5604 89.3578 26.5604 139.222 57.3158 169.978C88.0712 200.733 137.936 200.733 168.691 169.978Z" fill="#C8C8C8"/>
<path id="Vector_40" d="M168.604 169.83C199.358 139.076 199.358 89.2146 168.604 58.4608C137.851 27.707 87.9888 27.707 57.235 58.4608C26.4812 89.2146 26.4812 139.076 57.235 169.83C87.9888 200.584 137.851 200.584 168.604 169.83Z" fill="#C6C6C6"/>
<path id="Vector_41" d="M168.518 169.682C199.27 138.929 199.27 89.0705 168.518 58.3185C137.766 27.5664 87.9067 27.5664 57.1547 58.3185C26.4026 89.0705 26.4026 138.929 57.1547 169.682C87.9067 200.434 137.766 200.434 168.518 169.682Z" fill="#C5C5C5"/>
<path id="Vector_42" d="M168.431 169.533C199.181 138.783 199.181 88.9269 168.431 58.1767C137.68 27.4264 87.8243 27.4264 57.0741 58.1767C26.3238 88.927 26.3238 138.783 57.0741 169.533C87.8243 200.284 137.68 200.284 168.431 169.533Z" fill="#C3C3C3"/>
<path id="Vector_43" d="M168.344 169.385C199.093 138.637 199.093 88.7832 168.344 58.0346C137.595 27.2859 87.7419 27.2859 56.9933 58.0346C26.2446 88.7832 26.2446 138.637 56.9933 169.385C87.7419 200.134 137.595 200.134 168.344 169.385Z" fill="#C2C2C2"/>
<path id="Vector_44" d="M168.257 169.237C199.004 138.49 199.004 88.6396 168.257 57.8928C137.51 27.1459 87.6598 27.1459 56.9129 57.8928C26.166 88.6397 26.166 138.49 56.9129 169.237C87.6598 199.984 137.51 199.984 168.257 169.237Z" fill="#C0C0C0"/>
<path id="Vector_45" d="M168.17 169.089C198.915 138.344 198.915 88.4966 168.17 57.7515C137.425 27.0063 87.5774 27.0063 56.8323 57.7514C26.0872 88.4966 26.0872 138.344 56.8323 169.089C87.5774 199.835 137.425 199.835 168.17 169.089Z" fill="#BFBFBF"/>
<path id="Vector_46" d="M168.083 168.941C198.827 138.197 198.827 88.3524 168.083 57.6088C137.34 26.8653 87.4948 26.8653 56.7513 57.6089C26.0077 88.3524 26.0077 138.197 56.7513 168.941C87.4948 199.684 137.34 199.684 168.083 168.941Z" fill="#BDBDBD"/>
<path id="Vector_47" d="M167.997 168.793C198.739 138.051 198.739 88.2088 167.997 57.467C137.255 26.7253 87.4129 26.7253 56.6711 57.467C25.9294 88.2088 25.9294 138.051 56.6712 168.793C87.4129 199.534 137.255 199.534 167.997 168.793Z" fill="#BCBCBC"/>
<path id="Vector_48" d="M167.91 168.645C198.65 137.905 198.65 88.0651 167.91 57.3249C137.17 26.5848 87.3305 26.5848 56.5904 57.3249C25.8502 88.0651 25.8502 137.905 56.5904 168.645C87.3305 199.385 137.17 199.385 167.91 168.645Z" fill="#BABABA"/>
<path id="Vector_49" d="M167.823 168.497C198.561 137.758 198.561 87.9215 167.823 57.1831C137.085 26.4447 87.2479 26.4448 56.5095 57.1831C25.7712 87.9215 25.7711 137.758 56.5095 168.497C87.2479 199.235 137.085 199.235 167.823 168.497Z" fill="#B9B9B9"/>
<path id="Vector_50" d="M167.736 168.349C198.473 137.612 198.473 87.7784 167.736 57.0418C137 26.3052 87.1657 26.3052 56.4292 57.0418C25.6926 87.7784 25.6926 137.612 56.4292 168.349C87.1657 199.085 137 199.085 167.736 168.349Z" fill="#B7B7B7"/>
<path id="Vector_51" d="M167.65 168.2C198.385 137.465 198.385 87.6341 167.65 56.8992C136.915 26.1642 87.0833 26.1642 56.3484 56.8992C25.6134 87.6342 25.6134 137.465 56.3484 168.2C87.0833 198.935 136.915 198.935 167.65 168.2Z" fill="#B6B6B6"/>
<path id="Vector_52" d="M167.563 168.052C198.296 137.319 198.296 87.4906 167.563 56.7574C136.829 26.0242 87.001 26.0242 56.2678 56.7574C25.5346 87.4906 25.5346 137.319 56.2678 168.052C87.001 198.785 136.829 198.785 167.563 168.052Z" fill="#B4B4B4"/>
<path id="Vector_53" d="M167.476 167.904C198.207 137.173 198.207 87.347 167.476 56.6156C136.744 25.8841 86.9188 25.8841 56.1874 56.6156C25.456 87.347 25.456 137.173 56.1874 167.904C86.9188 198.635 136.744 198.635 167.476 167.904Z" fill="#B3B3B3"/>
<path id="Vector_54" d="M167.389 167.756C198.119 137.026 198.119 87.2033 167.389 56.4735C136.659 25.7437 86.8362 25.7436 56.1064 56.4735C25.3765 87.2033 25.3765 137.026 56.1064 167.756C86.8362 198.486 136.659 198.486 167.389 167.756Z" fill="#B1B1B1"/>
<path id="Vector_55" d="M167.302 167.608C198.03 136.88 198.03 87.0597 167.302 56.3317C136.574 25.6036 86.7541 25.6036 56.026 56.3317C25.2979 87.0597 25.298 136.88 56.026 167.608C86.7541 198.336 136.574 198.336 167.302 167.608Z" fill="#B0B0B0"/>
<path id="Vector_56" d="M167.216 167.46C197.942 136.733 197.942 86.916 167.216 56.1896C136.489 25.4631 86.6719 25.4631 55.9455 56.1896C25.219 86.916 25.219 136.733 55.9455 167.46C86.6719 198.186 136.489 198.186 167.216 167.46Z" fill="#AEAEAE"/>
<path id="Vector_57" d="M167.129 167.311C197.853 136.586 197.853 86.7719 167.129 56.0473C136.404 25.3226 86.5895 25.3226 55.8648 56.0473C25.1402 86.7719 25.1402 136.586 55.8649 167.311C86.5895 198.036 136.404 198.036 167.129 167.311Z" fill="#ADADAD"/>
<path id="Vector_58" d="M167.041 167.163C197.764 136.44 197.764 86.6288 167.041 55.9059C136.319 25.183 86.5069 25.183 55.784 55.9059C25.0611 86.6288 25.0611 136.441 55.784 167.163C86.5069 197.886 136.319 197.886 167.041 167.163Z" fill="#ABABAB"/>
<path id="Vector_59" d="M166.955 167.016C197.676 136.295 197.676 86.4856 166.955 55.7643C136.234 25.043 86.4247 25.043 55.7035 55.7643C24.9822 86.4856 24.9822 136.295 55.7035 167.016C86.4247 197.737 136.234 197.737 166.955 167.016Z" fill="#AAAAAA"/>
<path id="Vector_60" d="M166.868 166.867C197.587 136.148 197.587 86.3415 166.868 55.622C136.148 24.9025 86.3421 24.9025 55.6226 55.622C24.9031 86.3415 24.9031 136.148 55.6226 166.867C86.3421 197.587 136.148 197.587 166.868 166.867Z" fill="#A8A8A8"/>
<path id="Vector_61" d="M111.164 189.758C154.605 189.758 189.822 154.542 189.822 111.1C189.822 67.658 154.605 32.4414 111.164 32.4414C67.7217 32.4414 32.5051 67.658 32.5051 111.1C32.5051 154.542 67.7217 189.758 111.164 189.758Z" fill="#A7A7A7"/>
<path id="Vector_62" d="M111.08 189.609C154.519 189.609 189.734 154.394 189.734 110.955C189.734 67.5151 154.519 32.3003 111.08 32.3003C67.6403 32.3003 32.4255 67.5151 32.4255 110.955C32.4255 154.394 67.6403 189.609 111.08 189.609Z" fill="#A5A5A5"/>
<path id="Vector_63" d="M110.996 189.46C154.433 189.46 189.646 154.247 189.646 110.81C189.646 67.3729 154.433 32.1602 110.996 32.1602C67.5592 32.1602 32.3464 67.3729 32.3464 110.81C32.3464 154.247 67.5592 189.46 110.996 189.46Z" fill="#A4A4A4"/>
<path id="Vector_64" d="M110.913 189.31C154.347 189.31 189.558 154.1 189.558 110.665C189.558 67.2299 154.347 32.019 110.913 32.019C67.4777 32.019 32.2668 67.2299 32.2668 110.665C32.2668 154.1 67.4777 189.31 110.913 189.31Z" fill="#A2A2A2"/>
<path id="Vector_65" d="M110.829 189.161C154.261 189.161 189.47 153.952 189.47 110.52C189.47 67.0873 154.261 31.8784 110.829 31.8784C67.3966 31.8784 32.1877 67.0873 32.1877 110.52C32.1877 153.952 67.3966 189.161 110.829 189.161Z" fill="#A1A1A1"/>
<path id="Vector_66" d="M110.745 189.012C154.175 189.012 189.382 153.805 189.382 110.375C189.382 66.9451 154.175 31.7383 110.745 31.7383C67.3152 31.7383 32.1084 66.9451 32.1084 110.375C32.1084 153.805 67.3152 189.012 110.745 189.012Z" fill="#9F9F9F"/>
<path id="Vector_67" d="M110.661 188.862C154.089 188.862 189.294 153.657 189.294 110.229C189.294 66.8017 154.089 31.5967 110.661 31.5967C67.2338 31.5967 32.0288 66.8017 32.0288 110.229C32.0288 153.657 67.2338 188.862 110.661 188.862Z" fill="#9E9E9E"/>
<path id="Vector_68" d="M110.578 188.713C154.003 188.713 189.206 153.51 189.206 110.085C189.206 66.66 154.003 31.457 110.578 31.457C67.1526 31.457 31.9497 66.66 31.9497 110.085C31.9497 153.51 67.1526 188.713 110.578 188.713Z" fill="#9C9C9C"/>
<path id="Vector_69" d="M110.494 188.564C153.917 188.564 189.118 153.363 189.118 109.94C189.118 66.517 153.917 31.3159 110.494 31.3159C67.0712 31.3159 31.8701 66.517 31.8701 109.94C31.8701 153.363 67.0712 188.564 110.494 188.564Z" fill="#9B9B9B"/>
<path id="Vector_70" d="M110.41 188.414C153.83 188.414 189.029 153.215 189.029 109.795C189.029 66.3744 153.83 31.1753 110.41 31.1753C66.9898 31.1753 31.7908 66.3744 31.7908 109.795C31.7908 153.215 66.9898 188.414 110.41 188.414Z" fill="#999999"/>
<path id="Vector_71" d="M110.327 188.265C153.744 188.265 188.941 153.068 188.941 109.65C188.941 66.2322 153.744 31.0352 110.327 31.0352C66.9089 31.0352 31.7119 66.2322 31.7119 109.65C31.7119 153.068 66.9089 188.265 110.327 188.265Z" fill="#989898"/>
<path id="Vector_72" d="M110.243 188.115C153.658 188.115 188.853 152.92 188.853 109.505C188.853 66.0892 153.658 30.894 110.243 30.894C66.8273 30.894 31.6321 66.0892 31.6321 109.505C31.6321 152.92 66.8273 188.115 110.243 188.115Z" fill="#969696"/>
<path id="Vector_73" d="M110.159 187.966C153.572 187.966 188.765 152.772 188.765 109.36C188.765 65.9466 153.572 30.7534 110.159 30.7534C66.7464 30.7534 31.5532 65.9466 31.5532 109.36C31.5532 152.772 66.7464 187.966 110.159 187.966Z" fill="#959595"/>
<path id="Vector_74" d="M110.075 187.816C153.486 187.816 188.677 152.625 188.677 109.214C188.677 65.8039 153.486 30.6128 110.075 30.6128C66.6648 30.6128 31.4736 65.8039 31.4736 109.214C31.4736 152.625 66.6648 187.816 110.075 187.816Z" fill="#939393"/>
<path id="Vector_75" d="M109.992 187.667C153.4 187.667 188.589 152.478 188.589 109.07C188.589 65.6614 153.4 30.4722 109.992 30.4722C66.5835 30.4722 31.3943 65.6614 31.3943 109.07C31.3943 152.478 66.5835 187.667 109.992 187.667Z" fill="#929292"/>
<path id="Vector_76" d="M109.908 187.517C153.314 187.517 188.501 152.33 188.501 108.924C188.501 65.5188 153.314 30.3315 109.908 30.3315C66.5024 30.3315 31.3152 65.5188 31.3152 108.924C31.3152 152.33 66.5024 187.517 109.908 187.517Z" fill="#909090"/>
<path id="Vector_77" d="M109.824 187.368C153.228 187.368 188.413 152.183 188.413 108.779C188.413 65.3758 153.228 30.1904 109.824 30.1904C66.421 30.1904 31.2356 65.3758 31.2356 108.779C31.2356 152.183 66.421 187.368 109.824 187.368Z" fill="#8F8F8F"/>
<path id="Vector_78" d="M109.741 187.219C153.141 187.219 188.325 152.036 188.325 108.635C188.325 65.2341 153.141 30.0508 109.741 30.0508C66.3396 30.0508 31.1562 65.2341 31.1562 108.635C31.1562 152.036 66.3396 187.219 109.741 187.219Z" fill="#8D8D8D"/>
<path id="Vector_79" d="M109.657 187.069C153.055 187.069 188.237 151.888 188.237 108.489C188.237 65.091 153.055 29.9097 109.657 29.9097C66.2585 29.9097 31.0771 65.091 31.0771 108.489C31.0771 151.888 66.2585 187.069 109.657 187.069Z" fill="#8C8C8C"/>
<path id="Vector_80" d="M109.573 186.92C152.969 186.92 188.149 151.741 188.149 108.345C188.149 64.9485 152.969 29.769 109.573 29.769C66.1771 29.769 30.9976 64.9485 30.9976 108.345C30.9976 151.741 66.1771 186.92 109.573 186.92Z" fill="#8A8A8A"/>
<path id="Vector_81" d="M109.49 186.771C152.883 186.771 188.061 151.593 188.061 108.199C188.061 64.8059 152.883 29.6284 109.49 29.6284C66.0959 29.6284 30.9185 64.8059 30.9185 108.199C30.9185 151.593 66.0959 186.771 109.49 186.771Z" fill="#898989"/>
<path id="Vector_82" d="M109.406 186.621C152.797 186.621 187.972 151.445 187.972 108.054C187.972 64.6632 152.797 29.4878 109.406 29.4878C66.0145 29.4878 30.8391 64.6632 30.8391 108.054C30.8391 151.445 66.0145 186.621 109.406 186.621Z" fill="#878787"/>
<path id="Vector_83" d="M109.322 186.472C152.711 186.472 187.884 151.298 187.884 107.91C187.884 64.5207 152.711 29.3472 109.322 29.3472C65.9331 29.3472 30.7595 64.5207 30.7595 107.91C30.7595 151.298 65.9331 186.472 109.322 186.472Z" fill="#868686"/>
<path id="Vector_84" d="M109.238 186.322C152.625 186.322 187.796 151.151 187.796 107.764C187.796 64.3781 152.625 29.2065 109.238 29.2065C65.852 29.2065 30.6804 64.3781 30.6804 107.764C30.6804 151.151 65.852 186.322 109.238 186.322Z" fill="#848484"/>
<path id="Vector_85" d="M109.155 186.173C152.539 186.173 187.709 151.003 187.709 107.619C187.709 64.2351 152.539 29.0654 109.155 29.0654C65.7708 29.0654 30.6011 64.2351 30.6011 107.619C30.6011 151.003 65.7708 186.173 109.155 186.173Z" fill="#838383"/>
<path id="Vector_86" d="M109.071 186.024C152.452 186.024 187.62 150.856 187.62 107.474C187.62 64.093 152.452 28.9253 109.071 28.9253C65.6894 28.9253 30.5217 64.093 30.5217 107.474C30.5217 150.856 65.6894 186.024 109.071 186.024Z" fill="#818181"/>
<path id="Vector_87" d="M108.987 185.874C152.366 185.874 187.532 150.708 187.532 107.329C187.532 63.9503 152.366 28.7847 108.987 28.7847C65.6083 28.7847 30.4426 63.9503 30.4426 107.329C30.4426 150.708 65.6083 185.874 108.987 185.874Z" fill="#808080"/>
<path id="Vector_88" d="M108.903 185.725C152.28 185.725 187.444 150.561 187.444 107.184C187.444 63.8074 152.28 28.6436 108.903 28.6436C65.5263 28.6436 30.3625 63.8074 30.3625 107.184C30.3625 150.561 65.5263 185.725 108.903 185.725Z" fill="#7E7E7E"/>
<path id="Vector_89" d="M108.819 185.575C152.193 185.575 187.355 150.414 187.355 107.039C187.355 63.6652 152.193 28.5034 108.819 28.5034C65.445 28.5034 30.2832 63.6652 30.2832 107.039C30.2832 150.414 65.445 185.575 108.819 185.575Z" fill="#7D7D7D"/>
<path id="Vector_90" d="M108.736 185.426C152.108 185.426 187.267 150.266 187.267 106.895C187.267 63.523 152.108 28.3633 108.736 28.3633C65.3641 28.3633 30.2043 63.523 30.2043 106.895C30.2043 150.266 65.3641 185.426 108.736 185.426Z" fill="#7B7B7B"/>
<path id="Vector_91" d="M108.652 185.276C152.021 185.276 187.179 150.118 187.179 106.749C187.179 63.3796 152.021 28.2217 108.652 28.2217C65.2824 28.2217 30.1245 63.3796 30.1245 106.749C30.1245 150.118 65.2824 185.276 108.652 185.276Z" fill="#7A7A7A"/>
<path id="Vector_92" d="M108.568 185.127C151.935 185.127 187.091 149.971 187.091 106.604C187.091 63.2374 151.935 28.0815 108.568 28.0815C65.2013 28.0815 30.0454 63.2374 30.0454 106.604C30.0454 149.971 65.2013 185.127 108.568 185.127Z" fill="#787878"/>
<path id="Vector_93" d="M108.484 184.978C151.849 184.978 187.003 149.824 187.003 106.46C187.003 63.0949 151.849 27.9409 108.484 27.9409C65.1198 27.9409 29.9658 63.0949 29.9658 106.46C29.9658 149.824 65.1198 184.978 108.484 184.978Z" fill="#777777"/>
<path id="Vector_94" d="M108.401 184.828C151.763 184.828 186.915 149.676 186.915 106.314C186.915 62.9518 151.763 27.7998 108.401 27.7998C65.0387 27.7998 29.8867 62.9518 29.8867 106.314C29.8867 149.676 65.0387 184.828 108.401 184.828Z" fill="#757575"/>
<path id="Vector_95" d="M108.317 184.679C151.677 184.679 186.827 149.529 186.827 106.169C186.827 62.8096 151.677 27.6597 108.317 27.6597C64.9573 27.6597 29.8074 62.8096 29.8074 106.169C29.8074 149.529 64.9573 184.679 108.317 184.679Z" fill="#747474"/>
<path id="Vector_96" d="M108.234 184.529C151.591 184.529 186.739 149.381 186.739 106.024C186.739 62.6667 151.591 27.5186 108.234 27.5186C64.8761 27.5186 29.728 62.6667 29.728 106.024C29.728 149.381 64.8761 184.529 108.234 184.529Z" fill="#727272"/>
<path id="Vector_97" d="M108.15 184.38C151.505 184.38 186.651 149.234 186.651 105.879C186.651 62.5245 151.505 27.3784 108.15 27.3784C64.7948 27.3784 29.6487 62.5245 29.6487 105.879C29.6487 149.234 64.7948 184.38 108.15 184.38Z" fill="#717171"/>
<path id="Vector_98" d="M108.066 184.231C151.418 184.231 186.562 149.087 186.562 105.734C186.562 62.3818 151.418 27.2378 108.066 27.2378C64.7136 27.2378 29.5696 62.3818 29.5696 105.734C29.5696 149.087 64.7136 184.231 108.066 184.231Z" fill="#6F6F6F"/>
<path id="Vector_99" d="M107.982 184.081C151.332 184.081 186.474 148.939 186.474 105.589C186.474 62.2389 151.332 27.0967 107.982 27.0967C64.6319 27.0967 29.4897 62.2389 29.4897 105.589C29.4897 148.939 64.6319 184.081 107.982 184.081Z" fill="#6E6E6E"/>
<path id="Vector_100" d="M107.898 183.932C151.246 183.932 186.386 148.792 186.386 105.444C186.386 62.0967 151.246 26.9565 107.898 26.9565C64.5508 26.9565 29.4106 62.0967 29.4106 105.444C29.4106 148.792 64.5508 183.932 107.898 183.932Z" fill="#6C6C6C"/>
<path id="Vector_101" d="M107.815 183.783C151.16 183.783 186.298 148.644 186.298 105.299C186.298 61.9538 151.16 26.8154 107.815 26.8154C64.4694 26.8154 29.3311 61.9538 29.3311 105.299C29.3311 148.644 64.4694 183.783 107.815 183.783Z" fill="#6B6B6B"/>
<path id="Vector_102" d="M107.731 183.633C151.074 183.633 186.21 148.497 186.21 105.154C186.21 61.8116 151.074 26.6753 107.731 26.6753C64.3885 26.6753 29.2522 61.8116 29.2522 105.154C29.2522 148.497 64.3885 183.633 107.731 183.633Z" fill="#696969"/>
<path id="Vector_103" d="M107.647 183.483C150.987 183.483 186.122 148.349 186.122 105.009C186.122 61.6684 150.987 26.5342 107.647 26.5342C64.3069 26.5342 29.1726 61.6684 29.1726 105.009C29.1726 148.349 64.3069 183.483 107.647 183.483Z" fill="#686868"/>
</g>
<path id="Vector_104" d="M107.322 183.692C150.906 183.692 186.239 148.36 186.239 104.775C186.239 61.1908 150.906 25.8584 107.322 25.8584C63.7369 25.8584 28.4045 61.1908 28.4045 104.775C28.4045 148.36 63.7369 183.692 107.322 183.692Z" fill="url(#paint0_linear_647_4648)"/>
<path id="Vector_105" d="M107.322 180.546C149.168 180.546 183.092 146.622 183.092 104.776C183.092 62.9288 149.168 29.0054 107.322 29.0054C65.475 29.0054 31.5515 62.9288 31.5515 104.776C31.5515 146.622 65.475 180.546 107.322 180.546Z" fill="white"/>
</g>
</g>
<g id="Group_5">
<path id="Vector_106" d="M90.6827 134.651C109.233 134.651 124.271 119.613 124.271 101.063C124.271 82.5126 109.233 67.4746 90.6827 67.4746C72.1323 67.4746 57.0942 82.5126 57.0942 101.063C57.0942 119.613 72.1323 134.651 90.6827 134.651Z" fill="#F08A47"/>
<g id="icones mae e filho-02">
<path id="Vector_107" d="M134.038 116.701C135.435 122.721 134.601 126.26 127.533 125.363L125.3 159.461C124.914 160.803 118.726 160.73 117.672 160.376C117.301 160.249 117.131 159.957 116.976 159.628L114.548 125.363C111.217 125.595 107.905 125.537 107.357 121.542L113.274 81.2435C113.819 79.6309 114.941 78.7307 116.619 78.4487C118.459 78.1414 125.033 78.1269 126.599 78.7596C130.246 80.2311 128.698 86.4606 130.409 89.4036C146.656 89.6531 149.78 112.471 134.042 116.697L134.038 116.701ZM110.755 123.921C112.181 124.221 114.443 123.704 115.987 123.921L118.152 158.991H123.925L126.09 123.921H131.321C131.466 123.921 132.404 123.234 132.588 123.024C134.201 121.195 131.801 117.55 132.916 115.844C133.27 115.305 135.305 115.001 136.077 114.586C144.412 110.092 145.422 98.5979 137.614 93.03C134.825 91.0451 132.263 91.1463 129.063 90.5751C127.71 88.3082 128.46 81.8183 126.443 80.3613C125.328 79.5586 119.26 79.6418 117.596 79.7936C116.085 79.931 115.1 80.3107 114.627 81.8798L108.977 121.35C108.771 122.352 109.857 123.729 110.755 123.921Z" fill="#393C40"/>
<path id="Vector_108" d="M119.87 57.4898C132.913 55.8918 134.594 75.6469 122.991 77.2486C108.757 79.2154 107.306 59.0264 119.87 57.4898ZM120.238 58.9252C109.511 60.0568 110.514 76.7243 121.937 75.8313C132.761 74.9816 131.267 57.7646 120.238 58.9252Z" fill="#393C40"/>
<path id="Vector_109" d="M120.595 83.1308C125.177 82.603 124.376 87.4911 124.686 90.0762C125.191 94.2594 128.132 97.8966 132.126 99.2524C135.482 100.391 141.006 99.0824 140.143 104.553C139.458 108.913 131.787 107.264 128.882 106.115C124.102 104.22 119.978 99.9502 118.246 95.0801C117.041 91.6887 115.406 83.7238 120.595 83.1272V83.1308ZM122.749 85.3254C120.891 83.3622 118.762 85.1483 118.517 87.5815C117.827 94.4112 122.788 101.993 128.984 104.567C131.008 105.41 137.834 107.225 138.646 104.495C139.75 100.775 134.453 101.523 132.025 100.796C127.609 99.4729 123.802 95.0692 123.243 90.4342C123.084 89.129 123.55 86.1679 122.749 85.3218V85.3254Z" fill="#393C40"/>
</g>
</g>
<g id="Group_6">
<text id="Em Gestantes" fill="#393C40" xml:space="preserve" style="white-space: pre" font-family="'Montserrat', sans-serif" font-size="24" font-weight="bold" letter-spacing="0em"><tspan x="280.491" y="116.22">Em Gestantes</tspan></text>
<g id="Group_7">
<path id="Vector_110" d="M342.566 53.8709L364.986 66.8988L385.887 53.0571" stroke="#393C40" stroke-width="5.4515" stroke-miterlimit="10"/>
<path id="Vector_111" d="M342.566 67.7127L364.986 80.7405L385.887 66.8989" stroke="#393C40" stroke-width="5.4515" stroke-miterlimit="10"/>
</g>
</g>
</g>
<defs>
<linearGradient id="paint0_linear_647_4648" x1="51.5208" y1="48.9705" x2="163.123" y2="160.58" gradientUnits="userSpaceOnUse">
<stop stop-color="white"/>
<stop offset="0.2253" stop-color="#F6F7F7"/>
<stop offset="0.5884" stop-color="#DFE0E1"/>
<stop offset="1" stop-color="#BCBEC0"/>
</linearGradient>
</defs>
</svg>
