<svg width="34" height="34" viewBox="0 0 34 34" fill="none" xmlns="http://www.w3.org/2000/svg">
<g id="ic:round-change-circle">
<path id="Vector" d="M16.9999 2.8335C9.17992 2.8335 2.83325 9.18016 2.83325 17.0002C2.83325 24.8202 9.17992 31.1668 16.9999 31.1668C24.8199 31.1668 31.1666 24.8202 31.1666 17.0002C31.1666 9.18016 24.8199 2.8335 16.9999 2.8335ZM18.2891 25.7127C18.1901 25.8097 18.0648 25.8756 17.9287 25.9021C17.7926 25.9287 17.6517 25.9147 17.5235 25.8619C17.3953 25.8091 17.2854 25.7198 17.2074 25.6052C17.1295 25.4905 17.0869 25.3555 17.0849 25.2168V24.0835H16.9999C15.1866 24.0835 13.3733 23.3893 11.9849 22.0152C11.0223 21.0514 10.3579 19.8306 10.0715 18.4989C9.78506 17.1672 9.88867 15.7811 10.3699 14.5068C10.6391 13.7843 11.5883 13.6002 12.1266 14.1527C12.4383 14.4643 12.5091 14.9177 12.3674 15.3143C11.7158 17.071 12.0841 19.111 13.5008 20.5277C14.4924 21.5193 15.7958 21.9868 17.0991 21.9585V20.6268C17.0991 19.9893 17.8641 19.6777 18.3033 20.131L20.5983 22.426C20.8816 22.7093 20.8816 23.1485 20.5983 23.4318L18.2891 25.7127ZM21.8733 19.8618C21.7268 19.7111 21.6264 19.5218 21.5837 19.3161C21.5411 19.1103 21.558 18.8967 21.6324 18.7002C22.2841 16.9435 21.9158 14.9035 20.4991 13.4868C19.5074 12.4952 18.2041 12.0135 16.9149 12.0418V13.3735C16.9149 14.011 16.1499 14.3227 15.7108 13.8693L13.4016 11.5885C13.1183 11.3052 13.1183 10.866 13.4016 10.5827L15.6966 8.28766C15.7956 8.19059 15.9209 8.12471 16.057 8.09819C16.1931 8.07167 16.334 8.08567 16.4622 8.13847C16.5904 8.19126 16.7003 8.28052 16.7783 8.39518C16.8562 8.50984 16.8988 8.64486 16.9008 8.7835V9.931C18.7424 9.90266 20.5983 10.5685 22.0008 11.9852C22.9634 12.9489 23.6277 14.1698 23.9142 15.5015C24.2006 16.8331 24.097 18.2192 23.6158 19.4935C23.3466 20.2302 22.4116 20.4143 21.8733 19.8618Z" fill="#0367A5"/>
</g>
</svg>
