<svg width="363" height="126" viewBox="0 0 363 126" fill="none" xmlns="http://www.w3.org/2000/svg">
<g id="Component 18">
<path id="Rectangle 173" d="M338.485 23.3848C346.965 23.3848 353.84 30.2598 353.84 38.7402V72.543C353.84 86.6488 342.405 98.0839 328.299 98.084H53.4963C45.0159 98.084 38.1409 91.209 38.1409 82.7285V38.7402C38.1409 30.2598 45.0159 23.3848 53.4963 23.3848H338.485Z" stroke="#7DCFFC" stroke-width="2.69919"/>
<rect id="Rectangle 172" x="33.2412" y="16.4851" width="312.499" height="73.4986" rx="21.348" stroke="#027EC7" stroke-width="4.49864"/>
<path id="Rectangle 359" d="M7 57.6884C7 36.3214 24.3214 19 45.6883 19H50C70.4345 19 87 35.5655 87 56V67C87 90.196 68.196 109 45 109H44C23.5655 109 7 92.4345 7 72V57.6884Z" fill="white"/>
<text id="SAIBA MAIS" fill="#027EC7" xml:space="preserve" style="white-space: pre" font-family="'Montserrat', sans-serif" font-size="30.5578" font-weight="bold" letter-spacing="0em"><tspan x="113.767" y="67.8456">SAIBA MAIS</tspan></text>
<rect id="Rectangle 360" x="34.3257" y="4.73047" width="61.6644" height="10.6691" transform="rotate(19.9196 34.3257 4.73047)" fill="white"/>
<rect id="Rectangle 361" x="95.4519" y="72.584" width="61.6644" height="10.6691" transform="rotate(128.109 95.4519 72.584)" fill="white"/>
<g id="Group 1120">
<g id="Group 1119">
<rect id="Rectangle 188" x="21.9957" width="38.1082" height="126.322" rx="19.0541" fill="white"/>
<path id="icon" fill-rule="evenodd" clip-rule="evenodd" d="M39.4068 18.7643L10.2963 29.6807C6.50906 31.101 4 34.7208 4 38.7656L4.00002 66.004C4.0001 83.2692 28.2723 100.534 38.4283 107.003C41.1452 108.733 44.5305 108.814 47.312 107.189C57.5334 101.218 81.6278 85.1171 81.6278 66.004V38.7656C81.6278 34.7208 79.1187 31.101 75.3314 29.6807L46.221 18.7643C44.0243 17.9405 41.6035 17.9405 39.4068 18.7643ZM48.0117 41.9996L28.5601 60.5309C28.0378 61.0284 28.2217 61.9017 28.9003 62.1463L40.2032 66.2207C40.7073 66.4024 40.9687 66.9585 40.787 67.4626L35.9287 80.9398C35.5815 81.9031 36.7695 82.6777 37.5109 81.9715L56.9626 63.4401C57.4848 62.9426 57.3009 62.0694 56.6223 61.8247L45.3195 57.7503C44.8153 57.5686 44.5539 57.0126 44.7357 56.5084L49.5939 43.0312C49.9411 42.0679 48.7531 41.2933 48.0117 41.9996Z" fill="#027EC7"/>
</g>
</g>
</g>
</svg>
