<svg width="332" height="105" viewBox="0 0 332 105" fill="none" xmlns="http://www.w3.org/2000/svg">
<g id="Component 10">
<path id="Rectangle 173" d="M317.995 17.5449C326.475 17.5451 333.349 24.42 333.349 32.9004V66.6816C333.349 80.7875 321.914 92.2227 307.808 92.2227H49.0952C40.6147 92.2227 33.7398 85.3477 33.7397 76.8672V32.9004C33.7397 24.4199 40.6147 17.5449 49.0952 17.5449H317.995Z" stroke="#F9D650" stroke-width="2.69919"/>
<rect id="Rectangle 172" x="29.2412" y="10.3469" width="296.911" height="73.7778" rx="21.348" stroke="#F2A71B" stroke-width="4.49864"/>
<path id="Rectangle 359" d="M3.59888 38.6883C3.59888 17.3213 20.9202 0 42.2872 0C63.6542 0 80.9756 17.3214 80.9756 38.6884V83.6748C80.9756 95.1037 71.7107 104.369 60.2818 104.369H42.2872C20.9202 104.369 3.59888 87.0472 3.59888 65.6802V38.6883Z" fill="white"/>
<g id="Group 1238">
<g id="icon">
<path fill-rule="evenodd" clip-rule="evenodd" d="M0 26.332C0 15.2677 8.96939 6.29834 20.0337 6.29834H38.3514C43.6647 6.29834 48.7603 8.40903 52.5174 12.1661L59.5054 19.1541C63.2624 22.9111 65.3731 28.0067 65.3731 33.32V50.6509C65.3731 51.7806 64.7706 52.8246 63.7924 53.3898C62.8143 53.955 61.6089 53.9556 60.6302 53.3915C58.2646 52.0279 55.0649 52.6558 53.478 55.2368L49.9696 60.9425C49.5494 61.6258 48.8853 62.1239 48.1117 62.3361L41.9 64.04C38.1221 65.0762 36.779 69.6653 39.1217 72.6566L43.2979 77.9888C43.7707 78.5925 44.0081 79.3473 43.966 80.1129L43.667 85.5524C43.5748 87.2294 42.188 88.5419 40.5085 88.5419H20.0337C8.96939 88.5419 0 79.5725 0 68.5082V26.332ZM15.8161 31.6041C14.0691 31.6041 12.6529 33.0203 12.6529 34.7673C12.6529 36.5143 14.0691 37.9305 15.8161 37.9305H32.6866C34.4335 37.9305 35.8498 36.5143 35.8498 34.7673C35.8498 33.0203 34.4335 31.6041 32.6866 31.6041H15.8161ZM15.8161 48.4745C14.0691 48.4745 12.6529 49.8907 12.6529 51.6377C12.6529 53.3847 14.0691 54.801 15.8161 54.801H41.1218C42.8688 54.801 44.285 53.3847 44.285 51.6377C44.285 49.8907 42.8688 48.4745 41.1218 48.4745H15.8161ZM15.8161 65.345C14.0691 65.345 12.6529 66.7612 12.6529 68.5082C12.6529 70.2552 14.0691 71.6714 15.8161 71.6714H28.4689C30.2159 71.6714 31.6321 70.2552 31.6321 68.5082C31.6321 66.7612 30.2159 65.345 28.4689 65.345H15.8161Z" fill="#F2A71B"/>
<path fill-rule="evenodd" clip-rule="evenodd" d="M56.1725 56.8936C57.0238 55.5093 58.9608 55.5093 59.812 56.8936L64.1728 63.9856C64.4657 64.4619 64.9191 64.806 65.4433 64.9498L73.2478 67.0905C74.7713 67.5084 75.3698 69.4327 74.3725 70.7062L69.263 77.23C68.9199 77.6681 68.7467 78.2249 68.7778 78.79L69.2405 87.205C69.3308 88.8476 67.7637 90.037 66.296 89.4396L58.7775 86.3796C58.2725 86.1741 57.7121 86.1741 57.2071 86.3796L49.6885 89.4396C48.2209 90.037 46.6538 88.8476 46.7441 87.205L47.2068 78.79C47.2379 78.2249 47.0647 77.6681 46.7215 77.23L41.6121 70.7062C40.6147 69.4327 41.2133 67.5084 42.7367 67.0905L50.5413 64.9498C51.0655 64.806 51.5189 64.4619 51.8117 63.9856L56.1725 56.8936ZM57.2009 67.2993L57.9923 66.0123L58.7837 67.2993C59.8901 69.0988 61.6499 70.4694 63.7698 71.0509L65.6605 71.5695L64.2824 73.3291C62.9761 74.997 62.3472 77.0697 62.4609 79.1374L62.5684 81.0921L61.1623 80.5199C59.1283 79.6921 56.8562 79.6921 54.8222 80.5199L53.4162 81.0921L53.5237 79.1374C53.6374 77.0697 53.0085 74.997 51.7022 73.3291L50.324 71.5695L52.2148 71.0509C54.3347 70.4694 56.0944 69.0988 57.2009 67.2993Z" fill="#F2A71B"/>
</g>
</g>
<text id="DESTAQUE" fill="#F2A71B" xml:space="preserve" style="white-space: pre" font-family="'Montserrat', sans-serif" font-size="30.5578" font-weight="bold" letter-spacing="0em"><tspan x="109.767" y="61.8451">DESTAQUE</tspan></text>
</g>
</svg>
