<svg width="268" height="420" viewBox="0 0 268 420" fill="none" xmlns="http://www.w3.org/2000/svg">
<g id="Frame 865">
<rect width="268" height="420" rx="16" fill="#F5F6F6"/>
<g id="Group">
<path id="Vector" d="M133.761 211.202C185.047 211.202 226.622 169.626 226.622 118.341C226.622 67.0548 185.047 25.4795 133.761 25.4795C82.4755 25.4795 40.9001 67.0548 40.9001 118.341C40.9001 169.626 82.4755 211.202 133.761 211.202Z" fill="#F08A47"/>
<path id="Vector_2" d="M75.8636 131.891H50.0604L64.4844 118.35C73.1344 109.696 74.3581 105.936 74.3581 99.1657C74.3581 86.1883 64.7656 82.9924 50.3796 82.9924C42.9491 82.9924 35.4258 83.2534 25.6485 85.0401V100.011C34.8622 99.8215 40.7872 99.8215 47.7427 99.8215C51.9773 99.8215 53.4828 100.011 53.4828 101.798C53.4828 104.712 48.9663 110.356 41.9139 117.408L28.3729 130.667C26.3037 133.11 25.551 135.557 25.551 138.85V149.006H77.4184C77.4184 194.578 114.362 231.521 159.934 231.521C205.506 231.521 242.449 194.578 242.449 149.006C242.449 103.434 205.506 66.4902 159.934 66.4902" stroke="black" stroke-width="5" stroke-miterlimit="10" stroke-linecap="round"/>
<g id="Group_2">
<g id="Group_3" opacity="0.3">
<path id="Vector_3" d="M163.141 219.484C198.978 219.484 228.03 190.432 228.03 154.595C228.03 118.758 198.978 89.7061 163.141 89.7061C127.304 89.7061 98.2521 118.758 98.2521 154.595C98.2521 190.432 127.304 219.484 163.141 219.484Z" fill="white"/>
<path id="Vector_4" d="M163.108 219.423C198.943 219.423 227.993 190.373 227.993 154.538C227.993 118.702 198.943 89.6523 163.108 89.6523C127.273 89.6523 98.2224 118.702 98.2224 154.538C98.2224 190.373 127.273 219.423 163.108 219.423Z" fill="#FCFCFC"/>
<path id="Vector_5" d="M163.074 219.361C198.907 219.361 227.955 190.313 227.955 154.479C227.955 118.646 198.907 89.5977 163.074 89.5977C127.24 89.5977 98.1919 118.646 98.1919 154.479C98.1919 190.313 127.24 219.361 163.074 219.361Z" fill="#FAFAFA"/>
<path id="Vector_6" d="M163.04 219.3C198.871 219.3 227.918 190.253 227.918 154.422C227.918 118.592 198.871 89.5449 163.04 89.5449C127.21 89.5449 98.1629 118.592 98.1629 154.422C98.1629 190.253 127.21 219.3 163.04 219.3Z" fill="#F7F7F7"/>
<path id="Vector_7" d="M163.007 219.238C198.836 219.238 227.881 190.193 227.881 154.364C227.881 118.535 198.836 89.4902 163.007 89.4902C127.178 89.4902 98.1326 118.535 98.1326 154.364C98.1326 190.193 127.178 219.238 163.007 219.238Z" fill="#F5F5F5"/>
<path id="Vector_8" d="M162.973 219.176C198.8 219.176 227.844 190.133 227.844 154.306C227.844 118.479 198.8 89.4355 162.973 89.4355C127.146 89.4355 98.1029 118.479 98.1029 154.306C98.1029 190.133 127.146 219.176 162.973 219.176Z" fill="#F2F2F2"/>
<path id="Vector_9" d="M162.939 219.115C198.764 219.115 227.806 190.074 227.806 154.249C227.806 118.424 198.764 89.3828 162.939 89.3828C127.115 89.3828 98.0732 118.424 98.0732 154.249C98.0732 190.074 127.115 219.115 162.939 219.115Z" fill="#F0F0F0"/>
<path id="Vector_10" d="M162.905 219.053C198.728 219.053 227.768 190.013 227.768 154.191C227.768 118.368 198.728 89.3281 162.905 89.3281C127.083 89.3281 98.0427 118.368 98.0427 154.191C98.0427 190.013 127.083 219.053 162.905 219.053Z" fill="#EDEDED"/>
<path id="Vector_11" d="M162.872 218.992C198.693 218.992 227.731 189.953 227.731 154.133C227.731 118.312 198.693 89.2734 162.872 89.2734C127.052 89.2734 98.0131 118.312 98.0131 154.133C98.0131 189.953 127.052 218.992 162.872 218.992Z" fill="#EBEBEB"/>
<path id="Vector_12" d="M162.838 218.931C198.657 218.931 227.694 189.894 227.694 154.075C227.694 118.257 198.657 89.2197 162.838 89.2197C127.02 89.2197 97.9828 118.257 97.9828 154.075C97.9828 189.894 127.02 218.931 162.838 218.931Z" fill="#E8E8E8"/>
<path id="Vector_13" d="M162.805 218.869C198.622 218.869 227.656 189.834 227.656 154.017C227.656 118.201 198.622 89.166 162.805 89.166C126.989 89.166 97.9537 118.201 97.9537 154.017C97.9537 189.834 126.989 218.869 162.805 218.869Z" fill="#E6E6E6"/>
<path id="Vector_14" d="M162.771 218.807C198.586 218.807 227.619 189.774 227.619 153.959C227.619 118.145 198.586 89.1113 162.771 89.1113C126.957 89.1113 97.9233 118.145 97.9233 153.959C97.9233 189.774 126.957 218.807 162.771 218.807Z" fill="#E3E3E3"/>
<path id="Vector_15" d="M162.738 218.746C198.55 218.746 227.582 189.714 227.582 153.902C227.582 118.089 198.55 89.0576 162.738 89.0576C126.925 89.0576 97.8934 118.089 97.8934 153.902C97.8934 189.714 126.925 218.746 162.738 218.746Z" fill="#E1E1E1"/>
<path id="Vector_16" d="M162.704 218.684C198.514 218.684 227.544 189.654 227.544 153.844C227.544 118.034 198.514 89.0039 162.704 89.0039C126.894 89.0039 97.8637 118.034 97.8637 153.844C97.8637 189.654 126.894 218.684 162.704 218.684Z" fill="#DEDEDE"/>
<path id="Vector_17" d="M162.671 218.623C198.479 218.623 227.507 189.595 227.507 153.787C227.507 117.978 198.479 88.9502 162.671 88.9502C126.862 88.9502 97.8342 117.978 97.8342 153.787C97.8342 189.595 126.862 218.623 162.671 218.623Z" fill="#DCDCDC"/>
<path id="Vector_18" d="M162.637 218.562C198.443 218.562 227.47 189.536 227.47 153.729C227.47 117.923 198.443 88.8965 162.637 88.8965C126.831 88.8965 97.8038 117.923 97.8038 153.729C97.8038 189.536 126.831 218.562 162.637 218.562Z" fill="#D9D9D9"/>
<path id="Vector_19" d="M162.604 218.498C198.407 218.498 227.432 189.474 227.432 153.67C227.432 117.866 198.407 88.8408 162.604 88.8408C126.8 88.8408 97.7747 117.866 97.7747 153.67C97.7747 189.474 126.8 218.498 162.604 218.498Z" fill="#D7D7D7"/>
<path id="Vector_20" d="M162.569 218.438C198.371 218.438 227.395 189.414 227.395 153.612C227.395 117.81 198.371 88.7871 162.569 88.7871C126.767 88.7871 97.7442 117.81 97.7442 153.612C97.7442 189.414 126.767 218.438 162.569 218.438Z" fill="#D4D4D4"/>
<path id="Vector_21" d="M162.536 218.377C198.336 218.377 227.358 189.355 227.358 153.555C227.358 117.755 198.336 88.7334 162.536 88.7334C126.736 88.7334 97.7145 117.755 97.7145 153.555C97.7145 189.355 126.736 218.377 162.536 218.377Z" fill="#D2D2D2"/>
<path id="Vector_22" d="M162.502 218.315C198.3 218.315 227.32 189.295 227.32 153.497C227.32 117.699 198.3 88.6797 162.502 88.6797C126.705 88.6797 97.6848 117.699 97.6848 153.497C97.6848 189.295 126.705 218.315 162.502 218.315Z" fill="#CFCFCF"/>
<path id="Vector_23" d="M162.469 218.253C198.264 218.253 227.283 189.235 227.283 153.439C227.283 117.643 198.264 88.625 162.469 88.625C126.673 88.625 97.6547 117.643 97.6547 153.439C97.6547 189.235 126.673 218.253 162.469 218.253Z" fill="#CDCDCD"/>
<path id="Vector_24" d="M162.435 218.191C198.229 218.191 227.246 189.174 227.246 153.381C227.246 117.587 198.229 88.5703 162.435 88.5703C126.641 88.5703 97.6249 117.587 97.6249 153.381C97.6249 189.174 126.641 218.191 162.435 218.191Z" fill="#CACACA"/>
<path id="Vector_25" d="M162.401 218.13C198.193 218.13 227.208 189.115 227.208 153.323C227.208 117.532 198.193 88.5166 162.401 88.5166C126.609 88.5166 97.5944 117.532 97.5944 153.323C97.5944 189.115 126.609 218.13 162.401 218.13Z" fill="#C7C7C7"/>
<path id="Vector_26" d="M162.368 218.068C198.157 218.068 227.171 189.055 227.171 153.266C227.171 117.476 198.157 88.4629 162.368 88.4629C126.578 88.4629 97.5652 117.476 97.5652 153.266C97.5652 189.055 126.578 218.068 162.368 218.068Z" fill="#C5C5C5"/>
<path id="Vector_27" d="M162.334 218.007C198.122 218.007 227.133 188.996 227.133 153.208C227.133 117.421 198.122 88.4092 162.334 88.4092C126.547 88.4092 97.535 117.421 97.535 153.208C97.535 188.996 126.547 218.007 162.334 218.007Z" fill="#C2C2C2"/>
<path id="Vector_28" d="M162.301 217.945C198.087 217.945 227.096 188.936 227.096 153.15C227.096 117.364 198.087 88.3545 162.301 88.3545C126.515 88.3545 97.5054 117.364 97.5054 153.15C97.5054 188.936 126.515 217.945 162.301 217.945Z" fill="#C0C0C0"/>
<path id="Vector_29" d="M162.267 217.884C198.05 217.884 227.058 188.876 227.058 153.093C227.058 117.31 198.05 88.3018 162.267 88.3018C126.484 88.3018 97.4756 117.31 97.4756 153.093C97.4756 188.876 126.484 217.884 162.267 217.884Z" fill="#BDBDBD"/>
<path id="Vector_30" d="M162.234 217.822C198.015 217.822 227.021 188.815 227.021 153.034C227.021 117.253 198.015 88.2461 162.234 88.2461C126.452 88.2461 97.4457 117.253 97.4457 153.034C97.4457 188.815 126.452 217.822 162.234 217.822Z" fill="#BBBBBB"/>
<path id="Vector_31" d="M162.2 217.76C197.979 217.76 226.984 188.755 226.984 152.976C226.984 117.196 197.979 88.1914 162.2 88.1914C126.42 88.1914 97.4155 117.196 97.4155 152.976C97.4155 188.755 126.42 217.76 162.2 217.76Z" fill="#B8B8B8"/>
<path id="Vector_32" d="M162.166 217.699C197.943 217.699 226.946 188.696 226.946 152.919C226.946 117.142 197.943 88.1387 162.166 88.1387C126.389 88.1387 97.3863 117.142 97.3863 152.919C97.3863 188.696 126.389 217.699 162.166 217.699Z" fill="#B6B6B6"/>
<path id="Vector_33" d="M162.132 217.637C197.907 217.637 226.909 188.636 226.909 152.86C226.909 117.085 197.907 88.084 162.132 88.084C126.357 88.084 97.356 117.085 97.356 152.86C97.356 188.636 126.357 217.637 162.132 217.637Z" fill="#B3B3B3"/>
<path id="Vector_34" d="M162.099 217.576C197.872 217.576 226.872 188.576 226.872 152.803C226.872 117.03 197.872 88.0303 162.099 88.0303C126.326 88.0303 97.3265 117.03 97.3265 152.803C97.3265 188.576 126.326 217.576 162.099 217.576Z" fill="#B1B1B1"/>
<path id="Vector_35" d="M162.065 217.515C197.836 217.515 226.835 188.517 226.835 152.746C226.835 116.975 197.836 87.9766 162.065 87.9766C126.294 87.9766 97.296 116.975 97.296 152.746C97.296 188.517 126.294 217.515 162.065 217.515Z" fill="#AEAEAE"/>
<path id="Vector_36" d="M162.032 217.452C197.801 217.452 226.797 188.456 226.797 152.687C226.797 116.918 197.801 87.9219 162.032 87.9219C126.263 87.9219 97.2668 116.918 97.2668 152.687C97.2668 188.456 126.263 217.452 162.032 217.452Z" fill="#ACACAC"/>
<path id="Vector_37" d="M161.998 217.391C197.765 217.391 226.76 188.397 226.76 152.63C226.76 116.863 197.765 87.8682 161.998 87.8682C126.231 87.8682 97.2365 116.863 97.2365 152.63C97.2365 188.397 126.231 217.391 161.998 217.391Z" fill="#A9A9A9"/>
<path id="Vector_38" d="M161.964 217.331C197.729 217.331 226.722 188.337 226.722 152.572C226.722 116.808 197.729 87.8145 161.964 87.8145C126.199 87.8145 97.2062 116.808 97.2062 152.572C97.2062 188.337 126.199 217.331 161.964 217.331Z" fill="#A7A7A7"/>
<path id="Vector_39" d="M161.931 217.268C197.693 217.268 226.685 188.276 226.685 152.514C226.685 116.751 197.693 87.7598 161.931 87.7598C126.168 87.7598 97.177 116.751 97.177 152.514C97.177 188.276 126.168 217.268 161.931 217.268Z" fill="#A4A4A4"/>
<path id="Vector_40" d="M161.897 217.207C197.658 217.207 226.647 188.217 226.647 152.456C226.647 116.696 197.658 87.7061 161.897 87.7061C126.136 87.7061 97.1467 116.696 97.1467 152.456C97.1467 188.217 126.136 217.207 161.897 217.207Z" fill="#A2A2A2"/>
<path id="Vector_41" d="M161.864 217.145C197.622 217.145 226.611 188.157 226.611 152.398C226.611 116.639 197.622 87.6514 161.864 87.6514C126.105 87.6514 97.117 116.639 97.117 152.398C97.117 188.157 126.105 217.145 161.864 217.145Z" fill="#9F9F9F"/>
<path id="Vector_42" d="M161.83 217.083C197.586 217.083 226.572 188.097 226.572 152.34C226.572 116.584 197.586 87.5977 161.83 87.5977C126.074 87.5977 97.0873 116.584 97.0873 152.34C97.0873 188.097 126.074 217.083 161.83 217.083Z" fill="#9D9D9D"/>
<path id="Vector_43" d="M161.797 217.021C197.551 217.021 226.536 188.036 226.536 152.282C226.536 116.528 197.551 87.543 161.797 87.543C126.042 87.543 97.0576 116.528 97.0576 152.282C97.0576 188.036 126.042 217.021 161.797 217.021Z" fill="#9A9A9A"/>
<path id="Vector_44" d="M161.763 216.96C197.515 216.96 226.498 187.977 226.498 152.225C226.498 116.472 197.515 87.4893 161.763 87.4893C126.01 87.4893 97.0272 116.472 97.0272 152.225C97.0272 187.977 126.01 216.96 161.763 216.96Z" fill="#979797"/>
<path id="Vector_45" d="M161.729 216.899C197.48 216.899 226.461 187.918 226.461 152.167C226.461 116.417 197.48 87.4355 161.729 87.4355C125.979 87.4355 96.9975 116.417 96.9975 152.167C96.9975 187.918 125.979 216.899 161.729 216.899Z" fill="#959595"/>
<path id="Vector_46" d="M161.696 216.837C197.444 216.837 226.423 187.858 226.423 152.11C226.423 116.361 197.444 87.3818 161.696 87.3818C125.947 87.3818 96.9678 116.361 96.9678 152.11C96.9678 187.858 125.947 216.837 161.696 216.837Z" fill="#929292"/>
<path id="Vector_47" d="M161.662 216.775C197.408 216.775 226.386 187.797 226.386 152.051C226.386 116.305 197.408 87.3271 161.662 87.3271C125.916 87.3271 96.938 116.305 96.938 152.051C96.938 187.797 125.916 216.775 161.662 216.775Z" fill="#909090"/>
<path id="Vector_48" d="M161.628 216.714C197.372 216.714 226.349 187.737 226.349 151.993C226.349 116.249 197.372 87.2725 161.628 87.2725C125.884 87.2725 96.9077 116.249 96.9077 151.993C96.9077 187.737 125.884 216.714 161.628 216.714Z" fill="#8D8D8D"/>
<path id="Vector_49" d="M161.595 216.653C197.337 216.653 226.311 187.678 226.311 151.936C226.311 116.194 197.337 87.2197 161.595 87.2197C125.853 87.2197 96.8786 116.194 96.8786 151.936C96.8786 187.678 125.853 216.653 161.595 216.653Z" fill="#8B8B8B"/>
<path id="Vector_50" d="M161.561 216.591C197.301 216.591 226.274 187.618 226.274 151.878C226.274 116.138 197.301 87.165 161.561 87.165C125.821 87.165 96.8483 116.138 96.8483 151.878C96.8483 187.618 125.821 216.591 161.561 216.591Z" fill="#888888"/>
<path id="Vector_51" d="M161.527 216.529C197.265 216.529 226.236 187.558 226.236 151.82C226.236 116.082 197.265 87.1104 161.527 87.1104C125.789 87.1104 96.8177 116.082 96.8177 151.82C96.8177 187.558 125.789 216.529 161.527 216.529Z" fill="#868686"/>
<path id="Vector_52" d="M161.494 216.468C197.23 216.468 226.199 187.498 226.199 151.763C226.199 116.027 197.23 87.0576 161.494 87.0576C125.758 87.0576 96.7888 116.027 96.7888 151.763C96.7888 187.498 125.758 216.468 161.494 216.468Z" fill="#838383"/>
<path id="Vector_53" d="M161.46 216.406C197.194 216.406 226.162 187.438 226.162 151.704C226.162 115.971 197.194 87.0029 161.46 87.0029C125.726 87.0029 96.7585 115.971 96.7585 151.704C96.7585 187.438 125.726 216.406 161.46 216.406Z" fill="#818181"/>
<path id="Vector_54" d="M161.427 216.345C197.158 216.345 226.125 187.379 226.125 151.647C226.125 115.916 197.158 86.9492 161.427 86.9492C125.695 86.9492 96.7288 115.916 96.7288 151.647C96.7288 187.379 125.695 216.345 161.427 216.345Z" fill="#7E7E7E"/>
<path id="Vector_55" d="M161.393 216.283C197.122 216.283 226.087 187.319 226.087 151.589C226.087 115.86 197.122 86.8955 161.393 86.8955C125.663 86.8955 96.699 115.86 96.699 151.589C96.699 187.319 125.663 216.283 161.393 216.283Z" fill="#7C7C7C"/>
<path id="Vector_56" d="M161.359 216.221C197.087 216.221 226.05 187.259 226.05 151.531C226.05 115.804 197.087 86.8408 161.359 86.8408C125.632 86.8408 96.6691 115.804 96.6691 151.531C96.6691 187.259 125.632 216.221 161.359 216.221Z" fill="#797979"/>
<path id="Vector_57" d="M161.326 216.16C197.051 216.16 226.012 187.199 226.012 151.474C226.012 115.748 197.051 86.7871 161.326 86.7871C125.6 86.7871 96.639 115.748 96.639 151.474C96.639 187.199 125.6 216.16 161.326 216.16Z" fill="#777777"/>
<path id="Vector_58" d="M161.292 216.099C197.016 216.099 225.975 187.139 225.975 151.416C225.975 115.692 197.016 86.7324 161.292 86.7324C125.569 86.7324 96.6093 115.692 96.6093 151.416C96.6093 187.139 125.569 216.099 161.292 216.099Z" fill="#747474"/>
<path id="Vector_59" d="M161.258 216.036C196.98 216.036 225.937 187.078 225.937 151.357C225.937 115.636 196.98 86.6777 161.258 86.6777C125.537 86.6777 96.5795 115.636 96.5795 151.357C96.5795 187.078 125.537 216.036 161.258 216.036Z" fill="#727272"/>
<path id="Vector_60" d="M161.225 215.975C196.944 215.975 225.901 187.019 225.901 151.299C225.901 115.58 196.944 86.624 161.225 86.624C125.506 86.624 96.5498 115.58 96.5498 151.299C96.5498 187.019 125.506 215.975 161.225 215.975Z" fill="#6F6F6F"/>
<path id="Vector_61" d="M161.191 215.914C196.908 215.914 225.863 186.959 225.863 151.242C225.863 115.525 196.908 86.5703 161.191 86.5703C125.474 86.5703 96.5193 115.525 96.5193 151.242C96.5193 186.959 125.474 215.914 161.191 215.914Z" fill="#6D6D6D"/>
<path id="Vector_62" d="M161.158 215.852C196.873 215.852 225.826 186.899 225.826 151.184C225.826 115.469 196.873 86.5166 161.158 86.5166C125.443 86.5166 96.4904 115.469 96.4904 151.184C96.4904 186.899 125.443 215.852 161.158 215.852Z" fill="#6A6A6A"/>
<path id="Vector_63" d="M161.124 215.79C196.837 215.79 225.788 186.839 225.788 151.126C225.788 115.413 196.837 86.4619 161.124 86.4619C125.411 86.4619 96.46 115.413 96.46 151.126C96.46 186.839 125.411 215.79 161.124 215.79Z" fill="#686868"/>
<path id="Vector_64" d="M161.09 215.729C196.801 215.729 225.751 186.78 225.751 151.069C225.751 115.358 196.801 86.4082 161.09 86.4082C125.379 86.4082 96.4297 115.358 96.4297 151.069C96.4297 186.78 125.379 215.729 161.09 215.729Z" fill="#656565"/>
<path id="Vector_65" d="M161.057 215.667C196.766 215.667 225.713 186.72 225.713 151.011C225.713 115.302 196.766 86.3545 161.057 86.3545C125.348 86.3545 96.4006 115.302 96.4006 151.011C96.4006 186.72 125.348 215.667 161.057 215.667Z" fill="#626262"/>
<path id="Vector_66" d="M161.023 215.606C196.73 215.606 225.676 186.66 225.676 150.954C225.676 115.247 196.73 86.3008 161.023 86.3008C125.316 86.3008 96.3701 115.247 96.3701 150.954C96.3701 186.66 125.316 215.606 161.023 215.606Z" fill="#606060"/>
<path id="Vector_67" d="M160.99 215.544C196.694 215.544 225.639 186.599 225.639 150.894C225.639 115.19 196.694 86.2451 160.99 86.2451C125.285 86.2451 96.3403 115.19 96.3403 150.894C96.3403 186.599 125.285 215.544 160.99 215.544Z" fill="#5D5D5D"/>
<path id="Vector_68" d="M160.956 215.483C196.659 215.483 225.602 186.54 225.602 150.837C225.602 115.134 196.659 86.1914 160.956 86.1914C125.253 86.1914 96.3102 115.134 96.3102 150.837C96.3102 186.54 125.253 215.483 160.956 215.483Z" fill="#5B5B5B"/>
<path id="Vector_69" d="M160.923 215.421C196.623 215.421 225.564 186.48 225.564 150.779C225.564 115.079 196.623 86.1377 160.923 86.1377C125.222 86.1377 96.2811 115.079 96.2811 150.779C96.2811 186.48 125.222 215.421 160.923 215.421Z" fill="#585858"/>
<path id="Vector_70" d="M160.889 215.359C196.587 215.359 225.527 186.419 225.527 150.721C225.527 115.022 196.587 86.083 160.889 86.083C125.19 86.083 96.2508 115.022 96.2508 150.721C96.2508 186.419 125.19 215.359 160.889 215.359Z" fill="#565656"/>
<path id="Vector_71" d="M160.855 215.298C196.552 215.298 225.49 186.36 225.49 150.664C225.49 114.967 196.552 86.0293 160.855 86.0293C125.159 86.0293 96.2209 114.967 96.2209 150.664C96.2209 186.36 125.159 215.298 160.855 215.298Z" fill="#535353"/>
<path id="Vector_72" d="M160.821 215.236C196.516 215.236 225.452 186.3 225.452 150.606C225.452 114.912 196.516 85.9756 160.821 85.9756C125.127 85.9756 96.1911 114.912 96.1911 150.606C96.1911 186.3 125.127 215.236 160.821 215.236Z" fill="#515151"/>
<path id="Vector_73" d="M160.788 215.175C196.481 215.175 225.415 186.241 225.415 150.549C225.415 114.856 196.481 85.9219 160.788 85.9219C125.096 85.9219 96.1616 114.856 96.1616 150.549C96.1616 186.241 125.096 215.175 160.788 215.175Z" fill="#4E4E4E"/>
<path id="Vector_74" d="M160.754 215.113C196.445 215.113 225.377 186.181 225.377 150.49C225.377 114.8 196.445 85.8672 160.754 85.8672C125.064 85.8672 96.1313 114.8 96.1313 150.49C96.1313 186.181 125.064 215.113 160.754 215.113Z" fill="#4C4C4C"/>
<path id="Vector_75" d="M160.721 215.051C196.409 215.051 225.34 186.12 225.34 150.432C225.34 114.744 196.409 85.8135 160.721 85.8135C125.033 85.8135 96.1021 114.744 96.1021 150.432C96.1021 186.12 125.033 215.051 160.721 215.051Z" fill="#494949"/>
<path id="Vector_76" d="M160.687 214.989C196.373 214.989 225.302 186.06 225.302 150.374C225.302 114.688 196.373 85.7588 160.687 85.7588C125.001 85.7588 96.0717 114.688 96.0717 150.374C96.0717 186.06 125.001 214.989 160.687 214.989Z" fill="#474747"/>
<path id="Vector_77" d="M160.654 214.929C196.338 214.929 225.265 186.001 225.265 150.317C225.265 114.633 196.338 85.7051 160.654 85.7051C124.97 85.7051 96.0419 114.633 96.0419 150.317C96.0419 186.001 124.97 214.929 160.654 214.929Z" fill="#444444"/>
<path id="Vector_78" d="M160.62 214.868C196.302 214.868 225.228 185.942 225.228 150.26C225.228 114.577 196.302 85.6514 160.62 85.6514C124.938 85.6514 96.0116 114.577 96.0116 150.26C96.0116 185.942 124.938 214.868 160.62 214.868Z" fill="#424242"/>
<path id="Vector_79" d="M160.586 214.805C196.266 214.805 225.19 185.881 225.19 150.201C225.19 114.521 196.266 85.5967 160.586 85.5967C124.906 85.5967 95.9821 114.521 95.9821 150.201C95.9821 185.881 124.906 214.805 160.586 214.805Z" fill="#3F3F3F"/>
<path id="Vector_80" d="M160.553 214.743C196.231 214.743 225.153 185.82 225.153 150.142C225.153 114.465 196.231 85.542 160.553 85.542C124.875 85.542 95.9523 114.465 95.9523 150.142C95.9523 185.82 124.875 214.743 160.553 214.743Z" fill="#3D3D3D"/>
<path id="Vector_81" d="M160.519 214.682C196.195 214.682 225.116 185.761 225.116 150.085C225.116 114.409 196.195 85.4883 160.519 85.4883C124.843 85.4883 95.9218 114.409 95.9218 150.085C95.9218 185.761 124.843 214.682 160.519 214.682Z" fill="#3A3A3A"/>
<path id="Vector_82" d="M160.485 214.62C196.159 214.62 225.078 185.701 225.078 150.027C225.078 114.354 196.159 85.4346 160.485 85.4346C124.812 85.4346 95.8927 114.354 95.8927 150.027C95.8927 185.701 124.812 214.62 160.485 214.62Z" fill="#383838"/>
<path id="Vector_83" d="M160.452 214.559C196.123 214.559 225.041 185.642 225.041 149.97C225.041 114.298 196.123 85.3809 160.452 85.3809C124.78 85.3809 95.8624 114.298 95.8624 149.97C95.8624 185.642 124.78 214.559 160.452 214.559Z" fill="#353535"/>
<path id="Vector_84" d="M160.418 214.497C196.088 214.497 225.004 185.581 225.004 149.912C225.004 114.242 196.088 85.3262 160.418 85.3262C124.749 85.3262 95.8326 114.242 95.8326 149.912C95.8326 185.581 124.749 214.497 160.418 214.497Z" fill="#323232"/>
<path id="Vector_85" d="M160.385 214.435C196.052 214.435 224.966 185.521 224.966 149.854C224.966 114.187 196.052 85.2725 160.385 85.2725C124.717 85.2725 95.8031 114.187 95.8031 149.854C95.8031 185.521 124.717 214.435 160.385 214.435Z" fill="#303030"/>
<path id="Vector_86" d="M160.351 214.374C196.016 214.374 224.929 185.462 224.929 149.797C224.929 114.131 196.016 85.2188 160.351 85.2188C124.686 85.2188 95.7732 114.131 95.7732 149.797C95.7732 185.462 124.686 214.374 160.351 214.374Z" fill="#2D2D2D"/>
<path id="Vector_87" d="M160.317 214.313C195.981 214.313 224.891 185.402 224.891 149.738C224.891 114.075 195.981 85.1641 160.317 85.1641C124.654 85.1641 95.7429 114.075 95.7429 149.738C95.7429 185.402 124.654 214.313 160.317 214.313Z" fill="#2B2B2B"/>
<path id="Vector_88" d="M160.284 214.251C195.945 214.251 224.854 185.342 224.854 149.68C224.854 114.019 195.945 85.1104 160.284 85.1104C124.623 85.1104 95.7137 114.019 95.7137 149.68C95.7137 185.342 124.623 214.251 160.284 214.251Z" fill="#282828"/>
<path id="Vector_89" d="M160.25 214.19C195.909 214.19 224.817 185.282 224.817 149.623C224.817 113.964 195.909 85.0566 160.25 85.0566C124.591 85.0566 95.6834 113.964 95.6834 149.623C95.6834 185.282 124.591 214.19 160.25 214.19Z" fill="#262626"/>
<path id="Vector_90" d="M160.217 214.128C195.874 214.128 224.78 185.222 224.78 149.565C224.78 113.908 195.874 85.002 160.217 85.002C124.56 85.002 95.6539 113.908 95.6539 149.565C95.6539 185.222 124.56 214.128 160.217 214.128Z" fill="#232323"/>
<path id="Vector_91" d="M160.183 214.066C195.838 214.066 224.742 185.162 224.742 149.507C224.742 113.852 195.838 84.9473 160.183 84.9473C124.528 84.9473 95.6234 113.852 95.6234 149.507C95.6234 185.162 124.528 214.066 160.183 214.066Z" fill="#212121"/>
<path id="Vector_92" d="M160.149 214.005C195.802 214.005 224.704 185.103 224.704 149.45C224.704 113.797 195.802 84.8945 160.149 84.8945C124.496 84.8945 95.5936 113.797 95.5936 149.45C95.5936 185.103 124.496 214.005 160.149 214.005Z" fill="#1E1E1E"/>
<path id="Vector_93" d="M160.116 213.943C195.767 213.943 224.667 185.042 224.667 149.392C224.667 113.741 195.767 84.8398 160.116 84.8398C124.465 84.8398 95.5639 113.741 95.5639 149.392C95.5639 185.042 124.465 213.943 160.116 213.943Z" fill="#1C1C1C"/>
<path id="Vector_94" d="M160.082 213.882C195.731 213.882 224.63 184.983 224.63 149.334C224.63 113.685 195.731 84.7861 160.082 84.7861C124.433 84.7861 95.5336 113.685 95.5336 149.334C95.5336 184.983 124.433 213.882 160.082 213.882Z" fill="#191919"/>
<path id="Vector_95" d="M160.048 213.819C195.695 213.819 224.592 184.922 224.592 149.275C224.592 113.629 195.695 84.7314 160.048 84.7314C124.402 84.7314 95.5045 113.629 95.5045 149.275C95.5045 184.922 124.402 213.819 160.048 213.819Z" fill="#171717"/>
<path id="Vector_96" d="M160.015 213.758C195.659 213.758 224.555 184.862 224.555 149.217C224.555 113.572 195.659 84.6768 160.015 84.6768C124.37 84.6768 95.4741 113.572 95.4741 149.217C95.4741 184.862 124.37 213.758 160.015 213.758Z" fill="#141414"/>
<path id="Vector_97" d="M159.981 213.697C195.624 213.697 224.518 184.803 224.518 149.16C224.518 113.517 195.624 84.623 159.981 84.623C124.339 84.623 95.4444 113.517 95.4444 149.16C95.4444 184.803 124.339 213.697 159.981 213.697Z" fill="#121212"/>
<path id="Vector_98" d="M159.947 213.635C195.588 213.635 224.48 184.742 224.48 149.102C224.48 113.462 195.588 84.5693 159.947 84.5693C124.307 84.5693 95.4147 113.462 95.4147 149.102C95.4147 184.742 124.307 213.635 159.947 213.635Z" fill="#0F0F0F"/>
<path id="Vector_99" d="M159.914 213.573C195.553 213.573 224.443 184.682 224.443 149.044C224.443 113.405 195.553 84.5146 159.914 84.5146C124.276 84.5146 95.3849 113.405 95.3849 149.044C95.3849 184.682 124.276 213.573 159.914 213.573Z" fill="#0D0D0D"/>
<path id="Vector_100" d="M159.88 213.512C195.517 213.512 224.406 184.623 224.406 148.987C224.406 113.35 195.517 84.4609 159.88 84.4609C124.244 84.4609 95.3547 113.35 95.3547 148.987C95.3547 184.623 124.244 213.512 159.88 213.512Z" fill="#0A0A0A"/>
<path id="Vector_101" d="M159.847 213.451C195.481 213.451 224.369 184.564 224.369 148.929C224.369 113.295 195.481 84.4072 159.847 84.4072C124.212 84.4072 95.3249 113.295 95.3249 148.929C95.3249 184.564 124.212 213.451 159.847 213.451Z" fill="#080808"/>
<path id="Vector_102" d="M159.813 213.388C195.445 213.388 224.331 184.503 224.331 148.87C224.331 113.238 195.445 84.3525 159.813 84.3525C124.181 84.3525 95.2952 113.238 95.2952 148.87C95.2952 184.503 124.181 213.388 159.813 213.388Z" fill="#050505"/>
<path id="Vector_103" d="M159.78 213.327C195.41 213.327 224.294 184.443 224.294 148.813C224.294 113.183 195.41 84.2988 159.78 84.2988C124.149 84.2988 95.2654 113.183 95.2654 148.813C95.2654 184.443 124.149 213.327 159.78 213.327Z" fill="#030303"/>
<path id="Vector_104" d="M159.746 213.266C195.374 213.266 224.257 184.384 224.257 148.756C224.257 113.128 195.374 84.2451 159.746 84.2451C124.118 84.2451 95.2352 113.128 95.2352 148.756C95.2352 184.384 124.118 213.266 159.746 213.266Z" fill="black"/>
</g>
<path id="Vector_105" d="M159.367 213.265C195.204 213.265 224.256 184.213 224.256 148.376C224.256 112.539 195.204 83.4873 159.367 83.4873C123.53 83.4873 94.4782 112.539 94.4782 148.376C94.4782 184.213 123.53 213.265 159.367 213.265Z" fill="white"/>
<g id="Group 1249">
<path id="Vector_106" d="M180.284 184.905C179.976 184.867 179.744 185.031 179.495 185.178C177.718 186.225 175.341 188.521 173.505 189.843C167.533 194.143 164.141 197.068 156.285 196.954C154.884 196.932 149.873 196.403 149.552 194.743C148.865 191.206 151.511 191.992 154.042 191.427C154.302 191.37 154.806 191.427 154.747 191.073C153.93 191.052 153.535 190.256 152.863 189.997C151.717 189.556 150.018 189.473 148.676 188.979C139.674 185.676 139.206 174.366 144.825 167.713C149.109 162.642 156.501 155.866 162.676 162.602C166.219 166.467 165.751 171.225 164.844 175.935C164.226 179.14 163.523 182.825 161.609 185.496C162.624 185.565 164.127 185.921 165.05 185.389C165.886 184.907 168.591 181.277 169.403 180.266C172.149 176.837 174.636 173.188 177.42 169.788L173.931 153.205C173.791 152.452 173.872 151.619 174.733 151.45C175.273 151.45 175.59 152.148 175.734 152.587C176.731 155.629 177.273 160.242 178.04 163.556C178.407 165.14 178.823 166.721 179.223 168.3C179.389 168.95 179.952 169.522 179.647 170.123C176.591 173.805 173.846 177.749 170.825 181.455C169.857 182.642 166.241 187.395 165.017 187.509C164.416 187.566 163.665 187.234 162.906 187.255C160.238 187.329 157.632 188.096 155.225 189.174C156.482 191.27 157.701 188.803 159.074 189.212C160.574 189.656 159.045 191.275 158.378 191.74C156.517 193.036 154.316 193.086 152.257 193.666C151.935 193.756 151.523 193.694 151.443 194.15C154.64 195.266 159.277 195.135 162.558 194.273C166.513 193.233 176.8 185.126 180.295 182.179C183.469 179.501 187.995 176.139 188.341 171.747C188.786 166.082 187.152 151.137 184.965 145.942C181.654 138.072 173.997 140.731 170.025 134.126C168.752 132.008 168.792 130.282 167.99 128.399C167.827 128.017 167.121 128.095 167.043 127.376C166.901 126.063 168.172 126.084 168.83 125.612C170.866 124.149 169.786 119.809 166.986 120.434C165.642 120.733 165.097 123.041 163.888 122.995C162.856 122.955 161.848 121.851 160.73 121.63C156.842 120.861 153.727 121.775 150.283 118.826C149.369 118.045 148.245 115.904 150.046 116.234C150.851 116.381 152.818 118.268 154.158 118.738C157.166 119.79 160.889 118.936 163.389 120.859C167.886 115.028 174.776 120.797 170.567 126.642C170.302 127.01 169.682 127.112 169.663 127.604C170.589 132.967 173.772 137.117 179.33 137.924C180.262 135.36 179.893 132.635 178.596 130.279C177.626 128.518 175.801 127.188 175.083 125.265C174.302 123.164 174.776 121.21 174.631 119.078C174.146 111.946 169.374 106.096 161.983 105.676C154.184 105.232 145.8 112.129 147.535 120.405C148.03 122.772 149.383 123.921 149.024 126.616C148.884 127.658 147.672 130.486 148.245 131.317C148.718 132.003 150.207 130.859 151.116 131.524C151.537 131.832 152.773 134.703 153.481 135.553C154.761 137.091 155.843 137.528 157.897 137.176C159.829 136.846 162.825 133.117 162.574 138.311C162.231 145.408 144.243 146.892 149.369 156.044C149.888 156.97 151.286 157.898 150.946 158.896C150.844 159.195 146.735 161.73 146.032 162.276C135.544 170.425 135.705 182.521 143.999 192.265C144.564 192.927 147.102 194.979 146.934 195.655C146.349 198.001 142.465 193.666 141.871 192.977C135.901 186.078 134.131 176.263 138.56 168.065C140.813 163.893 144.51 160.823 148.361 158.202C145.431 153.63 146.366 149.603 150.527 146.388C152.808 144.627 160.274 141.27 160.678 138.542C160.787 137.801 159.277 138.824 158.735 138.967C155.795 139.741 153.98 139.064 152.042 136.766C151.457 136.072 150.254 133.658 149.935 133.423C148.988 132.734 147.317 133.914 146.519 132.343C145.447 130.23 147.22 127.642 147.218 125.495C147.218 123.838 146.335 123.228 145.897 121.818C141.428 107.376 163.791 96.2715 173.401 109.883C176.679 114.529 176.059 116.958 176.523 122.169C176.889 126.293 180.163 127.957 181.235 131.673C181.926 134.071 181.912 136.398 181.041 138.751C187.051 142.193 188.099 149.107 189.018 155.413C189.687 160.002 191.11 170.664 189.64 174.705C188.326 178.314 184.196 181.023 181.526 183.601C183.159 186.74 184.897 191.472 185.017 195.028C185.062 196.334 183.685 196.726 183.245 196.071C183.074 195.819 182.414 191.113 182.13 190.076C181.647 188.309 180.904 186.631 180.3 184.91L180.284 184.905ZM159.72 185.85C159.746 185.824 159.488 185.458 159.58 185.138C159.734 184.594 161.015 183.167 161.415 182.22C162.882 178.727 164.312 169.988 162.761 166.552C161.022 162.699 157.587 160.676 153.504 162.424C151.291 163.371 145.296 169.449 144.259 171.652C142.162 176.104 142.323 182.54 146.496 185.714C147.892 186.778 151.511 188.252 153.223 188.112C153.968 188.051 155.448 187.106 156.283 186.797C156.915 186.564 159.594 185.976 159.72 185.85Z" fill="#EC6E28"/>
<path id="Vector_107" d="M154.929 125.18C156.674 124.928 156.823 126.419 155.547 127.236C154.688 127.784 151.623 128.33 151.083 127.274C150.449 125.199 152.569 125.723 153.871 125.555C154.224 125.51 154.586 125.232 154.932 125.182L154.929 125.18Z" fill="#EC6E28"/>
<path id="Vector_108" d="M149.047 182.793C145.679 183.757 144.778 181.912 145.511 178.835C146.633 177.708 147.824 178.536 149.074 178.617C147.471 177.755 144.494 176.675 145.471 174.289C146.179 172.56 148.621 172.316 150.212 172.731C151.239 173 151.483 173.735 152.385 173.99C149.926 169.756 152.115 164.533 157.448 165.238C160.537 165.647 162.537 169.775 161.254 172.57C160.454 174.31 160.404 172.902 160.437 175.286C160.48 178.401 160.243 181.596 157.949 183.959C155.336 186.653 150.255 187.007 149.047 182.793ZM150.969 179.685C151.585 181.369 150.096 181.794 151.438 183.363C153.069 185.269 156.144 183.626 157.313 181.898C158.574 180.034 158.83 177.487 158.78 175.286C158.766 174.654 158.432 174.02 158.529 173.41C158.648 172.667 159.855 172.228 159.867 170.511C159.9 166.064 152.977 165.789 153.088 170.542C153.1 171.029 153.464 172.344 153.727 172.745C154.437 173.826 157.017 173.037 156.366 174.78C155.93 175.943 154.491 174.882 153.949 174.989C153.459 175.084 153.064 176.637 152.025 176.518C150.657 175.077 148.309 172.627 147.204 175.621C149.457 176.684 151.227 178.332 153.904 178.002C154.532 177.924 156.657 176.869 155.812 178.731C155.239 179.996 152.134 179.638 150.967 179.683L150.969 179.685Z" fill="#EC6E28"/>
</g>
</g>
</g>
<g id="Segundo trimestre: Desenvolvimento avan&#195;&#167;ado do feto.">
<text fill="#242628" xml:space="preserve" style="white-space: pre" font-family="'Montserrat', sans-serif" font-size="18" letter-spacing="0em"><tspan x="55.0215" y="363.125">Desenvolvimento </tspan><tspan x="54.7666" y="388.125">avan&#xe7;ado do feto.</tspan></text>
<text fill="#242628" xml:space="preserve" style="white-space: pre" font-family="'Montserrat', sans-serif" font-size="24" font-weight="bold" letter-spacing="0em"><tspan x="77.6211" y="292.125">Segundo </tspan><tspan x="72.4648" y="326.125">trimestre:&#10;</tspan></text>
</g>
</g>
</svg>
