<svg width="1139" height="780" viewBox="0 0 1139 780" fill="none" xmlns="http://www.w3.org/2000/svg">
<g id="Frame 858">
<rect width="1139" height="780" rx="16" fill="white"/>
<g id="Group 1279">
<text id="Ano" transform="translate(573.734 665.665)" fill="#2A2828" xml:space="preserve" style="white-space: pre" font-family="'Montserrat', sans-serif" font-size="13.9518" font-weight="bold" letter-spacing="0em"><tspan x="6.17373" y="15.0017">Ano</tspan></text>
<rect id="Rectangle 346" x="65" y="62" width="1008.95" height="656" rx="10.4638" fill="#F0F9FF"/>
<text id="Evolu&#195;&#167;&#195;&#163;o da Desnutri&#195;&#167;&#195;&#163;o Infantil (1996, 2006, 2019, 2021)" fill="#3D100D" xml:space="preserve" style="white-space: pre" font-family="'Montserrat', sans-serif" font-size="17.4397" font-weight="600" letter-spacing="0em"><tspan x="341.567" y="150.56">Evolu&#xe7;&#xe3;o da Desnutri&#xe7;&#xe3;o Infantil (1996, 2006, 2019, 2021)</tspan></text>
<text id="Ano_2" fill="#3D100D" xml:space="preserve" style="white-space: pre" font-family="'Montserrat', sans-serif" font-size="13.0798" font-weight="bold" letter-spacing="0em"><tspan x="577.027" y="673.487">Ano</tspan></text>
<g id="Group 1277">
<text id="1996" transform="translate(310.139 626.721)" fill="#2A2828" xml:space="preserve" style="white-space: pre" font-family="'Montserrat', sans-serif" font-size="9.80539" font-weight="500" letter-spacing="0em"><tspan x="0" y="10.5152">1996</tspan></text>
<text id="2006" transform="translate(486.098 626.721)" fill="#242628" xml:space="preserve" style="white-space: pre" font-family="'Montserrat', sans-serif" font-size="9.80539" font-weight="500" letter-spacing="0em"><tspan x="0" y="10.5152">2006</tspan></text>
<text id="2019" transform="translate(666.947 626.721)" fill="#2A2828" xml:space="preserve" style="white-space: pre" font-family="'Montserrat', sans-serif" font-size="9.80539" font-weight="500" letter-spacing="0em"><tspan x="0" y="10.5152">2019</tspan></text>
<text id="2021" transform="translate(845.84 626.721)" fill="#2A2828" xml:space="preserve" style="white-space: pre" font-family="'Montserrat', sans-serif" font-size="9.80539" font-weight="500" letter-spacing="0em"><tspan x="0" y="10.5152">2021</tspan></text>
<text id="Percentual (%)" transform="translate(162.365 501.552) rotate(-90)" fill="#2A2828" xml:space="preserve" style="white-space: pre" font-family="'Montserrat', sans-serif" font-size="13.0798" font-weight="bold" letter-spacing="0em"><tspan x="20.2335" y="13.6891">Percentual (%)</tspan></text>
<line id="Line 39" x1="251.001" y1="627.974" x2="978.305" y2="627.974" stroke="#082D49" stroke-width="1.40077"/>
<line id="Line 40" x1="250.301" y1="628.675" x2="250.301" y2="225.921" stroke="#082D49" stroke-width="1.40077"/>
<text id="0" fill="#2A2828" xml:space="preserve" style="white-space: pre" font-family="'Montserrat', sans-serif" font-size="9.80539" font-weight="500" letter-spacing="0em"><tspan x="217.573" y="628.436">0</tspan></text>
<text id="6" fill="#2A2828" xml:space="preserve" style="white-space: pre" font-family="'Montserrat', sans-serif" font-size="9.80539" font-weight="500" letter-spacing="0em"><tspan x="218.061" y="459.319">6</tspan></text>
<text id="2" fill="#2A2828" xml:space="preserve" style="white-space: pre" font-family="'Montserrat', sans-serif" font-size="9.80539" font-weight="500" letter-spacing="0em"><tspan x="218.483" y="571.737">2</tspan></text>
<text id="8" fill="#2A2828" xml:space="preserve" style="white-space: pre" font-family="'Montserrat', sans-serif" font-size="9.80539" font-weight="500" letter-spacing="0em"><tspan x="217.803" y="402.619">8</tspan></text>
<text id="12" fill="#2A2828" xml:space="preserve" style="white-space: pre" font-family="'Montserrat', sans-serif" font-size="9.80539" font-weight="500" letter-spacing="0em"><tspan x="214.854" y="291.178">12</tspan></text>
<text id="4" fill="#2A2828" xml:space="preserve" style="white-space: pre" font-family="'Montserrat', sans-serif" font-size="9.80539" font-weight="500" letter-spacing="0em"><tspan x="217.554" y="516.017">4</tspan></text>
<text id="10" fill="#2A2828" xml:space="preserve" style="white-space: pre" font-family="'Montserrat', sans-serif" font-size="9.80539" font-weight="500" letter-spacing="0em"><tspan x="213.944" y="346.898">10</tspan></text>
<text id="14" fill="#2A2828" xml:space="preserve" style="white-space: pre" font-family="'Montserrat', sans-serif" font-size="9.80539" font-weight="500" letter-spacing="0em"><tspan x="213.925" y="235.458">14</tspan></text>
<path id="Vector 4" d="M229.001 570.998H956.305" stroke="#AAB1B6" stroke-width="0.700385" stroke-dasharray="1.4 1.4"/>
<path id="Vector 5" d="M229.001 514.299H956.305" stroke="#AAB1B6" stroke-width="0.700385" stroke-dasharray="1.4 1.4"/>
<path id="Vector 6" d="M229.001 458.58H956.305" stroke="#AAB1B6" stroke-width="0.700385" stroke-dasharray="1.4 1.4"/>
<path id="Vector 7" d="M229.001 402.858H956.305" stroke="#AAB1B6" stroke-width="0.700385" stroke-dasharray="1.4 1.4"/>
<path id="Vector 8" d="M229.001 346.159H956.305" stroke="#AAB1B6" stroke-width="0.700385" stroke-dasharray="1.4 1.4"/>
<path id="Vector 9" d="M229.001 290.438H956.305" stroke="#AAB1B6" stroke-width="0.700385" stroke-dasharray="1.4 1.4"/>
<path id="Vector 10" d="M229.001 232.764H956.305" stroke="#AAB1B6" stroke-width="0.700385" stroke-dasharray="1.4 1.4"/>
<path id="Rectangle 228" d="M261.261 474.381C261.261 470.513 264.397 467.377 268.265 467.377H316.821C320.689 467.377 323.825 470.513 323.825 474.381V626.719H261.261V474.381Z" fill="#0E9FE9"/>
<path id="Rectangle 348" d="M440.153 583.867C440.153 579.999 443.289 576.863 447.157 576.863H495.713C499.581 576.863 502.717 579.999 502.717 583.867V628.674H440.153V583.867Z" fill="#0E9FE9"/>
<path id="Rectangle 350" d="M619.047 550.63C619.047 546.762 622.182 543.626 626.05 543.626H674.606C678.475 543.626 681.61 546.762 681.61 550.63V626.718H619.047V550.63Z" fill="#0E9FE9"/>
<path id="Rectangle 352" d="M797.94 465.584C797.94 461.716 801.075 458.58 804.944 458.58H853.5C857.368 458.58 860.503 461.716 860.503 465.584V626.72H797.94V465.584Z" fill="#0E9FE9"/>
<path id="Rectangle 347" d="M323.824 256.386C323.824 252.518 326.96 249.382 330.828 249.382H379.384C383.252 249.382 386.388 252.518 386.388 256.386V626.719H323.824V256.386Z" fill="#F08A47"/>
<path id="Rectangle 349" d="M502.717 446.031C502.717 442.163 505.853 439.027 509.721 439.027H558.277C562.145 439.027 565.281 442.163 565.281 446.031V628.674H502.717V446.031Z" fill="#F08A47"/>
<path id="Rectangle 351" d="M681.61 437.233C681.61 433.365 684.746 430.229 688.614 430.229H737.17C741.038 430.229 744.174 433.365 744.174 437.233V626.719H681.61V437.233Z" fill="#F08A47"/>
<path id="Rectangle 353" d="M860.504 297.441C860.504 293.573 863.639 290.438 867.508 290.438H916.064C919.932 290.438 923.067 293.573 923.067 297.441V626.718H860.504V297.441Z" fill="#F08A47"/>
<g id="Group 1263">
<g id="Group 1262">
<g id="Group 1261">
<text id="Baixo peso (%)" fill="#242628" xml:space="preserve" style="white-space: pre" font-family="'Montserrat', sans-serif" font-size="8.40462" letter-spacing="0em"><tspan x="843.885" y="254.461">Baixo peso (%)</tspan></text>
<rect id="Rectangle 356" x="812.603" y="249.382" width="24.439" height="8.79803" rx="1.40077" fill="#0E9FE9"/>
</g>
<g id="Group 1260">
<text id="Baixa estatura (%)" fill="#242628" xml:space="preserve" style="white-space: pre" font-family="'Montserrat', sans-serif" font-size="8.40462" letter-spacing="0em"><tspan x="843.885" y="271.079">Baixa estatura (%)</tspan></text>
<rect id="Rectangle 357" x="812.603" y="266.001" width="24.439" height="8.79803" rx="1.40077" fill="#F08A47"/>
</g>
</g>
<rect id="Rectangle 358" x="809.043" y="242.888" width="142.023" height="37.4244" rx="1.75096" stroke="#AAB1B6" stroke-width="0.700385"/>
</g>
</g>
</g>
<g id="material-symbols:close-rounded"  style="cursor: pointer;" onclick="bootstrap.Modal.getInstance(document.getElementById('graficomodal')).hide();">
<rect x="1099" y="20" width="24" height="24" rx="12" fill="#075585"/>
<path id="Vector" d="M1111 33.3998L1106.1 38.2998C1105.92 38.4831 1105.68 38.5748 1105.4 38.5748C1105.12 38.5748 1104.88 38.4831 1104.7 38.2998C1104.52 38.1165 1104.43 37.8831 1104.43 37.5998C1104.43 37.3165 1104.52 37.0831 1104.7 36.8998L1109.6 31.9998L1104.7 27.0998C1104.52 26.9165 1104.43 26.6831 1104.43 26.3998C1104.43 26.1165 1104.52 25.8831 1104.7 25.6998C1104.88 25.5165 1105.12 25.4248 1105.4 25.4248C1105.68 25.4248 1105.92 25.5165 1106.1 25.6998L1111 30.5998L1115.9 25.6998C1116.08 25.5165 1116.32 25.4248 1116.6 25.4248C1116.88 25.4248 1117.12 25.5165 1117.3 25.6998C1117.48 25.8831 1117.58 26.1165 1117.58 26.3998C1117.58 26.6831 1117.48 26.9165 1117.3 27.0998L1112.4 31.9998L1117.3 36.8998C1117.48 37.0831 1117.58 37.3165 1117.58 37.5998C1117.58 37.8831 1117.48 38.1165 1117.3 38.2998C1117.12 38.4831 1116.88 38.5748 1116.6 38.5748C1116.32 38.5748 1116.08 38.4831 1115.9 38.2998L1111 33.3998Z" fill="white"/>
</g>
</g>
</svg>
