<svg width="370" height="608" viewBox="0 0 370 608" fill="none" xmlns="http://www.w3.org/2000/svg">
<g id="Frame 885" clip-path="url(#clip0_846_777)">
<g id="Group" filter="url(#filter0_d_846_777)">
<path id="Vector" d="M285.59 63.6741L266.197 1H137.393L118 63.6741H285.59Z" fill="#95B5C6"/>
<path id="Vector_2" d="M357 148.86V457.175C357 459.214 356.957 461.252 356.827 463.291C356.654 466.224 356.395 469.157 356.005 472.018C347.011 539.261 277.608 592.018 193.978 592.018C110.392 592.018 40.9889 539.261 31.9946 472.018C31.6054 469.157 31.346 466.224 31.173 463.291C31.0433 461.252 31 459.214 31 457.175V148.86C31 102.577 59.5829 61.5523 102.825 37.2306C107.149 34.7984 111.646 32.545 116.23 30.4705C139.364 19.9907 165.871 14.0176 193.978 14.0176C222.086 14.0176 248.593 19.9907 271.77 30.4705C276.354 32.545 280.851 34.7984 285.175 37.2306C293.78 42.0592 301.78 47.5673 309.131 53.6478C338.665 78.0769 357 111.805 357 148.86Z" fill="#F6921E"/>
<text id="Quando analisamos grupos populacionais em situa&#195;&#167;&#195;&#163;o de exclus&#195;&#163;o social, como ind&#195;&#173;genas e outros povos e comunidades tradicionais, os dados mostram uma alta preval&#195;&#170;ncia de baixa estatura entre crian&#195;&#167;as, que &#195;&#169; a forma mais comum de desnutri&#195;&#167;&#195;&#163;o no Brasil. Por exemplo, veja nos quadros ao lado (Brasil, 2023a):" fill="#F5F6F6" xml:space="preserve" style="white-space: pre" font-family="'Montserrat', sans-serif" font-size="18" font-weight="600" letter-spacing="0em"><tspan x="53" y="195.953">Quando analisamos grupos </tspan><tspan x="53" y="220.953">populacionais em situa&#xe7;&#xe3;o de </tspan><tspan x="53" y="245.953">exclus&#xe3;o social, como ind&#xed;genas </tspan><tspan x="53" y="270.953">e outros povos e comunidades </tspan><tspan x="53" y="295.953">tradicionais, os dados mostram </tspan><tspan x="53" y="320.953">uma alta preval&#xea;ncia de baixa </tspan><tspan x="53" y="345.953">estatura entre crian&#xe7;as, que &#xe9; a </tspan><tspan x="53" y="370.953">forma mais comum de </tspan><tspan x="53" y="395.953">desnutri&#xe7;&#xe3;o no Brasil. Por </tspan><tspan x="53" y="420.953">exemplo, veja nos quadros ao </tspan><tspan x="53" y="445.953">lado (Brasil, 2023a):</tspan></text>
<path id="Vector_3" d="M137 11.1455V112.638C137 148.058 165.98 177.038 201.4 177.038C236.82 177.038 265.801 148.058 265.801 112.638V11.1455H137Z" fill="#BBBDBF"/>
<path id="Vector_4" d="M137 1V102.493C137 137.912 165.98 166.893 201.4 166.893C236.82 166.893 265.801 137.912 265.801 102.493V1H137Z" fill="white"/>
<path id="Vector_5" d="M356 463C355.827 465.939 355.567 468.878 355.178 471.746C346.174 539.131 276.697 592 192.978 592C109.303 592 39.8263 539.131 30.8225 471.746C30.4329 468.878 30.1732 465.939 30 463H356Z" fill="#BBBDBF"/>
<path id="Vector_6" d="M355 472.018C346.006 539.26 276.605 592.018 192.978 592.018C109.395 592.018 39.994 539.26 31 472.018H355Z" fill="white"/>
<g id="Group_2">
<path id="Vector_7" d="M229.731 106.492C229.731 122.73 216.576 135.856 200.367 135.856C184.158 135.856 171 122.73 171 106.492C171 90.283 184.154 77.125 200.367 77.125C216.573 77.1286 229.731 90.283 229.731 106.492Z" fill="#F6921E"/>
<path id="Vector_8" d="M216.906 108.28V104.709C216.906 104.136 216.44 103.674 215.871 103.674H212.168C211.867 102.41 211.369 101.228 210.707 100.15L213.328 97.5287C213.733 97.124 213.733 96.4686 213.328 96.0639L210.803 93.5391C210.399 93.1344 209.743 93.1344 209.339 93.5391L206.717 96.1606C205.643 95.4981 204.457 95.0002 203.193 94.6994V90.9927C203.193 90.4197 202.731 89.9541 202.158 89.9541H198.587C198.014 89.9541 197.552 90.4197 197.552 90.9927V94.6994C196.288 95.0002 195.106 95.4981 194.028 96.1606L191.407 93.5391C191.002 93.1344 190.347 93.1344 189.942 93.5391L187.417 96.0639C187.012 96.4686 187.012 97.124 187.417 97.5287L190.039 100.15C189.38 101.228 188.878 102.41 188.577 103.674H184.871C184.298 103.674 183.836 104.14 183.836 104.709V108.28C183.836 108.853 184.301 109.315 184.871 109.315H188.577C188.878 110.579 189.376 111.761 190.039 112.839L187.417 115.461C187.012 115.865 187.012 116.521 187.417 116.925L189.942 119.45C190.347 119.855 191.002 119.855 191.407 119.45L194.028 116.829C195.106 117.491 196.288 117.986 197.552 118.29V121.993C197.552 122.566 198.018 123.028 198.587 123.028H202.158C202.731 123.028 203.193 122.563 203.193 121.993V118.29C204.457 117.986 205.643 117.491 206.717 116.829L209.339 119.45C209.743 119.855 210.399 119.855 210.803 119.45L213.328 116.925C213.733 116.521 213.733 115.865 213.328 115.461L210.707 112.839C211.369 111.765 211.867 110.579 212.168 109.315H215.871C216.44 109.315 216.906 108.849 216.906 108.28ZM201.846 112.807C197.119 113.856 193 109.73 194.053 105.003C194.583 102.621 196.506 100.702 198.888 100.175C203.612 99.1296 207.727 103.252 206.678 107.976C206.148 110.361 204.228 112.28 201.846 112.807Z" fill="white"/>
</g>
</g>
</g>
<defs>
<filter id="filter0_d_846_777" x="22" y="1" width="343" height="607.018" filterUnits="userSpaceOnUse" color-interpolation-filters="sRGB">
<feFlood flood-opacity="0" result="BackgroundImageFix"/>
<feColorMatrix in="SourceAlpha" type="matrix" values="0 0 0 0 0 0 0 0 0 0 0 0 0 0 0 0 0 0 127 0" result="hardAlpha"/>
<feOffset dy="8"/>
<feGaussianBlur stdDeviation="4"/>
<feComposite in2="hardAlpha" operator="out"/>
<feColorMatrix type="matrix" values="0 0 0 0 0 0 0 0 0 0 0 0 0 0 0 0 0 0 0.25 0"/>
<feBlend mode="normal" in2="BackgroundImageFix" result="effect1_dropShadow_846_777"/>
<feBlend mode="normal" in="SourceGraphic" in2="effect1_dropShadow_846_777" result="shape"/>
</filter>
<clipPath id="clip0_846_777">
<rect width="370" height="608" fill="white"/>
</clipPath>
</defs>
</svg>
