<svg width="773" height="472" viewBox="0 0 773 472" fill="none" xmlns="http://www.w3.org/2000/svg">
<g id="Frame 884">
<g id="Group 1278">
<text id="Ano" transform="translate(366.49 434.504)" fill="#2A2828" xml:space="preserve" style="white-space: pre" font-family="'Montserrat', sans-serif" font-size="13.9518" font-weight="bold" letter-spacing="0em"><tspan x="0.237563" y="15.0017">Ano</tspan></text>
<rect id="Rectangle 346" x="2" y="2" width="722.876" height="470" rx="10.4638" fill="#F0F9FF"/>
<text id="Evolu&#195;&#167;&#195;&#163;o da Desnutri&#195;&#167;&#195;&#163;o Infantil (1996, 2006, 2019, 2021)" fill="#3D100D" xml:space="preserve" style="white-space: pre" font-family="'Montserrat', sans-serif" font-size="17.4397" font-weight="600" letter-spacing="0em"><tspan x="113.703" y="70.1994">Evolu&#xe7;&#xe3;o da Desnutri&#xe7;&#xe3;o Infantil (1996, 2006, 2019, 2021)</tspan></text>
<text id="Ano_2" fill="#3D100D" xml:space="preserve" style="white-space: pre" font-family="'Montserrat', sans-serif" font-size="13.0798" font-weight="bold" letter-spacing="0em"><tspan x="349.162" y="443.706">Ano</tspan></text>
<g id="Group 1277">
<text id="1996" transform="translate(177.633 406.602)" fill="#2A2828" xml:space="preserve" style="white-space: pre" font-family="'Montserrat', sans-serif" font-size="9.80539" font-weight="500" letter-spacing="0em"><tspan x="0" y="10.5152">1996</tspan></text>
<text id="2006" transform="translate(303.702 406.602)" fill="#242628" xml:space="preserve" style="white-space: pre" font-family="'Montserrat', sans-serif" font-size="9.80539" font-weight="500" letter-spacing="0em"><tspan x="0" y="10.5152">2006</tspan></text>
<text id="2019" transform="translate(433.273 406.602)" fill="#2A2828" xml:space="preserve" style="white-space: pre" font-family="'Montserrat', sans-serif" font-size="9.80539" font-weight="500" letter-spacing="0em"><tspan x="0" y="10.5152">2019</tspan></text>
<text id="2021" transform="translate(561.443 406.602)" fill="#2A2828" xml:space="preserve" style="white-space: pre" font-family="'Montserrat', sans-serif" font-size="9.80539" font-weight="500" letter-spacing="0em"><tspan x="0" y="10.5152">2021</tspan></text>
<text id="Percentual (%)" transform="translate(71.7588 316.923) rotate(-90)" fill="#2A2828" xml:space="preserve" style="white-space: pre" font-family="'Montserrat', sans-serif" font-size="13.0798" font-weight="bold" letter-spacing="0em"><tspan x="0.446289" y="13.6891">Percentual (%)</tspan></text>
<line id="Line 39" x1="119.501" y1="407.302" x2="640.587" y2="407.302" stroke="#082D49" stroke-width="1.40077"/>
<line id="Line 40" x1="118.8" y1="408.002" x2="118.8" y2="119.443" stroke="#082D49" stroke-width="1.40077"/>
<text id="0" fill="#2A2828" xml:space="preserve" style="white-space: pre" font-family="'Montserrat', sans-serif" font-size="9.80539" font-weight="500" letter-spacing="0em"><tspan x="109.459" y="410.812">0</tspan></text>
<text id="6" fill="#2A2828" xml:space="preserve" style="white-space: pre" font-family="'Montserrat', sans-serif" font-size="9.80539" font-weight="500" letter-spacing="0em"><tspan x="109.947" y="289.646">6</tspan></text>
<text id="2" fill="#2A2828" xml:space="preserve" style="white-space: pre" font-family="'Montserrat', sans-serif" font-size="9.80539" font-weight="500" letter-spacing="0em"><tspan x="110.368" y="370.189">2</tspan></text>
<text id="8" fill="#2A2828" xml:space="preserve" style="white-space: pre" font-family="'Montserrat', sans-serif" font-size="9.80539" font-weight="500" letter-spacing="0em"><tspan x="109.688" y="249.022">8</tspan></text>
<text id="12" fill="#2A2828" xml:space="preserve" style="white-space: pre" font-family="'Montserrat', sans-serif" font-size="9.80539" font-weight="500" letter-spacing="0em"><tspan x="106.739" y="169.179">12</tspan></text>
<text id="4" fill="#2A2828" xml:space="preserve" style="white-space: pre" font-family="'Montserrat', sans-serif" font-size="9.80539" font-weight="500" letter-spacing="0em"><tspan x="109.44" y="330.268">4</tspan></text>
<text id="10" fill="#2A2828" xml:space="preserve" style="white-space: pre" font-family="'Montserrat', sans-serif" font-size="9.80539" font-weight="500" letter-spacing="0em"><tspan x="105.83" y="209.1">10</tspan></text>
<text id="14" fill="#2A2828" xml:space="preserve" style="white-space: pre" font-family="'Montserrat', sans-serif" font-size="9.80539" font-weight="500" letter-spacing="0em"><tspan x="105.81" y="129.257">14</tspan></text>
<path id="Vector 4" d="M119.501 366.679H640.587" stroke="#AAB1B6" stroke-width="0.700385" stroke-dasharray="1.4 1.4"/>
<path id="Vector 5" d="M119.501 326.056H640.587" stroke="#AAB1B6" stroke-width="0.700385" stroke-dasharray="1.4 1.4"/>
<path id="Vector 6" d="M119.501 286.135H640.587" stroke="#AAB1B6" stroke-width="0.700385" stroke-dasharray="1.4 1.4"/>
<path id="Vector 7" d="M119.501 246.213H640.587" stroke="#AAB1B6" stroke-width="0.700385" stroke-dasharray="1.4 1.4"/>
<path id="Vector 8" d="M119.501 205.59H640.587" stroke="#AAB1B6" stroke-width="0.700385" stroke-dasharray="1.4 1.4"/>
<path id="Vector 9" d="M119.501 165.667H640.587" stroke="#AAB1B6" stroke-width="0.700385" stroke-dasharray="1.4 1.4"/>
<path id="Vector 10" d="M119.501 124.346H640.587" stroke="#AAB1B6" stroke-width="0.700385" stroke-dasharray="1.4 1.4"/>
<path id="Rectangle 228" d="M142.614 299.441C142.614 295.573 145.749 292.438 149.618 292.438H180.435C184.303 292.438 187.438 295.573 187.438 299.441V406.6H142.614V299.441Z" fill="#0E9FE9"/>
<path id="Rectangle 348" d="M270.784 377.885C270.784 374.017 273.919 370.881 277.788 370.881H308.604C312.473 370.881 315.608 374.017 315.608 377.885V408.001H270.784V377.885Z" fill="#0E9FE9"/>
<path id="Rectangle 350" d="M398.954 354.071C398.954 350.203 402.09 347.067 405.958 347.067H436.775C440.643 347.067 443.779 350.203 443.779 354.071V406.6H398.954V354.071Z" fill="#0E9FE9"/>
<path id="Rectangle 352" d="M527.125 293.139C527.125 289.27 530.26 286.135 534.128 286.135H564.945C568.813 286.135 571.949 289.27 571.949 293.139V406.601H527.125V293.139Z" fill="#0E9FE9"/>
<path id="Rectangle 347" d="M187.438 143.256C187.438 139.388 190.574 136.252 194.442 136.252H225.259C229.127 136.252 232.263 139.388 232.263 143.256V406.6H187.438V143.256Z" fill="#F08A47"/>
<path id="Rectangle 349" d="M315.608 279.13C315.608 275.262 318.744 272.126 322.612 272.126H353.429C357.297 272.126 360.433 275.262 360.433 279.13V408.001H315.608V279.13Z" fill="#F08A47"/>
<path id="Rectangle 351" d="M443.779 272.827C443.779 268.959 446.915 265.823 450.783 265.823H481.6C485.468 265.823 488.603 268.959 488.603 272.827V406.601H443.779V272.827Z" fill="#F08A47"/>
<path id="Rectangle 353" d="M571.949 172.671C571.949 168.803 575.085 165.667 578.953 165.667H609.77C613.638 165.667 616.774 168.803 616.774 172.671V406.599H571.949V172.671Z" fill="#F08A47"/>
<g id="Group 1263">
<g id="Group 1262">
<g id="Group 1261">
<text id="Baixo peso (%)" fill="#242628" xml:space="preserve" style="white-space: pre" font-family="'Montserrat', sans-serif" font-size="8.40462" letter-spacing="0em"><tspan x="560.043" y="142.163">Baixo peso (%)</tspan></text>
<rect id="Rectangle 356" x="537.63" y="136.252" width="17.5096" height="6.30346" rx="1.40077" fill="#0E9FE9"/>
</g>
<g id="Group 1260">
<text id="Baixa estatura (%)" fill="#242628" xml:space="preserve" style="white-space: pre" font-family="'Montserrat', sans-serif" font-size="8.40462" letter-spacing="0em"><tspan x="560.043" y="154.07">Baixa estatura (%)</tspan></text>
<rect id="Rectangle 357" x="537.63" y="148.159" width="17.5096" height="6.30346" rx="1.40077" fill="#F08A47"/>
</g>
</g>
<rect id="Rectangle 358" x="535.179" y="131.699" width="101.556" height="26.6146" rx="1.75096" stroke="#AAB1B6" stroke-width="0.700385"/>
</g>
</g>
</g>
<g id="mingcute:search-fill">
<rect x="679.5" y="40.5" width="91" height="91" rx="21.5" fill="white"/>
<rect x="679.5" y="40.5" width="91" height="91" rx="21.5" stroke="#F08A47" stroke-width="5"/>
<g id="Group">
<path id="Vector" d="M721 59.333C725.256 59.3327 729.426 60.5306 733.033 62.7896C736.64 65.0486 739.538 68.2775 741.395 72.1066C743.253 75.9357 743.995 80.2105 743.536 84.4416C743.078 88.6727 741.437 92.6893 738.803 96.0317L748.541 105.77C749.027 106.273 749.296 106.947 749.29 107.646C749.284 108.345 749.003 109.014 748.509 109.509C748.014 110.003 747.346 110.283 746.646 110.289C745.947 110.296 745.274 110.027 744.771 109.541L735.032 99.8023C732.193 102.04 728.86 103.565 725.312 104.253C721.764 104.94 718.102 104.769 714.633 103.753C711.164 102.738 707.989 100.907 705.371 98.4149C702.754 95.9225 700.77 92.8402 699.586 89.4252C698.402 86.0103 698.052 82.3616 698.564 78.7838C699.077 75.2059 700.438 71.8026 702.534 68.8577C704.63 65.9128 707.399 63.5117 710.611 61.8549C713.824 60.198 717.386 59.3333 721 59.333ZM721 64.6663C716.403 64.6663 711.994 66.4925 708.743 69.7432C705.493 72.9938 703.667 77.4026 703.667 81.9997C703.667 86.5968 705.493 91.0056 708.743 94.2562C711.994 97.5068 716.403 99.333 721 99.333C725.597 99.333 730.006 97.5068 733.256 94.2562C736.507 91.0056 738.333 86.5968 738.333 81.9997C738.333 77.4026 736.507 72.9938 733.256 69.7432C730.006 66.4925 725.597 64.6663 721 64.6663ZM721 67.333C724.89 67.333 728.62 68.8782 731.371 71.6288C734.121 74.3793 735.667 78.1098 735.667 81.9997C735.667 85.8895 734.121 89.62 731.371 92.3706C728.62 95.1211 724.89 96.6663 721 96.6663C717.11 96.6663 713.38 95.1211 710.629 92.3706C707.879 89.62 706.333 85.8895 706.333 81.9997C706.333 78.1098 707.879 74.3793 710.629 71.6288C713.38 68.8782 717.11 67.333 721 67.333Z" fill="#EC6E28"/>
</g>
</g>
</g>
</svg>
