<svg width="1139" height="780" viewBox="0 0 1139 780" fill="none" xmlns="http://www.w3.org/2000/svg">
<g id="Frame 880">
<rect width="1139" height="780" rx="16" fill="white"/>
<g id="Group 1259">
<g id="Group 1252">
<rect id="Rectangle 200" x="55" y="83" width="1032" height="614" rx="11" stroke="#027EC7" stroke-width="2"/>
<g id="Group 1251">
<text id="Um estudo realizado em Minas Gerais identificou os seguintes dados sobre gestantes atendidas na rede p&#195;&#186;blica de sa&#195;&#186;de:" fill="#242628" xml:space="preserve" style="white-space: pre" font-family="'Montserrat', sans-serif" font-size="18" font-weight="bold" letter-spacing="0em"><tspan x="247.656" y="150.515">Um estudo realizado em Minas Gerais identificou os seguintes dados </tspan><tspan x="320.526" y="175.515">sobre gestantes atendidas na rede p&#xfa;blica de sa&#xfa;de:&#13;</tspan></text>
</g>
</g>
<g id="Group 1258">
<rect id="Rectangle 351" x="233" y="261" width="88" height="56" rx="8" fill="#7DCFFC"/>
<rect id="Rectangle 352" x="233" y="343" width="226" height="56" rx="8" fill="#38B8F8"/>
<rect id="Rectangle 353" x="233" y="425" width="458" height="56" rx="8" fill="#0E9FE9"/>
<rect id="Rectangle 354" x="233" y="507" width="238" height="56" rx="8" fill="#0367A5"/>
<rect id="Rectangle 355" x="233" y="589" width="146" height="56" rx="8" fill="#0C476E"/>
<g id="Group 1254">
<path id="Vector_2" d="M192.906 360.003C192.472 360.456 191.197 360.537 190.508 361.281C188.238 363.729 189.807 367.63 184.384 366.588C183.063 366.336 181.773 364.604 181.397 366.479C185.879 370.767 196.466 372.681 192.642 381.152C200.049 384.956 203.682 394.028 201.025 401.981C200.703 402.945 198.383 407.392 197.674 404.747C197.573 404.363 199.495 398.762 199.595 397.069C199.855 392.657 197.682 387.036 193.975 384.476C192.925 383.752 190.485 383.333 190.086 382.547C189.067 380.537 193.026 379.003 190.291 375.389C187.537 371.747 178.256 370.306 179.643 365.124C180.956 360.204 183.795 365.248 185.763 364.694C187.622 364.171 188.075 357.632 191.457 358.554C191.693 357.249 190.659 356.071 190.663 354.874C190.678 352.635 194.378 350.416 192.034 347.328C189.133 353.042 182.71 354.599 176.749 353.522C176.23 356.137 177.353 356.296 178.682 357.969C176.067 359.379 177.241 359.166 176.575 361.285C175.982 363.171 173.968 364.237 172.5 365.329C181.246 371.244 172.287 383.535 170.59 391.224C170.776 391.964 177.098 393.157 178.209 393.277C179.821 393.451 181.676 393.594 183.226 393.087C184.566 392.649 186.127 390.689 187.692 391.119C188.637 391.379 188.842 392.68 189.435 392.99C191.043 393.831 195.021 393.103 195.354 396.275C195.877 401.245 191.43 402.794 187.409 403.077C180.929 403.526 174.115 402.388 167.7 401.601C166.131 401.888 166.437 406.28 164.365 405.204C162.653 403.952 164.435 402.364 164.365 400.745C160.24 400.191 158.082 395.496 158.163 391.665C158.229 388.532 160.654 381.919 160.391 379.692C160.321 379.103 158.253 376.438 157.776 375.021C156.3 370.643 156.974 366.921 159.415 363.082C160.867 360.793 164.106 358.151 165.101 356.001C166.871 352.178 166.298 347.995 168.851 343.885C175.649 332.953 193.25 335.382 194.506 348.738C194.928 353.228 192.886 353.259 192.712 354.94C192.6 356.013 194.343 358.527 192.91 360.014L192.906 360.003ZM173.522 361.901C176.904 358.364 171.744 351.566 176.559 351.179C179.395 350.95 180.994 352.046 184.477 350.993C187.731 350.005 192.53 345.756 189.512 342.494C184.856 337.462 175.107 338.4 171.318 344.028C168.246 348.591 169.106 354.568 165.899 358.732C163.931 361.285 161.266 363.036 160.031 366.41C158.992 369.245 158.721 373.642 160.871 375.962C161.673 372.069 162.529 368.893 165.783 366.355C167.708 364.856 172.228 363.245 173.515 361.897L173.522 361.901ZM168.897 367.146C164.659 368.106 161.278 379.092 163.188 380.432C163.691 380.784 170.307 381.548 171.14 381.385C172.658 381.087 173.844 376.078 173.991 374.563C174.324 371.124 173.425 366.119 168.897 367.146ZM187.39 397.247H193.386C192.518 394.059 186.94 397.468 186.801 393.374C185.538 393.823 184.643 395.171 183.334 395.516C181.072 396.112 169.002 394.489 168.014 392.599C167.332 391.297 170.873 385.208 170.939 383.318L162.014 382.71C161.243 386.44 159.144 395.601 163.067 397.964C165.225 399.262 172.271 400.079 175.01 400.338C178.829 400.702 188.102 401.427 191.356 400.052C191.91 399.819 191.945 399.967 191.837 399.184C190.101 398.998 187.94 399.843 186.809 398.208L187.386 397.247H187.39Z" fill="#38B8F8"/>
<path id="Vector_3" d="M173.522 361.902C172.232 363.25 167.716 364.857 165.79 366.36C162.537 368.894 161.684 372.074 160.879 375.967C158.729 373.646 159 369.25 160.038 366.414C161.27 363.041 163.939 361.29 165.907 358.737C169.114 354.573 168.254 348.596 171.326 344.033C175.114 338.404 184.864 337.467 189.52 342.499C192.537 345.76 187.738 350.01 184.484 350.998C180.998 352.055 179.402 350.955 176.567 351.183C171.752 351.571 176.908 358.369 173.53 361.906L173.522 361.902Z" fill="white"/>
<path id="Vector_4" d="M187.389 397.249L186.812 398.209C187.943 399.844 190.105 398.999 191.84 399.185C191.949 399.972 191.91 399.821 191.36 400.053C188.11 401.428 178.833 400.704 175.013 400.34C172.275 400.076 165.229 399.263 163.071 397.965C159.147 395.606 161.247 386.441 162.017 382.711L170.942 383.319C170.876 385.209 167.336 391.299 168.018 392.6C169.005 394.491 181.079 396.114 183.338 395.517C184.647 395.172 185.542 393.824 186.804 393.375C186.944 397.465 192.522 394.061 193.39 397.249H187.393H187.389Z" fill="white"/>
<path id="Vector_5" d="M168.897 367.146C173.429 366.119 174.324 371.124 173.991 374.564C173.843 376.078 172.658 381.087 171.14 381.385C170.307 381.548 163.691 380.789 163.187 380.432C161.277 379.092 164.659 368.107 168.897 367.146Z" fill="white"/>
</g>
<g id="Group 1256">
<path id="Vector_6" d="M152.028 538.234C151.338 538.041 150.504 536.524 151.371 535.901C155.17 533.21 178.047 510 180.216 510C180.701 510 181.139 510.114 181.501 510.442L208.947 536.011L209.061 537.527C208.973 537.8 208.097 538.234 207.987 538.234H201.468V560.745C201.468 560.909 200.979 561.693 200.76 561.827L159.399 562C159.201 561.907 158.552 561.238 158.552 561.166V538.234C156.796 537.923 153.549 538.664 152.033 538.234H152.028ZM160.654 536.76V559.481L161.285 560.113H173.065L173.697 559.481V543.494C173.697 542.623 174.876 542.164 175.613 542.063C177.462 541.801 186.74 541.389 186.74 543.916V560.113H198.73L199.362 559.481V536.76C200.878 535.459 203.527 536.398 205.46 536.133L205.671 535.299L180.216 512.708L154.766 535.922C155.903 536.583 160.253 535.471 160.654 536.76ZM184.217 544.547H175.803V560.113C178.536 559.583 181.395 560.412 184.217 560.113V544.547Z" fill="#0367A5"/>
<path id="Vector_7" d="M160.654 536.759C160.254 535.466 155.903 536.582 154.766 535.921L180.216 512.707L205.671 535.298L205.46 536.132C203.527 536.401 200.878 535.462 199.362 536.759V559.48L198.73 560.112H186.74V543.915C186.74 541.388 177.466 541.796 175.613 542.062C174.876 542.167 173.697 542.622 173.697 543.493V559.48L173.065 560.112H161.285L160.654 559.48V536.759Z" fill="white"/>
<path id="Vector_8" d="M184.217 544.549V560.115C181.395 560.414 178.536 559.584 175.802 560.115V544.549H184.217Z" fill="white"/>
</g>
<g id="Group 1255">
<path id="Vector_9" d="M154.94 474.401C153.623 474.122 152.569 472.011 152.414 470.733C151.101 459.809 153.421 446.314 152.414 435.111C152.763 432.659 154.518 431.648 156.857 431.428C171.445 430.064 188.125 432.493 202.937 431.428C205.126 431.393 207.164 432.911 207.38 435.111C206.579 446.453 208.415 459.178 207.388 470.353C207.303 471.302 207.291 471.608 206.768 472.445C204.526 476.044 199.258 473.874 204.696 471.535L205.064 435.491C205.06 434.19 204.169 433.647 202.941 433.744C188.164 434.86 171.383 432.342 156.846 433.744C155.04 433.918 154.889 434.089 154.719 435.871C153.665 446.74 155.567 459.298 154.719 470.353C154.448 471.116 156.009 472.464 156.478 472.464H182.791C183.519 472.464 183.519 474.401 182.791 474.401H154.928H154.94Z" fill="#0E9FE9"/>
<path id="Vector_10" d="M200.021 482.14C199.118 482.752 194.253 477.798 192.8 477.55C191.778 477.457 187.28 482.268 185.712 482.14C184.832 481.548 185.595 469.377 185.328 467.235C185.146 465.759 184.112 464.531 183.872 462.885C181.745 448.425 202.964 448.789 202.321 461.386C202.221 463.384 200.683 465.294 200.431 466.878C200.083 469.094 200.927 481.524 200.017 482.14H200.021ZM191.797 453.979C185.316 455.018 183.821 464.527 189.616 467.2C197.797 470.973 204.072 460.165 196.902 455.269C195.399 454.243 193.617 453.689 191.797 453.979ZM198.088 468.982C194.749 470.485 190.708 470.876 187.641 468.594V478.271C189.171 477.736 191.344 475.137 192.866 475.137C194.388 475.137 196.561 477.736 198.091 478.271V468.982H198.088Z" fill="#0E9FE9"/>
<path id="Vector_11" d="M161.904 439.961H197.506C197.576 439.961 198.405 440.774 198.44 440.984C198.56 441.383 197.603 442.285 197.506 442.285H161.904C161.269 442.285 160.971 440.341 161.904 439.965V439.961Z" fill="#0E9FE9"/>
<path id="Vector_12" d="M161.905 449.247L161.509 448.867C160.979 445.664 165.12 447.287 166.917 447.329C172.46 447.461 178.026 447.194 183.57 447.314L184.534 447.899C184.736 448.286 184.275 449.247 183.961 449.247H161.905Z" fill="#0E9FE9"/>
<path id="Vector_13" d="M179.091 463.536C178.193 463.721 177.193 464.233 176.283 464.21C174.807 464.167 173.517 462.772 172.727 462.796C171.852 462.823 171.526 464.384 169.268 463.95C167.517 463.613 168.214 461.75 166.165 461.994C163.76 462.28 164.116 465.139 161.711 464.729C161.25 461.665 165.642 459.089 168.28 460.289C168.865 460.557 169.57 461.909 170.078 461.998C170.631 462.095 171.104 460.944 172.34 460.828C174.424 460.634 175.024 462.071 176.372 462.234C177.426 462.362 179.351 460.212 179.088 463.539L179.091 463.536Z" fill="#0E9FE9"/>
<path id="Vector_14" d="M191.797 453.979C193.617 453.689 195.399 454.243 196.902 455.269C204.072 460.165 197.797 470.973 189.616 467.2C183.821 464.527 185.316 455.017 191.797 453.979Z" fill="white"/>
<path id="Vector_15" d="M198.087 468.981V478.27C196.557 477.735 194.384 475.136 192.862 475.136C191.34 475.136 189.167 477.735 187.636 478.27V468.594C190.704 470.875 194.748 470.484 198.084 468.981H198.087Z" fill="white"/>
</g>
<g id="Group 1253">
<path id="Vector_16" d="M202.336 318.833C201.255 313.228 200.38 304.365 194.171 302.041C192.106 301.27 189.526 301.019 187.38 300.418C183.758 305.892 175.174 305.892 171.56 300.441C164.549 301.181 160.315 304.199 158.297 311.047C157.716 313.027 157.577 317.4 156.938 318.589C156.542 319.325 155.814 319.67 155.276 318.88C154.404 317.605 155.83 311.547 156.36 309.885C158.677 302.646 163.697 298.842 171.32 298.338C172.017 295.572 170.181 295.177 168.826 293.33C168.5 293.194 168.795 294 168.384 294.108C165.378 294.898 158.623 293.566 156.291 291.203C162.86 281.86 157.859 269.538 167.466 261.787C173.164 257.189 182.496 256.991 188.953 260.044C201.74 266.09 196.491 281.209 202.658 291.548C199.884 293.81 195.542 294.337 192.063 294.085C191.416 294.038 190.731 293.31 190.297 293.508C190.134 293.581 187.88 295.859 187.795 296.045C186.435 298.977 190.367 298.512 192.176 299.004C200.57 301.278 203.638 309.087 204.203 317.191C204.238 317.714 204.37 318.357 203.87 318.705L202.332 318.837L202.336 318.833ZM165.153 282.689V273.981H172.312C173.067 273.981 176.209 273.268 177.15 273.016C178.665 272.61 182.042 270.762 183.139 270.878C183.572 270.925 186.489 272.982 187.984 273.4C190.123 274 191.955 274.109 194.178 273.977C194.291 280.004 194.314 286.16 191.858 291.776C194.527 291.842 197.049 291.916 199.59 290.994C199.09 288.615 197.974 286.438 197.448 284.056C195.801 276.627 197.138 269.174 190.7 263.716C185.536 259.339 175.577 259.199 169.914 262.678C160.474 268.477 164.278 282.046 159.359 290.424C161.869 291.92 165.002 291.842 167.861 291.772C167.303 290.591 166.591 289.475 166.203 288.209C165.734 286.675 165.274 284.25 165.15 282.681L165.153 282.689ZM191.858 276.301C188.562 276.518 185.463 275.089 182.759 273.342C178.045 275.747 172.726 276.518 167.474 276.301C166.335 286.609 170.197 298.729 182.956 295.46C191.87 293.178 192.071 283.979 191.858 276.301ZM185.273 297.199C181.67 298.319 177.739 298.195 174.055 297.587C173.784 299.872 174.148 300.922 176.367 301.654C179.931 302.828 185.788 301.921 185.273 297.199Z" fill="#7DCFFC"/>
<path id="Vector_17" d="M193.016 312.873C193.121 312.493 193.965 311.765 194.57 312.075C196.332 312.977 194.651 317.56 194.949 319.26L193.016 318.679C193.291 317.091 192.637 314.26 193.016 312.873Z" fill="#7DCFFC"/>
<path id="Vector_18" d="M164.379 312.291C167.687 311.199 167.067 318.95 165.723 319.256C165.332 319.384 164.379 318.388 164.379 318.287V312.291Z" fill="#7DCFFC"/>
<path id="Vector_19" d="M165.153 282.689C165.277 284.258 165.734 286.679 166.207 288.216C166.594 289.483 167.307 290.599 167.865 291.78C165.006 291.85 161.872 291.927 159.362 290.432C164.282 282.05 160.478 268.484 169.918 262.686C175.581 259.207 185.54 259.347 190.703 263.724C197.141 269.182 195.805 276.638 197.451 284.064C197.978 286.442 199.093 288.623 199.593 291.002C197.052 291.923 194.53 291.85 191.861 291.784C194.321 286.167 194.298 280.012 194.182 273.985C191.958 274.117 190.122 274.008 187.988 273.408C186.493 272.985 183.576 270.932 183.142 270.886C182.046 270.77 178.672 272.617 177.153 273.024C176.212 273.276 173.071 273.989 172.315 273.989H165.157V282.697L165.153 282.689Z" fill="white"/>
<path id="Vector_20" d="M191.858 276.299C192.071 283.977 191.87 293.177 182.957 295.458C170.197 298.723 166.335 286.603 167.474 276.299C172.726 276.516 178.045 275.745 182.759 273.34C185.459 275.087 188.562 276.516 191.858 276.299ZM184.208 280.645C183.596 281.78 183.352 283.469 184.274 284.461C186.722 286.526 187.818 278.976 184.208 280.645ZM174.775 280.611C174.074 280.459 172.839 280.355 172.56 281.192C172.211 282.853 172.498 285.65 174.667 284.465C175.643 283.64 175.24 281.695 174.775 280.611ZM182.565 291.395L181.93 289.516L176.154 289.822L175.984 291.395H182.561H182.565Z" fill="white"/>
<path id="Vector_21" d="M185.273 297.199C185.788 301.921 179.935 302.828 176.367 301.654C174.144 300.922 173.784 299.868 174.055 297.587C177.739 298.195 181.67 298.319 185.273 297.199Z" fill="white"/>
<path id="Vector_22" d="M182.566 291.396H175.988L176.159 289.824L181.93 289.514L182.566 291.396Z" fill="#7DCFFC"/>
<path id="Vector_23" d="M184.208 280.646C187.822 278.981 186.722 286.53 184.274 284.462C183.352 283.47 183.596 281.781 184.208 280.646Z" fill="#7DCFFC"/>
<path id="Vector_24" d="M174.775 280.614C175.24 281.695 175.639 283.643 174.667 284.468C172.502 285.654 172.211 282.857 172.56 281.195C172.839 280.362 174.074 280.463 174.775 280.614Z" fill="#7DCFFC"/>
</g>
<g id="Group 1257">
<path id="Vector_25" d="M153.92 597L205.501 597.089C207.988 598.108 209.495 599.282 209.766 602.113C210.699 611.766 209.022 622.899 209.754 632.715C209.286 635.658 207.38 636.921 204.537 637.173C188.635 638.579 170.701 636.077 154.583 637.173C151.883 637.103 149.694 635.457 149.365 632.715C148.207 623.093 150.256 611.216 149.365 601.35C149.566 599.262 151.906 597.341 153.916 597H153.92ZM153.909 599.313C152.836 599.696 151.697 600.482 151.678 601.726L151.891 633.671L154.583 634.849C170.658 633.71 188.697 636.301 204.54 634.849C206.744 634.647 207.24 634.167 207.442 631.948C208.309 622.488 206.752 611.727 207.434 602.125C207.357 600.335 205.939 599.127 204.153 599.212L153.909 599.313Z" fill="#0C476E"/>
<path id="Vector_26" d="M153.909 599.312L204.153 599.211C205.935 599.126 207.353 600.335 207.434 602.124C206.752 611.727 208.31 622.488 207.442 631.947C207.237 634.167 206.745 634.647 204.541 634.848C188.698 636.301 170.662 633.709 154.583 634.848L151.891 633.671L151.678 601.725C151.693 600.482 152.832 599.692 153.909 599.312ZM161.761 618.192C166.378 619.563 171.89 617.417 171.022 611.831C170.689 609.685 167.889 607.357 165.824 607.357H160.018L159.437 607.938V625.548H161.757V618.196L161.761 618.192ZM182.078 607.357C180.265 606.993 177.449 607.625 175.5 607.357L174.919 607.938V625.548H183.24C183.728 625.548 185.696 624.266 186.083 623.75C187.749 621.539 187.191 617.467 184.208 616.642V616.077C187.555 613.857 185.572 608.066 182.078 607.361V607.357ZM199.687 609.678L199.106 607.357H190.592L190.011 607.938V624.967C190.011 625.734 192.331 625.734 192.331 624.967V617.808C194.218 617.677 199.602 618.711 197.111 615.546L192.331 615.488V609.682H199.683L199.687 609.678Z" fill="white"/>
<path id="Vector_27" d="M182.078 607.358C185.572 608.06 187.555 613.854 184.212 616.074V616.64C187.195 617.465 187.749 621.536 186.083 623.748C185.692 624.267 183.724 625.545 183.24 625.545H174.919V607.936L175.5 607.355C177.453 607.622 180.265 606.991 182.078 607.355V607.358ZM177.239 615.485C179.765 615.443 183.612 616.19 183.457 612.592C183.313 609.229 179.719 609.574 177.239 609.683V615.489V615.485ZM177.239 617.806V623.612C179.757 623.717 184.797 624.174 184.592 620.351C184.409 617.031 179.49 617.852 177.239 617.806Z" fill="#0C476E"/>
<path id="Vector_28" d="M161.761 618.194V625.546H159.44V607.937L160.021 607.355H165.828C167.893 607.355 170.693 609.683 171.026 611.829C171.894 617.415 166.382 619.561 161.765 618.19L161.761 618.194ZM161.761 616.261C170.844 617.675 171.464 608.312 161.761 610.071V616.261Z" fill="#0C476E"/>
<path id="Vector_29" d="M199.687 609.68H192.335V615.486L197.115 615.544C199.605 618.709 194.221 617.679 192.335 617.806V624.965C192.335 625.732 190.014 625.732 190.014 624.965V607.937L190.595 607.355H199.11L199.691 609.676L199.687 609.68Z" fill="#0C476E"/>
<path id="Vector_30" d="M177.239 617.806C179.486 617.848 184.409 617.031 184.591 620.351C184.801 624.17 179.761 623.713 177.239 623.612V617.806Z" fill="white"/>
<path id="Vector_31" d="M177.239 615.484V609.678C179.722 609.569 183.313 609.224 183.456 612.587C183.611 616.185 179.765 615.438 177.239 615.48V615.484Z" fill="white"/>
<path id="Vector_32" d="M161.76 616.26V610.07C171.464 608.315 170.844 617.677 161.76 616.26Z" fill="white"/>
</g>
<text id="17,9%" fill="#F5F6F6" xml:space="preserve" style="white-space: pre" font-family="'Montserrat', sans-serif" font-size="20" font-weight="bold" letter-spacing="0em"><tspan x="252.117" y="296.17">17,9%</tspan></text>
<text id="45,5%" fill="#F5F6F6" xml:space="preserve" style="white-space: pre" font-family="'Montserrat', sans-serif" font-size="20" font-weight="bold" letter-spacing="0em"><tspan x="384.422" y="378.17">45,5%</tspan></text>
<text id="92,5%" fill="#F5F6F6" xml:space="preserve" style="white-space: pre" font-family="'Montserrat', sans-serif" font-size="20" font-weight="bold" letter-spacing="0em"><tspan x="617.439" y="460.17">92,5%</tspan></text>
<text id="48,0%" fill="#F5F6F6" xml:space="preserve" style="white-space: pre" font-family="'Montserrat', sans-serif" font-size="20" font-weight="bold" letter-spacing="0em"><tspan x="393.262" y="542.17">48,0%</tspan></text>
<text id="29,5%" fill="#F5F6F6" xml:space="preserve" style="white-space: pre" font-family="'Montserrat', sans-serif" font-size="20" font-weight="bold" letter-spacing="0em"><tspan x="306.125" y="624.17">29,5%</tspan></text>
<text id="eram adolescentes" fill="#242628" xml:space="preserve" style="white-space: pre" font-family="'Montserrat', sans-serif" font-size="18" font-weight="500" letter-spacing="0em"><tspan x="336" y="295.953">eram adolescentes</tspan></text>
<text id="se autodeclararam pardas" fill="#242628" xml:space="preserve" style="white-space: pre" font-family="'Montserrat', sans-serif" font-size="18" font-weight="500" letter-spacing="0em"><tspan x="474" y="377.953">se autodeclararam pardas</tspan></text>
<text id="n&#195;&#163;o conclu&#195;&#173;ram o ensino m&#195;&#169;dio" fill="#242628" xml:space="preserve" style="white-space: pre" font-family="'Montserrat', sans-serif" font-size="18" font-weight="500" letter-spacing="0em"><tspan x="706" y="459.953">n&#xe3;o conclu&#xed;ram o ensino m&#xe9;dio</tspan></text>
<text id="viviam em domic&#195;&#173;lios com inseguran&#195;&#167;a alimentar" fill="#242628" xml:space="preserve" style="white-space: pre" font-family="'Montserrat', sans-serif" font-size="18" font-weight="500" letter-spacing="0em"><tspan x="486" y="541.953">viviam em domic&#xed;lios com inseguran&#xe7;a alimentar</tspan></text>
<text id="participavam do Programa Bolsa Fam&#195;&#173;lia (PBF)" fill="#242628" xml:space="preserve" style="white-space: pre" font-family="'Montserrat', sans-serif" font-size="18" font-weight="500" letter-spacing="0em"><tspan x="394" y="623.953">participavam do Programa Bolsa Fam&#xed;lia (PBF)</tspan></text>
</g>
</g>
</g>
</svg>
