<svg width="338" height="104" viewBox="0 0 338 104" fill="none" xmlns="http://www.w3.org/2000/svg">
<g id="Frame 881">
<g id="Component 10">
<path id="Rectangle 173" d="M320.995 17.5449C329.475 17.5451 336.349 24.42 336.349 32.9004V66.6816C336.349 80.7875 324.914 92.2227 310.808 92.2227H52.0952C43.6147 92.2227 36.7398 85.3477 36.7397 76.8672V32.9004C36.7397 24.4199 43.6147 17.5449 52.0952 17.5449H320.995Z" stroke="#F9D650" stroke-width="2.69919"/>
<rect id="Rectangle 172" x="32.2412" y="10.3469" width="296.911" height="73.7778" rx="21.348" stroke="#F2A71B" stroke-width="4.49864"/>
<path id="Rectangle 359" d="M6.59888 38.6883C6.59888 17.3213 23.9202 0 45.2872 0C66.6542 0 83.9756 17.3214 83.9756 38.6884V83.6748C83.9756 95.1037 74.7107 104.369 63.2818 104.369H45.2872C23.9202 104.369 6.59888 87.0472 6.59888 65.6802V38.6883Z" fill="white"/>
<g id="Group 1238">
<g id="icon">
<path fill-rule="evenodd" clip-rule="evenodd" d="M3 26.332C3 15.2677 11.9694 6.29834 23.0337 6.29834H41.3514C46.6647 6.29834 51.7603 8.40903 55.5174 12.1661L62.5054 19.1541C66.2624 22.9111 68.3731 28.0067 68.3731 33.32V50.6509C68.3731 51.7806 67.7706 52.8246 66.7924 53.3898C65.8143 53.955 64.6089 53.9556 63.6302 53.3915C61.2646 52.0279 58.0649 52.6558 56.478 55.2368L52.9696 60.9425C52.5494 61.6258 51.8853 62.1239 51.1117 62.3361L44.9 64.04C41.1221 65.0762 39.779 69.6653 42.1217 72.6566L46.2979 77.9888C46.7707 78.5925 47.0081 79.3473 46.966 80.1129L46.667 85.5524C46.5748 87.2294 45.188 88.5419 43.5085 88.5419H23.0337C11.9694 88.5419 3 79.5725 3 68.5082V26.332ZM18.8161 31.6041C17.0691 31.6041 15.6529 33.0203 15.6529 34.7673C15.6529 36.5143 17.0691 37.9305 18.8161 37.9305H35.6866C37.4335 37.9305 38.8498 36.5143 38.8498 34.7673C38.8498 33.0203 37.4335 31.6041 35.6866 31.6041H18.8161ZM18.8161 48.4745C17.0691 48.4745 15.6529 49.8907 15.6529 51.6377C15.6529 53.3847 17.0691 54.801 18.8161 54.801H44.1218C45.8688 54.801 47.285 53.3847 47.285 51.6377C47.285 49.8907 45.8688 48.4745 44.1218 48.4745H18.8161ZM18.8161 65.345C17.0691 65.345 15.6529 66.7612 15.6529 68.5082C15.6529 70.2552 17.0691 71.6714 18.8161 71.6714H31.4689C33.2159 71.6714 34.6321 70.2552 34.6321 68.5082C34.6321 66.7612 33.2159 65.345 31.4689 65.345H18.8161Z" fill="#F2A71B"/>
<path fill-rule="evenodd" clip-rule="evenodd" d="M59.1725 56.8936C60.0238 55.5093 61.9608 55.5093 62.812 56.8936L67.1728 63.9856C67.4657 64.4619 67.9191 64.806 68.4433 64.9498L76.2478 67.0905C77.7713 67.5084 78.3698 69.4327 77.3725 70.7062L72.263 77.23C71.9199 77.6681 71.7467 78.2249 71.7778 78.79L72.2405 87.205C72.3308 88.8476 70.7637 90.037 69.296 89.4396L61.7775 86.3796C61.2725 86.1741 60.7121 86.1741 60.2071 86.3796L52.6885 89.4396C51.2209 90.037 49.6538 88.8476 49.7441 87.205L50.2068 78.79C50.2379 78.2249 50.0647 77.6681 49.7215 77.23L44.6121 70.7062C43.6147 69.4327 44.2133 67.5084 45.7367 67.0905L53.5413 64.9498C54.0655 64.806 54.5189 64.4619 54.8117 63.9856L59.1725 56.8936ZM60.2009 67.2993L60.9923 66.0123L61.7837 67.2993C62.8901 69.0988 64.6499 70.4694 66.7698 71.0509L68.6605 71.5695L67.2824 73.3291C65.9761 74.997 65.3472 77.0697 65.4609 79.1374L65.5684 81.0921L64.1623 80.5199C62.1283 79.6921 59.8562 79.6921 57.8222 80.5199L56.4162 81.0921L56.5237 79.1374C56.6374 77.0697 56.0085 74.997 54.7022 73.3291L53.324 71.5695L55.2148 71.0509C57.3347 70.4694 59.0944 69.0988 60.2009 67.2993Z" fill="#F2A71B"/>
</g>
</g>
<text id="DESTAQUE" fill="#F2A71B" xml:space="preserve" style="white-space: pre" font-family="'Montserrat, sans-serif'" font-size="30.5578" font-weight="bold" letter-spacing="0em"><tspan x="112.767" y="61.8451">DESTAQUE</tspan></text>
</g>
</g>
</svg>
