<svg width="529" height="257" viewBox="0 0 529 257" fill="none" xmlns="http://www.w3.org/2000/svg">
<g id="Frame 901">

<g id="FLOR">
<path id="Vector" fill-rule="evenodd" clip-rule="evenodd" d="M420.383 129.626C441.085 148.842 322.478 169.887 337.575 130.198C355.189 84.2193 408.831 118.99 420.383 129.626Z" fill="#F2A71B"/>
<path id="Vector_2" fill-rule="evenodd" clip-rule="evenodd" d="M431.134 116.816C427.474 140.492 356.104 67.1774 391.217 58.9424C431.935 49.3348 433.193 103.663 431.134 116.816Z" fill="#F2A71B"/>
<path id="Vector_3" fill-rule="evenodd" clip-rule="evenodd" d="M448.176 115.673C432.278 127.339 433.422 43.0441 458.699 58.7135C487.979 76.7849 457.098 109.153 448.176 115.673Z" fill="#F2A71B"/>
<path id="Vector_4" fill-rule="evenodd" clip-rule="evenodd" d="M458.928 126.424C443.601 124.022 491.067 77.8143 496.443 100.575C502.619 126.881 467.506 127.682 458.928 126.424Z" fill="#F2A71B"/>
<path id="Vector_5" fill-rule="evenodd" clip-rule="evenodd" d="M458.584 139.005C451.036 130.656 498.959 126.424 491.639 141.636C483.061 159.364 462.816 143.58 458.584 139.005Z" fill="#F2A71B"/>
<path id="Vector_6" d="M401.282 129.627C383.669 143.123 361.594 148.613 339.863 150.557C328.54 151.587 316.873 152.159 305.436 151.129C295.256 150.214 284.848 147.469 276.842 140.835C273.067 137.747 269.636 133.744 268.035 129.055C266.434 124.022 268.035 118.875 270.666 114.529C273.296 110.183 276.956 106.408 280.731 102.977C284.505 99.5457 288.623 96.4576 292.854 93.5982C302.119 87.6507 312.87 82.1606 324.308 82.5038C335.173 82.7325 346.153 86.6213 355.99 90.9676C365.597 95.1995 374.519 100.575 383.211 106.408C387.443 109.268 391.675 112.127 395.564 115.215C399.224 118.189 402.541 122.192 400.939 127.225C400.139 129.627 398.537 131.571 396.707 133.287C394.877 135.002 397.622 133.401 397.965 133.287C401.511 130.198 404.142 125.395 401.969 120.705C399.91 116.359 395.106 113.5 391.332 110.869C382.182 104.35 372.689 98.2876 362.738 93.2551C352.902 88.3369 342.15 84.3338 331.17 82.7325C325.68 81.9319 320.19 82.0463 314.815 83.3044C309.439 84.5625 304.292 86.85 299.374 89.4807C290.109 94.3988 281.531 100.689 274.44 108.467C270.894 112.356 267.463 116.816 266.319 122.078C265.175 127.339 267.234 132.372 270.437 136.489C284.619 154.56 311.383 153.074 331.856 151.93C354.16 150.672 376.92 146.44 396.136 134.316C398.309 132.943 400.367 131.457 402.426 129.855C404.485 128.254 401.511 129.855 401.168 129.855L401.282 129.627Z" fill="#075585"/>
<path id="Vector_7" d="M410.89 103.434C395.907 94.7419 383.669 82.275 372.918 68.893C367.542 62.1449 362.281 55.2823 357.248 48.3054C352.215 41.3285 347.412 33.551 345.81 24.8584C345.01 20.3978 345.124 15.7084 347.869 11.934C350.614 8.15961 354.846 6.21522 359.307 5.41459C363.996 4.49959 368.8 4.84271 373.489 5.52897C378.179 6.21522 382.411 7.01585 386.757 8.04523C391.103 9.07461 395.335 10.5615 399.224 12.7346C403.227 15.0221 406.544 18.2247 409.632 21.5415C412.72 24.8584 415.694 28.4041 417.638 32.636C419.697 36.8679 420.727 41.5573 421.527 46.1323C423.243 55.7399 423.815 65.5762 423.014 75.2981C422.671 79.7587 422.328 84.2194 421.87 88.68C421.413 93.0263 420.498 97.2582 418.325 101.147C416.151 105.036 414.893 106.523 412.263 104.464C409.632 102.405 410.661 104.693 411.005 105.036C413.864 107.323 417.41 104.807 419.011 102.291C421.413 98.4019 422.556 93.9413 423.128 89.3663C423.7 84.5625 423.929 79.7587 424.387 74.9549C424.844 69.808 424.844 64.5468 424.501 59.3999C424.158 54.1386 423.471 48.8773 422.442 43.7304C421.413 38.5835 420.269 34.2372 417.753 30.1197C415.351 26.0022 412.034 22.2278 408.603 18.9109C405.171 15.594 401.511 12.7346 397.165 10.7902C392.933 8.84586 388.358 7.70211 383.898 6.7871C379.208 5.8721 374.404 4.95709 369.486 4.49959C361.366 3.81334 351.529 5.18584 346.382 12.2771C343.637 16.0515 343.523 20.7409 344.324 25.0872C345.124 29.4335 346.84 34.0085 349.013 38.126C353.359 46.3611 359.307 53.7955 365.026 61.1155C376.234 75.8699 388.473 90.2813 404.028 100.575C405.858 101.833 407.802 102.977 409.746 104.121C411.691 105.264 411.348 103.778 410.776 103.434H410.89Z" fill="#075585"/>
<path id="Vector_8" d="M440.284 92.4542C433.651 78.5004 431.935 62.7166 433.994 47.5046C435.023 39.7271 436.968 32.1783 439.484 24.7439C441.886 17.6526 444.745 9.87506 450.121 4.38503C451.265 3.1269 452.637 2.09752 454.238 1.52564C456.526 0.610633 459.042 0.95376 461.444 1.52564C464.418 2.32627 467.277 3.5844 469.908 5.30003C475.055 8.7313 479.172 13.8782 481.231 19.8257C482.489 23.3714 482.832 27.1458 482.947 30.8058C483.175 34.9233 483.061 38.9265 482.26 42.9296C480.774 50.1353 477.228 56.769 472.767 62.6022C468.307 68.4354 467.963 68.6641 465.79 71.981C463.617 75.2979 461.215 78.8435 458.699 82.1604C456.412 85.1342 453.895 87.9936 451.036 90.2811C448.176 92.5686 448.176 92.683 446.575 93.3692C444.974 94.0555 443.373 93.3692 441.886 92.7974C440.399 92.2255 440.285 93.3692 441.085 93.598C443.716 94.6274 445.774 94.9705 448.291 93.4836C451.036 91.768 453.438 89.5948 455.725 87.3073C461.101 81.7029 465.104 74.9548 469.565 68.6641C471.852 65.4616 474.368 62.6022 476.542 59.2853C478.715 56.0828 480.545 52.6515 481.803 48.9915C484.662 41.3284 484.891 33.0933 483.747 25.087C482.603 17.0807 479.63 12.1626 474.597 7.47317C470.022 3.24127 463.274 -0.418746 456.869 0.0387561C449.435 0.610634 444.974 8.7313 442.229 14.6788C438.683 22.2276 436.167 30.3483 434.337 38.469C430.334 56.5403 430.906 75.8698 439.026 92.7974C439.255 93.3692 440.628 92.9117 440.399 92.4542H440.284Z" fill="#075585"/>
<path id="Vector_9" d="M462.588 102.29C464.189 96.5716 467.849 91.8822 471.738 87.5359C475.512 83.1897 479.515 79.0721 483.747 75.1834C487.979 71.2946 492.668 67.749 497.472 64.7752C500.103 63.1739 502.962 61.4583 505.822 60.3146C508.681 59.1708 512.684 58.9421 516.23 60.0858C518.975 60.8864 522.063 62.0302 524.122 64.2033C525.952 66.2621 526.638 69.1215 526.867 71.7521C527.439 77.2421 526.867 82.8465 525.265 88.1078C523.55 93.3691 520.347 98.0585 515.772 101.375C510.74 105.035 504.563 106.865 498.502 108.009C491.41 109.267 484.205 110.297 476.999 110.64C473.339 110.754 469.564 110.64 465.904 110.068C462.244 109.496 462.473 109.496 460.872 108.695C459.271 107.895 458.127 106.065 459.385 104.464C459.728 104.12 458.356 104.235 458.127 104.464C456.297 106.522 458.47 108.695 460.415 109.496C463.503 110.64 467.163 111.097 470.48 111.212C477.571 111.555 484.548 110.525 491.525 109.61C503.42 108.009 516.802 105.035 523.664 94.0554C530.527 83.0753 528.125 83.0753 528.239 77.1278C528.468 71.2946 528.01 64.6608 522.292 61.5727C519.547 60.0858 516.458 59.0564 513.37 58.7133C510.282 58.3702 507.423 58.942 504.678 60.2002C498.845 62.7164 493.469 66.2621 488.437 70.1509C482.718 74.4971 477.571 79.5297 472.767 84.7909C467.963 90.0522 462.931 95.6566 460.986 102.634C460.986 102.977 462.244 102.748 462.359 102.405L462.588 102.29Z" fill="#075585"/>
<path id="Vector_10" d="M470.937 123.107C478.943 120.133 487.407 118.875 495.871 119.333C502.505 119.676 513.485 120.819 515.086 129.055C515.772 132.943 513.828 136.718 511.083 139.348C509.71 140.606 508.224 141.75 506.737 142.665C505.25 143.58 503.077 145.067 501.132 145.639C497.129 146.897 492.097 145.639 488.094 144.495C484.434 143.351 481.002 141.75 477.685 139.92C474.368 138.09 470.251 135.231 466.82 132.6C465.218 131.342 463.617 129.855 464.189 127.682C464.875 125.166 467.277 124.022 469.336 123.107C470.137 122.764 469.336 122.421 468.878 122.649C466.133 123.908 461.558 126.309 462.931 130.198C463.617 132.028 465.676 133.172 467.163 134.316C468.65 135.46 470.937 136.946 472.767 138.205C479.973 142.78 488.208 146.783 496.9 146.897C501.247 146.897 504.792 144.953 508.338 142.551C511.655 140.263 514.857 137.404 516.001 133.515C517.145 129.741 516.001 125.966 513.027 123.45C510.054 120.934 505.25 119.79 501.132 119.218C490.724 117.846 480.087 119.104 470.365 122.764C469.45 123.107 470.365 123.45 470.823 123.221L470.937 123.107Z" fill="#075585"/>
</g>
<g id="Component 37">
<rect x="4" y="122" width="467" height="135" rx="16" fill="#075585"/>
<text id="A desnutri&#195;&#167;&#195;&#163;o pode ser classificada em (Brasil, 2023a):" fill="#F5F6F6" xml:space="preserve" style="white-space: pre" font-family="'Montserrat', sans-serif" font-size="18" font-weight="600" letter-spacing="0em"><tspan x="56.7266" y="164.953">A desnutri&#xe7;&#xe3;o pode ser classificada em </tspan><tspan x="166.625" y="189.953">(Brasil, 2023a): &#13;</tspan></text>
<text id="Clique para visualizar" fill="#F5F6F6" xml:space="preserve" style="white-space: pre" font-family="'Montserrat', sans-serif" font-size="18" font-style="italic" letter-spacing="0em"><tspan x="139.212" y="226.953">Clique para visualizar</tspan></text>
</g>
</g>
</svg>
