<svg width="268" height="421" viewBox="0 0 268 421" fill="none" xmlns="http://www.w3.org/2000/svg">
<g id="Frame 864">
<rect width="268" height="420.721" rx="16" fill="#F5F6F6"/>
<g id="Group">
<path id="Vector" d="M158.55 202.757C210.121 202.757 251.928 160.95 251.928 109.378C251.928 57.8069 210.121 16 158.55 16C106.978 16 65.1714 57.8069 65.1714 109.378C65.1714 160.95 106.978 202.757 158.55 202.757Z" fill="#F8C227"/>
<path id="Vector_2" d="M49.9245 134.387V93.3228H29.6129L16.0718 98.4743V111.994L29.6129 109.239V117.583V158.205H49.9245H67.9398L67.941 158.206C67.941 203.778 104.884 240.721 150.456 240.721C196.028 240.721 232.972 203.778 232.972 158.206C232.972 112.634 196.028 75.6904 150.456 75.6904" stroke="black" stroke-width="5" stroke-miterlimit="10" stroke-linecap="round"/>
<g id="Group_2">
<g id="Group_3" opacity="0.3">
<path id="Vector_3" d="M154.31 226.831C190.147 226.831 219.199 197.78 219.199 161.943C219.199 126.105 190.147 97.0537 154.31 97.0537C118.473 97.0537 89.4215 126.105 89.4215 161.943C89.4215 197.78 118.473 226.831 154.31 226.831Z" fill="white"/>
<path id="Vector_4" d="M154.276 226.77C190.112 226.77 219.162 197.719 219.162 161.884C219.162 126.049 190.112 96.999 154.276 96.999C118.441 96.999 89.3911 126.049 89.3911 161.884C89.3911 197.719 118.441 226.77 154.276 226.77Z" fill="#FCFCFC"/>
<path id="Vector_5" d="M154.243 226.708C190.076 226.708 219.125 197.659 219.125 161.826C219.125 125.993 190.076 96.9443 154.243 96.9443C118.41 96.9443 89.3616 125.993 89.3616 161.826C89.3616 197.659 118.41 226.708 154.243 226.708Z" fill="#FAFAFA"/>
<path id="Vector_6" d="M154.209 226.646C190.04 226.646 219.087 197.599 219.087 161.768C219.087 125.937 190.04 96.8906 154.209 96.8906C118.378 96.8906 89.3317 125.937 89.3317 161.768C89.3317 197.599 118.378 226.646 154.209 226.646Z" fill="#F7F7F7"/>
<path id="Vector_7" d="M154.176 226.585C190.005 226.585 219.05 197.54 219.05 161.711C219.05 125.882 190.005 96.8369 154.176 96.8369C118.347 96.8369 89.3021 125.882 89.3021 161.711C89.3021 197.54 118.347 226.585 154.176 226.585Z" fill="#F5F5F5"/>
<path id="Vector_8" d="M154.142 226.524C189.969 226.524 219.012 197.481 219.012 161.654C219.012 125.827 189.969 96.7832 154.142 96.7832C118.315 96.7832 89.2716 125.827 89.2716 161.654C89.2716 197.481 118.315 226.524 154.142 226.524Z" fill="#F2F2F2"/>
<path id="Vector_9" d="M154.109 226.46C189.933 226.46 218.975 197.418 218.975 161.594C218.975 125.769 189.933 96.7275 154.109 96.7275C118.284 96.7275 89.2426 125.769 89.2426 161.594C89.2426 197.418 118.284 226.46 154.109 226.46Z" fill="#F0F0F0"/>
<path id="Vector_10" d="M154.075 226.399C189.898 226.399 218.938 197.359 218.938 161.537C218.938 125.714 189.898 96.6738 154.075 96.6738C118.252 96.6738 89.2123 125.714 89.2123 161.537C89.2123 197.359 118.252 226.399 154.075 226.399Z" fill="#EDEDED"/>
<path id="Vector_11" d="M154.042 226.338C189.862 226.338 218.901 197.3 218.901 161.479C218.901 125.659 189.862 96.6201 154.042 96.6201C118.221 96.6201 89.1825 125.659 89.1825 161.479C89.1825 197.3 118.221 226.338 154.042 226.338Z" fill="#EBEBEB"/>
<path id="Vector_12" d="M154.008 226.278C189.827 226.278 218.863 197.241 218.863 161.422C218.863 125.603 189.827 96.5664 154.008 96.5664C118.189 96.5664 89.1522 125.603 89.1522 161.422C89.1522 197.241 118.189 226.278 154.008 226.278Z" fill="#E8E8E8"/>
<path id="Vector_13" d="M153.975 226.215C189.791 226.215 218.826 197.181 218.826 161.364C218.826 125.548 189.791 96.5127 153.975 96.5127C118.158 96.5127 89.1232 125.548 89.1232 161.364C89.1232 197.181 118.158 226.215 153.975 226.215Z" fill="#E6E6E6"/>
<path id="Vector_14" d="M153.94 226.154C189.755 226.154 218.788 197.12 218.788 161.306C218.788 125.491 189.755 96.458 153.94 96.458C118.126 96.458 89.0927 125.491 89.0927 161.306C89.0927 197.12 118.126 226.154 153.94 226.154Z" fill="#E3E3E3"/>
<path id="Vector_15" d="M153.907 226.092C189.719 226.092 218.751 197.06 218.751 161.248C218.751 125.435 189.719 96.4033 153.907 96.4033C118.094 96.4033 89.0624 125.435 89.0624 161.248C89.0624 197.06 118.094 226.092 153.907 226.092Z" fill="#E1E1E1"/>
<path id="Vector_16" d="M153.873 226.031C189.683 226.031 218.713 197.001 218.713 161.191C218.713 125.38 189.683 96.3506 153.873 96.3506C118.063 96.3506 89.0332 125.38 89.0332 161.191C89.0332 197.001 118.063 226.031 153.873 226.031Z" fill="#DEDEDE"/>
<path id="Vector_17" d="M153.839 225.969C189.648 225.969 218.676 196.941 218.676 161.132C218.676 125.324 189.648 96.2959 153.839 96.2959C118.031 96.2959 89.0029 125.324 89.0029 161.132C89.0029 196.941 118.031 225.969 153.839 225.969Z" fill="#DCDCDC"/>
<path id="Vector_18" d="M153.806 225.907C189.612 225.907 218.639 196.88 218.639 161.074C218.639 125.268 189.612 96.2412 153.806 96.2412C118 96.2412 88.9733 125.268 88.9733 161.074C88.9733 196.88 118 225.907 153.806 225.907Z" fill="#D9D9D9"/>
<path id="Vector_19" d="M153.772 225.846C189.576 225.846 218.601 196.821 218.601 161.017C218.601 125.213 189.576 96.1885 153.772 96.1885C117.968 96.1885 88.9435 125.213 88.9435 161.017C88.9435 196.821 117.968 225.846 153.772 225.846Z" fill="#D7D7D7"/>
<path id="Vector_20" d="M153.739 225.784C189.541 225.784 218.564 196.761 218.564 160.959C218.564 125.157 189.541 96.1338 153.739 96.1338C117.937 96.1338 88.9137 125.157 88.9137 160.959C88.9137 196.761 117.937 225.784 153.739 225.784Z" fill="#D4D4D4"/>
<path id="Vector_21" d="M153.705 225.722C189.505 225.722 218.527 196.701 218.527 160.901C218.527 125.101 189.505 96.0791 153.705 96.0791C117.905 96.0791 88.8834 125.101 88.8834 160.901C88.8834 196.701 117.905 225.722 153.705 225.722Z" fill="#D2D2D2"/>
<path id="Vector_22" d="M153.672 225.661C189.469 225.661 218.489 196.642 218.489 160.844C218.489 125.046 189.469 96.0264 153.672 96.0264C117.874 96.0264 88.8542 125.046 88.8542 160.844C88.8542 196.642 117.874 225.661 153.672 225.661Z" fill="#CFCFCF"/>
<path id="Vector_23" d="M153.638 225.6C189.434 225.6 218.452 196.581 218.452 160.786C218.452 124.99 189.434 95.9717 153.638 95.9717C117.842 95.9717 88.824 124.99 88.824 160.786C88.824 196.581 117.842 225.6 153.638 225.6Z" fill="#CDCDCD"/>
<path id="Vector_24" d="M153.605 225.539C189.398 225.539 218.415 196.522 218.415 160.728C218.415 124.935 189.398 95.918 153.605 95.918C117.811 95.918 88.7943 124.935 88.7943 160.728C88.7943 196.522 117.811 225.539 153.605 225.539Z" fill="#CACACA"/>
<path id="Vector_25" d="M153.571 225.476C189.363 225.476 218.378 196.461 218.378 160.669C218.378 124.877 189.363 95.8623 153.571 95.8623C117.779 95.8623 88.7639 124.877 88.7639 160.669C88.7639 196.461 117.779 225.476 153.571 225.476Z" fill="#C7C7C7"/>
<path id="Vector_26" d="M153.537 225.414C189.327 225.414 218.34 196.401 218.34 160.611C218.34 124.822 189.327 95.8086 153.537 95.8086C117.748 95.8086 88.7347 124.822 88.7347 160.611C88.7347 196.401 117.748 225.414 153.537 225.414Z" fill="#C5C5C5"/>
<path id="Vector_27" d="M153.504 225.353C189.291 225.353 218.303 196.341 218.303 160.554C218.303 124.766 189.291 95.7549 153.504 95.7549C117.716 95.7549 88.7045 124.766 88.7045 160.554C88.7045 196.341 117.716 225.353 153.504 225.353Z" fill="#C2C2C2"/>
<path id="Vector_28" d="M153.47 225.292C189.255 225.292 218.265 196.282 218.265 160.497C218.265 124.711 189.255 95.7012 153.47 95.7012C117.684 95.7012 88.6742 124.711 88.6742 160.497C88.6742 196.282 117.684 225.292 153.47 225.292Z" fill="#C0C0C0"/>
<path id="Vector_29" d="M153.436 225.229C189.219 225.229 218.228 196.221 218.228 160.438C218.228 124.655 189.219 95.6465 153.436 95.6465C117.653 95.6465 88.6449 124.655 88.6449 160.438C88.6449 196.221 117.653 225.229 153.436 225.229Z" fill="#BDBDBD"/>
<path id="Vector_30" d="M153.403 225.168C189.184 225.168 218.19 196.162 218.19 160.381C218.19 124.599 189.184 95.5928 153.403 95.5928C117.621 95.5928 88.6147 124.599 88.6147 160.381C88.6147 196.162 117.621 225.168 153.403 225.168Z" fill="#BBBBBB"/>
<path id="Vector_31" d="M153.369 225.107C189.148 225.107 218.153 196.103 218.153 160.323C218.153 124.544 189.148 95.5391 153.369 95.5391C117.59 95.5391 88.585 124.544 88.585 160.323C88.585 196.103 117.59 225.107 153.369 225.107Z" fill="#B8B8B8"/>
<path id="Vector_32" d="M153.335 225.045C189.112 225.045 218.115 196.042 218.115 160.265C218.115 124.488 189.112 95.4854 153.335 95.4854C117.558 95.4854 88.5553 124.488 88.5553 160.265C88.5553 196.042 117.558 225.045 153.335 225.045Z" fill="#B6B6B6"/>
<path id="Vector_33" d="M153.302 224.984C189.077 224.984 218.078 195.982 218.078 160.207C218.078 124.432 189.077 95.4307 153.302 95.4307C117.527 95.4307 88.5255 124.432 88.5255 160.207C88.5255 195.982 117.527 224.984 153.302 224.984Z" fill="#B3B3B3"/>
<path id="Vector_34" d="M153.268 224.923C189.041 224.923 218.041 195.923 218.041 160.15C218.041 124.377 189.041 95.377 153.268 95.377C117.495 95.377 88.4951 124.377 88.4951 160.15C88.4951 195.923 117.495 224.923 153.268 224.923Z" fill="#B1B1B1"/>
<path id="Vector_35" d="M153.235 224.861C189.006 224.861 218.004 195.863 218.004 160.092C218.004 124.32 189.006 95.3223 153.235 95.3223C117.464 95.3223 88.4655 124.32 88.4655 160.092C88.4655 195.863 117.464 224.861 153.235 224.861Z" fill="#AEAEAE"/>
<path id="Vector_36" d="M153.201 224.798C188.97 224.798 217.966 195.802 217.966 160.033C217.966 124.264 188.97 95.2676 153.201 95.2676C117.432 95.2676 88.4358 124.264 88.4358 160.033C88.4358 195.802 117.432 224.798 153.201 224.798Z" fill="#ACACAC"/>
<path id="Vector_37" d="M153.167 224.737C188.934 224.737 217.929 195.742 217.929 159.975C217.929 124.209 188.934 95.2139 153.167 95.2139C117.401 95.2139 88.4059 124.209 88.4059 159.975C88.4059 195.742 117.401 224.737 153.167 224.737Z" fill="#A9A9A9"/>
<path id="Vector_38" d="M153.134 224.676C188.899 224.676 217.892 195.683 217.892 159.918C217.892 124.153 188.899 95.1602 153.134 95.1602C117.369 95.1602 88.3757 124.153 88.3757 159.918C88.3757 195.683 117.369 224.676 153.134 224.676Z" fill="#A7A7A7"/>
<path id="Vector_39" d="M153.1 224.614C188.863 224.614 217.854 195.623 217.854 159.86C217.854 124.098 188.863 95.1064 153.1 95.1064C117.338 95.1064 88.3464 124.098 88.3464 159.86C88.3464 195.623 117.338 224.614 153.1 224.614Z" fill="#A4A4A4"/>
<path id="Vector_40" d="M153.066 224.553C188.827 224.553 217.817 195.564 217.817 159.803C217.817 124.042 188.827 95.0527 153.066 95.0527C117.306 95.0527 88.3162 124.042 88.3162 159.803C88.3162 195.564 117.306 224.553 153.066 224.553Z" fill="#A2A2A2"/>
<path id="Vector_41" d="M153.033 224.492C188.791 224.492 217.779 195.503 217.779 159.745C217.779 123.986 188.791 94.998 153.033 94.998C117.274 94.998 88.2859 123.986 88.2859 159.745C88.2859 195.503 117.274 224.492 153.033 224.492Z" fill="#9F9F9F"/>
<path id="Vector_42" d="M152.999 224.429C188.756 224.429 217.742 195.443 217.742 159.687C217.742 123.931 188.756 94.9443 152.999 94.9443C117.243 94.9443 88.2567 123.931 88.2567 159.687C88.2567 195.443 117.243 224.429 152.999 224.429Z" fill="#9D9D9D"/>
<path id="Vector_43" d="M152.965 224.368C188.72 224.368 217.704 195.383 217.704 159.629C217.704 123.874 188.72 94.8896 152.965 94.8896C117.211 94.8896 88.2264 123.874 88.2264 159.629C88.2264 195.383 117.211 224.368 152.965 224.368Z" fill="#9A9A9A"/>
<path id="Vector_44" d="M152.932 224.306C188.685 224.306 217.668 195.323 217.668 159.57C217.668 123.818 188.685 94.835 152.932 94.835C117.18 94.835 88.1967 123.818 88.1967 159.57C88.1967 195.323 117.18 224.306 152.932 224.306Z" fill="#979797"/>
<path id="Vector_45" d="M152.898 224.245C188.649 224.245 217.63 195.264 217.63 159.513C217.63 123.763 188.649 94.7812 152.898 94.7812C117.148 94.7812 88.1664 123.763 88.1664 159.513C88.1664 195.264 117.148 224.245 152.898 224.245Z" fill="#959595"/>
<path id="Vector_46" d="M152.865 224.183C188.613 224.183 217.593 195.203 217.593 159.455C217.593 123.707 188.613 94.7275 152.865 94.7275C117.117 94.7275 88.1372 123.707 88.1372 159.455C88.1372 195.203 117.117 224.183 152.865 224.183Z" fill="#929292"/>
<path id="Vector_47" d="M152.831 224.121C188.577 224.121 217.555 195.143 217.555 159.397C217.555 123.651 188.577 94.6729 152.831 94.6729C117.085 94.6729 88.1069 123.651 88.1069 159.397C88.1069 195.143 117.085 224.121 152.831 224.121Z" fill="#909090"/>
<path id="Vector_48" d="M152.798 224.06C188.542 224.06 217.518 195.084 217.518 159.34C217.518 123.596 188.542 94.6191 152.798 94.6191C117.054 94.6191 88.0771 123.596 88.0771 159.34C88.0771 195.084 117.054 224.06 152.798 224.06Z" fill="#8D8D8D"/>
<path id="Vector_49" d="M152.764 223.998C188.506 223.998 217.48 195.024 217.48 159.282C217.48 123.54 188.506 94.5654 152.764 94.5654C117.022 94.5654 88.0475 123.54 88.0475 159.282C88.0475 195.024 117.022 223.998 152.764 223.998Z" fill="#8B8B8B"/>
<path id="Vector_50" d="M152.731 223.937C188.47 223.937 217.443 194.965 217.443 159.225C217.443 123.485 188.47 94.5117 152.731 94.5117C116.991 94.5117 88.0177 123.485 88.0177 159.225C88.0177 194.965 116.991 223.937 152.731 223.937Z" fill="#888888"/>
<path id="Vector_51" d="M152.697 223.877C188.435 223.877 217.406 194.905 217.406 159.167C217.406 123.429 188.435 94.458 152.697 94.458C116.959 94.458 87.9874 123.429 87.9874 159.167C87.9874 194.905 116.959 223.877 152.697 223.877Z" fill="#868686"/>
<path id="Vector_52" d="M152.663 223.814C188.399 223.814 217.368 194.844 217.368 159.108C217.368 123.373 188.399 94.4033 152.663 94.4033C116.928 94.4033 87.9583 123.373 87.9583 159.108C87.9583 194.844 116.928 223.814 152.663 223.814Z" fill="#838383"/>
<path id="Vector_53" d="M152.63 223.752C188.363 223.752 217.331 194.784 217.331 159.05C217.331 123.317 188.363 94.3486 152.63 94.3486C116.896 94.3486 87.928 123.317 87.928 159.05C87.928 194.784 116.896 223.752 152.63 223.752Z" fill="#818181"/>
<path id="Vector_54" d="M152.596 223.691C188.328 223.691 217.294 194.725 217.294 158.993C217.294 123.261 188.328 94.2949 152.596 94.2949C116.864 94.2949 87.8982 123.261 87.8982 158.993C87.8982 194.725 116.864 223.691 152.596 223.691Z" fill="#7E7E7E"/>
<path id="Vector_55" d="M152.562 223.629C188.292 223.629 217.256 194.664 217.256 158.935C217.256 123.206 188.292 94.2412 152.562 94.2412C116.833 94.2412 87.8685 123.206 87.8685 158.935C87.8685 194.664 116.833 223.629 152.562 223.629Z" fill="#7C7C7C"/>
<path id="Vector_56" d="M152.528 223.567C188.256 223.567 217.219 194.604 217.219 158.877C217.219 123.149 188.256 94.1865 152.528 94.1865C116.801 94.1865 87.8381 123.149 87.8381 158.877C87.8381 194.604 116.801 223.567 152.528 223.567Z" fill="#797979"/>
<path id="Vector_57" d="M152.495 223.506C188.221 223.506 217.182 194.545 217.182 158.82C217.182 123.094 188.221 94.1328 152.495 94.1328C116.77 94.1328 87.8085 123.094 87.8085 158.82C87.8085 194.545 116.77 223.506 152.495 223.506Z" fill="#777777"/>
<path id="Vector_58" d="M152.461 223.444C188.185 223.444 217.144 194.485 217.144 158.761C217.144 123.038 188.185 94.0781 152.461 94.0781C116.738 94.0781 87.7781 123.038 87.7781 158.761C87.7781 194.485 116.738 223.444 152.461 223.444Z" fill="#747474"/>
<path id="Vector_59" d="M152.428 223.383C188.149 223.383 217.107 194.426 217.107 158.704C217.107 122.983 188.149 94.0254 152.428 94.0254C116.707 94.0254 87.749 122.983 87.749 158.704C87.749 194.426 116.707 223.383 152.428 223.383Z" fill="#727272"/>
<path id="Vector_60" d="M152.394 223.321C188.113 223.321 217.069 194.365 217.069 158.646C217.069 122.927 188.113 93.9707 152.394 93.9707C116.675 93.9707 87.7186 122.927 87.7186 158.646C87.7186 194.365 116.675 223.321 152.394 223.321Z" fill="#6F6F6F"/>
<path id="Vector_61" d="M152.361 223.26C188.078 223.26 217.033 194.305 217.033 158.588C217.033 122.871 188.078 93.916 152.361 93.916C116.644 93.916 87.689 122.871 87.689 158.588C87.689 194.305 116.644 223.26 152.361 223.26Z" fill="#6D6D6D"/>
<path id="Vector_62" d="M152.327 223.199C188.042 223.199 216.995 194.246 216.995 158.531C216.995 122.816 188.042 93.8633 152.327 93.8633C116.612 93.8633 87.6592 122.816 87.6592 158.531C87.6592 194.246 116.612 223.199 152.327 223.199Z" fill="#6A6A6A"/>
<path id="Vector_63" d="M152.293 223.137C188.006 223.137 216.958 194.186 216.958 158.473C216.958 122.76 188.006 93.8086 152.293 93.8086C116.58 93.8086 87.6294 122.76 87.6294 158.473C87.6294 194.186 116.58 223.137 152.293 223.137Z" fill="#686868"/>
<path id="Vector_64" d="M152.26 223.074C187.971 223.074 216.92 194.124 216.92 158.413C216.92 122.702 187.971 93.7529 152.26 93.7529C116.549 93.7529 87.5992 122.702 87.5992 158.413C87.5992 194.124 116.549 223.074 152.26 223.074Z" fill="#656565"/>
<path id="Vector_65" d="M152.226 223.013C187.935 223.013 216.883 194.065 216.883 158.357C216.883 122.648 187.935 93.7002 152.226 93.7002C116.518 93.7002 87.5699 122.648 87.5699 158.357C87.5699 194.065 116.518 223.013 152.226 223.013Z" fill="#626262"/>
<path id="Vector_66" d="M152.192 222.951C187.899 222.951 216.845 194.005 216.845 158.298C216.845 122.592 187.899 93.6455 152.192 93.6455C116.486 93.6455 87.5397 122.592 87.5397 158.298C87.5397 194.005 116.486 222.951 152.192 222.951Z" fill="#606060"/>
<path id="Vector_67" d="M152.159 222.89C187.864 222.89 216.808 193.946 216.808 158.241C216.808 122.536 187.864 93.5918 152.159 93.5918C116.454 93.5918 87.51 122.536 87.51 158.241C87.51 193.946 116.454 222.89 152.159 222.89Z" fill="#5D5D5D"/>
<path id="Vector_68" d="M152.125 222.829C187.828 222.829 216.771 193.887 216.771 158.184C216.771 122.481 187.828 93.5381 152.125 93.5381C116.422 93.5381 87.4796 122.481 87.4796 158.184C87.4796 193.887 116.422 222.829 152.125 222.829Z" fill="#5B5B5B"/>
<path id="Vector_69" d="M152.091 222.766C187.792 222.766 216.733 193.825 216.733 158.125C216.733 122.424 187.792 93.4834 152.091 93.4834C116.391 93.4834 87.4498 122.424 87.4498 158.125C87.4498 193.825 116.391 222.766 152.091 222.766Z" fill="#585858"/>
<path id="Vector_70" d="M152.058 222.706C187.757 222.706 216.696 193.766 216.696 158.068C216.696 122.369 187.757 93.4297 152.058 93.4297C116.36 93.4297 87.4202 122.369 87.4202 158.068C87.4202 193.766 116.36 222.706 152.058 222.706Z" fill="#565656"/>
<path id="Vector_71" d="M152.024 222.645C187.721 222.645 216.659 193.707 216.659 158.01C216.659 122.314 187.721 93.376 152.024 93.376C116.328 93.376 87.3898 122.314 87.3898 158.01C87.3898 193.707 116.328 222.645 152.024 222.645Z" fill="#535353"/>
<path id="Vector_72" d="M151.991 222.582C187.685 222.582 216.621 193.646 216.621 157.951C216.621 122.257 187.685 93.3213 151.991 93.3213C116.297 93.3213 87.3607 122.257 87.3607 157.951C87.3607 193.646 116.297 222.582 151.991 222.582Z" fill="#515151"/>
<path id="Vector_73" d="M151.957 222.521C187.649 222.521 216.584 193.587 216.584 157.894C216.584 122.202 187.649 93.2676 151.957 93.2676C116.265 93.2676 87.3303 122.202 87.3303 157.894C87.3303 193.587 116.265 222.521 151.957 222.521Z" fill="#4E4E4E"/>
<path id="Vector_74" d="M151.924 222.459C187.614 222.459 216.547 193.526 216.547 157.836C216.547 122.146 187.614 93.2129 151.924 93.2129C116.233 93.2129 87.3007 122.146 87.3007 157.836C87.3007 193.526 116.233 222.459 151.924 222.459Z" fill="#4C4C4C"/>
<path id="Vector_75" d="M151.89 222.397C187.578 222.397 216.509 193.466 216.509 157.778C216.509 122.09 187.578 93.1592 151.89 93.1592C116.202 93.1592 87.2709 122.09 87.2709 157.778C87.2709 193.466 116.202 222.397 151.89 222.397Z" fill="#494949"/>
<path id="Vector_76" d="M151.857 222.336C187.543 222.336 216.472 193.407 216.472 157.721C216.472 122.035 187.543 93.1055 151.857 93.1055C116.17 93.1055 87.2412 122.035 87.2412 157.721C87.2412 193.407 116.17 222.336 151.857 222.336Z" fill="#474747"/>
<path id="Vector_77" d="M151.823 222.275C187.507 222.275 216.434 193.348 216.434 157.664C216.434 121.979 187.507 93.0518 151.823 93.0518C116.138 93.0518 87.2108 121.979 87.2108 157.664C87.2108 193.348 116.138 222.275 151.823 222.275Z" fill="#444444"/>
<path id="Vector_78" d="M151.789 222.213C187.471 222.213 216.398 193.287 216.398 157.605C216.398 121.923 187.471 92.9971 151.789 92.9971C116.107 92.9971 87.1812 121.923 87.1812 157.605C87.1812 193.287 116.107 222.213 151.789 222.213Z" fill="#424242"/>
<path id="Vector_79" d="M151.755 222.152C187.435 222.152 216.359 193.228 216.359 157.548C216.359 121.869 187.435 92.9443 151.755 92.9443C116.076 92.9443 87.1514 121.869 87.1514 157.548C87.1514 193.228 116.076 222.152 151.755 222.152Z" fill="#3F3F3F"/>
<path id="Vector_80" d="M151.722 222.09C187.4 222.09 216.323 193.167 216.323 157.489C216.323 121.811 187.4 92.8887 151.722 92.8887C116.044 92.8887 87.1217 121.811 87.1217 157.489C87.1217 193.167 116.044 222.09 151.722 222.09Z" fill="#3D3D3D"/>
<path id="Vector_81" d="M151.688 222.028C187.364 222.028 216.285 193.107 216.285 157.431C216.285 121.755 187.364 92.834 151.688 92.834C116.012 92.834 87.0914 121.755 87.0914 157.431C87.0914 193.107 116.012 222.028 151.688 222.028Z" fill="#3A3A3A"/>
<path id="Vector_82" d="M151.655 221.967C187.329 221.967 216.248 193.048 216.248 157.374C216.248 121.7 187.329 92.7812 151.655 92.7812C115.981 92.7812 87.0623 121.7 87.0623 157.374C87.0623 193.048 115.981 221.967 151.655 221.967Z" fill="#383838"/>
<path id="Vector_83" d="M151.621 221.905C187.293 221.905 216.21 192.987 216.21 157.316C216.21 121.644 187.293 92.7266 151.621 92.7266C115.949 92.7266 87.0319 121.644 87.0319 157.316C87.0319 192.987 115.949 221.905 151.621 221.905Z" fill="#353535"/>
<path id="Vector_84" d="M151.587 221.843C187.257 221.843 216.173 192.927 216.173 157.257C216.173 121.588 187.257 92.6719 151.587 92.6719C115.918 92.6719 87.0016 121.588 87.0016 157.257C87.0016 192.927 115.918 221.843 151.587 221.843Z" fill="#323232"/>
<path id="Vector_85" d="M151.554 221.781C187.221 221.781 216.135 192.867 216.135 157.2C216.135 121.532 187.221 92.6182 151.554 92.6182C115.887 92.6182 86.9724 121.532 86.9724 157.2C86.9724 192.867 115.887 221.781 151.554 221.781Z" fill="#303030"/>
<path id="Vector_86" d="M151.52 221.72C187.185 221.72 216.098 192.808 216.098 157.142C216.098 121.477 187.185 92.5645 151.52 92.5645C115.855 92.5645 86.9421 121.477 86.9421 157.142C86.9421 192.808 115.855 221.72 151.52 221.72Z" fill="#2D2D2D"/>
<path id="Vector_87" d="M151.487 221.659C187.15 221.659 216.061 192.748 216.061 157.085C216.061 121.422 187.15 92.5107 151.487 92.5107C115.823 92.5107 86.9124 121.422 86.9124 157.085C86.9124 192.748 115.823 221.659 151.487 221.659Z" fill="#2B2B2B"/>
<path id="Vector_88" d="M151.453 221.597C187.114 221.597 216.023 192.688 216.023 157.027C216.023 121.366 187.114 92.457 151.453 92.457C115.792 92.457 86.8826 121.366 86.8826 157.027C86.8826 192.688 115.792 221.597 151.453 221.597Z" fill="#282828"/>
<path id="Vector_89" d="M151.419 221.536C187.079 221.536 215.986 192.628 215.986 156.969C215.986 121.31 187.079 92.4023 151.419 92.4023C115.76 92.4023 86.8529 121.31 86.8529 156.969C86.8529 192.628 115.76 221.536 151.419 221.536Z" fill="#262626"/>
<path id="Vector_90" d="M151.386 221.475C187.043 221.475 215.949 192.569 215.949 156.912C215.949 121.254 187.043 92.3486 151.386 92.3486C115.728 92.3486 86.8226 121.254 86.8226 156.912C86.8226 192.569 115.728 221.475 151.386 221.475Z" fill="#232323"/>
<path id="Vector_91" d="M151.352 221.413C187.007 221.413 215.912 192.509 215.912 156.853C215.912 121.198 187.007 92.2939 151.352 92.2939C115.697 92.2939 86.7928 121.198 86.7928 156.853C86.7928 192.509 115.697 221.413 151.352 221.413Z" fill="#212121"/>
<path id="Vector_92" d="M151.318 221.35C186.971 221.35 215.874 192.447 215.874 156.795C215.874 121.142 186.971 92.2393 151.318 92.2393C115.666 92.2393 86.7632 121.142 86.7632 156.795C86.7632 192.447 115.666 221.35 151.318 221.35Z" fill="#1E1E1E"/>
<path id="Vector_93" d="M151.285 221.289C186.936 221.289 215.837 192.388 215.837 156.737C215.837 121.086 186.936 92.1855 151.285 92.1855C115.634 92.1855 86.7334 121.086 86.7334 156.737C86.7334 192.388 115.634 221.289 151.285 221.289Z" fill="#1C1C1C"/>
<path id="Vector_94" d="M151.251 221.228C186.9 221.228 215.799 192.329 215.799 156.68C215.799 121.031 186.9 92.1318 151.251 92.1318C115.602 92.1318 86.703 121.031 86.703 156.68C86.703 192.329 115.602 221.228 151.251 221.228Z" fill="#191919"/>
<path id="Vector_95" d="M151.218 221.166C186.865 221.166 215.762 192.269 215.762 156.622C215.762 120.975 186.865 92.0781 151.218 92.0781C115.571 92.0781 86.674 120.975 86.674 156.622C86.674 192.269 115.571 221.166 151.218 221.166Z" fill="#171717"/>
<path id="Vector_96" d="M151.184 221.104C186.829 221.104 215.724 192.209 215.724 156.564C215.724 120.919 186.829 92.0234 151.184 92.0234C115.539 92.0234 86.6436 120.919 86.6436 156.564C86.6436 192.209 115.539 221.104 151.184 221.104Z" fill="#141414"/>
<path id="Vector_97" d="M151.15 221.043C186.793 221.043 215.687 192.149 215.687 156.507C215.687 120.864 186.793 91.9697 151.15 91.9697C115.507 91.9697 86.6133 120.864 86.6133 156.507C86.6133 192.149 115.507 221.043 151.15 221.043Z" fill="#121212"/>
<path id="Vector_98" d="M151.117 220.981C186.757 220.981 215.649 192.089 215.649 156.449C215.649 120.808 186.757 91.916 151.117 91.916C115.476 91.916 86.5841 120.808 86.5841 156.449C86.5841 192.089 115.476 220.981 151.117 220.981Z" fill="#0F0F0F"/>
<path id="Vector_99" d="M151.083 220.921C186.721 220.921 215.612 192.03 215.612 156.391C215.612 120.753 186.721 91.8623 151.083 91.8623C115.444 91.8623 86.5538 120.753 86.5538 156.391C86.5538 192.03 115.444 220.921 151.083 220.921Z" fill="#0D0D0D"/>
<path id="Vector_100" d="M151.05 220.859C186.686 220.859 215.575 191.97 215.575 156.333C215.575 120.697 186.686 91.8076 151.05 91.8076C115.413 91.8076 86.5242 120.697 86.5242 156.333C86.5242 191.97 115.413 220.859 151.05 220.859Z" fill="#0A0A0A"/>
<path id="Vector_101" d="M151.016 220.797C186.65 220.797 215.538 191.909 215.538 156.275C215.538 120.64 186.65 91.7529 151.016 91.7529C115.381 91.7529 86.4938 120.64 86.4938 156.275C86.4938 191.909 115.381 220.797 151.016 220.797Z" fill="#080808"/>
<path id="Vector_102" d="M150.982 220.735C186.615 220.735 215.5 191.849 215.5 156.217C215.5 120.585 186.615 91.6992 150.982 91.6992C115.35 91.6992 86.4646 120.585 86.4646 156.217C86.4646 191.849 115.35 220.735 150.982 220.735Z" fill="#050505"/>
<path id="Vector_103" d="M150.949 220.673C186.579 220.673 215.463 191.789 215.463 156.159C215.463 120.529 186.579 91.6445 150.949 91.6445C115.318 91.6445 86.4343 120.529 86.4343 156.159C86.4343 191.789 115.318 220.673 150.949 220.673Z" fill="#030303"/>
<path id="Vector_104" d="M150.915 220.612C186.544 220.612 215.426 191.73 215.426 156.102C215.426 120.473 186.544 91.5908 150.915 91.5908C115.287 91.5908 86.4045 120.473 86.4045 156.102C86.4045 191.73 115.287 220.612 150.915 220.612Z" fill="black"/>
</g>
<path id="Vector_105" d="M150.537 220.612C186.374 220.612 215.425 191.56 215.425 155.723C215.425 119.886 186.374 90.834 150.537 90.834C114.699 90.834 85.6477 119.886 85.6477 155.723C85.6477 191.56 114.699 220.612 150.537 220.612Z" fill="white"/>
<g id="Group 1248">
<path id="Vector_106" d="M167.587 168.454C167.582 168.525 167.107 168.921 167.471 169.049L169.717 168.449C168.451 164.878 168.053 161.034 166.998 157.421C165.507 152.311 162.614 150.861 157.892 149.123C158.051 150.31 156.621 151.708 155.693 152.257C151.142 154.947 143.158 151.219 139.913 147.575C131.747 149.208 129.196 156.844 127.484 164.078C130.303 165.284 133.276 166.224 136.356 166.424C136.661 165.453 137.57 162.041 138.138 161.454C138.571 161.008 139.553 161.165 139.816 161.699C140.039 162.148 137.002 169.992 137.096 171.329C137.878 174.201 138.332 177.157 138.313 180.149C139.541 180.818 140.744 181.561 141.885 182.376C142.805 183.031 145.809 185.567 146.529 185.783C147.812 186.165 149.946 185.761 151.383 185.894C154.321 186.165 161.002 188.565 157.658 192.414C159.533 193.675 163.507 194.33 161.961 197.445C161.857 197.654 160.493 199.795 160.387 199.897C160.226 200.054 156.851 201.723 156.574 201.766C153.092 202.305 147.61 198.48 145.009 196.319C144.024 195.503 143.158 194.228 142.126 193.518C140.375 192.317 137.601 191.393 135.664 190.396C135.113 192.618 134.358 194.788 133.887 197.036C133.596 198.421 133.193 202.974 132.779 203.751C132.519 204.237 131.813 204.347 131.39 204.05C130.755 203.606 131.556 199.335 131.719 198.416C132.247 195.422 133.167 192.499 134.027 189.591C129.944 187.302 124.119 185.279 123.607 179.835C123.181 175.298 124.594 170.023 126.166 165.802C126.213 165.291 125.413 165.066 125.354 164.671C125.267 164.095 127.364 157.772 127.752 156.723C129.877 150.968 133.274 147.007 139.449 145.564C139.565 145.008 139.376 145.184 139.144 145.035C136.531 143.346 134.834 142.627 133.657 139.396C131.598 133.736 135.319 120.891 139.326 116.39C145.558 109.391 157.973 110.324 163.286 117.978C168.11 124.93 165.784 132.753 167.705 140.348C168.039 141.663 169.09 142.67 167.975 143.824C167.197 144.631 162.039 146.521 160.844 146.533C160.105 146.54 158.901 146.283 159.412 145.327C159.821 144.56 165.282 143.648 166.141 142.328C165.866 140.991 165.436 139.662 165.246 138.304C164.595 133.631 165.126 128.802 163.966 124.17C160.723 111.224 143.75 109.718 138.221 121.689C135.461 127.66 132.24 138.985 139.286 142.997C139.88 143.337 141.409 144.22 141.93 143.676C142.964 142.596 141.516 138.019 141.534 136.473C141.39 136.058 140.304 135.865 139.837 135.566C137.53 134.08 136.784 128.626 139.087 127.064C141.397 125.495 143.852 126.613 145.705 128.254C147.473 125.485 151.284 125.443 154.19 124.187C155.137 123.778 156.434 123.125 157.258 122.52C157.916 122.036 159.222 120.293 159.85 120.452C160.536 120.628 160.948 121.656 160.612 122.325C160.548 122.454 158.716 123.985 158.439 124.18C155.104 126.521 151.395 126.487 148.458 128.164C147.374 128.781 146.798 130.379 146.133 130.578C144.396 131.103 143.951 128.854 142.588 128.541C138.124 127.518 139.435 133.453 141.397 134.241C142.169 134.552 143.873 134.18 143.88 135.284C143.882 135.73 143.475 136.11 143.447 136.675C143.392 137.779 144.069 139.339 144.171 140.469C144.401 143.019 144.119 145.474 141.572 146.632C144.801 149.619 148.981 151.644 153.492 151.001C154.858 150.806 156.074 149.745 156.252 148.328C155.14 147.741 154.037 146.723 154.103 145.329C152.59 145.975 148.815 145.151 148.292 143.441C148.036 142.603 148.361 142.026 149.246 141.998C154.882 146.319 159.421 141.383 160.846 135.844C161.256 134.256 161.682 131.402 161.691 129.792C161.696 129.047 160.64 123.949 162.628 125.274C163.679 125.975 163.268 132.86 163.062 134.27C162.472 138.287 160.183 143.658 155.996 144.856C154.941 146.077 161.391 148.38 161.992 148.684C166.136 150.768 167.597 152.751 168.887 157.186C170.11 161.388 170.984 165.745 171.471 170.009C171.547 170.669 172.323 172.618 172.605 173.382C173.85 176.756 177.789 182.896 172.548 184.707C173.623 191.099 172.955 197.765 171.393 204.012C170.827 204.337 169.814 204.318 169.701 203.556C169.58 202.749 170.695 198.228 170.861 196.887C171.339 192.986 171.509 189.047 170.79 185.165C169.748 184.783 168.671 184.503 167.661 184.035C167.111 183.781 166.264 182.92 165.776 182.865C165.327 182.815 164.42 183.342 163.852 183.454C161.315 183.948 155.873 185.061 153.528 184.693C152.356 184.508 152.039 183.333 151.812 183.278C149.904 182.817 149.331 184.033 148.081 181.381C146.469 177.965 148.578 176.364 151.736 175.688C151.111 173.767 152.373 172.656 154.022 171.934C157.743 170.305 161.509 171.49 164.984 173.083C163.417 171.64 165.376 169.569 165.632 167.687C165.888 165.804 165.485 164.038 164.714 162.326C164.321 161.454 162.101 158.8 162.645 158.164C162.685 158.116 163.698 157.898 163.873 157.941C164.614 158.116 166.101 160.55 166.446 161.3C166.74 161.934 167.585 164.104 167.585 164.664C167.585 165.92 167.651 167.207 167.585 168.458L167.587 168.454ZM135.664 168.337C132.983 168 130.32 167.333 127.863 166.203C126.606 170.415 125.006 175.367 125.52 179.816C125.887 182.984 128.493 184.486 131.011 185.93C134.718 188.057 140.28 189.855 143.544 192.096C145.066 193.138 146.242 195.08 147.845 196.322C150.01 198 153.031 199.62 155.76 199.881L152.557 198.226C152.347 197.727 152.455 196.813 153.04 196.775C154.645 196.673 157.08 199.306 159.071 198.694C158.439 197.749 153.93 196.488 153.665 195.693C152.713 192.834 157.22 195.797 157.966 196.127C158.292 196.272 160.389 197.146 160.489 197.034C160.493 196.571 160.605 196.125 160.257 195.728C159.909 195.332 156.444 193.91 155.542 193.342C154.732 192.832 152.325 191.324 152.853 190.227C153.835 188.181 155.419 191.103 156.356 191.113C157.085 191.12 157.064 190.443 156.59 189.916C155.857 189.102 152.905 187.998 151.795 187.848C150.086 187.616 147.523 188.117 146.053 187.68C145.333 187.466 140.472 183.8 139.328 183.038C138.185 182.276 133.281 179.529 132.935 178.765C132.59 178 134.046 174.852 134.358 173.791C134.547 173.15 135.856 168.534 135.66 168.337H135.664ZM169.713 170.469C168.688 170.795 167.805 170.882 166.882 170.234C166.155 171.834 166.643 171.155 167.216 171.913C167.727 172.589 167.582 173.487 167.126 174.152L171.369 175.453L169.715 170.469H169.713ZM172.707 178.38C171.379 176.903 169.587 177.126 167.93 176.649C165.739 176.018 163.923 174.37 161.618 173.729C159.163 173.048 155.203 172.865 153.168 174.619C153.137 175.697 157.774 174.144 158.212 174.285C158.822 174.591 158.728 175.557 158.264 175.942C157.75 176.369 152.974 176.932 151.679 177.4C150.768 177.73 149.355 178.416 149.144 179.479C151.816 178.606 154.711 176.97 157.554 177.568C158.28 179.681 155.329 179.204 153.826 179.553C153.135 179.712 150.969 180.495 150.474 180.887C150.2 181.103 150.351 181.336 150.328 181.614C150.974 182.271 157.104 178.601 158.382 179.871L158.037 181.165L153.639 182.331L154.037 183.01C158.079 182.468 162.254 182.165 166.016 180.481C166.922 180.785 167.332 181.668 168.132 182.141C168.423 182.314 171.038 183.454 171.204 183.456C173.535 183.482 174.132 179.961 172.709 178.378L172.707 178.38ZM136.37 179.009L135.901 174.978L134.933 178.152L136.37 179.007V179.009Z" fill="#F2A71B"/>
<path id="Vector_107" d="M151.433 137.297C151.982 137.157 153.625 138.14 154.498 138.197C155.371 138.254 157.866 137.275 157.381 138.994C156.803 141.036 151.005 140.041 150.668 138.47C150.602 138.068 151.073 137.389 151.435 137.297H151.433Z" fill="#F2A71B"/>
<path id="Vector_108" d="M149.291 130.641C149.724 130.516 150.732 131.116 151.374 131.083C152.079 131.047 153.189 130.019 153.407 131.223C153.89 133.915 148.417 133.913 148.903 131.223C148.948 130.967 149.009 130.724 149.293 130.641H149.291Z" fill="#F2A71B"/>
<path id="Vector_109" d="M160.73 130.858C161.578 134.146 155.987 133.847 156.467 131.219C156.704 129.923 159.644 131.454 160.73 130.858Z" fill="#F2A71B"/>
</g>
</g>
</g>
<g id="Primeiro trimestre: Adapta&#195;&#167;&#195;&#163;o inicial do corpo.">
<text fill="#242628" xml:space="preserve" style="white-space: pre" font-family="'Montserrat', sans-serif" font-size="18" letter-spacing="0em"><tspan x="42.585" y="373.325">Adapta&#xe7;&#xe3;o inicial do </tspan><tspan x="103.95" y="398.325">corpo.&#13;</tspan></text>
<text fill="#242628" xml:space="preserve" style="white-space: pre" font-family="'Montserrat', sans-serif" font-size="24" font-weight="bold" letter-spacing="0em"><tspan x="79.8477" y="302.325">Primeiro </tspan><tspan x="72.4648" y="336.325">trimestre:&#10;</tspan></text>
</g>
</g>
</svg>
