<svg width="268" height="420" viewBox="0 0 268 420" fill="none" xmlns="http://www.w3.org/2000/svg">
<g id="Frame 866">
<rect width="268" height="420" rx="16" fill="#F5F6F6"/>
<g id="Group">
<path id="Vector" d="M160.594 238.296C213.562 238.296 256.502 195.357 256.502 142.388C256.502 89.4198 213.562 46.4805 160.594 46.4805C107.626 46.4805 64.6862 89.4198 64.6862 142.388C64.6862 195.357 107.626 238.296 160.594 238.296Z" fill="#DD5219"/>
<path id="Vector_2" d="M59.3623 167.631C59.2695 157.475 56.3555 152.774 46.9485 151.365V150.986C55.6955 149.767 57.6719 144.216 57.6719 134.624C57.6719 123.059 51.7468 119.485 35.102 119.485C27.6715 119.485 19.1136 120.074 11.4982 121.298V135.003H31.4352C37.1712 135.003 38.6725 135.94 38.6725 140.268C38.6725 144.124 38.2057 146.096 31.9989 146.096H19.4924V158.51L31.9989 158.325C37.9239 158.228 39.2403 159.826 39.2403 164.809C39.2403 170.734 37.2639 171.395 29.5516 171.395C24.0047 171.395 20.2451 171.298 11.4982 170.924V187.005H63.3656C63.3656 232.577 100.309 269.52 145.881 269.52C191.453 269.52 228.396 232.577 228.396 187.005C228.396 141.433 191.453 104.489 145.881 104.489" stroke="black" stroke-width="5" stroke-miterlimit="10" stroke-linecap="round"/>
<g id="Group_2">
<g id="Group_3" opacity="0.3">
<path id="Vector_3" d="M149.654 256.978C185.491 256.978 214.543 227.926 214.543 192.089C214.543 156.252 185.491 127.2 149.654 127.2C113.817 127.2 84.7654 156.252 84.7654 192.089C84.7654 227.926 113.817 256.978 149.654 256.978Z" fill="white"/>
<path id="Vector_4" d="M149.62 256.917C185.455 256.917 214.505 227.867 214.505 192.032C214.505 156.197 185.455 127.146 149.62 127.146C113.785 127.146 84.7349 156.197 84.7349 192.032C84.7349 227.867 113.785 256.917 149.62 256.917Z" fill="#FCFCFC"/>
<path id="Vector_5" d="M149.586 256.856C185.419 256.856 214.468 227.808 214.468 191.974C214.468 156.141 185.419 127.093 149.586 127.093C113.753 127.093 84.7046 156.141 84.7046 191.974C84.7046 227.808 113.753 256.856 149.586 256.856Z" fill="#FAFAFA"/>
<path id="Vector_6" d="M149.553 256.793C185.384 256.793 214.431 227.747 214.431 191.916C214.431 156.085 185.384 127.038 149.553 127.038C113.722 127.038 84.6756 156.085 84.6756 191.916C84.6756 227.747 113.722 256.793 149.553 256.793Z" fill="#F7F7F7"/>
<path id="Vector_7" d="M149.519 256.732C185.348 256.732 214.393 227.687 214.393 191.858C214.393 156.029 185.348 126.984 149.519 126.984C113.69 126.984 84.6453 156.029 84.6453 191.858C84.6453 227.687 113.69 256.732 149.519 256.732Z" fill="#F5F5F5"/>
<path id="Vector_8" d="M149.486 256.671C185.313 256.671 214.356 227.627 214.356 191.8C214.356 155.973 185.313 126.93 149.486 126.93C113.659 126.93 84.6155 155.973 84.6155 191.8C84.6155 227.627 113.659 256.671 149.486 256.671Z" fill="#F2F2F2"/>
<path id="Vector_9" d="M149.452 256.608C185.277 256.608 214.318 227.567 214.318 191.742C214.318 155.918 185.277 126.876 149.452 126.876C113.627 126.876 84.5856 155.918 84.5856 191.742C84.5856 227.567 113.627 256.608 149.452 256.608Z" fill="#F0F0F0"/>
<path id="Vector_10" d="M149.419 256.548C185.241 256.548 214.281 227.508 214.281 191.685C214.281 155.862 185.241 126.822 149.419 126.822C113.596 126.822 84.5559 155.862 84.5559 191.685C84.5559 227.508 113.596 256.548 149.419 256.548Z" fill="#EDEDED"/>
<path id="Vector_11" d="M149.385 256.487C185.206 256.487 214.244 227.448 214.244 191.628C214.244 155.807 185.206 126.769 149.385 126.769C113.564 126.769 84.5258 155.807 84.5258 191.628C84.5258 227.448 113.564 256.487 149.385 256.487Z" fill="#EBEBEB"/>
<path id="Vector_12" d="M149.352 256.425C185.17 256.425 214.207 227.388 214.207 191.569C214.207 155.751 185.17 126.714 149.352 126.714C113.533 126.714 84.496 155.751 84.496 191.569C84.496 227.388 113.533 256.425 149.352 256.425Z" fill="#E8E8E8"/>
<path id="Vector_13" d="M149.318 256.364C185.134 256.364 214.169 227.329 214.169 191.513C214.169 155.696 185.134 126.661 149.318 126.661C113.501 126.661 84.4663 155.696 84.4663 191.513C84.4663 227.329 113.501 256.364 149.318 256.364Z" fill="#E6E6E6"/>
<path id="Vector_14" d="M149.284 256.301C185.099 256.301 214.132 227.268 214.132 191.453C214.132 155.639 185.099 126.605 149.284 126.605C113.47 126.605 84.4364 155.639 84.4364 191.453C84.4364 227.268 113.47 256.301 149.284 256.301Z" fill="#E3E3E3"/>
<path id="Vector_15" d="M149.25 256.239C185.063 256.239 214.095 227.208 214.095 191.395C214.095 155.583 185.063 126.551 149.25 126.551C113.438 126.551 84.4061 155.583 84.4061 191.395C84.4061 227.208 113.438 256.239 149.25 256.239Z" fill="#E1E1E1"/>
<path id="Vector_16" d="M149.217 256.178C185.027 256.178 214.057 227.148 214.057 191.338C214.057 155.528 185.027 126.498 149.217 126.498C113.407 126.498 84.3771 155.528 84.3771 191.338C84.3771 227.148 113.407 256.178 149.217 256.178Z" fill="#DEDEDE"/>
<path id="Vector_17" d="M149.183 256.116C184.992 256.116 214.02 227.088 214.02 191.28C214.02 155.472 184.992 126.443 149.183 126.443C113.375 126.443 84.3469 155.472 84.3469 191.28C84.3469 227.088 113.375 256.116 149.183 256.116Z" fill="#DCDCDC"/>
<path id="Vector_18" d="M149.149 256.055C184.956 256.055 213.982 227.028 213.982 191.222C213.982 155.415 184.956 126.389 149.149 126.389C113.343 126.389 84.3165 155.415 84.3165 191.222C84.3165 227.028 113.343 256.055 149.149 256.055Z" fill="#D9D9D9"/>
<path id="Vector_19" d="M149.116 255.993C184.92 255.993 213.945 226.968 213.945 191.164C213.945 155.36 184.92 126.335 149.116 126.335C113.312 126.335 84.2872 155.36 84.2872 191.164C84.2872 226.968 113.312 255.993 149.116 255.993Z" fill="#D7D7D7"/>
<path id="Vector_20" d="M149.082 255.932C184.884 255.932 213.907 226.908 213.907 191.106C213.907 155.304 184.884 126.281 149.082 126.281C113.28 126.281 84.2569 155.304 84.2569 191.106C84.2569 226.908 113.28 255.932 149.082 255.932Z" fill="#D4D4D4"/>
<path id="Vector_21" d="M149.049 255.871C184.849 255.871 213.87 226.849 213.87 191.049C213.87 155.249 184.849 126.228 149.049 126.228C113.249 126.228 84.2272 155.249 84.2272 191.049C84.2272 226.849 113.249 255.871 149.049 255.871Z" fill="#D2D2D2"/>
<path id="Vector_22" d="M149.015 255.809C184.813 255.809 213.833 226.789 213.833 190.991C213.833 155.194 184.813 126.174 149.015 126.174C113.217 126.174 84.1976 155.194 84.1976 190.991C84.1976 226.789 113.217 255.809 149.015 255.809Z" fill="#CFCFCF"/>
<path id="Vector_23" d="M148.982 255.747C184.778 255.747 213.796 226.729 213.796 190.933C213.796 155.137 184.778 126.119 148.982 126.119C113.186 126.119 84.1678 155.137 84.1678 190.933C84.1678 226.729 113.186 255.747 148.982 255.747Z" fill="#CDCDCD"/>
<path id="Vector_24" d="M148.948 255.686C184.742 255.686 213.758 226.67 213.758 190.876C213.758 155.082 184.742 126.065 148.948 126.065C113.154 126.065 84.1374 155.082 84.1374 190.876C84.1374 226.67 113.154 255.686 148.948 255.686Z" fill="#CACACA"/>
<path id="Vector_25" d="M148.914 255.624C184.706 255.624 213.721 226.609 213.721 190.818C213.721 155.026 184.706 126.011 148.914 126.011C113.123 126.011 84.1077 155.026 84.1077 190.818C84.1077 226.609 113.123 255.624 148.914 255.624Z" fill="#C7C7C7"/>
<path id="Vector_26" d="M148.881 255.561C184.67 255.561 213.683 226.548 213.683 190.759C213.683 154.969 184.67 125.956 148.881 125.956C113.091 125.956 84.0779 154.969 84.0779 190.759C84.0779 226.548 113.091 255.561 148.881 255.561Z" fill="#C5C5C5"/>
<path id="Vector_27" d="M148.847 255.5C184.635 255.5 213.646 226.489 213.646 190.701C213.646 154.914 184.635 125.902 148.847 125.902C113.06 125.902 84.0482 154.914 84.0482 190.701C84.0482 226.489 113.06 255.5 148.847 255.5Z" fill="#C2C2C2"/>
<path id="Vector_28" d="M148.814 255.44C184.599 255.44 213.609 226.43 213.609 190.644C213.609 154.859 184.599 125.849 148.814 125.849C113.028 125.849 84.0181 154.859 84.0181 190.644C84.0181 226.43 113.028 255.44 148.814 255.44Z" fill="#C0C0C0"/>
<path id="Vector_29" d="M148.78 255.378C184.563 255.378 213.571 226.37 213.571 190.586C213.571 154.803 184.563 125.795 148.78 125.795C112.997 125.795 83.9887 154.803 83.9887 190.586C83.9887 226.37 112.997 255.378 148.78 255.378Z" fill="#BDBDBD"/>
<path id="Vector_30" d="M148.746 255.316C184.528 255.316 213.534 226.309 213.534 190.528C213.534 154.747 184.528 125.74 148.746 125.74C112.965 125.74 83.9584 154.747 83.9584 190.528C83.9584 226.309 112.965 255.316 148.746 255.316Z" fill="#BBBBBB"/>
<path id="Vector_31" d="M148.713 255.255C184.492 255.255 213.497 226.25 213.497 190.471C213.497 154.691 184.492 125.687 148.713 125.687C112.934 125.687 83.9287 154.691 83.9287 190.471C83.9287 226.25 112.934 255.255 148.713 255.255Z" fill="#B8B8B8"/>
<path id="Vector_32" d="M148.679 255.193C184.456 255.193 213.459 226.19 213.459 190.413C213.459 154.636 184.456 125.633 148.679 125.633C112.902 125.633 83.899 154.636 83.899 190.413C83.899 226.19 112.902 255.193 148.679 255.193Z" fill="#B6B6B6"/>
<path id="Vector_33" d="M148.645 255.132C184.42 255.132 213.422 226.131 213.422 190.356C213.422 154.581 184.42 125.579 148.645 125.579C112.87 125.579 83.8687 154.581 83.8687 190.356C83.8687 226.131 112.87 255.132 148.645 255.132Z" fill="#B3B3B3"/>
<path id="Vector_34" d="M148.612 255.069C184.385 255.069 213.385 226.069 213.385 190.296C213.385 154.523 184.385 125.523 148.612 125.523C112.839 125.523 83.8389 154.523 83.8389 190.296C83.8389 226.069 112.839 255.069 148.612 255.069Z" fill="#B1B1B1"/>
<path id="Vector_35" d="M148.578 255.008C184.349 255.008 213.347 226.01 213.347 190.239C213.347 154.468 184.349 125.47 148.578 125.47C112.807 125.47 83.8086 154.468 83.8086 190.239C83.8086 226.01 112.807 255.008 148.578 255.008Z" fill="#AEAEAE"/>
<path id="Vector_36" d="M148.545 254.946C184.313 254.946 213.31 225.95 213.31 190.181C213.31 154.412 184.313 125.416 148.545 125.416C112.776 125.416 83.7795 154.412 83.7795 190.181C83.7795 225.95 112.776 254.946 148.545 254.946Z" fill="#ACACAC"/>
<path id="Vector_37" d="M148.511 254.885C184.278 254.885 213.272 225.89 213.272 190.123C213.272 154.356 184.278 125.361 148.511 125.361C112.744 125.361 83.7491 154.356 83.7491 190.123C83.7491 225.89 112.744 254.885 148.511 254.885Z" fill="#A9A9A9"/>
<path id="Vector_38" d="M148.477 254.824C184.242 254.824 213.236 225.831 213.236 190.066C213.236 154.301 184.242 125.308 148.477 125.308C112.713 125.308 83.7194 154.301 83.7194 190.066C83.7194 225.831 112.713 254.824 148.477 254.824Z" fill="#A7A7A7"/>
<path id="Vector_39" d="M148.444 254.762C184.206 254.762 213.197 225.77 213.197 190.008C213.197 154.245 184.206 125.254 148.444 125.254C112.681 125.254 83.6897 154.245 83.6897 190.008C83.6897 225.77 112.681 254.762 148.444 254.762Z" fill="#A4A4A4"/>
<path id="Vector_40" d="M148.41 254.701C184.171 254.701 213.161 225.711 213.161 189.951C213.161 154.19 184.171 125.2 148.41 125.2C112.65 125.2 83.66 154.19 83.66 189.951C83.66 225.711 112.65 254.701 148.41 254.701Z" fill="#A2A2A2"/>
<path id="Vector_41" d="M148.376 254.639C184.135 254.639 213.123 225.651 213.123 189.892C213.123 154.134 184.135 125.146 148.376 125.146C112.618 125.146 83.6296 154.134 83.6296 189.892C83.6296 225.651 112.618 254.639 148.376 254.639Z" fill="#9F9F9F"/>
<path id="Vector_42" d="M148.343 254.577C184.099 254.577 213.086 225.591 213.086 189.834C213.086 154.078 184.099 125.092 148.343 125.092C112.587 125.092 83.6005 154.078 83.6005 189.834C83.6005 225.591 112.587 254.577 148.343 254.577Z" fill="#9D9D9D"/>
<path id="Vector_43" d="M148.309 254.515C184.064 254.515 213.048 225.531 213.048 189.776C213.048 154.022 184.064 125.037 148.309 125.037C112.555 125.037 83.5702 154.022 83.5702 189.776C83.5702 225.531 112.555 254.515 148.309 254.515Z" fill="#9A9A9A"/>
<path id="Vector_44" d="M148.276 254.454C184.028 254.454 213.011 225.471 213.011 189.719C213.011 153.966 184.028 124.983 148.276 124.983C112.524 124.983 83.5405 153.966 83.5405 189.719C83.5405 225.471 112.524 254.454 148.276 254.454Z" fill="#979797"/>
<path id="Vector_45" d="M148.242 254.392C183.993 254.392 212.974 225.411 212.974 189.661C212.974 153.91 183.993 124.929 148.242 124.929C112.492 124.929 83.5102 153.91 83.5102 189.661C83.5102 225.411 112.492 254.392 148.242 254.392Z" fill="#959595"/>
<path id="Vector_46" d="M148.208 254.33C183.956 254.33 212.936 225.351 212.936 189.603C212.936 153.855 183.956 124.875 148.208 124.875C112.46 124.875 83.4804 153.855 83.4804 189.603C83.4804 225.351 112.46 254.33 148.208 254.33Z" fill="#929292"/>
<path id="Vector_47" d="M148.175 254.27C183.921 254.27 212.899 225.292 212.899 189.545C212.899 153.799 183.921 124.821 148.175 124.821C112.429 124.821 83.4507 153.799 83.4507 189.545C83.4507 225.292 112.429 254.27 148.175 254.27Z" fill="#909090"/>
<path id="Vector_48" d="M148.141 254.209C183.885 254.209 212.862 225.232 212.862 189.488C212.862 153.744 183.885 124.768 148.141 124.768C112.397 124.768 83.4204 153.744 83.4204 189.488C83.4204 225.232 112.397 254.209 148.141 254.209Z" fill="#8D8D8D"/>
<path id="Vector_49" d="M148.108 254.147C183.85 254.147 212.824 225.172 212.824 189.43C212.824 153.688 183.85 124.714 148.108 124.714C112.366 124.714 83.3912 153.688 83.3912 189.43C83.3912 225.172 112.366 254.147 148.108 254.147Z" fill="#8B8B8B"/>
<path id="Vector_50" d="M148.074 254.085C183.814 254.085 212.786 225.112 212.786 189.372C212.786 153.632 183.814 124.659 148.074 124.659C112.334 124.659 83.3607 153.632 83.3607 189.372C83.3607 225.112 112.334 254.085 148.074 254.085Z" fill="#888888"/>
<path id="Vector_51" d="M148.04 254.023C183.778 254.023 212.75 225.052 212.75 189.314C212.75 153.576 183.778 124.604 148.04 124.604C112.303 124.604 83.3312 153.576 83.3312 189.314C83.3312 225.052 112.303 254.023 148.04 254.023Z" fill="#868686"/>
<path id="Vector_52" d="M148.007 253.961C183.742 253.961 212.712 224.992 212.712 189.256C212.712 153.52 183.742 124.551 148.007 124.551C112.271 124.551 83.3015 153.52 83.3015 189.256C83.3015 224.992 112.271 253.961 148.007 253.961Z" fill="#838383"/>
<path id="Vector_53" d="M147.973 253.9C183.707 253.9 212.675 224.932 212.675 189.199C212.675 153.465 183.707 124.497 147.973 124.497C112.24 124.497 83.2717 153.465 83.2717 189.199C83.2717 224.932 112.24 253.9 147.973 253.9Z" fill="#818181"/>
<path id="Vector_54" d="M147.939 253.838C183.671 253.838 212.637 224.872 212.637 189.14C212.637 153.409 183.671 124.442 147.939 124.442C112.208 124.442 83.2415 153.409 83.2415 189.14C83.2415 224.872 112.208 253.838 147.939 253.838Z" fill="#7E7E7E"/>
<path id="Vector_55" d="M147.906 253.776C183.636 253.776 212.6 224.812 212.6 189.083C212.6 153.353 183.636 124.389 147.906 124.389C112.177 124.389 83.2123 153.353 83.2123 189.083C83.2123 224.812 112.177 253.776 147.906 253.776Z" fill="#7C7C7C"/>
<path id="Vector_56" d="M147.872 253.715C183.6 253.715 212.563 224.753 212.563 189.025C212.563 153.298 183.6 124.335 147.872 124.335C112.145 124.335 83.182 153.298 83.182 189.025C83.182 224.753 112.145 253.715 147.872 253.715Z" fill="#797979"/>
<path id="Vector_57" d="M147.839 253.654C183.564 253.654 212.526 224.692 212.526 188.967C212.526 153.241 183.564 124.28 147.839 124.28C112.113 124.28 83.1522 153.241 83.1522 188.967C83.1522 224.692 112.113 253.654 147.839 253.654Z" fill="#777777"/>
<path id="Vector_58" d="M147.805 253.592C183.529 253.592 212.488 224.632 212.488 188.909C212.488 153.185 183.529 124.226 147.805 124.226C112.082 124.226 83.1219 153.185 83.1219 188.909C83.1219 224.632 112.082 253.592 147.805 253.592Z" fill="#747474"/>
<path id="Vector_59" d="M147.772 253.531C183.493 253.531 212.451 224.573 212.451 188.852C212.451 153.131 183.493 124.173 147.772 124.173C112.051 124.173 83.0928 153.131 83.0928 188.852C83.0928 224.573 112.051 253.531 147.772 253.531Z" fill="#727272"/>
<path id="Vector_60" d="M147.738 253.469C183.457 253.469 212.413 224.513 212.413 188.794C212.413 153.074 183.457 124.118 147.738 124.118C112.019 124.118 83.0625 153.074 83.0625 188.794C83.0625 224.513 112.019 253.469 147.738 253.469Z" fill="#6F6F6F"/>
<path id="Vector_61" d="M147.704 253.407C183.421 253.407 212.376 224.453 212.376 188.735C212.376 153.018 183.421 124.063 147.704 124.063C111.987 124.063 83.032 153.018 83.032 188.735C83.032 224.453 111.987 253.407 147.704 253.407Z" fill="#6D6D6D"/>
<path id="Vector_62" d="M147.671 253.345C183.386 253.345 212.338 224.392 212.338 188.677C212.338 152.962 183.386 124.01 147.671 124.01C111.956 124.01 83.003 152.962 83.003 188.677C83.003 224.392 111.956 253.345 147.671 253.345Z" fill="#6A6A6A"/>
<path id="Vector_63" d="M147.637 253.284C183.35 253.284 212.301 224.333 212.301 188.62C212.301 152.907 183.35 123.956 147.637 123.956C111.924 123.956 82.9727 152.907 82.9727 188.62C82.9727 224.333 111.924 253.284 147.637 253.284Z" fill="#686868"/>
<path id="Vector_64" d="M147.604 253.222C183.315 253.222 212.264 224.273 212.264 188.562C212.264 152.851 183.315 123.901 147.604 123.901C111.892 123.901 82.943 152.851 82.943 188.562C82.943 224.273 111.892 253.222 147.604 253.222Z" fill="#656565"/>
<path id="Vector_65" d="M147.57 253.16C183.278 253.16 212.226 224.213 212.226 188.504C212.226 152.795 183.278 123.848 147.57 123.848C111.861 123.848 82.9133 152.795 82.9133 188.504C82.9133 224.213 111.861 253.16 147.57 253.16Z" fill="#626262"/>
<path id="Vector_66" d="M147.536 253.1C183.243 253.1 212.189 224.153 212.189 188.447C212.189 152.74 183.243 123.794 147.536 123.794C111.829 123.794 82.8833 152.74 82.8833 188.447C82.8833 224.153 111.829 253.1 147.536 253.1Z" fill="#606060"/>
<path id="Vector_67" d="M147.502 253.039C183.207 253.039 212.151 224.094 212.151 188.389C212.151 152.685 183.207 123.74 147.502 123.74C111.797 123.74 82.853 152.685 82.853 188.389C82.853 224.094 111.797 253.039 147.502 253.039Z" fill="#5D5D5D"/>
<path id="Vector_68" d="M147.469 252.977C183.172 252.977 212.115 224.034 212.115 188.331C212.115 152.628 183.172 123.686 147.469 123.686C111.766 123.686 82.8235 152.628 82.8235 188.331C82.8235 224.034 111.766 252.977 147.469 252.977Z" fill="#5B5B5B"/>
<path id="Vector_69" d="M147.435 252.914C183.136 252.914 212.077 223.973 212.077 188.272C212.077 152.572 183.136 123.631 147.435 123.631C111.735 123.631 82.7938 152.572 82.7938 188.272C82.7938 223.973 111.735 252.914 147.435 252.914Z" fill="#585858"/>
<path id="Vector_70" d="M147.402 252.853C183.101 252.853 212.04 223.914 212.04 188.215C212.04 152.516 183.101 123.577 147.402 123.577C111.703 123.577 82.764 152.516 82.764 188.215C82.764 223.914 111.703 252.853 147.402 252.853Z" fill="#565656"/>
<path id="Vector_71" d="M147.368 252.792C183.064 252.792 212.002 223.854 212.002 188.158C212.002 152.461 183.064 123.523 147.368 123.523C111.671 123.523 82.7335 152.461 82.7335 188.158C82.7335 223.854 111.671 252.792 147.368 252.792Z" fill="#535353"/>
<path id="Vector_72" d="M147.335 252.73C183.029 252.73 211.965 223.794 211.965 188.1C211.965 152.406 183.029 123.47 147.335 123.47C111.64 123.47 82.7043 152.406 82.7043 188.1C82.7043 223.794 111.64 252.73 147.335 252.73Z" fill="#515151"/>
<path id="Vector_73" d="M147.301 252.668C182.993 252.668 211.928 223.734 211.928 188.042C211.928 152.349 182.993 123.415 147.301 123.415C111.609 123.415 82.6743 152.349 82.6743 188.042C82.6743 223.734 111.609 252.668 147.301 252.668Z" fill="#4E4E4E"/>
<path id="Vector_74" d="M147.267 252.607C182.957 252.607 211.89 223.674 211.89 187.983C211.89 152.293 182.957 123.36 147.267 123.36C111.577 123.36 82.644 152.293 82.644 187.983C82.644 223.674 111.577 252.607 147.267 252.607Z" fill="#4C4C4C"/>
<path id="Vector_75" d="M147.234 252.544C182.922 252.544 211.853 223.614 211.853 187.926C211.853 152.237 182.922 123.307 147.234 123.307C111.546 123.307 82.6148 152.237 82.6148 187.926C82.6148 223.614 111.546 252.544 147.234 252.544Z" fill="#494949"/>
<path id="Vector_76" d="M147.2 252.484C182.886 252.484 211.815 223.554 211.815 187.868C211.815 152.182 182.886 123.253 147.2 123.253C111.514 123.253 82.5843 152.182 82.5843 187.868C82.5843 223.554 111.514 252.484 147.2 252.484Z" fill="#474747"/>
<path id="Vector_77" d="M147.166 252.422C182.85 252.422 211.778 223.494 211.778 187.81C211.778 152.126 182.85 123.198 147.166 123.198C111.482 123.198 82.5546 152.126 82.5546 187.81C82.5546 223.494 111.482 252.422 147.166 252.422Z" fill="#444444"/>
<path id="Vector_78" d="M147.132 252.361C182.815 252.361 211.741 223.435 211.741 187.753C211.741 152.071 182.815 123.145 147.132 123.145C111.45 123.145 82.5243 152.071 82.5243 187.753C82.5243 223.435 111.45 252.361 147.132 252.361Z" fill="#424242"/>
<path id="Vector_79" d="M147.099 252.299C182.779 252.299 211.703 223.375 211.703 187.695C211.703 152.015 182.779 123.091 147.099 123.091C111.42 123.091 82.4953 152.015 82.4953 187.695C82.4953 223.375 111.42 252.299 147.099 252.299Z" fill="#3F3F3F"/>
<path id="Vector_80" d="M147.065 252.237C182.743 252.237 211.666 223.314 211.666 187.637C211.666 151.959 182.743 123.036 147.065 123.036C111.387 123.036 82.4648 151.959 82.4648 187.637C82.4648 223.314 111.387 252.237 147.065 252.237Z" fill="#3D3D3D"/>
<path id="Vector_81" d="M147.032 252.175C182.708 252.175 211.629 223.254 211.629 187.578C211.629 151.902 182.708 122.981 147.032 122.981C111.356 122.981 82.4351 151.902 82.4351 187.578C82.4351 223.254 111.356 252.175 147.032 252.175Z" fill="#3A3A3A"/>
<path id="Vector_82" d="M146.998 252.114C182.672 252.114 211.591 223.195 211.591 187.521C211.591 151.848 182.672 122.929 146.998 122.929C111.324 122.929 82.4053 151.848 82.4053 187.521C82.4053 223.195 111.324 252.114 146.998 252.114Z" fill="#383838"/>
<path id="Vector_83" d="M146.965 252.052C182.636 252.052 211.554 223.135 211.554 187.463C211.554 151.792 182.636 122.874 146.965 122.874C111.293 122.874 82.3756 151.792 82.3756 187.463C82.3756 223.135 111.293 252.052 146.965 252.052Z" fill="#353535"/>
<path id="Vector_84" d="M146.931 251.992C182.601 251.992 211.516 223.076 211.516 187.406C211.516 151.736 182.601 122.82 146.931 122.82C111.261 122.82 82.3453 151.736 82.3453 187.406C82.3453 223.076 111.261 251.992 146.931 251.992Z" fill="#323232"/>
<path id="Vector_85" d="M146.898 251.93C182.565 251.93 211.479 223.015 211.479 187.348C211.479 151.681 182.565 122.767 146.898 122.767C111.23 122.767 82.3163 151.681 82.3163 187.348C82.3163 223.015 111.23 251.93 146.898 251.93Z" fill="#303030"/>
<path id="Vector_86" d="M146.864 251.868C182.529 251.868 211.442 222.955 211.442 187.29C211.442 151.624 182.529 122.712 146.864 122.712C111.198 122.712 82.2858 151.624 82.2858 187.29C82.2858 222.955 111.198 251.868 146.864 251.868Z" fill="#2D2D2D"/>
<path id="Vector_87" d="M146.83 251.807C182.493 251.807 211.404 222.896 211.404 187.233C211.404 151.569 182.493 122.658 146.83 122.658C111.166 122.658 82.2556 151.569 82.2556 187.233C82.2556 222.896 111.166 251.807 146.83 251.807Z" fill="#2B2B2B"/>
<path id="Vector_88" d="M146.797 251.745C182.458 251.745 211.367 222.836 211.367 187.175C211.367 151.513 182.458 122.604 146.797 122.604C111.135 122.604 82.2264 151.513 82.2264 187.175C82.2264 222.836 111.135 251.745 146.797 251.745Z" fill="#282828"/>
<path id="Vector_89" d="M146.763 251.683C182.422 251.683 211.329 222.776 211.329 187.116C211.329 151.457 182.422 122.55 146.763 122.55C111.104 122.55 82.1961 151.457 82.1961 187.116C82.1961 222.776 111.104 251.683 146.763 251.683Z" fill="#262626"/>
<path id="Vector_90" d="M146.729 251.621C182.387 251.621 211.292 222.715 211.292 187.058C211.292 151.401 182.387 122.495 146.729 122.495C111.072 122.495 82.1663 151.401 82.1663 187.058C82.1663 222.715 111.072 251.621 146.729 251.621Z" fill="#232323"/>
<path id="Vector_91" d="M146.695 251.56C182.351 251.56 211.255 222.656 211.255 187.001C211.255 151.346 182.351 122.441 146.695 122.441C111.04 122.441 82.136 151.346 82.136 187.001C82.136 222.656 111.04 251.56 146.695 251.56Z" fill="#212121"/>
<path id="Vector_92" d="M146.662 251.498C182.315 251.498 211.217 222.596 211.217 186.943C211.217 151.29 182.315 122.388 146.662 122.388C111.009 122.388 82.1069 151.29 82.1069 186.943C82.1069 222.596 111.009 251.498 146.662 251.498Z" fill="#1E1E1E"/>
<path id="Vector_93" d="M146.628 251.436C182.279 251.436 211.18 222.536 211.18 186.885C211.18 151.234 182.279 122.333 146.628 122.333C110.977 122.333 82.0766 151.234 82.0766 186.885C82.0766 222.536 110.977 251.436 146.628 251.436Z" fill="#1C1C1C"/>
<path id="Vector_94" d="M146.595 251.376C182.244 251.376 211.143 222.476 211.143 186.827C211.143 151.178 182.244 122.279 146.595 122.279C110.946 122.279 82.0469 151.178 82.0469 186.827C82.0469 222.476 110.946 251.376 146.595 251.376Z" fill="#191919"/>
<path id="Vector_95" d="M146.561 251.314C182.208 251.314 211.105 222.416 211.105 186.77C211.105 151.123 182.208 122.226 146.561 122.226C110.915 122.226 82.0173 151.123 82.0173 186.77C82.0173 222.416 110.915 251.314 146.561 251.314Z" fill="#171717"/>
<path id="Vector_96" d="M146.528 251.253C182.172 251.253 211.068 222.357 211.068 186.712C211.068 151.068 182.172 122.172 146.528 122.172C110.883 122.172 81.9874 151.068 81.9874 186.712C81.9874 222.357 110.883 251.253 146.528 251.253Z" fill="#141414"/>
<path id="Vector_97" d="M146.494 251.191C182.137 251.191 211.031 222.297 211.031 186.654C211.031 151.011 182.137 122.117 146.494 122.117C110.851 122.117 81.9571 151.011 81.9571 186.654C81.9571 222.297 110.851 251.191 146.494 251.191Z" fill="#121212"/>
<path id="Vector_98" d="M146.461 251.129C182.101 251.129 210.993 222.237 210.993 186.596C210.993 150.956 182.101 122.063 146.461 122.063C110.82 122.063 81.9279 150.956 81.9279 186.596C81.9279 222.237 110.82 251.129 146.461 251.129Z" fill="#0F0F0F"/>
<path id="Vector_99" d="M146.427 251.068C182.065 251.068 210.956 222.177 210.956 186.539C210.956 150.9 182.065 122.01 146.427 122.01C110.788 122.01 81.8976 150.9 81.8976 186.539C81.8976 222.177 110.788 251.068 146.427 251.068Z" fill="#0D0D0D"/>
<path id="Vector_100" d="M146.393 251.006C182.03 251.006 210.919 222.117 210.919 186.481C210.919 150.844 182.03 121.955 146.393 121.955C110.757 121.955 81.8679 150.844 81.8679 186.481C81.8679 222.117 110.757 251.006 146.393 251.006Z" fill="#0A0A0A"/>
<path id="Vector_101" d="M146.36 250.944C181.994 250.944 210.882 222.057 210.882 186.422C210.882 150.788 181.994 121.9 146.36 121.9C110.725 121.9 81.8376 150.788 81.8376 186.422C81.8376 222.057 110.725 250.944 146.36 250.944Z" fill="#080808"/>
<path id="Vector_102" d="M146.326 250.882C181.958 250.882 210.844 221.997 210.844 186.364C210.844 150.732 181.958 121.847 146.326 121.847C110.693 121.847 81.8079 150.732 81.8079 186.364C81.8079 221.997 110.693 250.882 146.326 250.882Z" fill="#050505"/>
<path id="Vector_103" d="M146.292 250.821C181.923 250.821 210.807 221.937 210.807 186.307C210.807 150.677 181.923 121.793 146.292 121.793C110.662 121.793 81.7781 150.677 81.7781 186.307C81.7781 221.937 110.662 250.821 146.292 250.821Z" fill="#030303"/>
<path id="Vector_104" d="M146.259 250.761C181.887 250.761 210.769 221.878 210.769 186.25C210.769 150.622 181.887 121.739 146.259 121.739C110.63 121.739 81.7479 150.622 81.7479 186.25C81.7479 221.878 110.63 250.761 146.259 250.761Z" fill="black"/>
</g>
<path id="Vector_105" d="M145.88 250.759C181.718 250.759 210.769 221.707 210.769 185.87C210.769 150.033 181.718 120.981 145.88 120.981C110.043 120.981 80.9916 150.033 80.9916 185.87C80.9916 221.707 110.043 250.759 145.88 250.759Z" fill="white"/>
<g id="Group 1250">
<path id="Vector_106" d="M161.237 148.408C168.099 147.176 171.981 152.459 171.389 158.966C171.058 162.615 167.966 166.557 169.325 170.293C169.611 171.082 170.333 171.488 170.44 172.271C170.861 175.377 166.298 172.718 165.166 171.856C159.824 167.789 161.775 162.05 161.694 156.243L159.846 160.198C159.509 161.378 157.15 163.503 156.972 164.432C156.66 166.082 157.204 168.781 157.999 170.267C159.292 172.682 161.741 173.551 163.699 175.225C167.197 178.216 169.041 182.677 168.991 187.278L167.604 187.445C166.778 185.735 166.771 183.693 166.068 181.863C163.405 174.93 155.59 174.994 155.067 166.571C154.79 162.105 157.384 161.483 158.901 157.829C164.53 144.277 147.975 134.154 136.744 143.667C135.691 144.56 133.419 146.483 134.011 147.841C135.312 150.832 141.606 154.776 144.823 155.039C146.373 155.165 146.295 153.743 147.507 152.8C151.985 149.31 155.997 156.21 152.818 160.737C152.177 161.651 150.832 162.886 149.642 162.295C147.923 161.443 150.787 160.172 151.299 159.451C152.271 158.076 152.418 155.419 150.948 154.346C148.548 152.592 147.859 156.507 146.697 156.991C143.632 157.088 140.385 155.835 137.84 154.211C135.793 152.905 134.666 151.499 133.052 149.764C132.846 149.543 132.808 149.163 132.496 149.602C132.098 150.163 132.103 151.393 132.169 152.072C132.361 153.988 134.108 157.428 134.051 158.734C133.98 160.35 131.452 161.953 131.693 163.814L134.399 164.303C135.222 166.637 135.059 169.574 137.66 170.756C140.927 172.24 143.303 168.741 145.608 170.612C146.78 171.561 146.832 175.564 145.961 176.868C144.079 179.686 139.457 182.872 136.87 185.301C134.283 187.73 130.356 190.59 132.252 194.684C132.732 195.721 134.243 196.649 133.686 197.758C133.525 198.079 130.524 200.087 129.906 200.607C122.384 206.939 119.028 215.515 123.357 224.954C123.781 225.878 126.098 229.314 125.968 229.848C125.826 230.425 125.047 230.617 124.507 230.451C123.833 230.242 121.828 226.277 121.464 225.429C116.557 214.055 121.722 203.63 131.409 197.255C131.658 196.827 130.555 195.56 130.306 194.976C129.76 193.684 129.62 192.495 129.887 191.106C130.789 186.405 140.799 180.367 143.973 176.298C145.074 174.888 144.742 173.712 144.051 172.126C142.633 172.141 141.49 172.981 140.077 173.1C135.568 173.48 133.549 169.966 132.813 166.015C126.01 164.98 131.899 160.768 132.091 158.465C132.134 157.964 131.218 156.471 131.026 155.832C129.156 149.633 131.158 145.595 136.053 141.789C144.884 134.923 157.635 137.404 161.242 148.418L161.237 148.408ZM167.138 170.353C167.048 169.154 167.138 167.784 167.138 166.559C167.138 165.334 168.736 162.162 169.095 160.697C170.459 155.175 168.16 149.294 161.711 150.322C161.642 151.637 162.248 152.781 161.701 154.094C163.029 154.272 163.427 155.45 163.564 156.623C164.156 161.673 161.358 167.77 167.256 170.944C167.633 170.78 167.14 170.415 167.136 170.353H167.138Z" fill="#DD5219"/>
<path id="Vector_107" d="M166.16 192.5C164.25 192.436 162.593 191.33 160.605 191.137C150.48 190.154 143.024 200.539 146.52 210.01C152.155 225.276 177.382 219.295 172.274 200.069C172.021 199.112 170.329 196.128 172.648 196.84C173.637 197.144 174.807 202.215 174.908 203.352C175.633 211.344 170.234 218.728 162.404 220.283C162.735 221.802 163.029 223.331 163.419 224.839C163.685 225.865 165.138 229.585 164.667 230.257C164.39 230.653 163.561 230.532 163.211 230.264C162.482 229.701 160.709 221.945 160.747 220.518C155.878 221.318 150.364 218.675 147.277 214.936C137.734 203.364 148.605 186.047 163.164 189.751C164.541 190.102 167.252 190.629 166.156 192.498L166.16 192.5Z" fill="#DD5219"/>
<path id="Vector_108" d="M177.711 182.604C177.917 182.547 178.113 182.53 178.319 182.604C179.067 182.986 179.07 183.375 178.693 184.081C177.77 185.804 174.471 188.988 173.055 190.759C167.801 197.333 163.297 204.083 159.107 211.396C158.243 212.324 157.45 211.234 156.873 210.539C156.191 209.717 151.594 203.523 151.531 203.067C151.391 202.079 152.26 201.374 153.088 202.001L158.272 209.131C162.444 201.813 167.226 194.878 172.584 188.387C173.264 187.564 177.212 182.744 177.713 182.604H177.711Z" fill="#DD5219"/>
</g>
</g>
</g>
<g id="Terceiro trimestre: Prepara&#195;&#167;&#195;&#163;o para o parto.">
<text fill="#242628" xml:space="preserve" style="white-space: pre" font-family="'Montserrat', sans-serif" font-size="18" letter-spacing="0em"><tspan x="24.2861" y="367.124">Prepara&#xe7;&#xe3;o para o parto.</tspan></text>
<text fill="#242628" xml:space="preserve" style="white-space: pre" font-family="'Montserrat', sans-serif" font-size="24" font-weight="bold" letter-spacing="0em"><tspan x="18.5352" y="330.124">Terceiro trimestre:&#10;</tspan></text>
</g>
</g>
</svg>
