<svg width="1140" height="225" viewBox="0 0 1140 225" fill="none" xmlns="http://www.w3.org/2000/svg">
<g id="Frame 822">
<g id="Group 1127">
<path id="Rectangle 186" d="M1083.19 18.2354C1092.74 18.2355 1100.48 25.9766 1100.48 35.5254V194.184C1100.48 209.968 1087.69 222.764 1071.9 222.765H107.243C97.6942 222.765 89.953 215.023 89.9529 205.475V35.5254C89.953 25.9766 97.6942 18.2354 107.243 18.2354H1083.19Z" stroke="#7DCFFC" stroke-width="3.52853"/>
<rect id="Rectangle 187" x="74.5419" y="5.82432" width="1009.35" height="203.351" rx="24.3469" stroke="#027EC7" stroke-width="6.35136"/>
<g id="Group 1118">
<text id="SAIBA MAIS" fill="#027EC7" xml:space="preserve" style="white-space: pre" font-family="'montserrat', sans-serif" font-size="33.8739" font-weight="bold" letter-spacing="0em"><tspan x="158.089" y="89.6604">SAIBA MAIS</tspan></text>
<g id="Clique aqui e veja como fazer recomenda&#195;&#167;&#195;&#181;es para uma alimenta&#195;&#167;&#195;&#163;o adequada e saud&#195;&#161;vel na gesta&#195;&#167;&#195;&#163;o, acessando o Protocolo de Uso do Guia Alimentar.">
<text fill="#2A2828" xml:space="preserve" style="white-space: pre" font-family="'montserrat', sans-serif" font-size="19" font-weight="500" letter-spacing="0em"><tspan x="270.273" y="147.282"> e veja como fazer recomenda&#xe7;&#xf5;es para uma alimenta&#xe7;&#xe3;o adequada e saud&#xe1;vel </tspan><tspan x="160.912" y="170.282">na gesta&#xe7;&#xe3;o, acessando o Protocolo de Uso do Guia Alimentar.&#13;</tspan></text>
<text fill="#2A2828" xml:space="preserve" style="white-space: pre" font-family="'montserrat', sans-serif" font-size="19" font-weight="500" letter-spacing="0em" text-decoration="underline"><tspan x="160.912" y="147.282"><a href="http://189.28.128.100/dab/docs/portaldab/publicacoes/protocolo_guia_alimentar_fasciculo3.pdf" target="_blank">Clique aqui</a></tspan></text>
</g>
</g>
<g id="Group 1120">
<g id="Group 1119">
<rect id="Rectangle 188" x="59.9957" y="61.2227" width="38.1082" height="126.322" rx="19.0541" fill="white"/>
<path id="icon" fill-rule="evenodd" clip-rule="evenodd" d="M77.4067 79.986L48.2963 90.9024C44.509 92.3226 42 95.9424 42 99.9873L42 127.226C42.0001 144.491 66.2723 161.756 76.4282 168.224C79.1451 169.955 82.5305 170.035 85.3119 168.411C95.5334 162.44 119.628 146.339 119.628 127.226V99.9873C119.628 95.9424 117.119 92.3226 113.331 90.9024L84.221 79.986C82.0243 79.1622 79.6035 79.1622 77.4067 79.986ZM86.0117 103.221L66.56 121.753C66.0378 122.25 66.2217 123.123 66.9003 123.368L78.2031 127.442C78.7073 127.624 78.9687 128.18 78.7869 128.684L73.9287 142.162C73.5815 143.125 74.7695 143.899 75.5109 143.193L94.9625 124.662C95.4848 124.164 95.3009 123.291 94.6223 123.046L83.3194 118.972C82.8153 118.79 82.5539 118.234 82.7356 117.73L87.5939 104.253C87.9411 103.29 86.7531 102.515 86.0117 103.221Z" fill="#027EC7"/>
</g>
</g>
</g>
</g>
</svg>
