<svg width="1055" height="391" viewBox="0 0 1055 391" fill="none" xmlns="http://www.w3.org/2000/svg">
<g id="Group 1244">
<text id="Restri&#195;&#167;&#195;&#163;o do crescimento do beb&#195;&#170; durante a gesta&#195;&#167;&#195;&#163;o." fill="#242628" xml:space="preserve" style="white-space: pre" font-family="'Montserrat', sans-serif" font-size="18" letter-spacing="0em"><tspan x="165" y="150.953">Restri&#xe7;&#xe3;o do crescimento do </tspan><tspan x="165" y="175.953">beb&#xea; durante a gesta&#xe7;&#xe3;o.</tspan></text>
<text id="Baixo peso ao nascer." fill="#242628" xml:space="preserve" style="white-space: pre" font-family="'Montserrat', sans-serif" font-size="18" letter-spacing="0em"><tspan x="99.0312" y="290.953">Baixo peso ao nascer.&#13;</tspan></text>
<text id="Maior risco de aborto espont&#195;&#162;neo e parto prematuro." fill="#242628" xml:space="preserve" style="white-space: pre" font-family="'Montserrat', sans-serif" font-size="18" letter-spacing="0em"><tspan x="696" y="153.953">Maior risco de aborto espont&#xe2;neo </tspan><tspan x="696" y="178.953">e parto prematuro.</tspan></text>
<text id="Complica&#195;&#167;&#195;&#181;es obst&#195;&#169;tricas, como pr&#195;&#169;-ecl&#195;&#162;mpsia e infec&#195;&#167;&#195;&#181;es." fill="#242628" xml:space="preserve" style="white-space: pre" font-family="'Montserrat', sans-serif" font-size="18" letter-spacing="0em"><tspan x="592.791" y="290.953">Complica&#xe7;&#xf5;es obst&#xe9;tricas, como </tspan><tspan x="644.77" y="315.953">pr&#xe9;-ecl&#xe2;mpsia e infec&#xe7;&#xf5;es.</tspan></text>
<rect id="Rectangle 203" x="1" y="22" width="1053" height="368" rx="11" stroke="#075585" stroke-width="2"/>
<g id="Group 1140">
<path id="Rectangle 203_2" d="M28 12C28 5.37258 33.3726 0 40 0H201.87C208.497 0 213.87 5.37258 213.87 12V17C213.87 23.6274 208.497 29 201.87 29H32C29.7909 29 28 27.2091 28 25V12Z" fill="#075585"/>
<text id="Em gestantes" fill="white" xml:space="preserve" style="white-space: pre" font-family="'Montserrat', sans-serif" font-size="18" font-weight="600" letter-spacing="0em"><tspan x="41.424" y="21.453">Em gestantes</tspan></text>
</g>
<g id="Group">
<path id="Vector" d="M63.0395 140.194C71.6429 139.82 74.5518 150.852 71.9675 157.54L62.7108 179.328C65.8827 183.482 69.0709 187.743 72.4852 191.695C73.5986 192.981 77.1115 197.382 78.4345 197.649C81.2776 198.216 80.9243 197.164 82.3048 195.792C82.7362 195.364 83.7674 194.986 83.9647 194.575C84.3426 193.791 81.7008 193.425 81.4995 192.533C79.1576 189.571 82.4814 186.781 85.6081 187.394C85.5465 186.74 84.6508 186.769 84.1454 186.194C81.179 182.792 82.3376 175.331 85.8135 172.623C92.4777 167.438 101.96 172.586 102.848 180.623C103.074 182.665 102.379 185.072 102.523 186.687C102.614 187.722 103.612 189.107 103.891 190.249C106.085 199.272 100.457 207.92 90.9452 208.331C92.034 209.921 95.0867 211.692 92.8023 213.676C89.9427 216.166 81.6762 214.588 78.2373 213.442C70.5624 210.887 66.2483 203.573 60.3648 198.483C58.6392 200.689 57.3614 203.413 56.4575 206.063C55.6892 208.319 55.2907 212.6 54.6045 214.062C54.4484 214.391 54.0499 214.629 53.7869 214.892C51.5272 215.361 53.5856 207.863 53.8896 206.782C54.8716 203.306 56.5561 200.106 58.4173 197.032C54.4032 192.385 47.4227 188.893 47.4186 181.867C47.4186 174.714 50.8246 155.137 53.5158 148.53C56.6465 140.839 65.2664 136.665 65.4636 128.016C65.4882 126.902 64.0297 121.759 66.7332 123.147C68.6683 124.137 67.1276 131.907 66.3921 133.908C65.5745 136.13 63.9188 138.012 63.0313 140.19L63.0395 140.194ZM82.9416 212.44C85.5588 212.748 88.6772 212.214 91.356 212.44L89.2689 210.217C88.0445 208.972 84.0961 207.538 83.147 206.494C82.6828 205.981 82.6047 205.554 82.7731 204.896C83.9277 203.158 85.1726 205.106 86.3107 205.381C96.7383 207.912 104.84 199.962 101.225 189.645C100.909 188.745 99.5691 186.773 99.5691 186.375C99.5691 185.483 101.065 184.476 100.752 181.494C99.6226 170.766 85.263 169.862 84.774 180.208C84.5193 185.594 86.701 184.238 89.1333 186.97C89.614 187.509 89.6058 188.363 89.992 188.667C91.3191 189.698 93.7637 187.159 95.2962 186.999C96.9068 186.831 97.9339 187.866 96.4384 188.996C96.0974 189.251 92.5229 191.383 92.2887 191.432C91.2328 191.654 88.4266 190.101 87.0173 189.9C85.7642 189.723 84.4166 189.937 83.1512 189.867C81.9925 191.067 86.134 192.143 86.8571 192.521C88.7265 193.495 90.522 194.637 92.3914 195.611C96.6315 190.989 100.826 195.952 93.4103 196.437C94.0513 197.571 95.9741 198.614 95.2716 200.114C94.1951 202.41 92.2188 198.433 90.9205 197.484C87.7322 195.155 85.871 195.397 83.1552 198.277C85.0863 199.432 87.1529 200.019 88.8991 201.556C89.4414 202.037 91.7176 204.095 90.5467 204.851C89.2155 205.714 86.2983 202.263 84.4947 201.445C81.9966 200.311 77.9003 200.414 76.5568 199.53C75.7351 198.988 73.7014 196.683 72.8961 195.8C68.467 190.956 64.5351 185.121 60.221 180.117L60.3402 178.77C63.1546 173.252 65.1554 167.393 67.4768 161.67C69.3216 157.117 71.1499 155.983 70.3898 150.285C69.5434 143.937 63.4052 138.711 58.3105 144.705C53.7253 150.1 50.0563 173.174 49.8837 180.606C49.7112 188.039 56.589 191.568 61.6097 196.416C67.6001 202.201 74.2232 211.4 82.9416 212.435V212.44Z" fill="#075585"/>
<path id="Vector_2" d="M77.4032 138.558C77.4155 141.254 79.4862 143.049 81.2899 144.725C84.8562 148.037 94.9264 153.571 96.3028 157.622C97.3546 160.724 96.1631 162.331 95.4893 165.207C113.485 173.21 118.44 194.682 105.325 209.781C104.762 210.43 101.373 213.881 100.925 214.013C99.717 214.37 98.8501 213.849 99.4705 212.55C100.227 210.968 104.154 207.702 105.65 205.59C114.027 193.766 111.287 178.309 99.4541 170.071C98.3817 169.324 93.3898 166.78 93.1967 166.472C92.1408 164.767 95.3824 161.702 94.4539 158.649C93.4884 155.469 82.9621 149.393 79.8601 146.566C77.4032 144.327 74.1738 141.126 75.6652 137.429C77.1567 133.731 79.515 137.309 81.5858 137.86C83.3648 138.336 85.9943 138.053 87.42 136.87C88.1842 136.233 88.102 135.288 88.669 134.82C89.7906 133.899 90.1399 135.132 90.5138 132.161L95.288 131.602C95.9289 130.69 94.7045 127.095 94.9182 125.485C95.1318 123.874 96.1549 122.81 96.5863 121.409C101.159 106.565 82.0665 95.5947 70.6445 104.498C65.176 108.759 65.2746 114.95 64.913 121.339C58.1544 122.444 53.943 127.56 53.2404 134.294C52.9282 137.285 53.8609 140.97 52.3078 143.624C51.671 144.713 47.7185 148.44 47.0365 146.139C46.6133 144.713 50.0029 143.628 50.5452 141.862C51.2765 139.487 50.8698 135.576 51.1861 133.065C52.0366 126.393 56.0507 121.339 62.5711 119.614C63.1751 114.244 63.1792 109.482 66.7414 105.11C77.6497 91.7202 102.195 102.029 99.3842 119.692C99.0268 121.947 97.2889 124.248 97.1204 126.085C96.9437 128.065 98.4352 131.405 96.8862 133.201C95.7974 134.462 94.0061 133.718 92.6831 134.335C91.3601 134.951 89.4866 138.221 88.0568 139.146C86.0231 140.457 83.3031 140.798 81.0105 140.074C79.6424 139.643 78.8289 138.562 77.4073 138.554L77.4032 138.558Z" fill="#075585"/>
<path id="Vector_3" d="M112.7 123.985L114.533 123.349C114.652 123.382 115.161 124.725 115.161 124.807V151.078C115.161 151.246 114.105 151.797 115.363 151.69C115.437 151.624 115.511 151.562 115.589 151.501C116.324 150.942 118.65 146.587 119.899 148.395C120.125 148.723 120.149 149.036 120.104 149.418C120.03 150.075 114.824 156.48 114.134 156.476C113.218 156.476 108.021 150.186 107.881 149.36C107.684 148.218 108.452 147.704 109.533 148.078C110.819 148.522 111.328 150.774 112.7 151.283V123.985Z" fill="#075585"/>
<path id="Vector_4" d="M94.5321 114.831C95.7071 114.584 96.1591 115.521 95.8222 116.536C95.0539 118.87 81.9926 119.683 79.4946 120.706C77.8059 120.842 76.7048 118.081 75.4681 117.703C73.8329 117.206 71.5773 117.9 71.0185 119.65C69.4983 124.42 75.1189 125.267 75.3243 126.495L74.2355 127.826C64.4735 125.382 68.0233 110.85 78.1962 116.618C78.6811 116.893 79.0262 117.625 79.4617 117.826C80.1971 118.171 89.4949 116.639 91.0356 116.273C92.297 115.973 93.7843 114.987 94.5321 114.827V114.831Z" fill="#075585"/>
<path id="Vector_5" d="M91.2986 124.955C89.3429 125.958 87.2187 124.869 88.5458 122.613L90.9699 122.728L91.2945 124.955H91.2986Z" fill="#075585"/>
<path id="Vector_6" d="M92.9995 181.247C93.3857 183.392 91.5574 183.934 89.7702 183.659L89.3881 182.332L89.8852 181.625L92.9995 181.247Z" fill="#075585"/>
</g>
<g id="Group_2">
<path id="Vector_7" d="M351.374 271.64C351.309 270.603 351.618 269.39 351.148 268.413C350.876 267.851 345.557 264.454 344.234 262.896C332.48 249.067 345.414 226.721 363.833 230.404C368.553 231.349 372.618 235.013 375.214 235.636C376.246 235.885 377.099 235.359 378.108 235.465C380.169 235.677 382.672 237.438 383.303 239.48C384.294 242.67 382.284 245.426 384.534 248.616C396.343 243.9 411.411 238.438 421.142 249.989C421.99 250.999 423.953 254.829 424.198 254.986C424.931 255.451 427.848 254.23 430.365 255.502C434.583 257.632 440.925 269.538 431.974 269.353L431.955 271.635H447.383C447.636 271.635 448.775 272.442 448.922 272.861C449.453 278.093 445.184 282.688 440.718 284.772C439.28 285.44 435.435 286.832 434.029 286.832H413.536V292.815C418.385 292.954 423.34 295.304 426.17 299.296C428.743 302.919 436.071 324.924 436.514 329.483C436.998 334.438 433.942 338.135 428.978 338.43C404.216 337.015 377.486 340.246 352.959 338.43C348.76 338.121 345.335 336.36 344.897 331.76C344.46 327.16 349.47 312.391 351.351 307.312C354.374 299.13 358.537 293.525 367.921 292.801L367.944 286.837H346.99C344.556 286.837 339.108 284.454 337.131 282.882C335.061 281.241 330.959 275.608 332.245 273.023C332.401 272.704 333.899 271.644 334.098 271.644H351.364L351.374 271.64ZM370.254 271.64C371.143 269.303 374.559 268.432 376.661 266.768C381.155 263.205 383.829 258.554 383.026 252.649C382.672 250.035 380.422 246.961 380.348 245.149C380.256 242.877 382.252 242.388 380.381 239.632C378.302 236.571 376.389 238.862 374.388 238.3C373.416 238.028 370.281 235.373 368.405 234.576C358.117 230.21 349.023 232.718 344.243 243.094C340.297 251.653 342.565 257.844 349.313 263.799C352.512 266.625 355.2 265.91 353.678 271.64H370.254ZM374.398 271.64H397.883C399.901 267.118 398.864 260.738 392.817 261.513L392.886 259.277C399.943 257.065 403.34 266.03 400.648 271.64H405.709C403.027 267.763 403.437 263.421 405.783 259.517C406.438 258.429 410.443 253.93 411.231 256.691C411.522 257.701 406.917 261.527 406.627 264.97C405.88 273.765 414.407 271.423 420.206 271.635L424.304 268.445C425.894 269.289 425.253 270.202 425.055 271.64C429.13 272.004 431.199 271.575 428.475 267.528C427.816 266.551 422.889 261.674 422.05 261.517C421.077 261.338 418.049 261.983 417.685 260.812C417.085 258.867 420.704 258.503 421.828 258.747C422.068 254.05 417.703 249.215 413.633 247.371C404.428 243.204 394.066 247.735 385.52 251.446C386.345 256.59 384.976 261.554 381.768 265.647L390.978 265.196C391.093 268.727 385.741 267.616 383.386 267.961C380.146 268.436 376.633 268.966 374.402 271.64H374.398ZM433.753 266.533C433.49 261.978 429.964 255.774 424.608 257.844C424.013 260.526 426.793 261.531 428.507 263.347C430.324 265.27 430.439 268.026 433.753 266.533ZM446.231 274.405H334.794C336.826 280.799 342.418 283.647 348.815 284.094C376.094 286.003 405.59 282.629 433.098 284.067C438.966 283.49 444.599 280.342 446.231 274.405ZM411.236 286.837H370.715V292.825H411.236V286.837ZM366.456 295.705C362.846 296.397 359.666 297.996 357.435 300.96C354.822 304.436 348.419 323.601 347.806 328.169C347.225 332.488 348.124 335.452 352.964 335.669H428.521C432.2 335.535 434.076 333.157 433.693 329.561C433.214 325.049 428.24 310.179 426.323 305.597C423.907 299.826 420.888 296.143 414.246 295.572C399.04 294.267 381.865 296.484 366.456 295.705Z" fill="#075585"/>
<path id="Vector_8" d="M404.165 327.658C390.226 341.592 361.736 324.952 376.048 306.676C390.715 287.948 420.418 311.414 404.165 327.658ZM388.673 302.951C372.194 303.928 370.208 327.561 387.571 329.612C409.531 332.207 412.356 305.763 391.895 302.951C392.84 308.893 387.728 308.911 388.668 302.951H388.673Z" fill="#075585"/>
<path id="Vector_9" d="M372.065 245.421C374.444 249.367 370.641 254.174 366.179 253.151L365.843 250.897C366.409 250.123 369.572 251.012 370.18 248.74C370.581 247.251 368.931 245.315 372.07 245.421H372.065Z" fill="#075585"/>
<path id="Vector_10" d="M355.882 244.112C357.91 245.26 358.435 253.736 354.374 253.686C352.609 252.395 354.656 251.22 354.951 250.118C355.679 247.435 353.213 246.55 353.669 244.015C354.338 244.084 355.324 243.799 355.877 244.112H355.882Z" fill="#075585"/>
<path id="Vector_11" d="M363.566 257.927C368.272 259.706 362.104 266.39 359.205 264.975C355.61 263.218 361.482 262.057 361.998 261.315C362.717 260.268 362.091 258.554 363.566 257.927Z" fill="#075585"/>
<path id="Vector_12" d="M349.595 258.218C349.272 257.697 349.682 255.793 349.512 254.853C349.235 253.355 347.198 252.29 348.161 250.474C351.53 249.658 353.328 256.471 351.604 258.31C351.268 259.001 349.737 258.443 349.595 258.218Z" fill="#075585"/>
<path id="Vector_13" d="M375.128 259.858C374.881 260.191 375.057 261.749 374.675 262.575C373.347 265.456 371.797 262.065 372.702 259.453C373.538 257.042 377.842 254.312 377.407 258.516C377.025 259.379 375.417 259.46 375.123 259.855L375.128 259.858Z" fill="#075585"/>
<path id="Vector_14" d="M395.444 311.322C397.007 310.87 397.666 311.783 397.431 313.295C397.182 314.894 394.942 315.092 394.739 316.134C394.472 317.489 396.587 318.674 394.407 321.813C390.282 327.764 381.183 319.951 387.055 314.922C389.609 312.737 390.955 314.36 392.328 313.788C393.126 313.456 394.591 311.571 395.444 311.322ZM388.784 316.886C387.309 318.384 388.327 321.647 391.102 320.831C394.951 319.702 391.102 314.521 388.784 316.886Z" fill="#075585"/>
</g>
<g id="Group_3">
<path id="Vector_15" d="M970.369 274.318C969.643 275.191 970.035 277.862 969.672 279.123C968.664 282.602 963.039 283.859 959.914 283.545C957.773 283.328 954.469 281.256 957.63 285.421C961.285 290.238 971.94 292.633 973.718 297.454C975.497 302.276 972.755 305.968 969.863 309.467C980.379 316.284 985.034 324.735 982.778 337.462C982.125 341.146 978.417 350.768 975.59 353.093C974.93 353.636 973.902 354.15 973.555 353.016C973.208 351.882 977.312 346.326 978.079 344.58C982.684 334.13 982.378 323.088 973.53 315.162C972.299 314.06 966.906 310.663 966.661 309.786C966.147 307.946 968.011 308.036 969.048 307.02C971.462 304.65 973.208 299.274 970.365 296.618C965.817 292.368 954.587 290.675 953.979 282.521C953.584 277.157 957.398 280.873 959.874 281.142C962.35 281.411 966.767 281.114 967.64 278.311C968.158 276.647 967.497 273.751 968.844 272.18C969.419 271.507 971.458 271.797 972.119 270.549C972.91 269.052 969.39 267.387 969.056 265.425C968.721 263.463 970.675 259.107 970.687 256.472C970.724 249.158 963.765 243.508 956.978 242.476C941.338 240.094 930.263 255.839 938.879 269.541C939.951 271.25 941.399 271.899 941.705 274.053C942.329 278.454 941.289 282.798 939.707 286.849C949.093 284.581 954.179 291.022 952.217 299.975C950.308 308.684 943.892 317.418 941.42 326.114L961.648 352.604L960.343 353.648C952.678 345.241 946.311 335.631 938.985 326.885L939.082 324.735C941.95 318.352 945.572 311.686 948.052 305.18C950.7 298.246 952.923 288.072 941.93 288.872C936.876 289.239 934.318 292.294 932.764 296.818C930.855 302.386 928.049 317.014 927.53 322.965C927.237 326.339 927.167 329.292 929.301 332.09C933.302 337.332 941.457 344.05 946.437 348.778C947.02 349.332 949.961 352.074 949.864 352.608L948.811 353.616L947.469 353.044L935.016 341.056C934.436 341.048 933.453 346.216 933.302 347.077C933.021 348.688 933.07 351.833 932.711 353.008C932.527 353.616 932.009 353.848 931.414 353.628L930.394 352.584C930.822 348.039 931.434 343.508 933.045 339.208C928.734 334.582 924.916 332.416 925.001 325.355C925.071 319.816 929.635 297.177 932.193 292.588C933.621 290.026 936.158 288.599 937.479 286.057C939.237 282.684 940.4 277.14 938.972 273.518L935.831 269.329C930.998 274.212 929.215 277.952 929.921 285.013C930.108 286.894 931.067 288.472 931.377 290.1C931.646 291.515 930.671 292.364 929.558 291.687C928.934 291.307 927.624 285.629 927.522 284.56C926.678 275.59 929.199 275.097 933.351 268.897C935.468 265.735 933.29 261.644 933.588 257.724C934.143 250.533 939.115 244.349 945.658 241.681C961.179 235.354 978.213 247.734 971.23 264.654C971.311 266.678 977.14 268.693 973.53 272.405C972.743 273.212 970.671 273.959 970.361 274.33L970.369 274.318Z" fill="#075585"/>
<path id="Vector_16" d="M1005.51 336.968C1007.77 336.569 1008.79 333.362 1007.84 331.372L986.792 297.005C985.625 296.234 984.075 296.561 983.088 297.434L975.346 309.251C972.148 310.487 973.139 308.3 974.163 306.44C975.187 304.58 980.669 296.181 982.06 295.182C987.318 291.409 990.1 297.511 992.433 301.142C998.735 310.956 1004.38 321.268 1010.41 331.249C1011.79 333.991 1008.82 339.412 1005.91 339.412H985.947C985.14 339.412 985.14 336.968 985.947 336.968H1005.51H1005.51Z" fill="#075585"/>
<path id="Vector_17" d="M954.665 317.095C955.896 316.866 957.243 316.915 958.466 317.181C959.788 317.466 961.273 318.89 961.97 318.955C962.713 319.028 964.646 317.344 966.078 317.099C972.323 316.022 976.643 321.137 975.378 327.211C974.607 330.915 966.31 340.346 962.619 340.974C961.016 341.247 957.679 338.306 956.398 337.176C952.931 334.113 948.069 328.708 948.697 323.756C949.052 320.958 951.834 317.617 954.665 317.095ZM954.673 319.546C954.171 319.677 952.898 320.636 952.519 321.056C948.836 325.106 953.057 330.45 955.99 333.513C956.79 334.35 960.971 338.102 961.726 338.408C962.603 338.767 966.143 335.924 967.008 335.141C970.483 331.992 976.329 324.49 971.099 320.448C967.795 317.894 964.654 320.273 961.966 322.275C960.049 320.273 957.573 318.796 954.673 319.551V319.546Z" fill="#075585"/>
<path id="Vector_18" d="M967.273 253.894L968.007 253.837C969.292 254.787 968.399 256.089 967.567 257.051C965.221 259.78 956.602 264.483 953.037 263.517C951.707 263.158 950.647 261.183 948.652 261.742C945.87 262.517 945.621 266.584 947.812 268.338C948.832 269.158 951.711 269.064 950.304 271.165C942.55 272.213 941.693 258.903 950.08 259.527C953.062 259.752 952.76 261.918 956.08 261.045C960.343 259.923 964.287 257.027 967.273 253.89V253.894Z" fill="#075585"/>
<path id="Vector_19" d="M983.304 309.052C983.39 308.746 984.312 308.02 984.728 308.02L985.747 308.644V322.908C985.747 323.716 983.304 323.716 983.304 322.908V309.052Z" fill="#075585"/>
</g>
<g id="Group_4">
<path id="Vector_20" d="M655.923 142.264C662.747 144.361 663.289 150.659 663.192 156.782C663.179 157.679 662.731 158.572 662.755 159.637C662.784 160.947 664.317 163.423 662.93 163.871C660.985 164.503 655.837 160.861 654.642 159.229C652.451 156.247 653.373 153.796 652.598 150.471C651.644 151.157 651.04 153.722 651.003 154.812C650.795 160.824 655.156 163.602 656.873 168.407C658.541 173.082 659.985 187.656 659.48 192.596C659.076 196.524 657.138 199.151 654.723 202.076C654.499 203.206 657.55 211.132 657.823 213.126C658.097 215.121 656.473 215.464 655.682 214.016C654.401 211.674 653.883 206.559 653.006 203.851L641.397 214.868C640.214 214.884 640.063 213.306 640.765 212.588C644.778 207.542 656.171 199.829 657.048 193.42C657.505 190.071 656.979 184.724 656.673 181.232C656.326 177.287 655.38 167.799 652.41 165.119C650.163 163.088 645.761 163.941 643.673 165.784C635.751 172.796 647.528 184.854 647.206 192.947L631.138 214.787C628.54 214.729 630.334 212.645 631.077 211.462C635.144 204.997 640.601 198.988 644.766 192.535C645.072 191.67 644.778 190.891 644.579 190.063C642.853 182.945 636.216 174.701 639.806 167.208C641.85 162.941 645.994 161.456 650.567 161.868C648.96 159.29 648.621 156.137 648.98 153.155C649.457 149.219 652.88 146.947 653.373 142.876C655.739 123.284 628.617 125.226 628.935 140.066C629.009 143.451 631.203 145.964 627.352 149.036C627.352 149.337 629.837 151.271 630.204 151.875C630.967 153.135 630.502 154.289 632.08 155.297C634.862 157.071 636.412 155.44 639.153 155.35C639.602 159.343 638.9 161.877 636.114 164.744C632.949 167.999 622.751 172.286 623.742 177.459C623.902 178.287 625.668 181.513 626.488 181.668C627.532 181.864 628.952 180.82 629.351 182.815C629.233 183.533 625.248 184.813 624.199 185.429C613.736 191.564 612.08 203.948 618.374 213.848C616.69 217.197 614.483 211.454 613.879 209.765C609.878 198.609 613.855 188.64 624.073 183.055C624.358 182.643 622.535 180.518 622.241 179.8C618.419 170.328 631.073 167.971 635.413 162.007C635.923 161.305 638.072 158.409 636.51 158.201C634.267 157.908 632.3 158.45 630.2 156.761C628.98 155.778 629.107 154.518 628.331 153.331C627.675 152.323 625.174 150.606 624.942 149.762C624.509 148.191 627.055 146.792 627.32 144.928C627.585 143.064 626.651 140.057 626.92 137.622C627.414 133.152 631.44 129.06 635.49 127.445C646.753 122.954 656.326 130.427 655.918 142.256L655.923 142.264ZM660.748 161.065C661.054 155.015 662.416 147.082 655.462 144.357C655.511 145.462 653.838 147.477 653.834 148.228C653.834 148.774 654.772 149.815 654.952 150.765C655.258 152.405 654.866 153.914 655.323 155.689C655.91 157.957 658.631 160.176 660.744 161.061L660.748 161.065Z" fill="#075585"/>
<path id="Vector_21" d="M561.32 166.975C561.605 168.876 563.78 169.896 563.78 170.639L563.111 171.646C560.92 171.556 559.558 169.855 559.268 167.804C560.463 150.749 557.714 131.602 559.26 114.796C559.741 109.554 564.73 110.525 568.654 110.537C567.896 104.451 575.96 104.524 575.169 110.537H594.732C593.977 104.451 602.038 104.524 601.246 110.537H620.81C619.969 104.471 628.291 104.52 627.324 110.537C631.313 110.566 636.506 109.529 637.106 114.816C637.257 116.129 637.289 122.729 636.898 123.57C636.808 123.761 636.159 124.39 636.09 124.39H561.924L561.312 125.002V166.975H561.32ZM573.137 115.628V109.109C573.137 108.302 570.694 108.302 570.694 109.109V115.224C570.694 115.314 571.13 116.219 571.359 116.268C571.926 116.35 572.962 116.199 573.137 115.632V115.628ZM596.776 109.109V115.628C596.776 116.435 599.219 116.435 599.219 115.628V109.109C599.219 108.444 597.069 108.122 596.776 109.109ZM622.853 109.109V115.628C622.853 116.435 625.297 116.435 625.297 115.628V109.109C625.297 108.444 623.147 108.122 622.853 109.109ZM568.654 112.98H562.744C562.67 112.98 561.724 113.927 561.724 114V122.354H634.466L635.078 121.742V115.224C635.078 114.828 634.165 113.156 633.573 113.058L627.332 112.98C628.666 120.678 619.5 120.723 620.818 112.98H601.254C602.588 120.678 593.423 120.723 594.74 112.98H575.177C576.511 120.678 567.349 120.727 568.658 112.98H568.654Z" fill="#075585"/>
<path id="Vector_22" d="M579.953 149.749C582.866 149.158 584.657 150.328 586.353 152.535C593.263 161.501 598.424 174.481 605.15 183.867C607.447 188.925 604.799 192.816 599.439 193.277C587.859 194.269 574.887 192.506 563.156 193.265C556.009 191.544 555.854 187.819 558.807 181.986C562.825 174.048 570.963 159.894 576.143 152.866C577.102 151.564 578.256 150.1 579.957 149.753L579.953 149.749ZM580.361 152.18C579.007 152.482 578.199 154.277 577.453 155.395C571.094 164.895 565.86 175.656 559.733 185.352C558.35 188.803 560.733 190.548 563.951 190.83C575.258 191.821 587.981 190.038 599.443 190.83C605.24 189.843 603.702 186.596 601.732 182.794C596.584 172.849 589.364 163.202 583.91 153.347C583.066 152.193 581.736 151.87 580.361 152.176V152.18Z" fill="#075585"/>
<path id="Vector_23" d="M643.245 150.051C641.862 148.024 647.96 147.228 647.312 143.361C646.745 139.98 643.995 142.346 642.935 142.631C639.867 143.451 633.691 140.579 631.411 138.454C630.857 137.94 629.645 137.165 630.587 136.402C632.011 135.472 635.576 138.695 637.379 139.417C638.309 139.792 640.267 140.453 641.185 140.526C642.584 140.637 643.498 139.376 645.476 139.437C649.253 139.547 650.693 143.884 648.874 146.951C648.262 147.983 644.114 151.332 643.245 150.055V150.051Z" fill="#075585"/>
<path id="Vector_24" d="M600.239 169.215H621.022C621.829 169.215 621.829 171.658 621.022 171.658H599.831L599.207 170.638L600.239 169.215Z" fill="#075585"/>
<path id="Vector_25" d="M587.769 132.576C589.001 135.538 582.376 135.016 582.128 133.511C581.822 131.642 586.635 131.92 587.769 132.576Z" fill="#075585"/>
<path id="Vector_26" d="M569.511 132.576C570.641 131.92 575.458 131.642 575.152 133.511C574.908 135.02 568.283 135.538 569.511 132.576Z" fill="#075585"/>
<path id="Vector_27" d="M595.593 132.576C597.42 132.058 600.581 131.279 601.165 133.563C601.059 134.959 594.328 135.554 595.593 132.576Z" fill="#075585"/>
<path id="Vector_28" d="M583.616 142.004C584.873 141.714 588.409 141.702 587.802 143.733C587.471 144.843 581.687 144.761 582.103 142.942C582.482 142.464 583.025 142.138 583.616 142.004Z" fill="#075585"/>
<path id="Vector_29" d="M600.81 142.358C602.69 145.193 593.716 145.184 595.593 142.358C597.257 141.705 599.141 141.705 600.81 142.358Z" fill="#075585"/>
<path id="Vector_30" d="M574.728 142.358C576.082 145.14 569.776 144.74 569.474 143.733C568.793 141.452 573.517 141.616 574.728 142.358Z" fill="#075585"/>
<path id="Vector_31" d="M580.068 163.308C580.153 163.002 581.075 162.276 581.491 162.276L582.511 162.9V176.757C582.511 177.565 580.068 177.565 580.068 176.757V163.308Z" fill="#075585"/>
<path id="Vector_32" d="M581.14 181.505C583.376 181.101 583.8 185.661 581.091 185.543C579.403 185.409 579.798 181.745 581.14 181.505Z" fill="#075585"/>
</g>
</g>
</svg>
