<svg width="327" height="592" viewBox="0 0 327 592" fill="none" xmlns="http://www.w3.org/2000/svg">
<g id="Group" filter="url(#filter0_d_657_5575)">
<path id="Vector" d="M255.59 62.6741L236.197 0H107.393L88 62.6741H255.59Z" fill="#95B5C6"/>
<path id="Vector_2" d="M327 147.86V456.175C327 458.214 326.957 460.252 326.827 462.291C326.654 465.224 326.395 468.157 326.005 471.018C317.011 538.261 247.608 591.018 163.978 591.018C80.392 591.018 10.9889 538.261 1.99461 471.018C1.60543 468.157 1.34597 465.224 1.173 462.291C1.04328 460.252 1 458.214 1 456.175V147.86C1 101.577 29.5829 60.5523 72.8247 36.2306C77.1489 33.7984 81.646 31.545 86.2297 29.4705C109.364 18.9907 135.871 13.0176 163.978 13.0176C192.086 13.0176 218.593 18.9907 241.77 29.4705C246.354 31.545 250.851 33.7984 255.175 36.2306C263.78 41.0592 271.78 46.5673 279.131 52.6478C308.665 77.0769 327 110.805 327 147.86Z" fill="#F6921E"/>
<text id="Quando analisamos grupos populacionais em situa&#195;&#167;&#195;&#163;o de exclus&#195;&#163;o social, como ind&#195;&#173;genas e outros povos e comunidades tradicionais, os dados mostram uma alta preval&#195;&#170;ncia de baixa estatura entre crian&#195;&#167;as, que &#195;&#169; a forma mais comum de desnutri&#195;&#167;&#195;&#163;o no Brasil. Por exemplo, veja nos quadros ao lado (Brasil, 2023a):" fill="#F5F6F6" xml:space="preserve" style="white-space: pre" font-family="'Montserrat', sans-serif" font-size="18" font-weight="600" letter-spacing="0em"><tspan x="23" y="194.953">Quando analisamos grupos </tspan><tspan x="23" y="219.953">populacionais em situa&#xe7;&#xe3;o de </tspan><tspan x="23" y="244.953">exclus&#xe3;o social, como ind&#xed;genas </tspan><tspan x="23" y="269.953">e outros povos e comunidades </tspan><tspan x="23" y="294.953">tradicionais, os dados mostram </tspan><tspan x="23" y="319.953">uma alta preval&#xea;ncia de baixa </tspan><tspan x="23" y="344.953">estatura entre crian&#xe7;as, que &#xe9; a </tspan><tspan x="23" y="369.953">forma mais comum de </tspan><tspan x="23" y="394.953">desnutri&#xe7;&#xe3;o no Brasil. Por </tspan><tspan x="23" y="419.953">exemplo, veja nos quadros ao </tspan><tspan x="23" y="444.953">lado (Brasil, 2023a):</tspan></text>
<path id="Vector_3" d="M107 10.1455V111.638C107 147.058 135.98 176.038 171.4 176.038C206.82 176.038 235.801 147.058 235.801 111.638V10.1455H107Z" fill="#BBBDBF"/>
<path id="Vector_4" d="M107 0V101.493C107 136.912 135.98 165.893 171.4 165.893C206.82 165.893 235.801 136.912 235.801 101.493V0H107Z" fill="white"/>
<path id="Vector_5" d="M326 462C325.827 464.939 325.567 467.878 325.178 470.746C316.174 538.131 246.697 591 162.978 591C79.3031 591 9.82633 538.131 0.822478 470.746C0.432888 467.878 0.173151 464.939 0 462H326Z" fill="#BBBDBF"/>
<path id="Vector_6" d="M325 471.018C316.006 538.26 246.605 591.018 162.978 591.018C79.3947 591.018 9.99399 538.26 1 471.018H325Z" fill="white"/>
<g id="Group_2">
<path id="Vector_7" d="M199.731 105.492C199.731 121.73 186.576 134.856 170.367 134.856C154.158 134.856 141 121.73 141 105.492C141 89.283 154.154 76.125 170.367 76.125C186.573 76.1286 199.731 89.283 199.731 105.492Z" fill="#F6921E"/>
<path id="Vector_8" d="M186.906 107.28V103.709C186.906 103.136 186.44 102.674 185.871 102.674H182.168C181.867 101.41 181.369 100.228 180.707 99.1503L183.328 96.5287C183.733 96.124 183.733 95.4686 183.328 95.0639L180.803 92.5391C180.399 92.1344 179.743 92.1344 179.339 92.5391L176.717 95.1606C175.643 94.4981 174.457 94.0002 173.193 93.6994V89.9927C173.193 89.4197 172.731 88.9541 172.158 88.9541H168.587C168.014 88.9541 167.552 89.4197 167.552 89.9927V93.6994C166.288 94.0002 165.106 94.4981 164.028 95.1606L161.407 92.5391C161.002 92.1344 160.347 92.1344 159.942 92.5391L157.417 95.0639C157.012 95.4686 157.012 96.124 157.417 96.5287L160.039 99.1503C159.38 100.228 158.878 101.41 158.577 102.674H154.871C154.298 102.674 153.836 103.14 153.836 103.709V107.28C153.836 107.853 154.301 108.315 154.871 108.315H158.577C158.878 109.579 159.376 110.761 160.039 111.839L157.417 114.461C157.012 114.865 157.012 115.521 157.417 115.925L159.942 118.45C160.347 118.855 161.002 118.855 161.407 118.45L164.028 115.829C165.106 116.491 166.288 116.986 167.552 117.29V120.993C167.552 121.566 168.018 122.028 168.587 122.028H172.158C172.731 122.028 173.193 121.563 173.193 120.993V117.29C174.457 116.986 175.643 116.491 176.717 115.829L179.339 118.45C179.743 118.855 180.399 118.855 180.803 118.45L183.328 115.925C183.733 115.521 183.733 114.865 183.328 114.461L180.707 111.839C181.369 110.765 181.867 109.579 182.168 108.315H185.871C186.44 108.315 186.906 107.849 186.906 107.28ZM171.846 111.807C167.119 112.856 163 108.73 164.053 104.003C164.583 101.621 166.506 99.7018 168.888 99.1753C173.612 98.1296 177.727 102.252 176.678 106.976C176.148 109.361 174.228 111.28 171.846 111.807Z" fill="white"/>
</g>
</g>
<defs>
<filter id="filter0_d_657_5575" x="-8" y="0" width="343" height="607.018" filterUnits="userSpaceOnUse" color-interpolation-filters="sRGB">
<feFlood flood-opacity="0" result="BackgroundImageFix"/>
<feColorMatrix in="SourceAlpha" type="matrix" values="0 0 0 0 0 0 0 0 0 0 0 0 0 0 0 0 0 0 127 0" result="hardAlpha"/>
<feOffset dy="8"/>
<feGaussianBlur stdDeviation="4"/>
<feComposite in2="hardAlpha" operator="out"/>
<feColorMatrix type="matrix" values="0 0 0 0 0 0 0 0 0 0 0 0 0 0 0 0 0 0 0.25 0"/>
<feBlend mode="normal" in2="BackgroundImageFix" result="effect1_dropShadow_657_5575"/>
<feBlend mode="normal" in="SourceGraphic" in2="effect1_dropShadow_657_5575" result="shape"/>
</filter>
</defs>
</svg>
