<svg width="362" height="283" viewBox="0 0 362 283" fill="none" xmlns="http://www.w3.org/2000/svg">
<path d="M41.5749 144.664C45.7469 122.503 85.1423 112.367 104.318 110.069C117.871 117.748 118.651 121.828 125.405 137.876C130.809 150.715 129.207 161.86 127.73 165.828C119.991 169.338 115.284 182.467 113.898 188.593C78.548 200.38 57.8501 191.014 51.9199 184.857C46.7333 180.694 37.403 166.826 41.5749 144.664Z" fill="#38B8F8"/>
<path d="M187.305 211.651C184.915 212.531 180.124 214.667 179.529 214.588L177.881 208.499L184.008 205.152C184.917 205.905 186.767 207.452 186.896 207.621C187.025 207.789 187.177 210.245 187.305 211.651Z" fill="#F08A47"/>
<path d="M132.275 140.308L126.847 127.088C132.224 125.383 135.518 129.256 136.493 131.406C139.271 131.398 144.839 131.006 144.889 129.498C144.952 127.613 146.155 125.691 147.891 124.03C149.281 122.701 152.107 124.593 153.347 125.705L155.243 132.774L163.676 132.007C164.25 131.011 165.779 128.729 167.298 127.569C175.701 124.753 176.055 132.399 175.182 136.574L184.779 141.263L171.237 146.27L133.908 156.43L135.546 152.673C135.802 151.697 135.919 149.315 134.332 147.588C132.745 145.861 132.299 142.015 132.275 140.308Z" fill="#38B8F8"/>
<path d="M269.904 209.458C231.745 238.621 166.358 254.62 118.777 252.952C80.8358 251.624 24.4006 238.399 9.71064 198.163C1.98709 177.01 14.9112 152.681 33.7289 142.117C34.314 141.79 37.03 140.081 37.4976 140.719C37.3942 141.493 37.3781 142.294 37.1046 143.037C36.3919 144.971 29.0482 149.973 26.9275 151.988C10.8574 167.24 5.35188 188.501 20.7815 206.389C49.4671 239.646 119.037 240.12 159.304 234.806C196.692 229.872 250.635 215.892 277.051 187.588C277.886 186.692 282.296 180.98 282.723 181.045C282.893 181.071 283.436 181.829 283.341 182.279C283.176 183.067 280.504 186.822 279.818 187.711C260.902 212.307 212.334 228.053 182.759 234.057C136.459 243.458 69.1959 246.722 28.9988 218.46C27.2509 217.231 25.7034 215.634 23.8559 214.554C29.6487 222.098 38.2493 227.7 46.678 231.98C91.6705 254.844 156.097 250.682 203.21 235.926C231.69 227.008 284.706 204.831 291.286 172.155C294.854 154.43 282.928 142.598 286.72 124.271C292.419 96.7203 330.566 64.5039 353.109 49.1508C354.109 48.4702 357.347 46.1917 358.256 46.2525C360.668 46.4195 361.187 49.4535 359.474 50.9363C336.994 67.3164 297.276 96.6383 291.483 125.266C289.118 136.961 292.445 142.021 295.238 152.459C301.726 176.715 288.213 195.474 269.907 209.462L269.904 209.458Z" fill="black"/>
<path d="M238.966 129.906C272.918 130.598 281.651 171.716 258.265 192.704C248.649 201.332 228.113 206.454 215.544 210.599C199 216.052 181.47 222.079 164.724 226.627C145.044 231.973 123.953 228.629 114.954 208.154C104.264 183.841 120.832 163.725 143.345 156.304C171.848 146.904 201.898 140.244 230.569 131.147C233.28 130.691 236.202 129.851 238.966 129.91L238.966 129.906ZM201.364 211.025L244.624 196.683C267.541 188.059 277.238 154.84 255.846 139.181C244.236 130.682 234.69 133.996 222.293 137.342C209.998 140.664 197.862 144.692 185.57 148.018L192.191 153.128C200.348 160.749 205.554 175.746 206.315 186.715C206.91 195.303 206.126 203.638 201.364 211.022L201.364 211.025ZM183.903 174.978C184.448 175.407 186.34 174.225 187.351 174.144C190.264 173.904 191.678 174.942 193.998 176.338C195.267 175.682 196.252 174.576 197.437 173.81C198.369 173.211 199.701 173.469 199.692 172.123C199.682 171.005 196.828 165.133 196.093 163.831C192.808 158.008 186.091 149.954 178.74 150.222C177.777 150.256 176.36 150.775 175.343 151.014C164.181 153.646 139.683 159.999 130.923 166.247C99.1146 188.939 121.074 232.724 158.056 224.449C169.406 221.91 180.987 216.622 192.412 213.949C198.792 211.799 201.071 205.397 202.261 199.324C202.295 199.15 203.073 198.429 202.074 198.648C201.076 198.866 199.969 199.953 198.71 199.713C201.187 206.197 195.762 213.223 188.95 210.503C188.803 212.169 187.176 212.667 185.675 212.341C186.263 209.811 186.616 206.147 182.904 206.753C182.598 206.803 179.881 208.773 179.661 209.058C177.801 211.449 181.626 213.993 181.236 214.391C177.162 216.119 177.314 212.262 175.419 209.835C174.145 216.167 168.735 218.655 162.852 216.097C162.475 218.89 158.761 221.635 156.054 221.83C152.583 222.082 151.432 220.547 148.882 218.775C144.555 226.164 134.732 221.834 135.147 213.911C134.076 213.821 133.297 214.603 132.193 214.626C126.854 214.738 123.504 209.285 124.697 204.378C124.994 203.149 126.139 201.893 126.234 201.179C126.341 200.379 125.327 199.123 125.266 197.941C125.066 193.939 128.212 190.569 132.181 190.815C132.196 188.749 131.008 187.436 131.399 185.246C132.536 178.863 139.898 177.094 144.158 181.828L146.029 184.713L149.094 183.055C144.001 173.31 157.219 166.847 161.878 177.038C165.104 176.307 168.596 176.637 170.781 179.333C170.332 171.068 179.788 167.492 183.895 174.985L183.903 174.978ZM201.079 176.197C196.402 176.284 195.727 179.435 195.964 183.45C198.336 183.692 200.45 183.91 202.553 185.084L201.079 176.197ZM177.091 173.818C173.337 174.173 172.074 180.99 175.972 181.541C177.225 181.72 180.211 181.244 180.823 180.008C182.498 176.627 181.221 173.431 177.091 173.818ZM192.354 184.846C196.751 177.187 183.719 173.522 183.712 181.965C183.708 186.357 186.541 183.888 188.892 184.009C190.193 184.077 191.152 184.523 192.354 184.846ZM154.684 174.601C152.754 174.706 150.655 176.732 150.476 178.662C150.188 181.785 154.878 184.77 156.939 182.38C157.087 182.207 159.177 178.609 159.196 178.38C159.358 176.49 156.408 174.505 154.684 174.601ZM163.461 179.563C158.55 180.017 158.368 189.118 163.876 189.721C170.948 190.499 172.098 178.767 163.461 179.563ZM195.389 196.229C198.243 197.992 203.061 195.625 203.035 192.248C203.012 188.962 200.613 186.457 197.247 186.659C194.54 186.823 196.851 190.468 196.666 192.45C196.549 193.722 195.939 195.087 195.389 196.229ZM175.707 184.236C173.013 184.364 172.269 186.389 172.156 188.797C171.898 194.299 179.685 195.498 181.243 191.041C182.8 186.584 180.028 184.029 175.707 184.236ZM185.664 187.872C180.241 192.021 187.86 200.944 192.689 195.096C196.534 190.437 190.021 184.542 185.664 187.872ZM137.396 182.136C133.651 182.476 132.772 188.917 136.004 190.402C143.668 193.917 146.154 181.344 137.396 182.136ZM146.498 191.894C146.543 192.006 147.325 192.478 147.622 192.858C149.548 195.308 149.416 197.286 153.326 195.991C159.265 194.024 157.043 184.098 149.864 186.221C147.838 186.818 145.689 189.95 146.501 191.895L146.498 191.894ZM164.013 192.492C159.058 192.909 157.907 200.987 164.246 201.126C170.003 201.255 169.807 192.005 164.013 192.492ZM191.963 198.486C187.491 198.801 184.812 205.846 189.998 207.527C197.94 210.099 198.117 198.055 191.963 198.486ZM176.298 196.795C170.502 197.206 171.906 206.629 176.766 206.585C182.524 206.532 183.679 196.27 176.298 196.795ZM184.536 203.859C184.511 202.144 186.109 199.086 183.746 198.464C184.368 199.959 184.443 201.719 183.959 203.301C183.743 204.014 183.832 203.746 184.536 203.859ZM141.539 193.67C135.864 193.942 136.29 202.572 141.282 203.413C148.333 204.604 149.29 193.301 141.539 193.67ZM134.49 199.071C137.43 191.603 127.106 191.985 128.49 198.489L134.49 199.071ZM156.78 197.97C155.473 198.769 150.983 199.104 150.325 199.918C149.146 201.381 149.95 204.801 151.399 205.684C151.851 205.96 155.181 205.602 155.859 205.409C159.346 204.413 158.643 200.184 156.781 197.967L156.78 197.97ZM170.725 212.859C175.883 208.796 168.739 200.995 164.465 205.324C160.134 209.713 165.753 216.776 170.725 212.859ZM131.811 201.439C125.527 201.509 125.271 211.736 132.592 211.211C138.449 210.789 137.958 201.371 131.811 201.439ZM148.579 209.65C149.976 207.577 148.333 206.498 147.08 204.937C144.709 206.161 142.285 207.132 139.537 206.553L139.389 207.666C143.119 206.441 145.619 207.313 148.579 209.65ZM155.092 208.34C149.201 208.48 149.18 216.914 153.696 218.252C161.772 220.64 163.259 208.147 155.092 208.34ZM145.375 218.552C150.76 214.436 143.227 206.149 138.864 211.995C135.487 216.52 141.306 221.659 145.375 218.552Z" fill="black"/>
<path d="M193.227 138.821C200.305 114.492 179.403 95.3384 155.395 99.1516L108.815 110.908C110.507 112.527 112.637 113.588 114.419 115.128C123.598 123.06 128.771 139.409 130.105 151.192C130.486 154.552 131.727 159.179 128.059 160.756L127.291 160.017C127.098 146.58 121.739 123.032 109.598 115.477C105.357 112.839 102.891 112.873 98.21 113.846C89.1711 115.72 77.3041 118.868 68.5242 121.724C28.6077 134.704 33.5978 189.331 77.3483 192.211C87.918 192.907 98.3713 188.635 108.426 186.131L109.195 186.866L108.739 190.277C91.7626 195.476 73.9076 200.252 57.2855 190.837C33.2678 177.231 30.7869 145.234 51.2321 127.048C57.4631 121.504 64.0053 119.243 71.8188 116.875C89.6833 111.461 108.854 106.786 127.006 102.198C139.561 99.0245 157.013 93.0481 169.671 95.5947C186.157 98.9139 199.438 113.755 198.416 131.021C198.171 135.119 198.106 138.526 193.219 138.831L193.227 138.821Z" fill="black"/>
<path d="M134.177 150.419C134.209 150.264 134.82 149.914 134.64 149.591C133.568 149.08 132.925 148.085 132.552 146.991C132.281 146.189 131.383 140.776 131.472 140.14C131.561 139.505 134.436 137.678 134.943 135.667C136.288 130.333 131.481 128.021 126.882 128.804L126.031 126.449C129.247 125.697 132.328 125.457 135.067 127.713C135.78 128.3 137.06 130.618 137.699 130.601C139.499 129.486 141.367 129.277 143.44 129.346C143.792 129.204 143.666 127.653 143.9 126.924C146.023 120.217 154.277 120.812 155.883 128.153C156.074 129.019 155.692 130.176 156.035 130.956C156.793 132.675 161.93 129.597 163.663 130.711C166.167 120.045 179.138 126.011 176.275 135.425C179.204 135.664 181.354 135.952 183.497 138.082C185.285 139.862 186.586 141.77 183.11 142.282C178.863 135.611 172.003 139.061 171.63 146.156C166.998 148.438 169.372 142.197 170.375 139.934C168.402 139.822 166.705 138.641 165.444 137.196C163.227 134.659 163.579 132.222 159.015 134.441L160.016 138.508C163.922 138.864 167.142 142.115 166.797 146.173C166.638 148.068 165.715 148.429 163.937 148.529C165.085 137.724 152.96 140.565 157.154 149.902L153.776 150.954C154.752 144.526 147.639 140.066 144.804 147.287C144.744 149.149 151.568 152.465 144.969 153.507C143.675 150.919 141.219 148.553 138.299 150.572C135.554 152.466 138.184 156.221 134.225 156.608L133.429 155.987C133.758 154.149 133.812 152.24 134.174 150.411L134.177 150.419ZM147.814 125.689C145.305 127.433 145.806 135.134 151.329 132.251C155.676 129.985 151.729 122.967 147.814 125.689ZM168.823 128.079C164.949 128.679 165.578 135.934 170.265 136.878C175.659 137.966 175.025 127.12 168.823 128.079ZM137.523 136.678C140.979 136.799 141.874 139.906 143.44 142.334C153.639 138.743 140.166 125.656 137.523 136.678ZM154.041 134.034C152.656 134.136 150.142 136.349 149.927 137.759C149.252 142.22 156.51 143.299 157.057 137.958C157.247 136.113 156.102 133.881 154.041 134.03L154.041 134.034ZM136.645 139.654C133.456 140.14 132.648 145.822 136.045 147.01C141.363 148.868 141.53 138.909 136.645 139.654Z" fill="black"/>
<path d="M326.692 39.8139C327.771 42.1428 319.494 47.3531 317.785 48.7832C309.307 55.8674 300.897 63.2711 293.265 71.2787C274.237 91.24 264.592 113.443 233.659 115.975C224.421 116.733 207.972 114.729 198.781 112.725C194.675 111.828 195.322 109.65 199.569 109.797C211.005 110.189 221.951 113.313 233.476 112.244C262.55 109.543 269.828 91.1698 287.309 72.2135C298.511 60.0672 311.138 49.3305 324.321 39.4252C325.112 38.8835 325.977 39.3815 326.695 39.8181L326.692 39.8139Z" fill="black"/>
<path d="M81.2212 153.353C81.8954 154.117 89.3647 151.491 91.0179 151.757C92.5005 151.997 92.9428 156.736 91.7395 157.438C89.9645 158.481 84.8282 159.147 82.6386 159.608L83.9122 172.807C83.5453 174.193 78.1789 175.589 77.6639 174.173L72.4165 142.987L90.6263 138.361C92.3527 138.505 91.936 141.596 92.4119 142.966C92.2956 143.722 91.5895 143.878 91.0182 144.158C87.9638 145.65 83.5367 145.968 80.2966 147.178L81.2207 153.356L81.2212 153.353Z" fill="black"/>
<path d="M102.41 158.853C102.254 163.198 107.684 164.639 110.506 161.801C111.993 160.303 111.629 158.52 114.534 159.42C119.673 161.007 113.723 165.464 111.177 166.609C101.493 170.964 94.9775 164.975 95.4007 155.031C96.0545 139.734 118.346 139.845 116.308 155.412L102.41 158.853ZM110.465 152.352C110.646 150.547 108.774 148.745 107.017 148.461C103.148 147.83 101.607 150.748 101.522 154.19L110.465 152.356L110.465 152.352Z" fill="black"/>
<path d="M105.704 119.285C105.965 119.626 106.091 120.325 105.824 120.713C105.436 121.146 104.887 121.262 104.384 121.483C92.081 126.848 74.1327 126.681 62.5431 134.413C56.7565 138.275 51.1803 145.069 49.6159 151.99C48.9244 155.04 49.0948 158.187 48.6918 161.261C46.2261 162.938 46.1377 159.348 46.2224 157.58C46.9806 141.925 57.737 131.643 71.9709 127.104C80.7783 124.297 93.2848 120.897 102.313 119.214C103.303 119.028 104.998 118.365 105.704 119.285Z" fill="black"/>
<path d="M163.655 104.723C167.068 104.853 170.428 105.639 173.563 106.967C175.585 107.824 182.466 111.556 181.316 114.265C179.571 116.558 178.052 113.443 176.597 112.321C170.698 107.784 163.993 107.377 156.961 108.63C146.264 110.533 135.421 114.598 124.691 116.664C123.369 116.835 122.955 114.947 123.711 114.026C123.991 113.681 125.73 113.254 126.315 113.068C134.049 110.613 156.388 104.445 163.655 104.723Z" fill="black"/>
<path d="M44.6605 185.232C51.0341 190.695 58.3407 194.731 66.5673 196.753C67.9973 197.103 73.7846 197.573 74.427 198.405C75.5244 199.828 73.6131 200.19 72.4534 200.198C65.1905 200.257 54.7803 196.156 48.9508 191.863C48.1476 191.271 40.721 185.47 44.661 185.228L44.6605 185.232Z" fill="black"/>
<path d="M52.3792 174.729C51.8518 174 49.7996 171.306 51.4753 171.008C53.3412 170.674 54.7242 173.445 55.8698 174.563C60.2725 178.851 64.5341 181.983 70.5741 183.68C72.3877 184.191 75.5366 183.521 74.8641 186.317C74.172 187.784 69.7344 186.366 68.4299 185.984C62.5244 184.244 55.9888 179.71 52.3712 174.732L52.3792 174.729Z" fill="black"/>
<path d="M109.417 179.137L110.504 180.214C110.56 181.603 104.284 183.404 102.992 183.837C100.574 184.647 92.748 187.335 90.746 187.469C89.5805 187.548 88.657 187.375 88.183 186.217C88.15 185.217 93.0303 183.832 94.0661 183.505C99.125 181.916 104.398 180.875 109.421 179.134L109.417 179.137Z" fill="black"/>
<path d="M135.195 230.556C131.071 230.084 126.55 228.833 123.314 226.132C123.939 225.417 124.177 225.763 124.865 225.938C126.056 226.241 134.052 229.021 134.688 229.447C135.161 229.763 135.402 229.943 135.195 230.556Z" fill="black"/>
<path d="M187.13 120.744C188.992 121.008 189.904 126.06 188.213 126.387C185.43 126.924 184.51 120.375 187.13 120.744Z" fill="black"/>
<path d="M201.364 211.025C206.125 203.642 206.91 195.303 206.315 186.719C205.554 175.746 200.351 160.75 192.191 153.132L185.569 148.021C197.865 144.696 209.997 140.667 222.293 137.346C234.69 133.996 244.235 130.685 255.845 139.184C277.237 154.844 267.537 188.062 244.624 196.686L201.363 211.029L201.364 211.025ZM262.168 165.72C264.037 164.289 261.652 155.867 260.752 153.782C260.021 152.082 256.402 146.101 254.836 145.608C254.37 145.462 253.908 145.552 253.463 145.708C251.443 146.684 255.379 150.296 256.186 151.597C258.084 154.652 259.258 158.084 259.601 161.667C259.722 162.917 258.898 165.564 260.52 165.985C260.908 166.086 261.84 165.964 262.161 165.719L262.168 165.72ZM237.09 175.358L241.406 182.277C242.441 182.211 246.617 181.307 246.652 180.255C246.671 179.633 243.777 174.536 243.215 173.529C240.357 168.418 236.544 161.9 233.151 157.194C232.417 156.176 229.272 152.079 228.356 151.825C227.374 151.55 221.394 152.92 220.727 153.627C220.061 154.333 219.922 156.62 219.815 157.711C219.548 160.417 219.73 163.645 219.455 166.331C218.703 173.629 217.507 180.966 216.266 188.188C216.466 192.387 220.843 189.099 222.957 188.302C224.237 186.515 223.667 179.835 225.069 178.728L237.094 175.359L237.09 175.358Z" fill="#F08A47"/>
<path d="M155.092 208.34C163.259 208.147 161.772 220.64 153.696 218.252C149.176 216.913 149.201 208.48 155.092 208.34Z" fill="#F08A47"/>
<path d="M146.498 191.894C145.686 189.949 147.838 186.821 149.861 186.22C157.039 184.097 159.261 194.023 153.323 195.99C149.412 197.285 149.544 195.307 147.618 192.858C147.321 192.477 146.543 192.006 146.494 191.893L146.498 191.894Z" fill="#F08A47"/>
<path d="M163.461 179.563C172.098 178.767 170.948 190.499 163.876 189.721C158.368 189.117 158.55 180.016 163.461 179.563Z" fill="#F08A47"/>
<path d="M185.664 187.872C190.021 184.542 196.534 190.437 192.689 195.096C187.86 200.945 180.241 192.017 185.664 187.872Z" fill="#F08A47"/>
<path d="M141.539 193.67C149.286 193.3 148.333 204.604 141.282 203.412C136.29 202.571 135.864 193.942 141.539 193.67Z" fill="#F08A47"/>
<path d="M131.811 201.44C137.958 201.371 138.449 210.789 132.592 211.211C125.271 211.736 125.527 201.513 131.811 201.44Z" fill="#F08A47"/>
<path d="M175.707 184.236C180.028 184.029 182.77 186.667 181.243 191.041C179.715 195.415 171.898 194.299 172.156 188.797C172.269 186.389 173.012 184.368 175.707 184.236Z" fill="#F08A47"/>
<path d="M170.725 212.859C165.753 216.776 160.134 209.714 164.465 205.324C168.739 200.996 175.883 208.796 170.725 212.859Z" fill="#F08A47"/>
<path d="M176.298 196.794C183.679 196.27 182.524 206.532 176.766 206.584C171.905 206.632 170.502 197.206 176.298 196.794Z" fill="#F08A47"/>
<path d="M145.375 218.553C141.31 221.66 135.488 216.52 138.864 211.995C143.227 206.149 150.76 214.437 145.375 218.553Z" fill="#F08A47"/>
<path d="M191.963 198.487C198.118 198.051 197.94 210.095 189.998 207.527C184.812 205.85 187.491 198.802 191.963 198.487Z" fill="#F08A47"/>
<path d="M137.396 182.137C146.154 181.341 143.668 193.917 136.004 190.402C132.772 188.918 133.651 182.477 137.396 182.137Z" fill="#F08A47"/>
<path d="M164.013 192.493C169.807 192.006 170.003 201.256 164.246 201.127C157.907 200.984 159.062 192.91 164.013 192.493Z" fill="#F08A47"/>
<path d="M192.354 184.846C191.151 184.527 190.196 184.077 188.891 184.009C186.541 183.888 183.708 186.357 183.712 181.965C183.715 173.522 196.747 177.186 192.354 184.846Z" fill="#F08A47"/>
<path d="M195.389 196.229C195.935 195.087 196.549 193.726 196.666 192.45C196.851 190.468 194.54 186.82 197.247 186.659C200.613 186.457 203.012 188.963 203.035 192.249C203.061 195.626 198.243 197.992 195.389 196.229Z" fill="#F08A47"/>
<path d="M154.684 174.601C156.408 174.505 159.358 176.493 159.196 178.38C159.177 178.609 157.087 182.207 156.939 182.38C154.878 184.771 150.188 181.781 150.476 178.662C150.655 176.732 152.758 174.707 154.684 174.601Z" fill="#F08A47"/>
<path d="M156.78 197.971C158.642 200.189 159.346 204.417 155.858 205.413C155.181 205.607 151.85 205.964 151.399 205.688C149.95 204.802 149.146 201.381 150.325 199.922C150.983 199.109 155.469 198.773 156.78 197.975L156.78 197.971Z" fill="#F08A47"/>
<path d="M177.091 173.819C181.221 173.431 182.494 176.627 180.823 180.008C180.211 181.244 177.225 181.72 175.972 181.541C172.074 180.99 173.341 174.17 177.091 173.819Z" fill="#F08A47"/>
<path d="M201.079 176.197L202.553 185.084C200.45 183.91 198.336 183.692 195.964 183.451C195.727 179.439 196.402 176.285 201.079 176.197Z" fill="#F08A47"/>
<path d="M134.49 199.071L128.49 198.489C127.106 191.988 137.434 191.604 134.49 199.071Z" fill="#F08A47"/>
<path d="M148.579 209.651C145.619 207.313 143.116 206.441 139.393 207.666L139.541 206.554C142.285 207.133 144.709 206.161 147.08 204.937C148.333 206.498 149.977 207.573 148.579 209.651Z" fill="#F08A47"/>
<path d="M184.536 203.86C183.832 203.747 183.743 204.015 183.959 203.302C184.443 201.719 184.368 199.96 183.746 198.464C186.109 199.087 184.511 202.145 184.536 203.86Z" fill="#F08A47"/>
<path d="M237.09 175.359L225.065 178.728C223.663 179.839 224.232 186.519 222.953 188.302C220.843 189.099 216.466 192.388 216.262 188.188C217.503 180.966 218.699 173.629 219.451 166.331C219.726 163.645 219.548 160.418 219.811 157.711C219.919 156.62 220.058 154.333 220.724 153.627C221.39 152.92 227.37 151.55 228.352 151.825C229.272 152.08 232.413 156.176 233.148 157.195C236.54 161.9 240.353 168.418 243.211 173.529C243.773 174.536 246.667 179.633 246.648 180.255C246.614 181.303 242.438 182.211 241.403 182.277L237.086 175.358L237.09 175.359ZM233.701 169.949L226.495 158.779L225.498 171.883L233.697 169.949L233.701 169.949Z" fill="black"/>
<path d="M262.168 165.721C261.848 165.966 260.915 166.087 260.527 165.986C258.906 165.565 259.729 162.919 259.608 161.668C259.265 158.086 258.092 154.654 256.194 151.598C255.383 150.297 251.45 146.686 253.47 145.71C253.911 145.553 254.378 145.464 254.843 145.609C256.405 146.102 260.028 152.088 260.76 153.783C261.655 155.868 264.044 164.29 262.175 165.722L262.168 165.721Z" fill="black"/>
<path d="M122.494 195.387L121.488 195.835C119.754 195.604 120.413 190.728 120.642 189.467C122.763 177.812 132.46 170.133 142.947 166.263C153.951 162.201 169.197 157.653 180.608 154.857C181.56 154.624 182.443 154.163 183.265 154.927C185.262 156.785 179.958 157.939 178.637 158.387C167.02 162.33 154.265 164.984 142.873 169.225C135.995 171.787 124.581 179.739 123.533 187.581L122.491 195.386L122.494 195.387Z" fill="black"/>
<path d="M233.701 169.949L225.502 171.883L226.499 158.779L233.701 169.949Z" fill="#F08A47"/>
</svg>
