<svg width="1058" height="480" viewBox="0 0 1058 480" fill="none" xmlns="http://www.w3.org/2000/svg">
<g id="Group 1244">
<rect id="Rectangle 200" x="2.04736" y="15" width="1054" height="464" rx="11" stroke="#027EC7" stroke-width="2"/>
<g id="Group">
<path id="Vector" d="M113.704 91.7797C123.372 94.3881 126.208 94.7208 128.366 104.888C129.657 110.954 131.399 120.105 132.02 126.153C132.449 130.337 130.869 133.882 126.151 133.344C121.131 132.775 123.149 125.908 123.28 122.661L120.702 114.087C120.798 119.694 120.562 125.326 120.68 130.937C120.733 133.524 121.534 136.478 121.162 139.252C120.969 140.688 120.028 140.841 119.831 141.857C119.315 144.522 119.914 149.739 119.844 152.798C119.814 154.115 119.219 155.319 119.354 156.724C119.621 159.455 124.615 159.923 125.061 163.311C125.823 169.083 115.061 166.308 111.743 166.545C110.063 166.234 109.875 164.23 109.752 162.855C109.152 156.33 110.216 148.898 109.787 142.268L107.586 137.261C105.529 145.362 107.419 154.137 106.723 162.413C106.509 164.93 106.259 166.672 103.437 167C101.104 167.271 91.8387 167.613 91.0509 164.925C89.7248 160.4 96.3553 159.945 96.6835 156.728C96.8236 155.328 96.224 154.12 96.1934 152.798C96.1321 150.176 96.7448 143.432 96.2152 141.502C96.0752 140.999 94.5784 140.986 94.434 138.775C94.1933 135.073 95.248 129.178 95.353 125.252C95.4493 121.685 95.248 118.087 95.3312 114.52C94.4909 114.674 94.609 115.435 94.4383 116.03C94.0094 117.523 92.8015 122.241 92.7358 123.541C92.6439 125.278 93.7031 126.84 93.6024 128.714C93.226 135.756 83.1118 135.047 84.009 126.149C84.6304 120.004 86.3373 110.555 87.5977 104.38C89.5585 94.7908 92.8847 94.5194 101.62 91.8103L101.887 90.9131C100.539 90.4317 99.0206 89.4382 97.9527 88.506C94.8016 85.7531 94.6878 83.9325 90.8058 81.2234C88.1054 79.3371 87.3439 76.4923 88.0004 73.2974C88.3636 71.538 90.1624 70.5226 90.4338 69.6123C90.8189 68.33 90.4206 66.1636 90.6351 64.5661C92.9722 47.2392 121.175 45.7293 125.381 64.5749C125.788 66.3912 125.626 69.0652 126.028 70.4876C126.23 71.201 127.438 72.0369 127.827 73.4987C128.843 77.3195 127.538 79.3415 124.584 81.4597C121.407 83.7312 122.392 83.4073 120.046 86.1033C118.164 88.2697 115.879 89.9503 113.704 91.7753V91.7797ZM123.319 69.9231C125.254 50.0884 94.2545 47.1955 92.7183 67.087C92.6352 68.1768 92.412 69.6167 93.3705 70.3563C96.4472 68.8377 96.9636 65.901 99.1563 63.8702L107.144 65.9885C106.723 64.6843 107.039 63.3144 108.614 63.3844C110.19 63.4545 115.437 65.1745 117.057 65.9185C119.551 67.0608 120.93 68.842 123.315 69.9274L123.319 69.9231ZM110.212 66.4262C109.805 70.5883 102.666 67.9142 100.364 66.4393C99.432 68.5576 97.2612 71.6781 94.9241 72.3521C92.9897 72.9123 90.4163 71.8225 90.0968 74.9911C89.9173 76.7636 91.0377 78.7244 92.6965 79.3502C93.3748 79.6084 94.4296 79.3808 94.8191 79.6216C94.9635 79.7135 95.8739 82.125 96.2896 82.7421C102.014 91.2326 111.651 92.9876 118.251 84.3133C119.096 83.206 120.011 80.7989 120.667 80.173C121.989 78.9213 125.004 79.5253 125.486 76.2297C126.151 71.6649 123.722 73.1092 121.437 72.4571C120.575 72.212 118.79 69.713 117.507 68.9558C115.306 67.656 112.544 67.3759 110.207 66.4218L110.212 66.4262ZM111.428 92.318C111.144 92.1473 105.174 92.2086 104.837 92.3049C104.163 92.5018 102.605 94.1212 101.463 94.6289C97.6595 96.3182 93.725 95.5436 91.4841 99.9551C89.2433 104.367 88.5825 115.291 87.7816 120.735C87.4533 122.967 84.556 131.76 89.3396 131.064C92.7227 130.574 90.0224 125.243 90.1887 123.173L94.3289 105.01L95.5587 104.218L96.666 104.787C98.0753 110.84 97.375 117.098 97.5326 123.269C104.448 124.022 111.231 124.556 118.041 122.788C118.186 118.026 117.949 112.962 118.575 108.236C118.864 106.047 120.265 101.601 121.809 105.772C122.523 107.702 126.059 123.309 125.915 124.748C125.753 126.346 123.665 131.278 127.048 131.09C131.88 130.823 128.287 121.059 127.832 118.109C127.149 113.684 126.169 101.408 123.521 98.3752C120.873 95.3422 115.126 95.793 112.163 93.5391C111.77 93.2415 111.651 92.4449 111.441 92.318H111.428ZM112.61 139.007C114.719 138.95 116.842 139.047 118.952 139.007L117.853 125.444C111.192 126.823 104.259 126.473 97.5282 125.886L97.0906 139.007L104.553 139.248C106.509 131.655 109.091 131.213 111.301 139.025L111.796 139.384C112.181 139.449 112.487 139.003 112.614 139.003L112.61 139.007ZM93.5893 164.37H103.428L104.084 163.713V142.29C102.815 141.007 100.526 141.861 98.8368 141.633V158.903C98.4035 160.181 92.3638 163.17 93.5893 164.37ZM112.391 141.633V163.713C112.667 164.138 113.962 164.37 114.361 164.37H122.448C122.562 162.033 119.687 161.45 118.278 160.015C115.844 157.533 117.179 157.196 117.223 154.549C117.288 150.246 117.131 145.927 117.205 141.629H112.395L112.391 141.633Z" fill="#027EC7"/>
<path id="Vector_2" d="M105.266 81.8232C106.802 81.3811 112.706 81.5562 111.949 84.1253C111.581 85.3682 108.864 84.3134 107.8 84.3134C106.737 84.3134 105.082 84.9656 104.369 84.7555C102.798 84.2959 104.124 82.1558 105.27 81.8232H105.266Z" fill="#027EC7"/>
<path id="Vector_3" d="M103.17 73.9012C104.185 74.5839 103.721 79.6914 100.885 77.8226C99.1388 76.6715 101.454 72.7414 103.17 73.9012Z" fill="#027EC7"/>
<path id="Vector_4" d="M112.658 73.8926L114.142 74.072C115.485 74.7504 115.389 77.5952 113.857 78.1641L112.023 77.07C111.879 76.1815 111.638 74.2252 112.658 73.8926Z" fill="#027EC7"/>
</g>
<text id="Perda de peso significativa." fill="#242628" xml:space="preserve" style="white-space: pre" font-family="'Montserrat', sans-serif" font-size="18" letter-spacing="0em"><tspan x="177.953" y="115.953">Perda de peso significativa.</tspan></text>
<text id="Atraso no crescimento e no desenvolvimento." fill="#242628" xml:space="preserve" style="white-space: pre" font-family="'Montserrat', sans-serif" font-size="18" letter-spacing="0em"><tspan x="88.2378" y="243.953">Atraso no crescimento e no </tspan><tspan x="175.777" y="268.953">desenvolvimento.</tspan></text>
<text id="Falta de energia e cansa&#195;&#167;o frequente." fill="#242628" xml:space="preserve" style="white-space: pre" font-family="'Montserrat', sans-serif" font-size="18" letter-spacing="0em"><tspan x="215.953" y="393.953">Falta de energia e cansa&#xe7;o </tspan><tspan x="215.953" y="418.953">frequente.</tspan></text>
<text id="Maior vulnerabilidade a infec&#195;&#167;&#195;&#181;es." fill="#242628" xml:space="preserve" style="white-space: pre" font-family="'Montserrat', sans-serif" font-size="18" letter-spacing="0em"><tspan x="687.44" y="157.953">Maior vulnerabilidade a </tspan><tspan x="807.709" y="182.953">infec&#xe7;&#xf5;es.</tspan></text>
<text id="Defici&#195;&#170;ncias de nutrientes importantes, como vitaminas e minerais." fill="#242628" xml:space="preserve" style="white-space: pre" font-family="'Montserrat', sans-serif" font-size="18" letter-spacing="0em"><tspan x="757.047" y="315.953">Defici&#xea;ncias de nutrientes </tspan><tspan x="757.047" y="340.953">importantes, como vitaminas </tspan><tspan x="757.047" y="365.953">e minerais.</tspan></text>
<g id="Group 1139">
<path id="Rectangle 203" d="M0.952637 12C0.952637 5.37258 6.32522 0 12.9526 0H165.529C172.156 0 177.529 5.37258 177.529 12V17C177.529 23.6274 172.156 29 165.529 29H4.95263C2.74349 29 0.952637 27.2091 0.952637 25V12Z" fill="#027EC7"/>
<text id="Em crian&#195;&#167;as" fill="white" xml:space="preserve" style="white-space: pre" font-family="'Montserrat', sans-serif" font-size="18" font-weight="600" letter-spacing="0em"><tspan x="14.3766" y="21.453">Em crian&#xe7;as</tspan></text>
</g>
<g id="Group_2">
<path id="Vector_5" d="M451.329 299.736C451.39 299.693 451.471 298.762 451.812 298.297C452.462 297.396 453.699 296.685 453.901 295.638C454.47 292.687 452.928 288.865 453.488 285.741C453.41 284.479 451.976 284.729 451.174 284.182C447.098 281.386 447.546 274.72 447.891 270.256C448.313 264.763 449.92 259.14 454.763 256.047C445.668 247.119 451.295 230.738 464.906 231.712C473.557 232.328 478.499 241.436 476.534 249.403C475.867 252.117 473.91 254.216 472.415 256.465C474.764 258.115 476.496 259.774 477.659 262.428C479.731 267.146 481.248 279.8 477.107 283.553C475.871 284.673 473.962 284.44 473.704 285.741C474.285 288.564 472.885 292.174 473.303 294.764C473.54 296.229 475.565 298.124 476.078 299.736H484.902V202.672C484.902 202.599 485.565 201.914 485.768 201.819C486.526 201.462 494.324 201.397 495.436 201.608C495.91 201.699 496.953 202.349 496.953 202.672V301.244C496.953 301.321 495.953 302.321 495.876 302.321H427.007C426.154 302.321 426.154 299.74 427.007 299.74H451.325L451.329 299.736ZM494.372 204.176H487.487V299.731H494.372V285.095L491.214 285.112C489.335 282.674 492.33 282.221 494.372 282.514V271.747C492.959 271.734 491.257 272.169 490.58 270.61L490.994 269.227L494.372 269.171V258.227L490.994 257.917L490.55 256.525C491.52 255.073 492.941 255.375 494.368 255.823V244.629C489.309 245.245 489.288 241.436 494.372 242.053L494.363 230.859C492.898 231.604 490.934 231.656 490.477 229.782L491.209 228.774L494.372 228.705V217.511L490.972 217.472V215.4L494.372 215.361V204.172V204.176ZM462.872 233.978C448.848 234.982 450.127 258.494 464.462 257.124C478.839 255.75 476.832 232.979 462.872 233.978ZM473.281 299.736C472.82 298.775 471.911 297.999 471.48 297.021C469.981 293.618 471.666 288.49 471.584 284.867C471.558 283.648 470.589 283.191 470.356 282.217C469.783 279.804 471.657 277.956 471.584 274.97C471.549 273.548 469.766 267.499 472.157 267.908C473.01 268.412 473.441 269.412 473.609 270.356C473.816 271.523 474.147 275.108 474.139 276.28C474.13 277.568 471.549 282.687 473.859 282.467C476.582 281.493 476.991 278.438 477.172 275.866C477.504 271.166 476.651 262.38 472.39 259.52C469.029 257.262 468.43 259.287 465.272 259.657C459.653 260.317 456.095 255.444 452.531 261.988C450.463 265.784 449.731 275.03 450.567 279.192C451.054 281.614 454.862 283.997 454.811 281.015C454.793 279.964 453.66 278.74 453.479 277.142C453.298 275.543 453.673 268.753 455.19 268.081L456.512 268.598C456.689 271.424 455.659 274.328 456.043 277.159C456.426 279.99 458.96 281.463 455.629 284.893L456.521 296.069C456.435 298.279 454.918 298.206 453.91 299.736H459.938V285.746C459.938 283.863 467.254 283.863 467.254 285.746V299.736H473.281ZM464.673 286.823H462.519V299.736H464.673V286.823Z" fill="#027EC7"/>
<path id="Vector_6" d="M412.255 224.504C411.897 224.853 410.6 229.054 409.502 230.575C408.019 232.621 405.801 233.797 404.413 235.81C407.666 237.826 410.734 237.947 413.246 241.187C417.067 246.116 416.809 259.688 416.486 265.97C416.201 271.424 415.62 277.547 409.648 279.576L408.726 298.219C409.075 300.085 411.919 300.46 413.022 302.101C418.024 309.551 399.389 308.107 397.998 305.932L397.955 278.21L395.559 278.615L395.15 305.755C394.137 308.017 387.886 307.638 385.692 307.478C382.616 307.259 378.234 307.142 379.639 302.726C380.41 300.309 383.883 300.266 384.184 298.659C384.085 292.304 384.223 285.742 383.081 279.529C377.549 276.771 376.765 271.635 376.416 265.961C375.903 257.555 374.917 242.13 383.461 237.671C384.284 237.24 389.738 235.745 389.346 235.172C386.645 234.151 384.266 231.436 382.819 228.998C382.22 227.985 381.371 225.348 380.944 224.849C380.518 224.349 379.195 224.146 378.368 223.552C376.231 222.018 375.718 219.885 376.041 217.343C376.239 215.779 377.498 214.478 377.605 213.801C377.704 213.164 377.166 212.233 377.274 211.302C377.829 206.615 378.838 202.397 382.017 198.786C391.281 188.269 413.448 192.638 415.124 207.451C415.327 209.23 414.887 211.363 415.189 212.983C415.641 215.409 418.041 216.223 417.136 220.135C416.232 224.047 413.578 223.216 412.255 224.508V224.504ZM385.908 210.204L384.004 214.978C382.319 216.279 378.575 213.672 378.29 218.222C378.006 222.772 382.405 221.591 383.112 222.673C383.486 223.25 383.948 226.193 384.684 227.554C389.807 237.029 403.383 237.305 408.36 227.709C409.079 226.326 409.752 222.677 410.204 222.238C410.962 221.497 413.935 222.203 414.65 219.795C415.844 215.788 411.863 215.253 411.733 214.693C415.947 205.361 408.037 196.421 398.588 195.568C387.041 194.525 379.643 201.19 379.867 212.78L382.396 212.724C385.068 200.139 389.406 211.755 393.388 211.087C394.624 209.316 393.918 206.628 396.852 206.727C398.299 206.778 407.399 210.617 408.86 211.544C409.256 211.794 409.829 212.147 409.915 212.621C409.752 214.719 408.799 214.142 407.179 213.655C405.68 213.203 397.084 208.95 396.658 209.333C396.709 210.109 395.598 213.521 395.072 213.651C391.651 214.495 386.356 209.855 385.899 210.195L385.908 210.204ZM383.318 276.491V252.6C383.318 250.963 385.158 248.821 385.899 251.312C385.748 265.405 385.99 279.464 386.313 293.51C386.378 296.293 388.054 299.408 385.257 301.459C384.215 302.222 381.569 302.597 382.03 304.243L382.672 304.897H392.573C393.189 304.518 393.168 304.04 393.241 303.411C393.655 299.9 392.84 296.018 392.771 292.644C392.672 287.767 392.871 282.876 392.797 277.999L393.185 277.099C395.37 275.362 399.95 274.837 400.51 278.447C401.647 285.798 399.17 295.634 400.083 303.407C400.156 304.031 400.135 304.514 400.751 304.893H410.652L411.294 303.825C409.937 301.938 406.882 301.709 406.537 299.107C405.93 294.505 406.947 289.456 407.007 284.897C407.166 273.419 406.852 261.928 406.99 250.446L407.636 249.373L408.933 249.787C408.842 250.778 409.566 252.82 409.566 253.458V276.918C412.785 275.435 413.513 272.183 413.862 268.947C414.508 263.001 414.603 252.88 413.328 247.111C411.785 240.14 408.075 241.027 403.207 238.283C402.401 237.826 402.427 236.882 401.604 236.835C400.695 236.783 399.639 237.318 398.605 237.331C397.033 237.352 392.823 236.783 391.905 237.059C391.186 237.275 390.402 238.184 389.458 238.515C385.124 240.049 382.215 239.537 380.212 244.767C378.196 250.024 377.89 269.528 380.634 274.208C380.888 274.643 382.784 277.073 383.306 276.487L383.318 276.491Z" fill="#027EC7"/>
<path id="Vector_7" d="M426.365 253.677L430.097 250.295C431.329 249.955 431.768 251.028 431.462 252.083C431.359 252.437 427.167 257.529 426.831 257.796C426.034 258.443 425.124 258.757 424.211 258.193C423.953 258.033 420.575 254.242 420.118 253.677C419.687 253.148 418.614 251.889 418.606 251.295C420.006 248.24 422.16 252.363 423.78 253.242V224.19C423.78 223.337 426.361 223.337 426.361 224.19V253.673L426.365 253.677Z" fill="#027EC7"/>
<path id="Vector_8" d="M465.961 251.527C466.797 255.25 460.313 255.228 461.252 252.199C461.541 251.269 464.789 252.075 465.961 251.527Z" fill="#027EC7"/>
<path id="Vector_9" d="M458.059 246.426C458.856 246.202 461.945 246.081 461.653 247.43C460.325 249.395 458.641 249.425 457.546 247.236C457.176 246.917 457.775 246.508 458.059 246.43V246.426Z" fill="#027EC7"/>
<path id="Vector_10" d="M469.404 246.361C469.339 249.623 466.801 249.838 465.543 247.003C466.474 245.87 468.128 246.486 469.404 246.361Z" fill="#027EC7"/>
<path id="Vector_11" d="M393.284 227.912C393.607 227.705 399.01 227.641 399.803 227.938C401.04 228.399 400.794 230.398 399.501 230.416C398.825 230.424 397.873 229.963 396.878 229.963C395.283 229.963 393.694 231.161 392.875 229.295L393.284 227.912Z" fill="#027EC7"/>
<path id="Vector_12" d="M389.609 218.843C391.94 218.08 393.017 222.001 390.673 222.488C388.657 222.906 388.269 219.282 389.609 218.843Z" fill="#027EC7"/>
<path id="Vector_13" d="M403.44 219.351C404.392 220.303 404.146 222.703 402.074 222.246C398.941 221.557 401.402 217.317 403.44 219.351Z" fill="#027EC7"/>
</g>
<g id="Group_3">
<path id="Vector_14" d="M72.9579 419.987C62.0692 420.939 57.7531 405.774 67.0099 400.43C64.4212 381.544 70.8073 364.41 90.2629 358.89C115.747 351.668 139.221 365.589 139.957 392.987C140.012 395.016 138.995 397.545 139.463 400.017C139.755 401.554 142.037 402.646 142.858 404.172C145.779 409.602 142.52 418.123 136.467 419.684C135.298 419.987 133.329 419.604 132.659 420.405C131.758 421.477 129.768 427.108 128.403 429.228C112.725 453.599 81.1873 445.838 72.9629 419.987H72.9579ZM108.761 390.972C108.469 388.852 108.761 385.704 108.761 383.423C108.761 381.816 111.773 382.224 112.962 382.748C115.606 383.921 120.904 388.655 123.699 390.625C125.573 391.949 131.954 395.424 132.906 396.512C133.319 396.98 133.626 397.217 133.364 397.922C132.629 400.652 129.088 397.655 127.623 396.764C122.173 393.46 117.207 389.386 112.025 385.689C111.043 385.563 111.345 385.709 111.265 386.444C111.028 388.64 113.652 393.213 111.95 394.281C103.73 396.285 96.4627 390.67 89.6535 387.195C88.2987 392.216 79.0922 402.803 74.1666 403.724C72.6658 404.006 72.1369 402.883 70.7872 402.747C63.1118 401.966 63.2326 415.701 70.2987 416.854C72.0261 417.136 73.4414 416.567 75.0732 416.582C79.7973 435.519 99.3989 448.634 117.474 436.41C124.495 431.666 128.393 424.484 130.886 416.582C132.181 416.491 133.294 416.985 134.684 416.92C141.468 416.612 143.507 404.218 136.955 402.984C135.686 402.747 132.871 404.036 132.417 402.52C131.838 400.592 134.659 400.153 135.963 400.053L136.371 399.453C140.586 373.219 120.532 356.166 95.0776 360.678C75.9696 364.068 67.7503 378.875 69.5231 397.519C69.7296 399.705 70.7973 400.345 73.0385 400.576C76.6244 400.944 83.63 392.347 85.5287 389.365C86.3798 388.026 88.2382 382.647 89.9154 382.793C95.2338 387.638 101.927 391.486 109.275 391.722C109.532 391.541 108.792 391.113 108.772 390.972H108.761Z" fill="#027EC7"/>
<path id="Vector_15" d="M178.571 362.164C180.112 363.856 177.891 367.306 182.615 366.898C184.438 367.649 185.158 378.426 179.704 376.125C179.91 380.365 178.722 382.289 174.441 382.687C168.196 383.266 154.98 383.292 148.77 382.662C147.108 382.496 144.439 381.821 143.744 380.144C143.246 378.94 143.225 366.153 143.512 364.335C143.89 361.917 145.532 361.212 147.738 361.011C154.512 360.391 168.176 360.396 174.96 361.011C175.932 361.096 177.961 361.489 178.581 362.169L178.571 362.164ZM147.355 363.65C146.907 363.781 146.449 364.133 146.247 364.551C145.824 365.422 145.774 375.843 145.975 377.409C146.086 378.265 146.162 378.935 147.003 379.398L174.96 379.675C175.765 379.711 176.194 379.514 176.657 378.854C177.443 377.741 177.422 368.208 177.206 366.304C177.1 365.357 176.944 364.466 176.199 363.791L147.365 363.645L147.355 363.65ZM181.215 369.084H179.709V373.612L181.129 372.776L181.215 369.084Z" fill="#027EC7"/>
<path id="Vector_16" d="M101.091 422.55C103.539 422.213 105.306 422.49 107.598 423.331C108.897 423.809 113.163 425.955 112.73 427.602L111.118 428.891C107.316 425.975 104.012 424.378 99.2074 426.202C97.2936 426.927 94.1861 430.261 93.1385 427.199C93.1436 425.345 99.4088 422.787 101.091 422.555V422.55Z" fill="#027EC7"/>
<path id="Vector_17" d="M93.5012 405.89L94.9517 406.832C94.0653 412.911 85.0048 412.604 82.5723 407.577C84.0731 404.102 86.2941 407.869 87.4727 408.232C91.1391 409.355 91.678 406.046 93.4962 405.895L93.5012 405.89Z" fill="#027EC7"/>
<path id="Vector_18" d="M122.838 405.829C124.243 407.824 119.016 411.143 117.006 411.324C114.589 411.546 109.985 409.768 110.746 406.64C111.259 404.52 114.971 408.393 116.573 408.368C118.396 408.338 121.69 404.198 122.838 405.829Z" fill="#027EC7"/>
<path id="Vector_19" d="M150.02 367.321L150.513 366.808C153.847 364.657 154.164 376.145 151.279 376.145L150.02 375.37V367.321Z" fill="#027EC7"/>
</g>
<g id="Group_4">
<path id="Vector_20" d="M964.089 123.294C965.883 122.943 968.539 125.183 970.284 125.983C978.07 129.558 985.815 131.884 994.079 133.913C994.364 152.257 991.25 172.704 976.556 185.229C974.779 186.743 966.7 192.306 964.778 192.43C961.289 192.657 950.587 183.538 948.137 180.68C938.611 169.566 933.538 147.655 935.332 133.291C935.386 132.849 935.307 132.342 935.74 132.049C945.63 130.692 955.346 128.177 964.089 123.294ZM969.133 155.371L960.571 150.158L967.727 127.777C965.409 123.764 962.485 126.96 959.524 128.234C952.583 131.22 945.407 132.878 938 134.313C936.54 156.018 943.052 180.19 964.32 189.873C986.178 181.134 991.964 157.082 991.753 135.617C984.244 133.946 976.89 131.629 969.949 128.35L963.058 148.974C963.149 150.1 971.211 153.197 971.512 154.785L965.318 179.761C962.345 183.101 963.64 177.294 963.978 175.538C965.273 168.848 967.57 162.023 969.129 155.371H969.133Z" fill="#027EC7"/>
<path id="Vector_21" d="M931.686 128.617C931.129 130.543 931.167 132.564 931.216 134.564C931.657 153.065 934.594 173.475 948.731 186.676C951.098 188.887 961.639 196.578 964.398 196.578C965.528 196.578 969.669 194.277 970.906 193.588C991.081 182.305 996.195 163.26 997.973 141.546C998.129 139.608 998.228 127.788 998.839 127.376L1000.68 127.722C1001.03 128.226 1000.91 131.946 1000.88 132.915C1000.01 158.204 995.77 182.511 971.884 195.799C969.706 197.011 965.656 199.432 963.256 198.933C961.833 198.636 957.462 195.993 955.985 195.077C931.967 180.251 928.069 153.481 929.228 127.186L929.851 126.572C938.528 125.797 947.395 124.295 955.408 120.815C958.509 119.466 961.289 117.503 964.39 116.179C968.226 117.577 971.698 119.953 975.451 121.639C979.843 123.615 984.437 124.976 988.908 126.733L987.893 128.415C979.592 126.518 971.97 122.646 964.464 118.777C954.558 124.576 943.225 128.189 931.686 128.617Z" fill="#027EC7"/>
<path id="Vector_22" d="M1021.82 133.987C1022.51 135.6 1021.17 137.109 1021.05 138.293C1020.81 140.483 1023.31 140.747 1024.34 142.405C1026.03 142.021 1026.84 140.475 1027.91 139.328C1033.16 140.471 1028.1 142.302 1026.8 143.592C1025.32 145.052 1027.32 147.053 1027.61 148.991L1032.31 149.238C1034.73 152.067 1028.92 152.105 1027.23 151.23L1025.58 158.645L1030.66 159.845C1032.64 165.083 1025.55 160.369 1024.75 160.881L1022.43 165.442C1022.53 167.166 1029.79 169.954 1023.81 170.609C1022.95 169.644 1021.76 167.199 1020.23 167.904C1019.93 168.044 1018.32 169.727 1018.23 170.069C1017.82 171.479 1020.2 177.492 1016.08 175.261L1016.1 170.18L1011.63 170.238C1011.09 171.389 1010.49 175.571 1008.56 175.08C1005.39 173.393 1010.74 171.174 1009.73 168.96C1009.61 168.696 1005.89 164.897 1005.6 164.897C1003.63 166.559 1000.32 167.863 1000.86 164.003C1005.47 164.374 1006.13 160.39 1007.07 156.835C1005.62 155.42 1000.01 156.237 1001.47 153.288C1002.55 151.107 1006.04 154.777 1007.84 154.092L1008.68 145.873L1003.72 145.275C1002.26 139.543 1007.32 145.197 1009.84 143.72C1010.04 143.605 1011.61 140.825 1011.61 140.306C1011.61 139.233 1008.05 134.722 1010.58 133.946C1012.49 133.365 1012.46 138.103 1014.04 139.089L1018.31 139.303L1019.36 134.194C1020.02 133.422 1020.99 133.55 1021.81 133.975L1021.82 133.987ZM1015.58 141.448C1010.23 142.434 1010.96 150.888 1010.14 154.958C1009.59 157.672 1006.96 162.217 1008.46 164.444C1011.01 168.254 1015.74 169.892 1019.16 166.036C1022.58 162.18 1025.51 152.422 1024.73 147.35C1024.14 143.539 1019.36 140.751 1015.58 141.448H1015.58Z" fill="#027EC7"/>
<path id="Vector_23" d="M1000.89 105.461L1004.78 107.424C1008.81 103.708 1011.33 106.393 1006.59 109.404L1007.5 114.526L1011.13 115.012C1011.82 118.732 1007.57 116.901 1007.02 117.227C1006.66 117.442 1004.95 120.959 1003.76 121.364C1005.12 122.11 1007.49 124.84 1005.4 125.921C1003.96 126.671 1002.53 122.506 1001.91 122.456L996.744 123.628C996.793 125.158 996.752 129.323 994.533 128.523C992.624 127.834 995.288 124.147 994.649 123.257L990.001 121.19C988.462 122.221 988.871 124.37 986.47 124.024C984.664 121.397 988.388 120.456 988.479 118.918C988.553 117.677 987.114 115.367 987.687 113.738L984.033 113.276C983.547 109.214 985.778 111.746 987.506 111.651C988.949 111.573 989.959 107.766 991.37 106.942C987.939 103.502 990.504 101.147 993.333 105.449L998.137 105.036C999.762 103.758 998.925 101.881 998.818 100.158C1003.53 98.9657 1000.5 104.909 1000.9 105.465L1000.89 105.461ZM996.22 107.251C985.848 108.934 989.741 126.18 1000.82 120.502C1008.84 116.39 1004.3 105.944 996.22 107.251Z" fill="#027EC7"/>
<path id="Vector_24" d="M1020.19 152.434C1017.93 152.711 1015.36 150.364 1018.56 149.354C1021.09 148.554 1020.93 150.649 1020.19 152.434Z" fill="#027EC7"/>
<path id="Vector_25" d="M1017.34 159.483L1016.3 161.969C1014.66 162.25 1013.05 159.355 1014.68 158.241L1017.34 159.487V159.483Z" fill="#027EC7"/>
<path id="Vector_26" d="M995.193 114.885C993.655 113.219 995.23 110.361 997.395 112.06C999.284 113.544 996.385 116.176 995.193 114.885Z" fill="#027EC7"/>
</g>
<g id="Group_5">
<path id="Vector_27" d="M707.246 281.247C707.487 281.421 707.916 283.083 707.333 283.382L672.643 318.52C674.831 320 678.354 325.234 680.33 326.25C680.792 326.487 680.821 326.487 681.284 326.25C681.93 325.918 689.371 318.361 690.2 317.32C693.925 312.665 694.282 308.284 692.393 302.688C694.841 300.206 695.67 303.676 695.997 305.734C696.552 309.214 696.166 312.747 694.552 315.894C692.759 319.402 673.318 338.858 669.476 341.856C667.076 343.73 663.915 345.089 660.84 345.253C659.491 345.325 649.842 344.492 653.346 342.096C654.083 341.59 659.524 342.511 661.298 342.342C668.354 341.668 673.366 333.431 678.32 329.041C678.609 327.561 671.602 321.498 670.219 320.202C670.219 320.79 669.881 321.243 669.51 321.662C659.245 333.32 646.262 343.745 635.808 355.374C634.43 356.516 633.216 355.422 633.697 353.764C634.29 351.716 647.274 341.147 647.534 339.639C644.772 334.824 643.915 330.434 646.054 325.18C647.9 320.641 665.867 302.852 670.44 299.011C676.604 293.83 683.419 292.5 690.923 295.912L705.092 281.671C705.545 281.252 706.827 280.948 707.241 281.252L707.246 281.247ZM680.691 296.741C673.669 297.657 669.12 304.785 664.166 309.132C663.708 310.168 669.568 315.291 670.455 316.347L688.499 298.298C686.47 296.529 683.274 296.404 680.686 296.741H680.691ZM662.503 311.546C661.799 311.354 661.703 311.739 661.298 312.014C658.686 313.797 649.78 323.431 648.613 326.294C647.062 330.091 647.11 334.251 649.751 337.533L668.248 318.453L662.503 311.546Z" fill="#027EC7"/>
<path id="Vector_28" d="M665.279 378.107C667.216 380.121 664.267 383.418 662.98 384.955C647.182 403.837 617.562 395.245 613.524 371.369C612.622 366.049 612.598 357.162 617.114 353.509L619.991 354.318L665.279 378.112V378.107ZM658.185 377.986C656.883 381.972 651.066 385.466 647.119 386.43C630.179 390.555 617.822 375.042 622.502 359.056C622.304 358.415 619.302 356.998 618.536 356.718C618.03 356.535 618.049 356.015 617.504 356.81C616.608 358.116 615.89 362.54 615.789 364.246C614.603 385.052 636.097 400.049 654.662 388.676C656.252 387.702 662.72 382.102 662.946 380.579C663.105 379.49 659.177 378.362 658.185 377.991V377.986ZM637.958 367.389L624.965 360.174C623.591 364.801 623.765 369.143 625.447 373.654L637.958 367.389ZM640.845 368.839L626.892 376.3C630.396 381.49 635.89 384.844 642.29 384.724L640.845 368.839ZM644.7 384.242C646.965 384.82 656.671 378.57 656.257 376.786L643.259 369.793L644.7 384.237V384.242Z" fill="#027EC7"/>
<path id="Vector_29" d="M709.699 347.167C720.123 348.646 723.338 357.933 721.603 367.499C719.665 378.17 712.682 391.322 699.867 389.495C698.556 389.307 697.169 388.271 696.373 388.203C695.578 388.136 693.843 389.312 692.561 389.495C680.677 391.158 673.501 378.213 671.414 368.362C668.281 353.581 678.469 342.019 693.323 348.617C691.525 335.908 700.928 324.785 714.051 326.694C715.993 331.523 715.193 338.183 712.668 342.68C712.287 343.354 709.376 346.906 709.699 347.171V347.167ZM712.104 328.877C701.173 328.92 694.518 338.183 695.973 348.617C697.289 346.863 703.916 337.692 705.511 337.643C705.602 337.643 706.759 337.986 706.798 338.039C707.713 339.282 700.855 346.636 699.588 347.894C704.711 347.957 709.212 344.27 711.077 339.643C711.284 339.128 712.104 337.08 712.104 336.815V328.872V328.877ZM683.091 349.692C664.811 352.839 676.064 390.165 692.98 386.541C694.017 386.319 694.937 385.273 696.012 385.206C697.834 385.09 700.263 387.037 704.108 386.594C720.258 384.729 727.709 346.583 704.764 349.702C702.099 350.063 699.53 351.798 696.961 352.01C692.918 352.343 690.947 350.039 687.255 349.634C685.935 349.489 684.397 349.47 683.086 349.697L683.091 349.692Z" fill="#027EC7"/>
<path id="Vector_30" d="M630.618 274.114C642.541 272.572 649.953 287.035 658.204 293.459C658.893 294.322 658.907 295.512 658.204 296.404L638.57 315.334L637.22 314.949C633.114 310.703 628.854 306.611 624.733 302.385C622.936 300.544 621.061 299.445 619.572 296.958C613.678 287.141 619.456 275.565 630.623 274.119L630.618 274.114ZM631.109 277.016C621.128 278.143 616.887 288.24 622.55 296.375L638.199 312.014L655.254 294.515C648.266 288.823 641.172 275.878 631.109 277.016Z" fill="#027EC7"/>
</g>
</g>
</svg>
