<svg width="939" height="611" viewBox="0 0 939 611" fill="none" xmlns="http://www.w3.org/2000/svg">
<g id="Group 1271">
<rect id="Rectangle 346" width="939" height="611" rx="12" fill="#F0F9FF"/>
<g id="Group 1270">
<g id="Group 1269">
<g id="Group 1268">
<g id="Group 1267">
<g id="Group 1266">
<g id="Group 1265">
<g id="Group 1264">
<text id="Evolu&#195;&#167;&#195;&#163;o da Desnutri&#195;&#167;&#195;&#163;o Infantil (1996, 2006, 2019, 2021)" fill="#3D100D" xml:space="preserve" style="white-space: pre" font-family="'Montserrat', sans-serif" font-size="20" font-weight="600" letter-spacing="0em"><tspan x="207.102" y="65.17">Evolu&#xe7;&#xe3;o da Desnutri&#xe7;&#xe3;o Infantil (1996, 2006, 2019, 2021)</tspan></text>
<text id="1996" transform="translate(204 512)" fill="#2A2828" xml:space="preserve" style="white-space: pre" font-family="'Montserrat', sans-serif" font-size="14" font-weight="500" letter-spacing="0em"><tspan x="0" y="15.019">1996</tspan></text>
<text id="2006" transform="translate(384 512)" fill="#242628" xml:space="preserve" style="white-space: pre" font-family="'Montserrat', sans-serif" font-size="14" font-weight="500" letter-spacing="0em"><tspan x="0" y="15.019">2006</tspan></text>
<text id="2019" transform="translate(569 512)" fill="#2A2828" xml:space="preserve" style="white-space: pre" font-family="'Montserrat', sans-serif" font-size="14" font-weight="500" letter-spacing="0em"><tspan x="0" y="15.019">2019</tspan></text>
<text id="2021" transform="translate(752 512)" fill="#2A2828" xml:space="preserve" style="white-space: pre" font-family="'Montserrat', sans-serif" font-size="14" font-weight="500" letter-spacing="0em"><tspan x="0" y="15.019">2021</tspan></text>
<text id="Ano" transform="translate(473 548)" fill="#2A2828" xml:space="preserve" style="white-space: pre" font-family="'Montserrat', sans-serif" font-size="16" font-weight="bold" letter-spacing="0em"><tspan x="0.0703125" y="16.736">Ano</tspan></text>
<text id="Percentual (%)" transform="translate(74 374) rotate(-90)" fill="#2A2828" xml:space="preserve" style="white-space: pre" font-family="'Montserrat', sans-serif" font-size="16" font-weight="bold" letter-spacing="0em"><tspan x="0.390625" y="16.736">Percentual (%)</tspan></text>
<line id="Line 39" x1="121" y1="513" x2="865" y2="513" stroke="#082D49" stroke-width="2"/>
<line id="Line 40" x1="120" y1="514" x2="120" y2="102" stroke="#082D49" stroke-width="2"/>
<text id="0" fill="#2A2828" xml:space="preserve" style="white-space: pre" font-family="'Montserrat', sans-serif" font-size="14" font-weight="500" letter-spacing="0em"><tspan x="106.662" y="518.019">0</tspan></text>
<text id="6" fill="#2A2828" xml:space="preserve" style="white-space: pre" font-family="'Montserrat', sans-serif" font-size="14" font-weight="500" letter-spacing="0em"><tspan x="107.359" y="345.019">6</tspan></text>
<text id="2" fill="#2A2828" xml:space="preserve" style="white-space: pre" font-family="'Montserrat', sans-serif" font-size="14" font-weight="500" letter-spacing="0em"><tspan x="107.961" y="460.019">2</tspan></text>
<text id="8" fill="#2A2828" xml:space="preserve" style="white-space: pre" font-family="'Montserrat', sans-serif" font-size="14" font-weight="500" letter-spacing="0em"><tspan x="106.99" y="287.019">8</tspan></text>
<text id="12" fill="#2A2828" xml:space="preserve" style="white-space: pre" font-family="'Montserrat', sans-serif" font-size="14" font-weight="500" letter-spacing="0em"><tspan x="102.779" y="173.019">12</tspan></text>
<text id="4" fill="#2A2828" xml:space="preserve" style="white-space: pre" font-family="'Montserrat', sans-serif" font-size="14" font-weight="500" letter-spacing="0em"><tspan x="106.635" y="403.019">4</tspan></text>
<text id="10" fill="#2A2828" xml:space="preserve" style="white-space: pre" font-family="'Montserrat', sans-serif" font-size="14" font-weight="500" letter-spacing="0em"><tspan x="101.48" y="230.019">10</tspan></text>
<text id="14" fill="#2A2828" xml:space="preserve" style="white-space: pre" font-family="'Montserrat', sans-serif" font-size="14" font-weight="500" letter-spacing="0em"><tspan x="101.453" y="116.019">14</tspan></text>
<path id="Vector 4" d="M121 455H865" stroke="#AAB1B6" stroke-dasharray="2 2"/>
<path id="Vector 5" d="M121 397H865" stroke="#AAB1B6" stroke-dasharray="2 2"/>
<path id="Vector 6" d="M121 340H865" stroke="#AAB1B6" stroke-dasharray="2 2"/>
<path id="Vector 7" d="M121 283H865" stroke="#AAB1B6" stroke-dasharray="2 2"/>
<path id="Vector 8" d="M121 225H865" stroke="#AAB1B6" stroke-dasharray="2 2"/>
<path id="Vector 9" d="M121 168H865" stroke="#AAB1B6" stroke-dasharray="2 2"/>
<path id="Vector 10" d="M121 109H865" stroke="#AAB1B6" stroke-dasharray="2 2"/>
<path id="Rectangle 228" d="M154 359C154 353.477 158.477 349 164 349H208C213.523 349 218 353.477 218 359V512H154V359Z" fill="#0E9FE9"/>
<path id="Rectangle 348" d="M337 471C337 465.477 341.477 461 347 461H391C396.523 461 401 465.477 401 471V514H337V471Z" fill="#0E9FE9"/>
<path id="Rectangle 350" d="M520 437C520 431.477 524.477 427 530 427H574C579.523 427 584 431.477 584 437V512H520V437Z" fill="#0E9FE9"/>
<path id="Rectangle 352" d="M703 350C703 344.477 707.477 340 713 340H757C762.523 340 767 344.477 767 350V512H703V350Z" fill="#0E9FE9"/>
<path id="Rectangle 347" d="M218 136C218 130.477 222.477 126 228 126H272C277.523 126 282 130.477 282 136V512H218V136Z" fill="#F08A47"/>
<path id="Rectangle 349" d="M401 330C401 324.477 405.477 320 411 320H455C460.523 320 465 324.477 465 330V514H401V330Z" fill="#F08A47"/>
<path id="Rectangle 351" d="M584 321C584 315.477 588.477 311 594 311H638C643.523 311 648 315.477 648 321V512H584V321Z" fill="#F08A47"/>
<path id="Rectangle 353" d="M767 178C767 172.477 771.477 168 777 168H821C826.523 168 831 172.477 831 178V512H767V178Z" fill="#F08A47"/>
<g id="Group 1263">
<g id="Group 1262">
<g id="Group 1261">
<text id="Baixo peso (%)" fill="#242628" xml:space="preserve" style="white-space: pre" font-family="'Montserrat', sans-serif" font-size="12" letter-spacing="0em"><tspan x="750" y="134.302">Baixo peso (%)</tspan></text>
<rect id="Rectangle 356" x="718" y="126" width="25" height="9" rx="2" fill="#0E9FE9"/>
</g>
<g id="Group 1260">
<text id="Baixa estatura (%)" fill="#242628" xml:space="preserve" style="white-space: pre" font-family="'Montserrat', sans-serif" font-size="12" letter-spacing="0em"><tspan x="750" y="151.302">Baixa estatura (%)</tspan></text>
<rect id="Rectangle 357" x="718" y="143" width="25" height="9" rx="2" fill="#F08A47"/>
</g>
</g>
<rect id="Rectangle 358" x="714.5" y="119.5" width="145" height="38" rx="2.5" stroke="#AAB1B6"/>
</g>
</g>
</g>
</g>
</g>
</g>
</g>
</g>
</g>
</svg>
