<svg width="1140" height="185" viewBox="0 0 1140 185" fill="none" xmlns="http://www.w3.org/2000/svg">
<g id="Group 1243">
<g id="Group 1242">
<g id="Group 1241">
<g id="Group 1142">
<rect id="Rectangle 200" x="1" y="15" width="549" height="169" rx="11" fill="#FEF6EE" stroke="#F08A47" stroke-width="2"/>
<g id="Frame 708">
<text id="Entre as popula&#195;&#167;&#195;&#181;es ind&#195;&#173;genas, a preval&#195;&#170;ncia nacional de baixa estatura &#195;&#169; de 26%, mas na Regi&#195;&#163;o Norte o &#195;&#173;ndice chega a 41%." fill="#242628" xml:space="preserve" style="white-space: pre" font-family="'Montserrat', sans-serif" font-size="18" letter-spacing="0em"><tspan x="46" y="95.953">Entre as popula&#xe7;&#xf5;es ind&#xed;genas, a preval&#xea;ncia </tspan><tspan x="46" y="120.953">nacional de baixa estatura &#xe9; de 26%, mas na </tspan><tspan x="46" y="145.953">Regi&#xe3;o Norte o &#xed;ndice chega a 41%.</tspan></text>
</g>
<g id="Group 1139">
<path id="Rectangle 203" d="M0 12C0 5.37258 5.37258 0 12 0H539C545.627 0 551 5.37258 551 12V35C551 41.6274 545.627 47 539 47H4.00001C1.79087 47 0 45.2091 0 43V12Z" fill="#F08A47"/>
<text id="Popula&#195;&#167;&#195;&#181;es ind&#195;&#173;genas" fill="white" xml:space="preserve" style="white-space: pre" font-family="'Montserrat', sans-serif" font-size="18" font-weight="600" letter-spacing="0em"><tspan x="173.731" y="30.2806">Popula&#xe7;&#xf5;es ind&#xed;genas</tspan></text>
</g>
<rect id="Rectangle 203_2" x="590" y="17" width="549" height="167" rx="11" fill="#FEF6EE" stroke="#B73D17" stroke-width="2"/>
<g id="Group 1140">
<path id="Rectangle 203_3" d="M589 12C589 5.37258 594.373 0 601 0H1128C1134.63 0 1140 5.37258 1140 12V35C1140 41.6274 1134.63 47 1128 47H593C590.791 47 589 45.2091 589 43V12Z" fill="#B73D17"/>
<text id="Povos Yanomami" fill="white" xml:space="preserve" style="white-space: pre" font-family="'Montserrat', sans-serif" font-size="18" font-weight="600" letter-spacing="0em"><tspan x="784.599" y="30.453">Povos Yanomami</tspan></text>
</g>
</g>
</g>
</g>
<text id="Nos povos Yanomami, localizados no estado de Roraima, 80% das crian&#195;&#167;as menores de cinco anos apresentam baixa estatura." fill="#242628" xml:space="preserve" style="white-space: pre" font-family="'Montserrat', sans-serif" font-size="18" letter-spacing="0em"><tspan x="640" y="95.953">Nos povos Yanomami, localizados no estado de </tspan><tspan x="640" y="120.953">Roraima, 80% das crian&#xe7;as menores de cinco anos </tspan><tspan x="640" y="145.953">apresentam baixa estatura.</tspan></text>
</g>
</svg>
