<svg width="259" height="48" viewBox="0 0 259 48" fill="none" xmlns="http://www.w3.org/2000/svg">
<g id="Botao_primario">
<rect width="259" height="48" rx="12" fill="#0C476E"/>
<text id="Avan&#195;&#167;ar" fill="white" xml:space="preserve" style="white-space: pre" font-family="'Montserrat', sans-serif" font-size="18" font-weight="600" letter-spacing="0em"><tspan x="24" y="30.453">Ir para a Unidade 2</tspan></text>
<g id="uil:arrow-up">
<path id="Vector" d="M223.715 18.2859L228.715 23.2859C228.806 23.381 228.877 23.4932 228.925 23.6159C229.025 23.8594 229.025 24.1324 228.925 24.3759C228.877 24.4987 228.806 24.6108 228.715 24.7059L223.715 29.7059C223.622 29.7991 223.511 29.8731 223.389 29.9236C223.267 29.974 223.137 30 223.005 30C222.739 30 222.483 29.8942 222.295 29.7059C222.107 29.5176 222.001 29.2622 222.001 28.9959C222.001 28.7296 222.107 28.4742 222.295 28.2859L225.595 24.9959H218.005C217.74 24.9959 217.485 24.8906 217.298 24.703C217.11 24.5155 217.005 24.2611 217.005 23.9959C217.005 23.7307 217.11 23.4763 217.298 23.2888C217.485 23.1013 217.74 22.9959 218.005 22.9959H225.595L222.295 19.7059C222.201 19.6129 222.127 19.5023 222.076 19.3805C222.025 19.2586 221.999 19.1279 221.999 18.9959C221.999 18.8639 222.025 18.7332 222.076 18.6113C222.127 18.4895 222.201 18.3789 222.295 18.2859C222.388 18.1922 222.499 18.1178 222.62 18.067C222.742 18.0162 222.873 17.9901 223.005 17.9901C223.137 17.9901 223.268 18.0162 223.39 18.067C223.511 18.1178 223.622 18.1922 223.715 18.2859Z" fill="white"/>
</g>
</g>
</svg>
