<svg width="1145" height="379" viewBox="0 0 1145 379" fill="none" xmlns="http://www.w3.org/2000/svg">
<g id="modal">
<rect width="1145" height="379" rx="16" fill="white"/>
<g id="Group 1129">
<g id="Group 1239">
<path id="Rectangle 173" d="M1085.43 76.6753C1095.01 76.6755 1102.77 84.4363 1102.77 94.0103V286.469C1102.77 302.296 1089.94 315.126 1074.11 315.126H107.57C97.9962 315.126 90.2354 307.365 90.2354 297.791V94.0103C90.2354 84.4362 97.9963 76.6754 107.57 76.6753H1085.43Z" stroke="#F9D650" stroke-width="3.53785"/>
<rect id="Rectangle 172" x="73.961" y="61.8159" width="1012.53" height="237.036" rx="24.4112" stroke="#F2A71B" stroke-width="6.36814"/>
</g>
<g id="Group 1238">
<rect id="Rectangle 175" x="46.2881" y="117.081" width="70.4619" height="127.138" fill="white"/>
<g id="icon">
<path fill-rule="evenodd" clip-rule="evenodd" d="M44 157.25C44 144.952 53.969 134.983 66.2664 134.983H86.6255C92.5309 134.983 98.1945 137.329 102.37 141.505L110.137 149.272C114.313 153.448 116.659 159.111 116.659 165.017V184.279C116.659 185.535 115.989 186.695 114.902 187.323C113.815 187.951 112.475 187.952 111.387 187.325C108.758 185.809 105.202 186.507 103.438 189.376L99.5385 195.717C99.0715 196.477 98.3334 197.031 97.4736 197.266L90.5696 199.16C86.3707 200.312 84.8778 205.412 87.4817 208.737L92.1233 214.663C92.6488 215.334 92.9127 216.173 92.8659 217.024L92.5335 223.07C92.431 224.934 90.8897 226.393 89.023 226.393H66.2664C53.969 226.393 44 216.424 44 204.126V157.25ZM61.5787 163.109C59.637 163.109 58.063 164.683 58.063 166.625C58.063 168.567 59.637 170.141 61.5787 170.141H80.3293C82.271 170.141 83.8451 168.567 83.8451 166.625C83.8451 164.683 82.271 163.109 80.3293 163.109H61.5787ZM61.5787 181.86C59.637 181.86 58.063 183.434 58.063 185.376C58.063 187.317 59.637 188.891 61.5787 188.891H89.7046C91.6463 188.891 93.2204 187.317 93.2204 185.376C93.2204 183.434 91.6463 181.86 89.7046 181.86H61.5787ZM61.5787 200.611C59.637 200.611 58.063 202.185 58.063 204.126C58.063 206.068 59.637 207.642 61.5787 207.642H75.6417C77.5834 207.642 79.1574 206.068 79.1574 204.126C79.1574 202.185 77.5834 200.611 75.6417 200.611H61.5787Z" fill="#F2A71B"/>
<path fill-rule="evenodd" clip-rule="evenodd" d="M106.433 191.217C107.379 189.679 109.532 189.679 110.478 191.217L115.325 199.1C115.65 199.629 116.154 200.012 116.737 200.171L125.411 202.551C127.104 203.015 127.769 205.154 126.661 206.569L120.982 213.82C120.601 214.307 120.408 214.926 120.443 215.554L120.957 224.907C121.057 226.732 119.316 228.054 117.684 227.39L109.328 223.989C108.767 223.761 108.144 223.761 107.583 223.989L99.2261 227.39C97.5949 228.054 95.8531 226.732 95.9535 224.907L96.4678 215.554C96.5023 214.926 96.3098 214.307 95.9284 213.82L90.2496 206.569C89.141 205.154 89.8063 203.015 91.4996 202.551L100.174 200.171C100.756 200.012 101.26 199.629 101.586 199.1L106.433 191.217ZM107.576 202.783L108.455 201.352L109.335 202.783C110.565 204.783 112.521 206.306 114.877 206.952L116.978 207.529L115.446 209.484C113.994 211.338 113.296 213.642 113.422 215.94L113.541 218.113L111.979 217.477C109.718 216.557 107.193 216.557 104.932 217.477L103.369 218.113L103.489 215.94C103.615 213.642 102.916 211.338 101.464 209.484L99.9324 207.529L102.034 206.952C104.39 206.306 106.346 204.783 107.576 202.783Z" fill="#F2A71B"/>
</g>
</g>
<g id="Group 1111">
<text id="DESTAQUE" fill="#F2A71B" xml:space="preserve" style="white-space: pre" font-family="'Montserrat', sans-serif" font-size="33.9634" font-weight="bold" letter-spacing="0em"><tspan x="150" y="145.829">DESTAQUE</tspan></text>
<text id="&#195;&#137; importante destacar que a desnutri&#195;&#167;&#195;&#163;o raramente ocorre isoladamente; frequentemente est&#195;&#161; associada a outras car&#195;&#170;ncias nutricionais, como anemia, defici&#195;&#170;ncia de vitamina A e car&#195;&#170;ncias menos evidentes de c&#195;&#161;lcio, iodo, zinco e vitaminas do complexo B (Taddei et al., 2011)." fill="#242628" xml:space="preserve" style="white-space: pre" font-family="'Montserrat', sans-serif" font-size="19" font-weight="500" letter-spacing="0em"><tspan x="150" y="203.183">&#xc9; importante destacar que a desnutri&#xe7;&#xe3;o raramente ocorre isoladamente; frequentemente </tspan><tspan x="150" y="226.183">est&#xe1; associada a outras car&#xea;ncias nutricionais, como anemia, defici&#xea;ncia de vitamina A e </tspan><tspan x="150" y="249.183">car&#xea;ncias menos evidentes de c&#xe1;lcio, iodo, zinco e vitaminas do complexo B (Taddei et al., 2011).</tspan></text>
</g>
</g>
<g id="material-symbols:close-rounded">
<rect x="1099" y="20" width="24" height="24" rx="12" fill="#075585"/>
<path id="Vector" d="M1111 33.3998L1106.1 38.2998C1105.92 38.4831 1105.68 38.5748 1105.4 38.5748C1105.12 38.5748 1104.88 38.4831 1104.7 38.2998C1104.52 38.1165 1104.42 37.8831 1104.42 37.5998C1104.42 37.3165 1104.52 37.0831 1104.7 36.8998L1109.6 31.9998L1104.7 27.0998C1104.52 26.9165 1104.42 26.6831 1104.42 26.3998C1104.42 26.1165 1104.52 25.8831 1104.7 25.6998C1104.88 25.5165 1105.12 25.4248 1105.4 25.4248C1105.68 25.4248 1105.92 25.5165 1106.1 25.6998L1111 30.5998L1115.9 25.6998C1116.08 25.5165 1116.32 25.4248 1116.6 25.4248C1116.88 25.4248 1117.12 25.5165 1117.3 25.6998C1117.48 25.8831 1117.57 26.1165 1117.57 26.3998C1117.57 26.6831 1117.48 26.9165 1117.3 27.0998L1112.4 31.9998L1117.3 36.8998C1117.48 37.0831 1117.57 37.3165 1117.57 37.5998C1117.57 37.8831 1117.48 38.1165 1117.3 38.2998C1117.12 38.4831 1116.88 38.5748 1116.6 38.5748C1116.32 38.5748 1116.08 38.4831 1115.9 38.2998L1111 33.3998Z" fill="white"/>
</g>
</g>
</svg>
