<svg width="663" height="316" viewBox="0 0 663 316" fill="none" xmlns="http://www.w3.org/2000/svg">
<g id="Property 1=Group 1292">
<rect id="Rectangle 368" x="52.2178" y="98" width="166" height="96" fill="#FDF5EF"/>
<rect id="Rectangle 369" width="22" height="38" transform="matrix(-1 0 0 1 52.2178 156)" fill="#FDF5EF"/>
<rect id="Rectangle 362" x="249.218" width="400" height="294" fill="#85D1EF"/>
<text id="Secund&#195;&#161;ria" fill="#075585" xml:space="preserve" style="white-space: pre" font-family="'Montserrat', sans-serif" font-size="24" font-weight="bold" letter-spacing="0em"><tspan x="73.9717" y="155.604">Secund&#xe1;ria</tspan></text>
<path id="Polygon 1" d="M284.235 147L218.235 219.746L218.235 74.2539L284.235 147Z" fill="#CBF8FC"/>
<text id="Desencadeada por doen&#195;&#167;as cr&#195;&#180;nicas n&#195;&#163;o transmiss&#195;&#173;veis (DCNTs), incluindo doen&#195;&#167;as card&#195;&#173;acas, renais, end&#195;&#179;crinas e gen&#195;&#169;ticas, que afetam o metabolismo fisiol&#195;&#179;gico e aumentam a demanda de nutrientes, resultando em d&#195;&#169;ficit nutricional." fill="#242628" xml:space="preserve" style="white-space: pre" font-family="'Montserrat', sans-serif" font-size="20" font-weight="600" letter-spacing="0em"><tspan x="298.218" y="42.17">Desencadeada por doen&#xe7;as </tspan><tspan x="298.218" y="70.17">cr&#xf4;nicas n&#xe3;o transmiss&#xed;veis </tspan><tspan x="298.218" y="98.17">(DCNTs), incluindo doen&#xe7;as </tspan><tspan x="298.218" y="126.17">card&#xed;acas, renais, end&#xf3;crinas e </tspan><tspan x="298.218" y="154.17">gen&#xe9;ticas, que afetam o </tspan><tspan x="298.218" y="182.17">metabolismo fisiol&#xf3;gico e </tspan><tspan x="298.218" y="210.17">aumentam a demanda de </tspan><tspan x="298.218" y="238.17">nutrientes, resultando em d&#xe9;ficit </tspan><tspan x="298.218" y="266.17">nutricional. </tspan></text>
<g id="Group">
<g id="Group_2">
<path id="Vector" d="M31.734 176.733L43.1639 164.88C61.7075 145.777 69.7981 137.969 69.7981 121.239C69.7981 107.018 56.8309 96.0005 37.7286 96.0005C35.2255 96.0005 32.8039 96.1739 30.4797 96.5166C14.9608 98.7915 3.9052 108.576 2.45007 124.584L22.1123 128.77C22.4221 121.494 24.9793 116.075 30.4797 113.794C32.3585 113.007 34.5792 112.594 37.1693 112.594C44.4182 112.594 50.1359 115.244 50.1359 122.216C50.1359 130.86 42.0508 138.669 34.242 146.754L30.4791 150.642L0.217773 181.892V195H73.8373V176.733H31.734Z" fill="white"/>
<path id="Vector_2" d="M37.7286 97.8258C55.2529 97.8258 67.9723 107.672 67.9723 121.239C67.9723 136.724 60.8087 144.098 43.5011 161.912L41.85 163.612L30.4195 175.466C29.9113 175.993 29.7671 176.773 30.0531 177.447C30.3398 178.121 31.0013 178.559 31.7334 178.559H72.0115V193.174H2.04414V182.631L31.7919 151.912L35.5566 148.023C36.0069 147.556 36.4579 147.091 36.9082 146.627C44.6501 138.642 51.9622 131.101 51.9622 122.216C51.9622 114.941 46.5708 110.769 37.1699 110.769C34.3875 110.769 31.8996 111.22 29.7811 112.108C23.2601 114.811 21.0521 121.078 20.4502 126.55L4.45171 123.144C6.31825 109.52 15.8189 100.511 30.7463 98.323C32.9829 97.9931 35.3326 97.8258 37.7286 97.8258ZM37.7286 96C35.2255 96 32.8039 96.1734 30.4797 96.5161C14.9608 98.791 3.9052 108.576 2.45007 124.583L22.1123 128.77C22.4214 121.494 24.9793 116.075 30.4797 113.794C32.3585 113.006 34.5792 112.594 37.1693 112.594C44.4182 112.594 50.1359 115.244 50.1359 122.215C50.1359 130.86 42.0508 138.669 34.242 146.754L30.4791 150.641L0.217773 181.891V194.999H73.8373V176.732H31.734L43.1639 164.879C61.7075 145.776 69.7981 137.968 69.7981 121.238C69.7981 107.018 56.8315 96 37.7286 96Z" fill="#065281"/>
</g>
</g>
</g>
</svg>
