<svg width="663" height="310" viewBox="0 0 663 310" fill="none" xmlns="http://www.w3.org/2000/svg">
<g id="Component 7">
<path id="Vector" d="M50.2891 1.05771V29.4487C53.3761 28.1547 57.0251 27.4767 61.2811 27.4767C73.1921 27.4767 82.5871 31.8307 82.5871 43.2867C82.5871 57.4907 69.3021 70.3217 56.4721 83.6067L50.2891 89.9947V162.881H121.534H305.015V0.209717H62.2001L50.2891 1.05771Z" fill="#33B2E4"/>
<g id="Group">
<g id="Group_2">
<path id="Vector_2" d="M52.35 132.867L71.131 113.39C101.601 82.0007 114.895 69.1707 114.895 41.6817C114.895 18.3147 93.588 0.210693 62.2 0.210693C58.087 0.210693 54.108 0.495685 50.289 1.05869C24.789 4.79669 6.62296 20.8747 4.23196 47.1777L36.54 54.0567C37.049 42.1007 41.251 33.1967 50.289 29.4487C53.376 28.1547 57.025 27.4767 61.281 27.4767C73.192 27.4767 82.587 31.8307 82.587 43.2867C82.587 57.4907 69.302 70.3217 56.471 83.6067L50.288 89.9947L0.563965 141.343V162.882H121.532V132.867H52.35Z" fill="white"/>
<path id="Vector_3" d="M62.2 3.20972C90.995 3.20972 111.895 19.3887 111.895 41.6807C111.895 67.1257 100.124 79.2417 71.685 108.514L68.972 111.307L50.19 130.784C49.355 131.65 49.118 132.932 49.588 134.04C50.059 135.148 51.146 135.867 52.349 135.867H118.532V159.882H3.56496V142.558L52.445 92.0817L58.631 85.6907C59.371 84.9247 60.112 84.1597 60.852 83.3967C73.573 70.2777 85.588 57.8867 85.588 43.2867C85.588 31.3327 76.729 24.4767 61.282 24.4767C56.71 24.4767 52.622 25.2187 49.141 26.6777C38.426 31.1197 34.798 41.4167 33.809 50.4077L7.52097 44.8107C10.588 22.4247 26.199 7.6227 50.727 4.0267C54.402 3.4847 58.263 3.20972 62.2 3.20972ZM62.2 0.209717C58.087 0.209717 54.108 0.494709 50.289 1.05771C24.789 4.79571 6.62296 20.8737 4.23196 47.1767L36.54 54.0557C37.048 42.0997 41.251 33.1957 50.289 29.4477C53.376 28.1537 57.025 27.4757 61.281 27.4757C73.192 27.4757 82.587 31.8297 82.587 43.2857C82.587 57.4897 69.302 70.3207 56.471 83.6057L50.288 89.9937L0.563965 141.342V162.88H121.532V132.865H52.35L71.131 113.388C101.601 81.9987 114.895 69.1687 114.895 41.6797C114.895 18.3137 93.589 0.209717 62.2 0.209717Z" fill="#065281"/>
</g>
</g>
<path id="Vector_4" d="M305 162.956L354 264.639V102.323L305 0.638672V162.956Z" fill="#5CC1E9"/>
<rect id="Rectangle 362" x="354" y="71.377" width="309" height="238" fill="#85D1EF"/>
<text id="Secund&#195;&#161;ria" fill="#075585" xml:space="preserve" style="white-space: pre" font-family="'Montserrat', sans-serif" font-size="30" font-weight="bold" letter-spacing="0em"><tspan x="114.053" y="100.017">Secund&#xe1;ria</tspan></text>
<text id="Desencadeada por doen&#195;&#167;as cr&#195;&#180;nicas n&#195;&#163;o transmiss&#195;&#173;veis (DCNTs), incluindo doen&#195;&#167;as card&#195;&#173;acas, renais, end&#195;&#179;crinas e gen&#195;&#169;ticas, que afetam o metabolismo fisiol&#195;&#179;gico e aumentam a demanda de nutrientes, resultando em d&#195;&#169;ficit nutricional." fill="#242628" xml:space="preserve" style="white-space: pre" font-family="'Montserrat', sans-serif" font-size="16" letter-spacing="0em"><tspan x="370" y="107.49">Desencadeada por doen&#xe7;as </tspan><tspan x="370" y="129.49">cr&#xf4;nicas n&#xe3;o transmiss&#xed;veis </tspan><tspan x="370" y="151.49">(DCNTs), incluindo doen&#xe7;as </tspan><tspan x="370" y="173.49">card&#xed;acas, renais, end&#xf3;crinas e </tspan><tspan x="370" y="195.49">gen&#xe9;ticas, que afetam o </tspan><tspan x="370" y="217.49">metabolismo fisiol&#xf3;gico e </tspan><tspan x="370" y="239.49">aumentam a demanda de </tspan><tspan x="370" y="261.49">nutrientes, resultando em d&#xe9;ficit </tspan><tspan x="370" y="283.49">nutricional. </tspan></text>
</g>
</svg>
