<svg width="468" height="538" viewBox="0 0 468 538" fill="none" xmlns="http://www.w3.org/2000/svg">
<path fill-rule="evenodd" clip-rule="evenodd" d="M447.542 159.36C509.261 181.316 420.723 -97.1614 357.122 -18.6891C283.419 72.3314 413.16 147.119 447.542 159.36Z" fill="#DD5219"/>
<path fill-rule="evenodd" clip-rule="evenodd" d="M433.246 197.337C477.189 162.068 249.623 94.2432 271.692 178.988C297.257 277.505 408.775 217.04 433.246 197.337Z" fill="#DD5219"/>
<path fill-rule="evenodd" clip-rule="evenodd" d="M449.959 235.279C456.016 187.62 286.569 287.84 346.109 323.879C415.284 365.664 446.603 261.794 449.959 235.279Z" fill="#DD5219"/>
<path fill-rule="evenodd" clip-rule="evenodd" d="M483.476 245.665C461.748 215.592 420.636 370.829 472.602 355.948C532.868 338.663 495.599 262.332 483.476 245.665Z" fill="#DD5219"/>
<path d="M426.395 118.569C430.147 93.0018 429.071 66.8708 424.666 41.4707C419.91 14.3125 411.359 -11.9448 400.871 -37.2885C395.432 -50.3384 389.564 -63.1426 383.41 -75.7829C377.256 -88.4233 370.887 -100.941 363.375 -112.803C350.276 -133.515 333.018 -152.237 310.798 -161.551C300.299 -165.921 288.253 -168.622 277.081 -166.042C265.909 -163.462 256.8 -153.834 251.085 -143.015C245.337 -132.08 241.676 -119.793 238.919 -107.729C236.097 -95.4325 234.379 -82.7893 233.611 -70.102C232.062 -44.0341 232.918 -15.8175 245.343 7.5351C251.847 19.7785 260.705 30.4782 269.971 40.3557C278.561 49.6407 287.853 58.1319 297.599 66.0686C317.053 81.8664 338.17 95.1438 359.897 107.092C365.208 110.025 370.663 112.877 376.117 115.728C381.312 118.435 386.545 121.217 391.909 123.533C397.272 125.848 402.063 127.415 407.451 127.267C412.982 127.037 417.999 124.554 421.676 120.194C425.353 115.834 427.496 110.295 428.651 104.637C429.805 98.9784 429.314 104.845 429.431 105.072C429.743 105.677 429.887 106.672 429.763 107.331C427.493 118.723 420.406 129.936 408.402 130.543C403.091 130.842 397.858 129.138 393.015 127.112C387.47 124.802 382.158 121.869 376.853 119.127C354.112 107.369 331.735 94.5197 310.877 79.2323C290.019 63.9448 270.35 46.115 254.683 24.9141C246.541 13.8048 240.218 1.55509 236.618 -12.0587C233.181 -25.1779 232.018 -38.9144 231.883 -52.4556C231.619 -78.2684 234.702 -104.235 242.869 -128.608C246.835 -140.482 251.92 -152.703 260.996 -161.137C265.375 -165.214 270.633 -168.128 276.345 -169.441C282.24 -170.761 288.409 -170.474 294.382 -169.488C317.328 -165.587 337.126 -150.378 351.823 -131.953C360.655 -120.944 367.959 -108.767 374.62 -96.2211C381.398 -83.4484 387.676 -70.389 393.557 -57.2004C405.384 -31.0564 415.568 -3.97051 422.215 24.1613C428.115 49.5867 431.167 75.9572 429.586 102.142C429.185 108.544 428.564 114.876 427.579 121.221C427.494 121.956 426.916 121.013 426.798 120.787C426.447 120.106 426.382 119.262 426.466 118.528L426.395 118.569Z" fill="white"/>
<path d="M383.972 169.524C366.678 158.269 348.091 149.715 328.843 143.107C309.666 136.459 289.898 131.717 270.052 127.9C259.964 125.94 249.921 124.248 239.846 122.672C229.66 121.062 219.474 119.452 209.262 118.15C188.988 115.657 167.682 114.932 148.355 123.066C143.182 125.246 138.178 128.113 134.241 132.328C130.304 136.543 128.641 140.141 127.343 144.804C124.435 154.602 125.454 165.188 128.733 174.772C132.345 185.538 138.433 195.179 144.936 204.19C151.251 213.015 157.852 221.676 164.947 229.859C172.003 237.965 179.838 245.429 188.849 251.044C197.86 256.659 208.618 260.096 219.058 262.737C229.498 265.378 240.093 267.243 250.844 266.179C261.594 265.114 273.09 261.369 283.742 257.421C294.537 253.392 305.201 248.752 315.403 243.396C325.749 237.959 335.593 231.73 345.087 224.822C353.514 218.719 362.514 213.367 370.669 206.735C374.75 203.515 378.635 199.917 382.033 195.913C385.43 191.909 388.347 187.69 390.263 182.968C391.873 178.91 391.832 173.447 387.288 171.641C382.743 169.836 385.96 167.993 386.994 168.38C391.317 170.117 393.288 175.551 393.043 180.101C392.746 185.268 389.771 189.912 386.998 194.048C380.859 203.15 372.347 209.986 363.627 216.06C354.907 222.134 354.757 222.024 350.345 225.14C345.933 228.256 340.813 231.973 335.894 235.183C325.984 241.645 315.684 247.35 304.994 252.299C294.09 257.371 282.834 261.763 271.402 265.275C260.62 268.611 249.5 270.574 238.242 269.578C232.795 269.073 227.439 268.027 222.147 266.748C216.745 265.434 211.265 263.969 205.993 262.188C195.631 258.621 186.12 253.293 177.667 245.889C169.403 238.671 162.263 230.221 155.441 221.49C148.502 212.533 141.595 203.459 135.793 193.654C129.953 183.774 125.385 172.772 124.295 161.149C123.381 151.483 124.956 141.077 130.367 133.078C136.538 123.859 147.352 119.329 157.315 116.56C167.603 113.703 178.256 112.988 188.799 113.316C199.524 113.638 210.138 115.003 220.76 116.56C231.088 118.088 241.456 119.692 251.792 121.413C272.501 124.93 293.088 129.105 313.298 135.063C333.06 140.691 352.524 148.253 370.766 158.474C375.298 160.973 379.725 163.629 384.049 166.443C384.868 166.953 385.162 170.214 383.933 169.448L383.972 169.524Z" fill="white"/>
<path d="M393.908 245.265C375.925 246.181 358.27 250.43 341.543 257.374C324.816 264.318 308.58 274.011 293.969 285.413C278.968 297.137 265.343 310.81 252.992 325.513C247.028 332.646 241.18 340.005 236.081 347.913C231.437 355.267 227 363.382 225.249 372.208C224.432 376.196 224.317 380.466 225.575 384.341C227.002 388.901 229.977 392.868 233.011 396.409C237.896 401.921 243.699 406.516 250.121 409.974C262.894 416.931 277.863 419.697 292.069 417.033C306.275 414.369 309.211 411.612 317.279 407.478C325.348 403.344 333.892 398.155 340.967 391.559C353.673 379.88 362.975 364.479 369.845 348.321C376.715 332.163 373.182 340.053 374.871 335.957C376.631 331.82 378.54 327.793 380.449 323.766C384.34 315.67 388.347 307.801 391.905 299.602C395.295 291.794 398.021 283.779 400.194 275.591C402.368 267.404 401.847 268.191 402.234 264.449C402.575 261.516 403.255 257.802 402.178 254.997C401.101 252.192 398.332 250.063 396.227 248.14C394.122 246.218 395.587 244.205 397.088 245.496C399.57 247.789 402.345 250.11 403.727 253.327C405.109 256.544 404.853 259.82 404.629 262.98C403.912 271.115 402.09 278.905 399.644 286.564C394.028 304.253 384.634 320.194 377.204 337.064C375.373 341.243 373.73 345.606 371.937 349.86C370.217 354.072 368.275 358.216 366.183 362.25C362.033 370.201 357.252 377.829 351.607 384.681C345.962 391.533 339.244 397.924 331.786 402.881C324.329 407.839 323.067 408.269 318.545 410.468C314.205 412.662 309.754 414.82 305.291 416.595C297.731 419.558 289.945 421.183 281.887 421.205C274.486 421.241 267.041 419.933 259.993 417.42C252.946 414.907 246.264 411.304 240.382 406.559C237.387 404.169 234.638 401.539 232.137 398.67C228.954 395.018 226.05 391.011 224.364 386.306C221.354 377.959 223.171 368.901 226.443 360.866C230.054 352.05 235.148 343.95 240.768 336.33C252.391 320.577 265.731 305.992 280.071 292.985C294.449 280.054 310.159 268.804 327.194 260.12C343.623 251.88 361.403 245.898 379.732 243.316C398.062 240.734 388.63 242.226 393.144 241.987C397.657 241.748 395.183 245.219 393.908 245.265Z" fill="white"/>
<path d="M438.714 281.502C428.565 291.628 423.215 305.666 418.47 319.261C413.724 332.855 409.641 346.658 406.553 360.772C403.465 374.887 401.553 389.307 401.104 403.869C400.655 418.431 400.708 418.891 401.907 426.238C402.545 429.987 403.801 433.677 405.7 436.998C407.639 440.394 410.22 443.422 412.938 446.176C417.77 451.05 423.42 456.434 430.142 457.972C436.571 459.481 443.089 457.216 448.938 454.551C460.668 449.104 471.773 441.37 480.355 431.26C484.558 426.304 488.196 420.791 490.832 414.774C493.605 408.482 495.195 401.693 495.868 394.742C497.253 379.84 494.12 364.979 489.629 350.895C487.215 343.167 484.332 335.609 481.56 328.085C478.788 320.561 475.984 313.154 472.744 305.801C469.543 298.523 465.874 291.415 461.458 284.833C459.305 281.559 456.938 278.409 454.395 275.457C452.158 272.917 449.655 270.041 446.385 269.269C443.85 268.664 440.464 269.82 439.724 272.693C438.984 275.566 438.957 272.643 438.801 272.34C438.489 271.735 438.274 270.781 438.469 270.081C439.28 267.167 442.217 265.68 444.96 265.97C447.703 266.26 450.85 268.768 453.009 271.156C458.498 277.123 463.07 284.008 467.031 291.144C474.999 305.684 480.609 321.576 486.172 337.2C491.645 352.288 496.552 367.896 497.436 384.144C498.222 398.586 495.544 412.956 488.165 425.218C481.027 437.048 470.553 446.184 459.09 453.046C453.339 456.439 447.224 459.844 440.712 461.224C434.2 462.604 434.258 462.178 431.027 461.482C427.614 460.792 424.494 459.052 421.763 456.992C419.032 454.931 415.989 452.266 413.31 449.588C410.482 446.799 407.861 443.696 405.773 440.189C401.487 433.141 400.19 425.066 399.836 416.843C399.212 401.818 400.369 386.654 402.814 371.831C405.258 357.008 408.95 342.449 413.416 328.133C415.721 320.934 418.136 313.769 420.921 306.785C423.635 299.841 426.753 292.96 430.988 286.81C432.963 283.817 435.236 281.045 437.738 278.534C440.239 276.023 439.39 281.017 438.792 281.653L438.714 281.502Z" fill="white"/>
</svg>
