<svg width="350" height="84" viewBox="0 0 350 84" fill="none" xmlns="http://www.w3.org/2000/svg">
<g id="Group 1525">
<g id="Group 1371">
<g id="Frame 853" filter="url(#filter0_d_2495_27634)">
<rect x="16" width="334" height="68" rx="15" fill="#075585" shape-rendering="crispEdges"/>
<path id="tomada de opini&#195;&#163;o" d="M78.5501 30V16.368H73.1741V13.2H87.8141V16.368H82.4381V30H78.5501ZM97.8317 30.288C96.5037 30.288 95.2717 30.072 94.1357 29.64C93.0157 29.208 92.0397 28.6 91.2077 27.816C90.3917 27.032 89.7517 26.112 89.2877 25.056C88.8397 24 88.6157 22.848 88.6157 21.6C88.6157 20.352 88.8397 19.2 89.2877 18.144C89.7517 17.088 90.3997 16.168 91.2317 15.384C92.0637 14.6 93.0397 13.992 94.1597 13.56C95.2797 13.128 96.4957 12.912 97.8077 12.912C99.1357 12.912 100.352 13.128 101.456 13.56C102.576 13.992 103.544 14.6 104.36 15.384C105.192 16.168 105.84 17.088 106.304 18.144C106.768 19.184 107 20.336 107 21.6C107 22.848 106.768 24.008 106.304 25.08C105.84 26.136 105.192 27.056 104.36 27.84C103.544 28.608 102.576 29.208 101.456 29.64C100.352 30.072 99.1437 30.288 97.8317 30.288ZM97.8077 26.976C98.5597 26.976 99.2477 26.848 99.8717 26.592C100.512 26.336 101.072 25.968 101.552 25.488C102.032 25.008 102.4 24.44 102.656 23.784C102.928 23.128 103.064 22.4 103.064 21.6C103.064 20.8 102.928 20.072 102.656 19.416C102.4 18.76 102.032 18.192 101.552 17.712C101.088 17.232 100.536 16.864 99.8957 16.608C99.2557 16.352 98.5597 16.224 97.8077 16.224C97.0557 16.224 96.3597 16.352 95.7197 16.608C95.0957 16.864 94.5437 17.232 94.0637 17.712C93.5837 18.192 93.2077 18.76 92.9357 19.416C92.6797 20.072 92.5517 20.8 92.5517 21.6C92.5517 22.384 92.6797 23.112 92.9357 23.784C93.2077 24.44 93.5757 25.008 94.0397 25.488C94.5197 25.968 95.0797 26.336 95.7197 26.592C96.3597 26.848 97.0557 26.976 97.8077 26.976ZM109.922 30V13.2H113.138L120.29 25.056H118.586L125.618 13.2H128.81L128.858 30H125.21L125.186 18.792H125.858L120.242 28.224H118.49L112.754 18.792H113.57V30H109.922ZM130.636 30L138.124 13.2H141.964L149.476 30H145.396L139.252 15.168H140.788L134.62 30H130.636ZM134.38 26.4L135.412 23.448H144.052L145.108 26.4H134.38ZM151.219 30V13.2H158.851C160.675 13.2 162.283 13.552 163.675 14.256C165.067 14.944 166.155 15.912 166.939 17.16C167.723 18.408 168.115 19.888 168.115 21.6C168.115 23.296 167.723 24.776 166.939 26.04C166.155 27.288 165.067 28.264 163.675 28.968C162.283 29.656 160.675 30 158.851 30H151.219ZM155.107 26.808H158.659C159.779 26.808 160.747 26.6 161.563 26.184C162.395 25.752 163.035 25.144 163.483 24.36C163.947 23.576 164.179 22.656 164.179 21.6C164.179 20.528 163.947 19.608 163.483 18.84C163.035 18.056 162.395 17.456 161.563 17.04C160.747 16.608 159.779 16.392 158.659 16.392H155.107V26.808ZM168.604 30L176.092 13.2H179.932L187.444 30H183.364L177.22 15.168H178.756L172.588 30H168.604ZM172.348 26.4L173.38 23.448H182.02L183.076 26.4H172.348ZM195.984 30V13.2H203.616C205.44 13.2 207.048 13.552 208.44 14.256C209.832 14.944 210.92 15.912 211.704 17.16C212.488 18.408 212.88 19.888 212.88 21.6C212.88 23.296 212.488 24.776 211.704 26.04C210.92 27.288 209.832 28.264 208.44 28.968C207.048 29.656 205.44 30 203.616 30H195.984ZM199.872 26.808H203.424C204.544 26.808 205.512 26.6 206.328 26.184C207.16 25.752 207.8 25.144 208.248 24.36C208.712 23.576 208.944 22.656 208.944 21.6C208.944 20.528 208.712 19.608 208.248 18.84C207.8 18.056 207.16 17.456 206.328 17.04C205.512 16.608 204.544 16.392 203.424 16.392H199.872V26.808ZM219.388 19.968H227.476V22.992H219.388V19.968ZM219.676 26.88H228.82V30H215.812V13.2H228.508V16.32H219.676V26.88ZM106.093 56.288C104.765 56.288 103.533 56.072 102.397 55.64C101.277 55.208 100.301 54.6 99.4694 53.816C98.6534 53.032 98.0134 52.112 97.5494 51.056C97.1014 50 96.8774 48.848 96.8774 47.6C96.8774 46.352 97.1014 45.2 97.5494 44.144C98.0134 43.088 98.6614 42.168 99.4934 41.384C100.325 40.6 101.301 39.992 102.421 39.56C103.541 39.128 104.757 38.912 106.069 38.912C107.397 38.912 108.613 39.128 109.717 39.56C110.837 39.992 111.805 40.6 112.621 41.384C113.453 42.168 114.101 43.088 114.565 44.144C115.029 45.184 115.261 46.336 115.261 47.6C115.261 48.848 115.029 50.008 114.565 51.08C114.101 52.136 113.453 53.056 112.621 53.84C111.805 54.608 110.837 55.208 109.717 55.64C108.613 56.072 107.405 56.288 106.093 56.288ZM106.069 52.976C106.821 52.976 107.509 52.848 108.133 52.592C108.773 52.336 109.333 51.968 109.813 51.488C110.293 51.008 110.661 50.44 110.917 49.784C111.189 49.128 111.325 48.4 111.325 47.6C111.325 46.8 111.189 46.072 110.917 45.416C110.661 44.76 110.293 44.192 109.813 43.712C109.349 43.232 108.797 42.864 108.157 42.608C107.517 42.352 106.821 42.224 106.069 42.224C105.317 42.224 104.621 42.352 103.981 42.608C103.357 42.864 102.805 43.232 102.325 43.712C101.845 44.192 101.469 44.76 101.197 45.416C100.941 46.072 100.813 46.8 100.813 47.6C100.813 48.384 100.941 49.112 101.197 49.784C101.469 50.44 101.837 51.008 102.301 51.488C102.781 51.968 103.341 52.336 103.981 52.592C104.621 52.848 105.317 52.976 106.069 52.976ZM118.183 56V39.2H125.455C126.959 39.2 128.255 39.448 129.343 39.944C130.431 40.424 131.271 41.12 131.863 42.032C132.455 42.944 132.751 44.032 132.751 45.296C132.751 46.544 132.455 47.624 131.863 48.536C131.271 49.448 130.431 50.152 129.343 50.648C128.255 51.128 126.959 51.368 125.455 51.368H120.343L122.071 49.616V56H118.183ZM122.071 50.048L120.343 48.2H125.239C126.439 48.2 127.335 47.944 127.927 47.432C128.519 46.92 128.815 46.208 128.815 45.296C128.815 44.368 128.519 43.648 127.927 43.136C127.335 42.624 126.439 42.368 125.239 42.368H120.343L122.071 40.52V50.048ZM135.527 56V39.2H139.415V56H135.527ZM143.402 56V39.2H146.618L156.53 51.296H154.97V39.2H158.81V56H155.618L145.682 43.904H147.242V56H143.402ZM162.785 56V39.2H166.673V56H162.785ZM168.452 56L175.94 39.2H179.78L187.292 56H183.212L177.068 41.168H178.604L172.436 56H168.452ZM172.196 52.4L173.228 49.448H181.868L182.924 52.4H172.196ZM179.66 37.904C179.244 37.904 178.876 37.832 178.556 37.688C178.236 37.528 177.948 37.352 177.692 37.16C177.436 36.952 177.196 36.776 176.972 36.632C176.748 36.472 176.524 36.392 176.3 36.392C175.98 36.392 175.716 36.512 175.508 36.752C175.3 36.976 175.18 37.304 175.148 37.736H173.252C173.284 36.664 173.548 35.816 174.044 35.192C174.54 34.552 175.212 34.232 176.06 34.232C176.476 34.232 176.844 34.312 177.164 34.472C177.484 34.616 177.772 34.792 178.028 35C178.3 35.208 178.548 35.392 178.772 35.552C178.996 35.696 179.212 35.768 179.42 35.768C179.756 35.768 180.028 35.656 180.236 35.432C180.444 35.192 180.556 34.872 180.572 34.472H182.468C182.452 35.496 182.188 36.328 181.676 36.968C181.18 37.592 180.508 37.904 179.66 37.904ZM196.961 56.288C195.633 56.288 194.401 56.072 193.265 55.64C192.145 55.208 191.169 54.6 190.337 53.816C189.521 53.032 188.881 52.112 188.417 51.056C187.969 50 187.745 48.848 187.745 47.6C187.745 46.352 187.969 45.2 188.417 44.144C188.881 43.088 189.529 42.168 190.361 41.384C191.193 40.6 192.169 39.992 193.289 39.56C194.409 39.128 195.625 38.912 196.937 38.912C198.265 38.912 199.481 39.128 200.585 39.56C201.705 39.992 202.673 40.6 203.489 41.384C204.321 42.168 204.969 43.088 205.433 44.144C205.897 45.184 206.129 46.336 206.129 47.6C206.129 48.848 205.897 50.008 205.433 51.08C204.969 52.136 204.321 53.056 203.489 53.84C202.673 54.608 201.705 55.208 200.585 55.64C199.481 56.072 198.273 56.288 196.961 56.288ZM196.937 52.976C197.689 52.976 198.377 52.848 199.001 52.592C199.641 52.336 200.201 51.968 200.681 51.488C201.161 51.008 201.529 50.44 201.785 49.784C202.057 49.128 202.193 48.4 202.193 47.6C202.193 46.8 202.057 46.072 201.785 45.416C201.529 44.76 201.161 44.192 200.681 43.712C200.217 43.232 199.665 42.864 199.025 42.608C198.385 42.352 197.689 42.224 196.937 42.224C196.185 42.224 195.489 42.352 194.849 42.608C194.225 42.864 193.673 43.232 193.193 43.712C192.713 44.192 192.337 44.76 192.065 45.416C191.809 46.072 191.681 46.8 191.681 47.6C191.681 48.384 191.809 49.112 192.065 49.784C192.337 50.44 192.705 51.008 193.169 51.488C193.649 51.968 194.209 52.336 194.849 52.592C195.489 52.848 196.185 52.976 196.937 52.976Z" fill="white"/>
<path id="Vector" fill-rule="evenodd" clip-rule="evenodd" d="M324.563 32.8891L316.112 24L314 26.2219L321.394 34L314 41.7781L316.112 44L324.563 35.1109C324.843 34.8163 325 34.4167 325 34C325 33.5833 324.843 33.1837 324.563 32.8891Z" fill="white"/>
</g>
</g>
</g>
<defs>
<filter id="filter0_d_2495_27634" x="0" y="0" width="350" height="84" filterUnits="userSpaceOnUse" color-interpolation-filters="sRGB">
<feFlood flood-opacity="0" result="BackgroundImageFix"/>
<feColorMatrix in="SourceAlpha" type="matrix" values="0 0 0 0 0 0 0 0 0 0 0 0 0 0 0 0 0 0 127 0" result="hardAlpha"/>
<feOffset dx="-8" dy="8"/>
<feGaussianBlur stdDeviation="4"/>
<feComposite in2="hardAlpha" operator="out"/>
<feColorMatrix type="matrix" values="0 0 0 0 0 0 0 0 0 0 0 0 0 0 0 0 0 0 0.25 0"/>
<feBlend mode="normal" in2="BackgroundImageFix" result="effect1_dropShadow_2495_27634"/>
<feBlend mode="normal" in="SourceGraphic" in2="effect1_dropShadow_2495_27634" result="shape"/>
</filter>
</defs>
</svg>
