<svg width="276" height="224" viewBox="0 0 276 224" fill="none" xmlns="http://www.w3.org/2000/svg">
<g id="botao_inicio">
<rect x="-0.75" y="-0.75" width="277.5" height="225.5" rx="10.75" fill="#FDF3C8" fill-opacity="0.2"/>
<rect x="-0.75" y="-0.75" width="277.5" height="225.5" rx="10.75" stroke="#FDF5EF" stroke-width="1.5"/>
<g id="Frame 18">
<g id="Frame 9">
<g id="Group">
<g id="Vector">
<mask id="path-2-inside-1_1_9958" fill="white">
<path d="M154.835 79.6262V73.4317L153.862 73.7389V79.6262H154.835Z"/>
</mask>
<path d="M154.835 79.6262V73.4317L153.862 73.7389V79.6262H154.835Z" stroke="white" stroke-width="4" mask="url(#path-2-inside-1_1_9958)"/>
</g>
<g id="Vector_2">
<mask id="path-3-inside-2_1_9958" fill="white">
<path d="M149.152 77.1177L138.555 80.7013C138.452 80.7013 138.35 80.7013 138.248 80.7013C138.145 80.7013 138.043 80.7013 137.94 80.7013L127.343 77.1177V85.9743V86.0767C127.343 87.1518 132.207 89.5067 138.196 89.5067C144.186 89.5067 149.101 87.1518 149.101 86.0767V85.9743V77.1177H149.152Z"/>
</mask>
<path d="M149.152 77.1177L138.555 80.7013C138.452 80.7013 138.35 80.7013 138.248 80.7013C138.145 80.7013 138.043 80.7013 137.94 80.7013L127.343 77.1177V85.9743V86.0767C127.343 87.1518 132.207 89.5067 138.196 89.5067C144.186 89.5067 149.101 87.1518 149.101 86.0767V85.9743V77.1177H149.152Z" stroke="white" stroke-width="4" mask="url(#path-3-inside-2_1_9958)"/>
</g>
<g id="Vector_3">
<mask id="path-4-inside-3_1_9958" fill="white">
<path d="M127.343 75.3259L138.248 79.0631L149.152 75.3259L153.862 73.7389L154.835 73.4317L155.295 73.227L138.248 67.4932L121.149 73.227L127.343 75.3259Z"/>
</mask>
<path d="M127.343 75.3259L138.248 79.0631L149.152 75.3259L153.862 73.7389L154.835 73.4317L155.295 73.227L138.248 67.4932L121.149 73.227L127.343 75.3259Z" stroke="white" stroke-width="4" mask="url(#path-4-inside-3_1_9958)"/>
</g>
<g id="Vector_4">
<mask id="path-5-inside-4_1_9958" fill="white">
<path d="M153.247 81.0597V84.6944C153.247 85.3088 153.759 85.8207 154.374 85.8207C154.988 85.8207 155.5 85.3088 155.5 84.6944V81.0597C155.5 80.7525 155.398 80.4965 155.193 80.2917H153.606C153.401 80.4965 153.299 80.7525 153.299 81.0597H153.247Z"/>
</mask>
<path d="M153.247 81.0597V84.6944C153.247 85.3088 153.759 85.8207 154.374 85.8207C154.988 85.8207 155.5 85.3088 155.5 84.6944V81.0597C155.5 80.7525 155.398 80.4965 155.193 80.2917H153.606C153.401 80.4965 153.299 80.7525 153.299 81.0597H153.247Z" stroke="white" stroke-width="4" mask="url(#path-5-inside-4_1_9958)"/>
</g>
<g id="Vector_5">
<mask id="path-6-inside-5_1_9958" fill="white">
<path d="M153.401 79.6262V80.2918H153.555H155.142H155.295V79.6262H154.834H153.862H153.401Z"/>
</mask>
<path d="M153.401 79.6262V80.2918H153.555H155.142H155.295V79.6262H154.834H153.862H153.401Z" stroke="white" stroke-width="4" mask="url(#path-6-inside-5_1_9958)"/>
</g>
</g>
</g>
<text id="COMECE O CURSO AQUI" fill="white" xml:space="preserve" style="white-space: pre" font-family="'montserrat', sans-serif" font-size="24" font-weight="bold" letter-spacing="0em"><tspan x="69.3633" y="132.104">COMECE O </tspan><tspan x="57.1992" y="161.104">CURSO AQUI</tspan></text>
</g>
</g>
</svg>
