<svg width="276" height="224" viewBox="0 0 276 224" fill="none" xmlns="http://www.w3.org/2000/svg">
<g id="botao_inicio">
<rect x="-0.75" y="-0.75" width="277.5" height="225.5" rx="10.75" fill="#FDF3C8" fill-opacity="0.2"/>
<rect x="-0.75" y="-0.75" width="277.5" height="225.5" rx="10.75" stroke="#FDF5EF" stroke-width="1.5"/>
<g id="Frame 18">
<g id="Frame 12">
<g id="Vector">
<mask id="path-2-inside-1_1_10056" fill="white">
<path d="M128 64.4624V83.9296C128 84.1632 128.187 84.3528 128.417 84.3528H133.7C134.031 84.3528 134.349 84.4866 134.584 84.7247C134.818 84.9628 134.95 85.2857 134.95 85.6224C134.95 85.9592 134.818 86.2821 134.584 86.5202C134.349 86.7583 134.031 86.892 133.7 86.892H128.417C127.643 86.892 126.901 86.5799 126.354 86.0244C125.807 85.4688 125.5 84.7153 125.5 83.9296V64.4624C125.5 62.8272 126.807 61.5 128.417 61.5H142.583C144.193 61.5 145.5 62.8272 145.5 64.4624V77.5579C145.5 77.8946 145.368 78.2176 145.133 78.4557C144.899 78.6938 144.581 78.8275 144.25 78.8275C143.918 78.8275 143.6 78.6938 143.366 78.4557C143.131 78.2176 143 77.8946 143 77.5579V64.4624C143 64.3502 142.956 64.2425 142.878 64.1632C142.799 64.0838 142.693 64.0392 142.583 64.0392H128.417C128.306 64.0392 128.2 64.0838 128.122 64.1632C128.044 64.2425 128 64.3502 128 64.4624ZM150.123 80.6067L142.528 88.1396C142.292 88.373 141.975 88.5025 141.646 88.5C141.317 88.4974 141.002 88.3631 140.77 88.1261L137.531 84.8251C137.311 84.584 137.191 84.2655 137.198 83.9366C137.204 83.6076 137.336 83.2941 137.565 83.0619C137.795 82.8297 138.104 82.697 138.428 82.6919C138.752 82.6867 139.065 82.8094 139.301 83.0341L141.666 85.4464L148.376 78.7903C148.614 78.555 148.933 78.4252 149.265 78.4293C149.429 78.4314 149.591 78.4662 149.742 78.5319C149.893 78.5976 150.03 78.6929 150.145 78.8123C150.259 78.9317 150.35 79.0728 150.411 79.2277C150.472 79.3825 150.502 79.5481 150.5 79.7149C150.498 79.8817 150.464 80.0464 150.399 80.1997C150.334 80.353 150.24 80.4919 150.123 80.6084M131.75 68.2712H139.25C139.581 68.2712 139.899 68.405 140.134 68.6431C140.368 68.8812 140.5 69.2041 140.5 69.5408C140.5 69.8775 140.368 70.2005 140.134 70.4386C139.899 70.6767 139.581 70.8104 139.25 70.8104H131.75C131.418 70.8104 131.1 70.6767 130.866 70.4386C130.632 70.2005 130.5 69.8775 130.5 69.5408C130.5 69.2041 130.632 68.8812 130.866 68.6431C131.1 68.405 131.418 68.2712 131.75 68.2712ZM130.5 74.6192C130.5 74.2825 130.632 73.9596 130.866 73.7215C131.1 73.4834 131.418 73.3496 131.75 73.3496H135.083C135.415 73.3496 135.733 73.4834 135.967 73.7215C136.201 73.9596 136.333 74.2825 136.333 74.6192C136.333 74.9559 136.201 75.2789 135.967 75.517C135.733 75.7551 135.415 75.8888 135.083 75.8888H131.75C131.418 75.8888 131.1 75.7551 130.866 75.517C130.632 75.2789 130.5 74.9559 130.5 74.6192Z"/>
</mask>
<path d="M128 64.4624V83.9296C128 84.1632 128.187 84.3528 128.417 84.3528H133.7C134.031 84.3528 134.349 84.4866 134.584 84.7247C134.818 84.9628 134.95 85.2857 134.95 85.6224C134.95 85.9592 134.818 86.2821 134.584 86.5202C134.349 86.7583 134.031 86.892 133.7 86.892H128.417C127.643 86.892 126.901 86.5799 126.354 86.0244C125.807 85.4688 125.5 84.7153 125.5 83.9296V64.4624C125.5 62.8272 126.807 61.5 128.417 61.5H142.583C144.193 61.5 145.5 62.8272 145.5 64.4624V77.5579C145.5 77.8946 145.368 78.2176 145.133 78.4557C144.899 78.6938 144.581 78.8275 144.25 78.8275C143.918 78.8275 143.6 78.6938 143.366 78.4557C143.131 78.2176 143 77.8946 143 77.5579V64.4624C143 64.3502 142.956 64.2425 142.878 64.1632C142.799 64.0838 142.693 64.0392 142.583 64.0392H128.417C128.306 64.0392 128.2 64.0838 128.122 64.1632C128.044 64.2425 128 64.3502 128 64.4624ZM150.123 80.6067L142.528 88.1396C142.292 88.373 141.975 88.5025 141.646 88.5C141.317 88.4974 141.002 88.3631 140.77 88.1261L137.531 84.8251C137.311 84.584 137.191 84.2655 137.198 83.9366C137.204 83.6076 137.336 83.2941 137.565 83.0619C137.795 82.8297 138.104 82.697 138.428 82.6919C138.752 82.6867 139.065 82.8094 139.301 83.0341L141.666 85.4464L148.376 78.7903C148.614 78.555 148.933 78.4252 149.265 78.4293C149.429 78.4314 149.591 78.4662 149.742 78.5319C149.893 78.5976 150.03 78.6929 150.145 78.8123C150.259 78.9317 150.35 79.0728 150.411 79.2277C150.472 79.3825 150.502 79.5481 150.5 79.7149C150.498 79.8817 150.464 80.0464 150.399 80.1997C150.334 80.353 150.24 80.4919 150.123 80.6084M131.75 68.2712H139.25C139.581 68.2712 139.899 68.405 140.134 68.6431C140.368 68.8812 140.5 69.2041 140.5 69.5408C140.5 69.8775 140.368 70.2005 140.134 70.4386C139.899 70.6767 139.581 70.8104 139.25 70.8104H131.75C131.418 70.8104 131.1 70.6767 130.866 70.4386C130.632 70.2005 130.5 69.8775 130.5 69.5408C130.5 69.2041 130.632 68.8812 130.866 68.6431C131.1 68.405 131.418 68.2712 131.75 68.2712ZM130.5 74.6192C130.5 74.2825 130.632 73.9596 130.866 73.7215C131.1 73.4834 131.418 73.3496 131.75 73.3496H135.083C135.415 73.3496 135.733 73.4834 135.967 73.7215C136.201 73.9596 136.333 74.2825 136.333 74.6192C136.333 74.9559 136.201 75.2789 135.967 75.517C135.733 75.7551 135.415 75.8888 135.083 75.8888H131.75C131.418 75.8888 131.1 75.7551 130.866 75.517C130.632 75.2789 130.5 74.9559 130.5 74.6192Z" fill="white"/>
<path d="M134.95 85.6224H135.95H134.95ZM128.417 86.892V85.892V86.892ZM125.5 83.9296H124.5H125.5ZM142.528 88.1396L143.231 88.8503L143.232 88.8496L142.528 88.1396ZM140.77 88.1261L141.484 87.4261L141.484 87.4258L140.77 88.1261ZM137.531 84.8251L136.793 85.4998L136.805 85.5128L136.818 85.5254L137.531 84.8251ZM139.301 83.0341L140.015 82.3341L140.003 82.3214L139.99 82.3092L139.301 83.0341ZM141.666 85.4464L140.952 86.1465L141.656 86.8647L142.371 86.1563L141.666 85.4464ZM148.376 78.7903L147.672 78.08L147.672 78.0803L148.376 78.7903ZM149.265 78.4293L149.277 77.4294L149.265 78.4293ZM131.75 68.2712V67.2712V68.2712ZM139.25 68.2712V67.2712V68.2712ZM139.25 70.8104V71.8104V70.8104ZM131.75 70.8104V71.8104V70.8104ZM130.5 69.5408H129.5H130.5ZM130.5 74.6192H129.5H130.5ZM131.75 73.3496V72.3496V73.3496ZM136.333 74.6192H137.333H136.333ZM131.75 75.8888V76.8888V75.8888ZM128 64.4624H127V83.9296H128H129V64.4624H128ZM128 83.9296H127C127 84.7008 127.62 85.3528 128.417 85.3528V84.3528V83.3528C128.754 83.3528 129 83.6257 129 83.9296H128ZM128.417 84.3528V85.3528H133.7V84.3528V83.3528H128.417V84.3528ZM133.7 84.3528V85.3528C133.761 85.3528 133.823 85.3774 133.871 85.4263L134.584 84.7247L135.296 84.0231C134.876 83.5958 134.302 83.3528 133.7 83.3528V84.3528ZM134.584 84.7247L133.871 85.4263C133.92 85.4757 133.95 85.5459 133.95 85.6224H134.95H135.95C135.95 85.0255 135.716 84.4499 135.296 84.0231L134.584 84.7247ZM134.95 85.6224H133.95C133.95 85.6989 133.92 85.7692 133.871 85.8186L134.584 86.5202L135.296 87.2218C135.716 86.795 135.95 86.2194 135.95 85.6224H134.95ZM134.584 86.5202L133.871 85.8186C133.823 85.8675 133.761 85.892 133.7 85.892V86.892V87.892C134.302 87.892 134.876 87.6491 135.296 87.2218L134.584 86.5202ZM133.7 86.892V85.892H128.417V86.892V87.892H133.7V86.892ZM128.417 86.892V85.892C127.913 85.892 127.428 85.6891 127.067 85.3228L126.354 86.0244L125.642 86.7259C126.375 87.4707 127.373 87.892 128.417 87.892V86.892ZM126.354 86.0244L127.067 85.3228C126.706 84.9559 126.5 84.4551 126.5 83.9296H125.5H124.5C124.5 84.9755 124.909 85.9817 125.642 86.7259L126.354 86.0244ZM125.5 83.9296H126.5V64.4624H125.5H124.5V83.9296H125.5ZM125.5 64.4624H126.5C126.5 63.3647 127.374 62.5 128.417 62.5V61.5V60.5C126.24 60.5 124.5 62.2896 124.5 64.4624H125.5ZM128.417 61.5V62.5H142.583V61.5V60.5H128.417V61.5ZM142.583 61.5V62.5C143.626 62.5 144.5 63.3647 144.5 64.4624H145.5H146.5C146.5 62.2896 144.76 60.5 142.583 60.5V61.5ZM145.5 64.4624H144.5V77.5579H145.5H146.5V64.4624H145.5ZM145.5 77.5579H144.5C144.5 77.6344 144.47 77.7047 144.421 77.7541L145.133 78.4557L145.846 79.1572C146.266 78.7305 146.5 78.1549 146.5 77.5579H145.5ZM145.133 78.4557L144.421 77.7541C144.373 77.803 144.311 77.8275 144.25 77.8275V78.8275V79.8275C144.851 79.8275 145.425 79.5846 145.846 79.1572L145.133 78.4557ZM144.25 78.8275V77.8275C144.188 77.8275 144.126 77.803 144.078 77.7541L143.366 78.4557L142.653 79.1572C143.074 79.5846 143.648 79.8275 144.25 79.8275V78.8275ZM143.366 78.4557L144.078 77.7541C144.03 77.7047 144 77.6344 144 77.5579H143H142C142 78.1549 142.233 78.7305 142.653 79.1572L143.366 78.4557ZM143 77.5579H144V64.4624H143H142V77.5579H143ZM143 64.4624H144C144 64.0899 143.854 63.7296 143.59 63.4616L142.878 64.1632L142.165 64.8647C142.057 64.7554 142 64.6104 142 64.4624H143ZM142.878 64.1632L143.59 63.4616C143.326 63.193 142.964 63.0392 142.583 63.0392V64.0392V65.0392C142.423 65.0392 142.273 64.9746 142.165 64.8647L142.878 64.1632ZM142.583 64.0392V63.0392H128.417V64.0392V65.0392H142.583V64.0392ZM128.417 64.0392V63.0392C128.036 63.0392 127.674 63.193 127.409 63.4616L128.122 64.1632L128.835 64.8647C128.726 64.9746 128.576 65.0392 128.417 65.0392V64.0392ZM128.122 64.1632L127.409 63.4616C127.145 63.7296 127 64.0899 127 64.4624H128H129C129 64.6104 128.942 64.7554 128.835 64.8647L128.122 64.1632ZM150.123 80.6067L149.419 79.8967L141.824 87.4296L142.528 88.1396L143.232 88.8496L150.827 81.3166L150.123 80.6067ZM142.528 88.1396L141.824 87.4289C141.776 87.4767 141.715 87.5005 141.654 87.5L141.646 88.5L141.638 89.4999C142.236 89.5045 142.808 89.2693 143.231 88.8503L142.528 88.1396ZM141.646 88.5L141.654 87.5C141.593 87.4995 141.532 87.4748 141.484 87.4261L140.77 88.1261L140.056 88.826C140.472 89.2513 141.041 89.4953 141.638 89.4999L141.646 88.5ZM140.77 88.1261L141.484 87.4258L138.245 84.1248L137.531 84.8251L136.818 85.5254L140.056 88.8264L140.77 88.1261ZM137.531 84.8251L138.27 84.1505C138.223 84.1001 138.196 84.0304 138.198 83.9558L137.198 83.9366L136.198 83.9174C136.187 84.5005 136.399 85.068 136.793 85.4998L137.531 84.8251ZM137.198 83.9366L138.198 83.9558C138.199 83.8811 138.229 83.8129 138.277 83.7648L137.565 83.0619L136.854 82.359C136.443 82.7752 136.209 83.3342 136.198 83.9174L137.198 83.9366ZM137.565 83.0619L138.277 83.7648C138.324 83.7171 138.384 83.6927 138.444 83.6917L138.428 82.6919L138.412 81.692C137.824 81.7014 137.266 81.9422 136.854 82.359L137.565 83.0619ZM138.428 82.6919L138.444 83.6917C138.504 83.6908 138.564 83.7133 138.613 83.7591L139.301 83.0341L139.99 82.3092C139.565 81.9055 139 81.6826 138.412 81.692L138.428 82.6919ZM139.301 83.0341L138.587 83.7342L140.952 86.1465L141.666 85.4464L142.38 84.7463L140.015 82.3341L139.301 83.0341ZM141.666 85.4464L142.371 86.1563L149.08 79.5002L148.376 78.7903L147.672 78.0803L140.962 84.7364L141.666 85.4464ZM148.376 78.7903L149.08 79.5005C149.129 79.4523 149.191 79.4285 149.252 79.4292L149.265 78.4293L149.277 77.4294C148.675 77.4219 148.098 77.6578 147.672 78.08L148.376 78.7903ZM149.265 78.4293L149.252 79.4292C149.283 79.4296 149.314 79.4361 149.343 79.4488L149.742 78.5319L150.141 77.6151C149.869 77.4963 149.575 77.4331 149.277 77.4294L149.265 78.4293ZM149.742 78.5319L149.343 79.4488C149.372 79.4615 149.4 79.4804 149.423 79.5051L150.145 78.8123L150.866 78.1195C150.66 77.9055 150.414 77.7338 150.141 77.6151L149.742 78.5319ZM150.145 78.8123L149.423 79.5051C149.447 79.5298 149.467 79.5599 149.48 79.5941L150.411 79.2277L151.341 78.8613C151.233 78.5857 151.071 78.3335 150.866 78.1195L150.145 78.8123ZM150.411 79.2277L149.48 79.5941C149.494 79.6282 149.5 79.6652 149.5 79.7028L150.5 79.7149L151.5 79.7269C151.503 79.431 151.45 79.1369 151.341 78.8613L150.411 79.2277ZM150.5 79.7149L149.5 79.7028C149.5 79.7404 149.492 79.7772 149.478 79.8109L150.399 80.1997L151.32 80.5885C151.435 80.3156 151.496 80.0229 151.5 79.7269L150.5 79.7149ZM150.399 80.1997L149.478 79.8109C149.463 79.8446 149.443 79.8741 149.419 79.8981L150.123 80.6084L150.827 81.3186C151.038 81.1097 151.205 80.8615 151.32 80.5885L150.399 80.1997ZM131.75 68.2712V69.2712H139.25V68.2712V67.2712H131.75V68.2712ZM139.25 68.2712V69.2712C139.311 69.2712 139.373 69.2958 139.421 69.3446L140.134 68.6431L140.846 67.9415C140.425 67.5142 139.852 67.2712 139.25 67.2712V68.2712ZM140.134 68.6431L139.421 69.3446C139.47 69.394 139.5 69.4643 139.5 69.5408H140.5H141.5C141.5 68.9439 141.266 68.3683 140.846 67.9415L140.134 68.6431ZM140.5 69.5408H139.5C139.5 69.6173 139.47 69.6876 139.421 69.737L140.134 70.4386L140.846 71.1401C141.266 70.7133 141.5 70.1378 141.5 69.5408H140.5ZM140.134 70.4386L139.421 69.737C139.373 69.7859 139.311 69.8104 139.25 69.8104V70.8104V71.8104C139.852 71.8104 140.425 71.5674 140.846 71.1401L140.134 70.4386ZM139.25 70.8104V69.8104H131.75V70.8104V71.8104H139.25V70.8104ZM131.75 70.8104V69.8104C131.689 69.8104 131.627 69.7859 131.579 69.737L130.866 70.4386L130.153 71.1401C130.574 71.5674 131.148 71.8104 131.75 71.8104V70.8104ZM130.866 70.4386L131.579 69.737C131.53 69.6876 131.5 69.6173 131.5 69.5408H130.5H129.5C129.5 70.1378 129.733 70.7133 130.153 71.1401L130.866 70.4386ZM130.5 69.5408H131.5C131.5 69.4643 131.53 69.394 131.579 69.3446L130.866 68.6431L130.153 67.9415C129.733 68.3683 129.5 68.9439 129.5 69.5408H130.5ZM130.866 68.6431L131.579 69.3446C131.627 69.2958 131.689 69.2712 131.75 69.2712V68.2712V67.2712C131.148 67.2712 130.574 67.5142 130.153 67.9415L130.866 68.6431ZM130.5 74.6192H131.5C131.5 74.5427 131.53 74.4725 131.579 74.4231L130.866 73.7215L130.153 73.0199C129.733 73.4467 129.5 74.0223 129.5 74.6192H130.5ZM130.866 73.7215L131.579 74.4231C131.627 74.3742 131.689 74.3496 131.75 74.3496V73.3496V72.3496C131.148 72.3496 130.574 72.5926 130.153 73.0199L130.866 73.7215ZM131.75 73.3496V74.3496H135.083V73.3496V72.3496H131.75V73.3496ZM135.083 73.3496V74.3496C135.144 74.3496 135.206 74.3742 135.254 74.4231L135.967 73.7215L136.68 73.0199C136.259 72.5926 135.685 72.3496 135.083 72.3496V73.3496ZM135.967 73.7215L135.254 74.4231C135.303 74.4725 135.333 74.5427 135.333 74.6192H136.333H137.333C137.333 74.0223 137.1 73.4467 136.68 73.0199L135.967 73.7215ZM136.333 74.6192H135.333C135.333 74.6957 135.303 74.766 135.254 74.8154L135.967 75.517L136.68 76.2185C137.1 75.7918 137.333 75.2162 137.333 74.6192H136.333ZM135.967 75.517L135.254 74.8154C135.206 74.8643 135.144 74.8888 135.083 74.8888V75.8888V76.8888C135.685 76.8888 136.259 76.6459 136.68 76.2185L135.967 75.517ZM135.083 75.8888V74.8888H131.75V75.8888V76.8888H135.083V75.8888ZM131.75 75.8888V74.8888C131.689 74.8888 131.627 74.8643 131.579 74.8154L130.866 75.517L130.153 76.2185C130.574 76.6459 131.148 76.8888 131.75 76.8888V75.8888ZM130.866 75.517L131.579 74.8154C131.53 74.766 131.5 74.6957 131.5 74.6192H130.5H129.5C129.5 75.2162 129.733 75.7918 130.153 76.2185L130.866 75.517Z" fill="white" mask="url(#path-2-inside-1_1_10056)"/>
</g>
</g>
<text id="QUEST&#195;&#149;ES AVALIATIVAS" fill="white" xml:space="preserve" style="white-space: pre" font-family="'Montserrat', sans-serif" font-size="24" font-weight="bold" letter-spacing="0em"><tspan x="69.7031" y="129.604">QUEST&#xd5;ES&#10;</tspan><tspan x="54.9844" y="163.111">AVALIATIVAS</tspan></text>
</g>
</g>
</svg>
