<svg width="348" height="343" viewBox="0 0 348 343" fill="none" xmlns="http://www.w3.org/2000/svg">
<path fill-rule="evenodd" clip-rule="evenodd" d="M275.936 329.196C223.354 377.895 525.359 431.248 486.8 330.628C442.038 213.984 305.237 302.071 275.936 329.196Z" fill="#F2A71B"/>
<path fill-rule="evenodd" clip-rule="evenodd" d="M248.61 296.431C257.868 356.499 439.701 170.388 350.357 149.44C246.543 125.001 243.397 262.951 248.61 296.431Z" fill="#F2A71B"/>
<path fill-rule="evenodd" clip-rule="evenodd" d="M205.019 293.656C245.556 323.287 242.68 109.515 178.324 149.082C103.632 195.095 182.459 277.185 205.019 293.656Z" fill="#F2A71B"/>
<path fill-rule="evenodd" clip-rule="evenodd" d="M177.874 320.871C216.883 314.873 96.081 197.692 82.4188 255.342C66.5995 322.213 156.212 324.272 177.874 320.871Z" fill="#F2A71B"/>
<path fill-rule="evenodd" clip-rule="evenodd" d="M178.772 352.74C198.007 331.523 75.7665 320.781 94.7317 359.543C116.663 404.482 168.076 364.556 178.772 352.74Z" fill="#F2A71B"/>
<path d="M324.472 329.106C345.954 345.488 370.492 357.484 396.109 365.899C423.523 374.851 452.105 379.685 480.868 382.191C495.698 383.445 510.529 384.161 525.359 384.519C540.19 384.877 555.021 384.966 569.851 383.624C595.737 381.296 621.983 373.956 642.207 357.126C651.734 349.159 660.543 338.864 664.048 326.779C667.553 314.693 663.509 301.087 656.588 290.165C649.577 279.154 640.229 269.486 630.612 260.803C620.815 251.94 610.119 243.973 598.883 236.901C575.783 222.399 549.448 209.15 521.494 209.508C506.844 209.687 492.373 212.91 478.441 216.938C465.408 220.608 452.734 225.353 440.331 230.814C415.613 241.735 392.333 255.521 369.953 270.56C364.47 274.231 358.987 278.08 353.504 281.929C348.291 285.6 342.988 289.27 338.044 293.298C333.101 297.327 329.146 301.176 326.45 306.458C323.753 311.918 323.394 318.006 325.461 323.735C327.528 329.464 331.483 334.298 336.067 338.237C340.651 342.176 335.528 338.774 335.258 338.774C334.539 338.774 333.55 338.416 333.011 337.969C323.753 330.091 317.192 317.648 322.944 305.742C325.461 300.46 329.775 296.252 334.18 292.582C339.213 288.375 344.696 284.704 349.999 280.945C372.739 264.831 396.288 249.613 421.276 237.08C446.263 224.547 472.958 214.431 500.642 209.866C515.113 207.538 529.674 207.538 544.055 210.851C557.897 214.073 571.11 219.803 583.603 226.427C607.422 239.049 629.623 254.984 647.689 275.036C656.498 284.794 665.037 295.805 668.003 308.785C669.441 315.052 669.351 321.587 667.553 327.763C665.666 334.119 662.16 339.938 658.116 345.22C642.476 365.451 618.118 376.999 593.49 382.012C578.75 385.056 563.739 386.041 548.729 386.22C533.449 386.399 518.169 385.951 502.979 385.056C472.778 383.445 442.578 379.774 413.276 372.165C386.851 365.183 361.054 354.977 337.865 340.386C332.202 336.805 326.719 333.045 321.416 328.927C320.787 328.48 321.956 328.39 322.225 328.39C323.034 328.39 323.843 328.748 324.472 329.196V329.106Z" fill="white"/>
<path d="M300.025 262.683C319.439 251.582 337.056 237.886 353.235 222.578C369.414 207.36 384.155 190.619 398.086 173.342C405.187 164.569 412.018 155.707 418.759 146.755C425.59 137.713 432.421 128.672 438.983 119.451C451.926 101.1 463.79 80.8682 466.487 58.1302C467.206 52.0429 467.206 45.7765 465.408 39.8682C463.611 33.9599 461.184 30.5582 457.589 26.9774C450.128 19.2787 439.882 14.9818 429.365 13.3704C417.591 11.4905 405.547 12.5647 393.862 14.3551C382.447 16.056 371.032 18.115 359.796 20.8901C348.651 23.6652 337.685 27.5145 327.798 33.4228C317.911 39.3311 309.103 48.0145 301.193 56.7875C293.283 65.5604 286.003 74.8704 281.329 85.7918C276.655 96.7132 274.049 109.694 272.071 121.958C270.094 134.401 268.746 147.023 268.296 159.556C267.847 172.268 268.386 184.89 269.734 197.512C270.903 208.702 271.083 220.071 272.88 231.261C273.689 236.811 274.947 242.362 276.835 247.643C278.723 252.925 281.059 257.849 284.385 262.056C287.261 265.637 292.295 268.322 296.339 264.831C300.384 261.34 300.384 265.368 299.485 266.174C295.62 269.486 289.598 268.68 285.554 266.174C280.97 263.309 278.273 258.117 275.936 253.373C270.813 242.899 269.015 231.261 268.027 219.803C267.038 208.344 267.218 208.255 266.678 202.436C266.139 196.617 265.42 189.814 265.06 183.458C264.341 170.656 264.521 157.855 265.6 145.054C266.678 131.984 268.566 118.914 271.352 106.113C273.959 94.0276 278.003 82.3006 284.835 71.9163C288.16 66.9032 291.935 62.2481 295.89 57.7722C299.935 53.2067 304.159 48.6412 308.563 44.4337C317.282 36.1979 327.169 29.663 338.404 25.187C349.37 20.8006 360.875 18.115 372.47 15.877C384.334 13.639 396.289 11.4905 408.333 10.7743C420.467 10.0582 432.961 11.1324 444.196 15.877C453.544 19.8158 462.262 26.5298 466.757 35.7503C471.97 46.3137 470.442 59.0254 467.745 70.0364C464.959 81.4054 460.015 92.0582 454.173 102.084C448.241 112.29 441.41 121.868 434.399 131.357C427.568 140.578 420.647 149.798 413.636 158.929C399.525 177.191 384.874 195.006 368.785 211.567C353.235 227.86 336.068 242.899 317.102 255.432C312.428 258.565 307.665 261.519 302.811 264.294C301.912 264.831 298.766 263.488 300.115 262.683H300.025Z" fill="white"/>
<path d="M225.242 234.663C233.871 216.849 239.264 197.691 241.691 178.087C244.118 158.482 243.758 137.982 240.972 118.198C238.095 97.877 232.703 77.9141 225.692 58.6674C222.276 49.3574 218.591 40.0473 214.007 31.1849C209.693 23.0386 204.569 14.7133 197.379 8.62592C194.143 5.85081 190.278 3.61282 186.054 2.89667C181.11 2.00147 175.897 2.89665 171.043 4.06041C163.403 6.02984 156.123 9.34208 149.561 13.8181C136.438 22.6805 126.012 35.7504 120.979 50.7897C115.945 65.829 116.934 70.0364 116.485 79.8836C116.035 89.7307 116.305 100.563 118.642 110.678C122.686 128.761 131.944 145.412 143.18 160.093C154.415 174.774 149.022 167.434 151.898 171.104C154.774 174.864 157.471 178.713 160.167 182.563C165.56 190.351 170.684 198.139 176.346 205.659C181.739 212.82 187.671 219.445 194.053 225.622C200.435 231.798 199.985 230.903 203.221 233.141C205.738 234.932 208.794 237.438 211.94 237.796C215.086 238.154 218.501 236.543 221.377 235.469C224.254 234.395 225.332 236.812 223.355 237.617C219.939 238.87 216.344 240.392 212.659 240.124C208.974 239.855 206.097 237.975 203.311 236.185C196.21 231.44 190.008 225.801 184.256 219.624C170.953 205.39 161.246 188.381 149.651 172.805C146.775 168.956 143.629 165.196 140.663 161.346C137.697 157.587 134.91 153.648 132.304 149.619C127.181 141.652 122.686 133.237 119.361 124.375C116.035 115.512 113.698 105.844 113.069 96.1761C112.44 86.508 112.71 85.0757 113.069 79.615C113.339 74.3334 113.698 68.9622 114.417 63.77C115.676 54.9971 118.282 46.6718 122.507 38.8836C126.372 31.722 131.495 25.1871 137.517 19.6368C143.539 14.0866 150.37 9.43161 157.83 6.11938C161.606 4.41851 165.47 3.07571 169.425 2.09099C174.459 0.837719 179.672 0.0320418 184.885 0.748199C194.143 2.00147 201.513 8.26784 207.176 15.4294C213.378 23.3071 218.142 32.2591 222.186 41.4796C230.545 60.5473 236.927 80.6892 241.331 101.01C245.646 121.331 247.713 142.1 246.724 162.868C245.646 182.831 241.781 202.973 234.5 221.951C227.22 240.929 230.815 231.082 228.658 235.558C226.501 240.034 224.613 235.916 225.242 234.663Z" fill="white"/>
<path d="M168.526 259.728C164.571 244.868 154.504 232.694 144.527 221.325C134.55 209.956 124.034 199.124 112.709 189.097C101.383 179.071 89.1593 170.03 76.0365 162.331C62.9137 154.632 62.4642 154.453 55.0939 151.947C51.3188 150.693 47.2741 150.067 43.2294 150.246C39.0948 150.425 34.9602 151.41 31.0054 152.663C23.9946 154.901 16.0849 157.676 11.1414 163.405C6.37758 168.866 5.02934 176.296 4.40018 183.279C3.2317 197.333 4.49007 211.925 9.25385 225.263C11.5908 231.798 14.7366 238.065 18.8712 243.615C23.1856 249.434 28.5786 254.357 34.6007 258.475C47.5437 267.248 62.8238 271.635 78.1038 274.32C86.4629 275.842 94.9118 276.827 103.271 277.901C111.63 278.975 119.899 279.96 128.348 280.497C136.707 281.034 145.156 281.034 153.515 280.049C157.65 279.602 161.784 278.886 165.829 277.901C169.334 277.006 173.289 276.021 175.716 273.246C177.604 271.097 178.323 267.248 176.076 265.1C173.829 262.951 176.525 264.383 176.885 264.383C177.604 264.383 178.592 264.652 179.132 265.189C181.379 267.427 181.199 271.008 179.491 273.514C177.783 276.021 173.829 277.811 170.503 278.707C162.144 281.034 153.425 282.019 144.797 282.287C127.269 282.735 109.742 280.228 92.485 277.811C75.7668 275.573 58.8689 272.53 43.499 265.279C29.8369 258.833 18.0623 249.076 10.6919 235.827C3.59123 223.025 0.714996 208.344 0.445343 193.842C0.355469 186.591 0.445343 178.982 2.60252 171.999C4.7597 165.017 5.11925 165.285 7.45619 162.51C9.88303 159.556 13.1188 157.407 16.4444 155.796C19.7701 154.185 23.8148 152.573 27.6797 151.32C31.7244 149.977 35.9489 148.993 40.2633 148.724C48.9819 148.097 57.0713 150.873 64.8012 154.632C78.9127 161.525 92.2153 170.209 104.529 179.966C116.843 189.724 128.258 200.556 139.044 212.014C144.437 217.833 149.74 223.742 154.684 229.918C159.627 236.006 164.301 242.451 167.717 249.613C169.424 253.014 170.773 256.595 171.761 260.266C172.75 263.936 168.615 260.624 168.346 259.728H168.526Z" fill="white"/>
<path d="M147.224 312.545C126.911 305.026 105.16 301.803 83.4978 303.056C78.1049 303.414 72.6221 303.951 67.2291 304.846C62.0159 305.742 56.8028 306.816 51.8592 308.875C43.2305 312.456 35.4107 319.528 34.3322 329.285C33.2536 339.222 38.9162 348.532 46.1067 354.977C49.8818 358.379 54.1063 361.154 58.3308 363.84C62.735 366.526 67.2291 369.301 72.3524 370.464C77.6555 371.628 83.3181 371.091 88.711 370.375C93.7444 369.659 98.688 368.495 103.452 367.063C112.979 364.108 122.147 359.812 130.776 354.798C139.674 349.696 148.123 343.788 156.482 337.7C160.078 335.104 164.392 332.15 164.662 327.316C164.931 322.482 161.336 318.185 157.381 315.768C155.404 314.515 153.247 313.53 151.089 312.545C148.932 311.56 149.651 311.919 150.191 311.292C150.73 310.665 151.988 311.113 152.438 311.292C157.112 313.351 162.055 315.589 165.291 319.796C168.167 323.556 169.246 328.659 166.459 332.777C165.111 334.746 163.224 336.268 161.336 337.7C159.269 339.312 157.112 340.833 154.954 342.355C150.55 345.488 146.056 348.622 141.382 351.486C123.496 362.855 103.002 372.344 81.3407 372.792C59.679 373.24 69.9256 371.807 64.6225 369.39C59.679 367.063 54.9152 364.019 50.4211 360.886C41.9722 355.067 34.1524 347.458 31.5458 337.163C28.9392 326.868 30.4672 327.137 32.3547 322.482C34.2423 317.827 37.3882 314.425 41.1632 311.65C50.0616 305.115 61.6564 303.235 72.3524 301.982C95.0927 299.296 118.462 301.534 140.304 308.427C143 309.322 145.696 310.218 148.393 311.202C148.842 311.381 149.741 311.919 149.292 312.456C148.842 312.993 147.494 312.635 147.045 312.456L147.224 312.545Z" fill="white"/>
</svg>
