<svg width="683" height="768" viewBox="0 0 683 768" fill="none" xmlns="http://www.w3.org/2000/svg">
<path fill-rule="evenodd" clip-rule="evenodd" d="M562.338 296.897C642.365 323.918 527.562 -18.8081 445.094 77.769C349.528 189.79 517.756 281.832 562.338 296.897Z" fill="#F2A71B"/>
<path fill-rule="evenodd" clip-rule="evenodd" d="M543.8 343.637C600.779 300.23 305.706 216.757 334.322 321.054C367.471 442.3 512.071 367.885 543.8 343.637Z" fill="#F2A71B"/>
<path fill-rule="evenodd" clip-rule="evenodd" d="M565.471 390.332C573.326 331.678 353.612 455.02 430.814 499.373C520.51 550.8 561.119 422.965 565.471 390.332Z" fill="#F2A71B"/>
<path fill-rule="evenodd" clip-rule="evenodd" d="M608.931 403.114C580.757 366.103 527.449 557.156 594.831 538.841C672.974 517.568 624.65 423.627 608.931 403.114Z" fill="#F2A71B"/>
<path fill-rule="evenodd" clip-rule="evenodd" d="M641.422 384.241C608.625 376.272 666.33 508.883 695.784 467.423C729.964 419.413 659.679 388.662 641.422 384.241Z" fill="#F2A71B"/>
<path d="M534.916 246.694C539.783 215.229 538.386 183.069 532.676 151.809C526.509 118.385 515.42 86.0694 501.821 54.8785C494.768 38.8177 487.159 23.0594 479.18 7.50264C471.2 -8.05408 462.943 -23.4596 453.202 -38.0586C436.217 -63.5498 413.839 -86.5906 385.028 -98.0534C371.414 -103.432 355.796 -106.756 341.309 -103.58C326.823 -100.405 315.012 -88.5562 307.601 -75.2412C300.149 -61.7828 295.402 -46.6608 291.826 -31.8141C288.167 -16.6805 285.94 -1.12023 284.944 14.4943C282.935 46.5765 284.046 81.3032 300.156 110.044C308.59 125.112 320.075 138.28 332.09 150.436C343.228 161.864 355.276 172.314 367.914 182.082C393.139 201.524 420.52 217.865 448.692 232.57C455.579 236.18 462.652 239.689 469.725 243.198C476.46 246.529 483.246 249.953 490.2 252.804C497.155 255.654 503.367 257.581 510.354 257.399C517.526 257.116 524.031 254.061 528.799 248.695C533.566 243.329 536.345 236.512 537.842 229.548C539.339 222.584 538.702 229.804 538.853 230.083C539.258 230.828 539.444 232.053 539.284 232.864C536.341 246.884 527.152 260.684 511.586 261.432C504.7 261.8 497.915 259.702 491.635 257.209C484.445 254.366 477.557 250.756 470.679 247.382C441.192 232.91 412.176 217.097 385.131 198.283C358.086 179.468 332.582 157.524 312.267 131.432C301.71 117.76 293.511 102.684 288.843 85.9292C284.386 69.7832 282.879 52.8774 282.703 36.212C282.361 4.44381 286.358 -27.5142 296.948 -57.5099C302.091 -72.1239 308.684 -87.1644 320.453 -97.544C326.131 -102.561 332.948 -106.148 340.355 -107.764C347.999 -109.389 355.997 -109.036 363.743 -107.822C393.496 -103.02 419.167 -84.3027 438.224 -61.6265C449.675 -48.0782 459.146 -33.0914 467.783 -17.651C476.572 -1.93136 484.711 14.1411 492.337 30.3725C507.673 62.5483 520.878 95.8834 529.497 130.506C537.147 161.797 541.105 194.252 539.054 226.477C538.535 234.356 537.729 242.15 536.452 249.959C536.343 250.863 535.592 249.703 535.44 249.424C534.985 248.587 534.9 247.547 535.009 246.644L534.916 246.694Z" fill="white"/>
<path d="M479.909 309.406C457.485 295.555 433.385 285.027 408.426 276.895C383.56 268.712 357.928 262.876 332.195 258.179C319.114 255.767 306.092 253.684 293.028 251.745C279.82 249.763 266.613 247.781 253.372 246.179C227.084 243.111 199.457 242.219 174.396 252.229C167.689 254.912 161.201 258.441 156.096 263.628C150.991 268.816 148.835 273.244 147.152 278.983C143.381 291.042 144.702 304.07 148.955 315.865C153.638 329.115 161.531 340.98 169.964 352.07C178.152 362.931 186.711 373.591 195.911 383.661C205.059 393.638 215.219 402.824 226.903 409.734C238.587 416.644 252.537 420.875 266.074 424.125C279.611 427.375 293.349 429.671 307.289 428.361C321.228 427.051 336.135 422.441 349.946 417.583C363.943 412.624 377.771 406.913 391 400.322C404.414 393.63 417.179 385.965 429.489 377.462C440.417 369.951 452.086 363.364 462.66 355.202C467.951 351.24 472.989 346.812 477.395 341.884C481.8 336.956 485.582 331.764 488.066 325.952C490.154 320.958 490.1 314.234 484.208 312.012C478.316 309.79 482.487 307.522 483.827 307.999C489.433 310.135 491.989 316.824 491.672 322.423C491.287 328.782 487.429 334.498 483.833 339.589C475.873 350.79 464.836 359.204 453.529 366.679C442.222 374.155 442.028 374.019 436.307 377.854C430.586 381.688 423.947 386.263 417.569 390.214C404.72 398.167 391.364 405.188 377.503 411.279C363.364 417.521 348.769 422.926 333.946 427.249C319.966 431.355 305.546 433.77 290.949 432.544C283.886 431.923 276.941 430.636 270.08 429.061C263.075 427.444 255.97 425.641 249.134 423.45C235.698 419.06 223.365 412.503 212.404 403.39C201.689 394.506 192.43 384.107 183.585 373.362C174.587 362.338 165.632 351.17 158.109 339.104C150.535 326.943 144.613 313.403 143.199 299.099C142.014 287.203 144.057 274.396 151.073 264.551C159.075 253.206 173.096 247.631 186.015 244.223C199.355 240.706 213.168 239.827 226.838 240.23C240.744 240.626 254.508 242.306 268.28 244.222C281.673 246.103 295.116 248.077 308.518 250.195C335.371 254.523 362.065 259.662 388.27 266.995C413.894 273.921 439.132 283.228 462.786 295.807C468.662 298.882 474.402 302.151 480.008 305.614C481.071 306.242 481.452 310.255 479.858 309.313L479.909 309.406Z" fill="white"/>
<path d="M492.793 402.621C469.475 403.75 446.583 408.979 424.894 417.524C403.205 426.07 382.153 438 363.207 452.033C343.755 466.462 326.089 483.29 310.074 501.385C302.341 510.163 294.759 519.22 288.146 528.953C282.125 538.004 276.372 547.991 274.101 558.853C273.042 563.761 272.893 569.016 274.525 573.785C276.374 579.397 280.232 584.279 284.165 588.638C290.5 595.421 298.025 601.076 306.352 605.332C322.914 613.895 342.323 617.299 360.744 614.02C379.164 610.741 382.971 607.348 393.432 602.26C403.894 597.172 414.973 590.787 424.147 582.669C440.622 568.294 452.683 549.341 461.591 529.455C470.499 509.569 465.919 519.28 468.108 514.238C470.39 509.147 472.866 504.19 475.342 499.234C480.386 489.271 485.582 479.586 490.196 469.496C494.591 459.886 498.126 450.021 500.944 439.945C503.762 429.869 503.086 430.838 503.589 426.233C504.031 422.623 504.912 418.052 503.516 414.6C502.12 411.147 498.53 408.527 495.8 406.161C493.07 403.794 494.97 401.317 496.916 402.906C500.135 405.728 503.733 408.585 505.525 412.544C507.317 416.503 506.984 420.535 506.694 424.424C505.765 434.435 503.402 444.023 500.23 453.449C492.948 475.219 480.768 494.839 471.134 515.601C468.76 520.743 466.629 526.114 464.305 531.349C462.073 536.533 459.555 541.633 456.843 546.597C451.462 556.383 445.263 565.771 437.943 574.204C430.624 582.637 421.913 590.502 412.243 596.603C402.573 602.704 400.937 603.233 395.073 605.941C389.446 608.64 383.675 611.297 377.888 613.481C368.085 617.127 357.989 619.128 347.541 619.154C337.945 619.198 328.291 617.589 319.153 614.496C310.014 611.403 301.35 606.97 293.724 601.129C289.84 598.187 286.276 594.951 283.033 591.42C278.905 586.926 275.141 581.994 272.954 576.203C269.051 565.931 271.407 554.783 275.65 544.894C280.332 534.045 286.937 524.075 294.224 514.697C309.296 495.31 326.592 477.36 345.186 461.352C363.83 445.437 384.2 431.592 406.288 420.904C427.591 410.763 450.645 403.4 474.412 400.223C498.179 397.045 485.949 398.882 491.802 398.588C497.655 398.293 494.446 402.565 492.793 402.621Z" fill="white"/>
<path d="M550.89 447.219C537.731 459.681 530.794 476.959 524.64 493.69C518.487 510.421 513.193 527.408 509.189 544.779C505.185 562.15 502.706 579.897 502.124 597.819C501.542 615.74 501.609 616.306 503.164 625.349C503.992 629.963 505.621 634.504 508.083 638.59C510.597 642.77 513.944 646.497 517.469 649.886C523.733 655.885 531.06 662.511 539.775 664.404C548.111 666.262 556.563 663.474 564.147 660.194C579.357 653.49 593.756 643.972 604.884 631.529C610.334 625.43 615.051 618.645 618.469 611.239C622.065 603.496 624.126 595.14 624.999 586.586C626.794 568.246 622.732 549.956 616.91 532.623C613.779 523.112 610.041 513.809 606.447 504.55C602.853 495.29 599.216 486.174 595.015 477.124C590.865 468.167 586.108 459.419 580.381 451.319C577.59 447.29 574.521 443.412 571.224 439.779C568.323 436.654 565.077 433.114 560.837 432.163C557.55 431.419 553.16 432.842 552.2 436.378C551.241 439.914 551.206 436.316 551.003 435.944C550.599 435.199 550.32 434.024 550.572 433.163C551.624 429.577 555.433 427.747 558.99 428.104C562.546 428.46 566.627 431.547 569.426 434.486C576.543 441.831 582.471 450.303 587.608 459.086C597.94 476.981 605.213 496.539 612.427 515.768C619.523 534.337 625.886 553.546 627.033 573.542C628.052 591.317 624.579 609.002 615.011 624.093C605.755 638.652 592.174 649.896 577.311 658.341C569.854 662.517 561.925 666.708 553.481 668.406C545.037 670.104 545.112 669.581 540.923 668.724C536.498 667.874 532.452 665.734 528.911 663.198C525.37 660.662 521.424 657.381 517.951 654.085C514.283 650.654 510.885 646.834 508.178 642.518C502.62 633.844 500.938 623.906 500.479 613.786C499.67 595.294 501.171 576.632 504.34 558.389C507.51 540.145 512.297 522.228 518.088 504.609C521.076 495.749 524.208 486.931 527.82 478.335C531.339 469.789 535.381 461.321 540.872 453.752C543.433 450.069 546.381 446.657 549.625 443.567C552.868 440.476 551.767 446.622 550.992 447.405L550.89 447.219Z" fill="white"/>
<path d="M617.568 439.535C621.22 464.801 630.131 489.137 643.625 510.859C647.032 516.241 650.675 521.615 654.639 526.695C658.501 531.588 662.548 536.381 667.463 540.34C676.029 547.258 687.754 551.372 698.464 546.995C709.36 542.517 715.811 531.412 718.436 520.338C719.832 514.514 720.327 508.578 720.729 502.692C721.029 496.619 721.372 490.404 719.693 484.444C717.912 478.298 714.167 472.738 710.389 467.557C706.814 462.749 702.825 458.286 698.66 454.16C690.237 445.959 680.626 438.886 670.577 432.775C660.284 426.435 649.41 421.014 638.401 415.787C633.688 413.526 628.201 410.722 623.044 413.165C617.887 415.608 615.462 421.749 615.186 427.205C615.002 429.958 615.197 432.746 615.392 435.534C615.587 438.322 615.553 437.376 614.601 437.17C613.648 436.964 613.403 435.41 613.336 434.843C612.836 428.845 612.369 422.467 614.904 416.747C617.177 411.652 621.853 407.663 627.685 408.229C630.484 408.516 633.122 409.613 635.668 410.761C638.5 411.994 641.29 413.371 644.081 414.748C649.804 417.544 655.579 420.432 661.176 423.659C683.018 435.777 704.382 451.652 717.042 473.828C729.702 496.003 722.449 486.201 722.933 493.052C723.306 499.481 722.837 506.127 722.124 512.544C720.856 524.568 717.381 536.949 708.19 545.444C698.998 553.939 698.416 552.206 692.534 552.873C686.651 553.54 681.358 552.198 676.359 549.852C664.583 544.318 656.108 533.372 648.788 523.003C633.204 500.971 622.363 475.515 617.202 449.02C616.61 445.724 616.019 442.428 615.52 439.082C615.453 438.516 615.503 437.283 616.312 437.445C617.121 437.608 617.509 439.206 617.577 439.772L617.568 439.535Z" fill="white"/>
</svg>
