<svg width="1450" height="720" viewBox="0 0 1450 720" fill="none" xmlns="http://www.w3.org/2000/svg">
<g id="header_titulo" clip-path="url(#clip0_418_2978)">
<rect width="1450" height="720" fill="#0367A5"/>
<g id="title">
<g id="Group">
<path id="Vector" d="M-70 714.522C-38.4878 713.096 -3.75024 713.31 22.6829 711.67C100.537 708.817 172.848 720.27 254.39 708.817C508.341 707.391 758.27 713.452 1014.39 720.227C1158.98 720.227 1313.94 721.183 1450 714.522" stroke="#0E9FE9" stroke-width="0.49" stroke-miterlimit="10"/>
<path id="Vector_2" d="M-70 708.817C91.2683 704.538 241.192 705.151 411.951 703.112C538 704.538 671.056 721.839 791.951 710.243C945.805 714.522 1110.69 725.02 1255.37 711.67C1320.24 711.67 1376.61 697.863 1450 708.817" stroke="#0E9FE9" stroke-width="0.49" stroke-miterlimit="10"/>
<path id="Vector_3" d="M-70 703.112C102.39 697.407 272.779 690.731 449.024 697.407C601.024 698.833 743.441 700.017 903.171 705.964C1084.83 708.817 1258.2 695.809 1450 703.112" stroke="#0E9FE9" stroke-width="0.49" stroke-miterlimit="10"/>
<path id="Vector_4" d="M-70 695.98C0.439025 694.554 76.8468 680.22 143.171 691.701C578.78 684.57 1008.94 704.21 1450 695.98" stroke="#0E9FE9" stroke-width="0.49" stroke-miterlimit="10"/>
<path id="Vector_5" d="M-70 690.275C-5.12195 688.849 62.8517 701.372 124.634 687.422C250.683 685.996 386.297 673.345 504.634 687.422C662.195 688.849 808.894 694.055 977.317 695.98C1134.88 697.407 1301.63 708.218 1450 690.275" stroke="#0E9FE9" stroke-width="0.49" stroke-miterlimit="10"/>
<path id="Vector_6" d="M-70 684.57C-10.6829 681.717 47.4478 671.148 106.098 680.291C152.439 678.865 207.029 694.796 245.122 680.291C365.61 677.438 486.45 668.895 606.585 683.143C693.707 684.57 771.487 690.304 866.098 688.849C925.415 690.275 979.467 703.126 1042.2 688.849C1177.51 690.275 1309.64 695.338 1450 684.57" stroke="#0E9FE9" stroke-width="0.49" stroke-miterlimit="10"/>
<path id="Vector_7" d="M-70 678.865C93.122 674.586 263.158 682.174 421.22 673.159C695.561 677.438 976.928 684.969 1246.1 683.143C1314.68 681.717 1386.68 689.605 1450 678.865" stroke="#0E9FE9" stroke-width="0.49" stroke-miterlimit="10"/>
<path id="Vector_8" d="M-70 673.159C102.39 667.454 274.947 656.186 449.024 667.454C602.878 668.88 768.521 679.863 912.439 676.012C1092.24 678.864 1262.5 682.116 1450 673.159" stroke="#0E9FE9" stroke-width="0.49" stroke-miterlimit="10"/>
<path id="Vector_9" d="M-70 666.028C0.439025 664.601 68.6537 671.819 143.171 661.749C411.951 657.47 686.904 674.743 949.512 671.733C1116.34 673.159 1274.88 681.289 1450 666.028" stroke="#0E9FE9" stroke-width="0.49" stroke-miterlimit="10"/>
<path id="Vector_10" d="M-70 660.323C-8.82927 658.896 44.2224 643.464 115.366 657.47C248.829 656.044 379.179 656.942 513.902 657.47C601.024 658.896 681.306 651.408 773.415 663.175C843.854 664.602 915.757 669.622 986.585 666.028C1140.44 667.454 1298.69 663.033 1450 660.323" stroke="#0E9FE9" stroke-width="0.49" stroke-miterlimit="10"/>
<path id="Vector_11" d="M-70 654.617C-14.3902 653.191 47.2254 650.567 96.8293 650.338C143.171 648.912 179.799 648.185 235.854 650.338C449.024 647.486 672.279 641.738 875.366 657.47C1066.29 660.323 1251.36 646.288 1450 654.617" stroke="#0E9FE9" stroke-width="0.49" stroke-miterlimit="10"/>
<path id="Vector_12" d="M-70 648.912C96.8293 644.633 274.317 641.067 430.488 643.207C582.488 644.633 738.788 655.202 884.634 651.765C1005.12 654.617 1117.6 638.885 1246.1 651.765C1314.68 651.765 1376.13 661.107 1450 648.912" stroke="#0E9FE9" stroke-width="0.49" stroke-miterlimit="10"/>
<path id="Vector_13" d="M-70 641.781C7.85366 640.354 76.0868 651.879 161.707 637.502C415.659 634.649 663.678 633.18 921.707 646.059C1097.8 648.912 1265.45 635.006 1450 641.781" stroke="#0E9FE9" stroke-width="0.49" stroke-miterlimit="10"/>
<path id="Vector_14" d="M-70 636.075C-1.41463 634.649 63.0185 644.034 133.902 631.796C408.244 627.517 695.376 625.164 958.78 641.781C1121.9 643.207 1288.25 627.475 1450 636.075" stroke="#0E9FE9" stroke-width="0.49" stroke-miterlimit="10"/>
<path id="Vector_15" d="M-70 630.37C-8.82927 628.944 64.9093 630.641 115.366 626.091C176.537 624.665 236.391 633.822 300.732 626.091C532.439 624.665 773.137 628.373 995.854 636.075C1147.85 636.075 1287.55 636.503 1450 630.37" stroke="#0E9FE9" stroke-width="0.49" stroke-miterlimit="10"/>
<path id="Vector_16" d="M-70 624.665C245.122 614.681 569.308 611.728 875.366 628.944C1066.29 628.944 1260.65 632.681 1450 624.665" stroke="#0E9FE9" stroke-width="0.49" stroke-miterlimit="10"/>
<path id="Vector_17" d="M-70 618.96C365.61 601.844 807.633 640.868 1236.83 623.238C1307.27 621.812 1385.31 610.63 1450 618.96" stroke="#0E9FE9" stroke-width="0.49" stroke-miterlimit="10"/>
<path id="Vector_18" d="M-70 611.828C263.659 603.27 599.115 615.023 930.976 616.107C1103.37 620.386 1274.24 626.333 1450 611.828" stroke="#0E9FE9" stroke-width="0.49" stroke-miterlimit="10"/>
<path id="Vector_19" d="M-70 606.123C-1.41463 604.696 57.6429 617.99 133.902 601.844C408.244 597.565 678.044 621.127 958.78 611.828C1121.9 613.254 1278.85 611.372 1450 606.123" stroke="#0E9FE9" stroke-width="0.49" stroke-miterlimit="10"/>
<path id="Vector_20" d="M-70 600.418C241.415 590.433 556.37 603.741 866.098 603.27C1060.73 607.549 1259.59 591.303 1450 600.418" stroke="#0E9FE9" stroke-width="0.49" stroke-miterlimit="10"/>
<path id="Vector_21" d="M-70 594.712C91.2683 590.433 239.895 593.971 411.951 589.007C538 590.433 667.849 598.278 791.951 596.139C945.805 600.418 1109.74 599.476 1255.37 597.565C1320.24 597.565 1383.51 611.5 1450 594.712" stroke="#0E9FE9" stroke-width="0.49" stroke-miterlimit="10"/>
<path id="Vector_22" d="M-70 589.007C100.537 583.302 260.897 570.579 439.756 583.302C593.61 584.728 748.057 578.652 903.171 591.86C1084.83 594.712 1267.47 601.273 1450 589.007" stroke="#0E9FE9" stroke-width="0.49" stroke-miterlimit="10"/>
<path id="Vector_23" d="M-70 581.875C4.14634 580.449 72.9541 578.909 152.439 577.597C415.659 573.318 667.033 571.463 940.244 587.581C1110.78 589.007 1274.12 588.836 1450 581.875" stroke="#0E9FE9" stroke-width="0.49" stroke-miterlimit="10"/>
<path id="Vector_24" d="M-70 576.17C-5.12195 574.744 61.6654 583.587 124.634 573.318C250.683 571.891 381.162 577.383 504.634 573.318C658.488 574.744 815.419 568.383 968.049 581.876C1129.32 583.302 1284.1 576.812 1450 576.17" stroke="#0E9FE9" stroke-width="0.49" stroke-miterlimit="10"/>
<path id="Vector_25" d="M-70 570.465C213.61 561.907 490.658 578.467 782.683 573.318C862.39 574.744 933.941 563.177 1023.66 574.744C1166.39 576.17 1313.55 567.313 1450 570.465" stroke="#0E9FE9" stroke-width="0.49" stroke-miterlimit="10"/>
<path id="Vector_26" d="M-70 564.76C91.2683 560.481 249.404 552.665 411.951 559.055C690 563.333 977.224 576.313 1246.1 569.039C1314.68 567.612 1381.23 561.65 1450 564.76" stroke="#0E9FE9" stroke-width="0.49" stroke-miterlimit="10"/>
<path id="Vector_27" d="M-70 559.055C102.39 553.349 267.44 553.677 449.024 553.349C601.024 554.776 759.623 556.601 903.171 561.907C1084.83 564.76 1269.16 557.129 1450 559.055" stroke="#0E9FE9" stroke-width="0.49" stroke-miterlimit="10"/>
<path id="Vector_28" d="M-70 551.923C115.366 549.07 295.467 543.166 486.098 549.07C638.098 551.923 788.429 563.633 940.244 557.628C1110.78 559.055 1288.69 558.456 1450 551.923" stroke="#0E9FE9" stroke-width="0.49" stroke-miterlimit="10"/>
<path id="Vector_29" d="M-70 546.218C-5.12195 544.791 66.8185 529.986 124.634 541.939C408.244 537.66 699.528 551.267 977.317 551.923C1134.88 553.349 1296.57 544.763 1450 546.218" stroke="#0E9FE9" stroke-width="0.49" stroke-miterlimit="10"/>
<path id="Vector_30" d="M-70 540.512C-14.3902 539.086 36.5483 546.66 96.8293 536.234C143.171 534.807 187.362 525.793 235.854 536.234C334.098 533.381 429.505 524.01 532.439 537.66C619.561 539.086 705.608 551.923 791.951 543.365C879.073 544.791 962.58 552.222 1051.46 544.791C1184.93 546.218 1321.45 550.24 1450 540.512" stroke="#0E9FE9" stroke-width="0.49" stroke-miterlimit="10"/>
<path id="Vector_31" d="M-70 534.807C93.122 530.528 254.872 517.221 421.22 529.102C695.561 533.381 963.6 546.175 1246.1 539.086C1314.68 537.66 1384.36 539.015 1450 534.807" stroke="#0E9FE9" stroke-width="0.49" stroke-miterlimit="10"/>
<path id="Vector_32" d="M-70 529.102C106.098 521.97 288.46 537.474 458.293 524.823C712.244 527.676 969.865 532.069 1218.29 533.381C1296.15 531.955 1361.86 516.337 1450 529.102" stroke="#0E9FE9" stroke-width="0.49" stroke-miterlimit="10"/>
<path id="Vector_33" d="M-70 521.971C-1.41463 520.544 74.0849 534.508 133.902 517.692C254.39 517.692 381.57 529.573 495.366 519.118C647.366 520.544 804.853 516.379 949.512 527.676C1116.34 529.102 1288.34 515.253 1450 521.971" stroke="#0E9FE9" stroke-width="0.49" stroke-miterlimit="10"/>
<path id="Vector_34" d="M-70 516.265C-8.82927 514.839 45.52 511.473 115.366 513.413C248.829 511.986 377.102 525.964 513.902 513.413C671.463 514.839 827.838 508.749 986.585 521.971C1140.44 521.971 1303.45 505.611 1450 516.265" stroke="#0E9FE9" stroke-width="0.49" stroke-miterlimit="10"/>
<path id="Vector_35" d="M-70 510.56C245.122 500.576 567.547 492.432 875.366 514.839C1066.29 514.839 1252.14 522.028 1450 510.56" stroke="#0E9FE9" stroke-width="0.49" stroke-miterlimit="10"/>
<path id="Vector_36" d="M-70 504.855C96.8293 500.576 260.581 489.422 430.488 499.15C699.268 503.429 966.788 521.4 1236.83 509.134C1307.27 507.707 1388.35 511.744 1450 504.855" stroke="#0E9FE9" stroke-width="0.49" stroke-miterlimit="10"/>
<path id="Vector_37" d="M-70 497.723C7.85366 496.297 76.3834 481.178 161.707 493.444C415.659 490.592 677.859 489.365 921.707 502.002C1097.8 504.855 1284.69 516.479 1450 497.723" stroke="#0E9FE9" stroke-width="0.49" stroke-miterlimit="10"/>
<path id="Vector_38" d="M-70 492.018C-1.41463 490.592 71.1561 500.69 133.902 487.739C408.244 483.46 674.615 504.512 958.78 497.723C1121.9 499.15 1286.54 489.023 1450 492.018" stroke="#0E9FE9" stroke-width="0.49" stroke-miterlimit="10"/>
<path id="Vector_39" d="M-70 486.313C-8.82927 484.886 54.7512 490.806 115.366 482.034C170.976 480.608 232.091 481.007 282.195 482.034C360.049 480.608 446.837 491.476 513.902 483.46C628.829 484.886 747.482 492.574 856.829 490.592C1055.17 493.444 1247.01 498.85 1450 486.313" stroke="#0E9FE9" stroke-width="0.49" stroke-miterlimit="10"/>
<path id="Vector_40" d="M-70 480.608C-18.0976 477.755 35.5473 469.354 87.561 476.329C130.195 474.902 181.875 481.406 217.317 476.329C439.756 472.05 662.825 468.313 884.634 483.46C1073.71 486.313 1267.04 482.947 1450 480.608" stroke="#0E9FE9" stroke-width="0.49" stroke-miterlimit="10"/>
<path id="Vector_41" d="M-70 474.902C365.61 457.787 800.941 475.901 1236.83 479.181C1307.27 477.755 1389.35 462.094 1450 474.902" stroke="#0E9FE9" stroke-width="0.49" stroke-miterlimit="10"/>
<path id="Vector_42" d="M-70 467.771C263.659 459.213 588.753 460.026 930.976 472.05C1103.37 476.329 1281.37 478.768 1450 467.771" stroke="#0E9FE9" stroke-width="0.49" stroke-miterlimit="10"/>
<path id="Vector_43" d="M-70 462.066C-5.12195 460.639 59.5707 461.638 124.634 459.213C250.683 457.787 378.715 470.281 504.634 459.213C658.488 460.639 807.3 470.352 968.049 467.771C1129.32 469.197 1289.32 453.265 1450 462.066" stroke="#0E9FE9" stroke-width="0.49" stroke-miterlimit="10"/>
<path id="Vector_44" d="M-70 456.36C241.415 446.376 552.737 446.02 866.098 459.213C1060.73 463.492 1264.28 457.758 1450 456.36" stroke="#0E9FE9" stroke-width="0.49" stroke-miterlimit="10"/>
<path id="Vector_45" d="M-70 450.655C91.2683 446.376 249.293 455.376 411.951 444.95C538 446.376 659.989 437.718 791.951 452.081C945.805 456.36 1107.11 450.527 1255.37 453.508C1320.24 453.508 1390.4 444.55 1450 450.655" stroke="#0E9FE9" stroke-width="0.49" stroke-miterlimit="10"/>
<path id="Vector_46" d="M-70 444.95C102.39 439.245 268.07 450.512 449.024 439.245C601.024 440.671 755.212 437.077 903.171 447.802C1084.83 450.655 1262.85 440.585 1450 444.95" stroke="#0E9FE9" stroke-width="0.49" stroke-miterlimit="10"/>
<path id="Vector_47" d="M-70 437.818C0.439025 436.392 80.7951 445.52 143.171 433.539C578.78 426.408 1013.82 466.644 1450 437.818" stroke="#0E9FE9" stroke-width="0.49" stroke-miterlimit="10"/>
<path id="Vector_48" d="M-70 432.113C-5.12195 430.687 58.1249 435.336 124.634 429.26C250.683 427.834 371.912 413.115 504.634 429.26C662.195 430.687 828.876 443.153 977.317 437.818C1134.88 439.245 1289.88 449.899 1450 432.113" stroke="#0E9FE9" stroke-width="0.49" stroke-miterlimit="10"/>
<path id="Vector_49" d="M-70 426.408C-10.6829 423.555 42.7395 414.869 106.098 422.129C152.439 420.703 196.5 421.886 245.122 422.129C508.341 417.85 763.831 416.452 1032.93 432.113C1171.95 432.113 1304.19 424.325 1450 426.408" stroke="#0E9FE9" stroke-width="0.49" stroke-miterlimit="10"/>
<path id="Vector_50" d="M-70 420.703C93.122 416.424 250.59 416.039 421.22 414.997C695.561 419.276 980.802 431.757 1246.1 424.982C1314.68 423.555 1378.32 419.961 1450 420.703" stroke="#0E9FE9" stroke-width="0.49" stroke-miterlimit="10"/>
<path id="Vector_51" d="M-70 414.997C102.39 409.292 272.853 396.37 449.024 409.292C601.024 410.718 745.258 410.519 903.171 417.85C1084.83 420.703 1265.19 425.909 1450 414.997" stroke="#0E9FE9" stroke-width="0.49" stroke-miterlimit="10"/>
<path id="Vector_52" d="M-70 407.866C0.439025 406.439 67.5785 397.097 143.171 403.587C411.951 399.308 687.386 402.745 949.512 413.571C1116.34 414.997 1290.72 405.284 1450 407.866" stroke="#0E9FE9" stroke-width="0.49" stroke-miterlimit="10"/>
<path id="Vector_53" d="M-70 402.161C-8.82927 400.734 58.7366 390.251 115.366 399.308C248.829 397.882 369.91 392.804 513.902 399.308C601.024 400.734 676.524 404.486 773.415 405.013C843.854 406.44 924.97 421.116 986.585 407.866C1140.44 409.292 1298.07 405.627 1450 402.161" stroke="#0E9FE9" stroke-width="0.49" stroke-miterlimit="10"/>
<path id="Vector_54" d="M-70 396.455C-14.3902 395.029 31.8215 385.844 96.8293 392.176C143.171 390.75 194.48 391.592 235.854 392.176C449.024 389.324 659.544 383.362 875.366 399.308C1066.29 402.161 1260.19 416.081 1450 396.455" stroke="#0E9FE9" stroke-width="0.49" stroke-miterlimit="10"/>
<path id="Vector_55" d="M-70 390.75C96.8293 386.471 270.183 371.352 430.488 385.045C582.488 386.471 723.533 397.625 884.634 393.603C1005.12 396.455 1126.13 404.899 1246.1 393.603C1314.68 393.603 1372.55 405.598 1450 390.75" stroke="#0E9FE9" stroke-width="0.49" stroke-miterlimit="10"/>
<path id="Vector_56" d="M-70 383.619C7.85366 382.192 83.9463 387.826 161.707 379.34C415.659 376.487 677.692 376.088 921.707 387.898C1097.8 390.75 1266.17 383.89 1450 383.619" stroke="#0E9FE9" stroke-width="0.49" stroke-miterlimit="10"/>
<path id="Vector_57" d="M-70 377.913C-1.41463 376.487 75.1415 383.191 133.902 375.061C254.39 373.634 368.483 367.601 495.366 375.061C647.366 376.487 801.071 383.02 949.512 383.619C1116.34 385.045 1283.36 369.641 1450 377.913" stroke="#0E9FE9" stroke-width="0.49" stroke-miterlimit="10"/>
<path id="Vector_58" d="M-70 372.208C-8.82927 370.782 57.1981 378.184 115.366 369.355C248.829 367.929 379.512 381.265 513.902 369.355C675.171 370.782 827.189 386.086 995.854 377.913C1147.85 377.913 1295.53 388.511 1450 372.208" stroke="#0E9FE9" stroke-width="0.49" stroke-miterlimit="10"/>
<path id="Vector_59" d="M-70 366.503C245.122 356.519 550.216 377.514 875.366 370.782C1066.29 370.782 1259.91 385.658 1450 366.503" stroke="#0E9FE9" stroke-width="0.49" stroke-miterlimit="10"/>
<path id="Vector_60" d="M-70 360.798C96.8293 356.519 273.353 348.417 430.488 355.092C699.268 359.371 971.793 381.123 1236.83 365.077C1307.27 363.65 1368.96 377.657 1450 360.798" stroke="#0E9FE9" stroke-width="0.49" stroke-miterlimit="10"/>
<path id="Vector_61" d="M-70 353.666C263.659 345.108 590.718 339.018 930.976 357.945C1103.37 362.224 1279.19 365.02 1450 353.666" stroke="#0E9FE9" stroke-width="0.49" stroke-miterlimit="10"/>
<path id="Vector_62" d="M-70 347.961C-1.41463 346.535 55.9005 354.08 133.902 343.682C408.244 339.403 681.825 334.311 958.78 353.666C1121.9 355.092 1279.72 343.168 1450 347.961" stroke="#0E9FE9" stroke-width="0.49" stroke-miterlimit="10"/>
<path id="Vector_63" d="M-70 342.256C-10.6829 340.829 36.7337 326.267 106.098 337.977C161.707 336.55 215.408 328.592 272.927 337.977C356.341 336.55 443.148 325.411 523.171 339.403C610.293 340.829 693.615 337.492 782.683 345.108C856.829 346.535 936.796 346.492 1005.12 347.961C1153.41 349.387 1308.16 344.324 1450 342.256" stroke="#0E9FE9" stroke-width="0.49" stroke-miterlimit="10"/>
<path id="Vector_64" d="M-70 336.55C87.561 332.271 240.821 315.669 402.683 330.845C532.439 332.271 664.179 321.374 791.951 337.977C945.805 342.256 1106.29 326.809 1255.37 339.403C1320.24 339.403 1387.03 330.032 1450 336.55" stroke="#0E9FE9" stroke-width="0.49" stroke-miterlimit="10"/>
<path id="Vector_65" d="M-70 330.845C365.61 313.729 806.243 338.262 1236.83 335.124C1307.27 333.698 1387.09 333.584 1450 330.845" stroke="#0E9FE9" stroke-width="0.49" stroke-miterlimit="10"/>
<path id="Vector_66" d="M-70 323.714C4.14634 322.287 78.7561 321.931 152.439 319.435C411.951 315.156 678.637 314.514 930.976 327.993C1103.37 330.845 1287.25 343.126 1450 323.714" stroke="#0E9FE9" stroke-width="0.49" stroke-miterlimit="10"/>
<path id="Vector_67" d="M-70 318.008C-5.12195 316.582 65.8917 313.516 124.634 315.156C250.683 313.729 377.14 325.154 504.634 315.156C658.488 316.582 823.463 331.487 968.049 323.714C1129.32 325.14 1279.65 320.248 1450 318.008" stroke="#0E9FE9" stroke-width="0.49" stroke-miterlimit="10"/>
<path id="Vector_68" d="M-70 312.303C213.61 303.745 486.691 318.993 782.683 315.156C862.39 316.582 952.07 312.103 1023.66 316.582C1166.39 318.008 1313.59 329.804 1450 312.303" stroke="#0E9FE9" stroke-width="0.49" stroke-miterlimit="10"/>
<path id="Vector_69" d="M-70 306.598C91.2683 302.319 240.877 299.095 411.951 300.893C538 302.319 661.472 310.905 791.951 308.024C945.805 312.303 1103.03 309.978 1255.37 309.45C1320.24 309.45 1386.44 302.989 1450 306.598" stroke="#0E9FE9" stroke-width="0.49" stroke-miterlimit="10"/>
<path id="Vector_70" d="M-70 300.893C102.39 295.187 280.935 278.314 449.024 295.187C601.024 296.614 758.604 305.799 903.171 303.745C1084.83 306.598 1277.44 305.671 1450 300.893" stroke="#0E9FE9" stroke-width="0.49" stroke-miterlimit="10"/>
<path id="Vector_71" d="M-70 293.761C115.366 290.908 295.134 288.156 486.098 290.908C638.098 293.761 784.537 302.333 940.244 299.466C1110.78 300.893 1269.94 288.897 1450 293.761" stroke="#0E9FE9" stroke-width="0.49" stroke-miterlimit="10"/>
<path id="Vector_72" d="M-70 288.056C-5.12195 286.63 69.2468 276.574 124.634 283.777C408.244 279.498 695.264 300.536 977.317 293.761C1134.88 295.187 1282 282.75 1450 288.056" stroke="#0E9FE9" stroke-width="0.49" stroke-miterlimit="10"/>
<path id="Vector_73" d="M-70 282.351C-14.3902 280.924 48.4673 267.489 96.8293 278.072C146.878 276.645 201.58 282.65 245.122 278.072C341.512 275.219 445.818 271.168 532.439 279.498C619.561 279.498 701.938 292.72 791.951 285.203C879.073 286.63 974.166 272.095 1051.46 286.63C1184.93 288.056 1316.94 295.23 1450 282.351" stroke="#0E9FE9" stroke-width="0.49" stroke-miterlimit="10"/>
<path id="Vector_74" d="M-70 276.645C93.122 272.367 265.179 265.734 421.22 270.94C695.561 275.219 967.122 275.348 1246.1 280.924C1314.68 279.498 1377.87 283.078 1450 276.645" stroke="#0E9FE9" stroke-width="0.49" stroke-miterlimit="10"/>
<path id="Vector_75" d="M-70 270.94C106.098 263.809 290.796 274.32 458.293 266.661C712.244 269.514 956.649 266.519 1218.29 275.219C1296.15 273.793 1364.71 262.91 1450 270.94" stroke="#0E9FE9" stroke-width="0.49" stroke-miterlimit="10"/>
<path id="Vector_76" d="M-70 263.809C0.439025 262.382 69.8029 256.563 143.171 259.53C411.951 256.677 684.124 270.198 949.512 269.514C1116.34 270.94 1288.14 273.992 1450 263.809" stroke="#0E9FE9" stroke-width="0.49" stroke-miterlimit="10"/>
<path id="Vector_77" d="M-70 258.103C-8.82927 256.677 51.3034 250.615 115.366 255.251C248.829 253.824 384.313 262.24 513.902 255.251C601.024 256.677 693.522 244.996 773.415 260.956C843.854 262.382 915.905 270.512 986.585 263.809C1140.44 265.235 1302.47 255.065 1450 258.103" stroke="#0E9FE9" stroke-width="0.49" stroke-miterlimit="10"/>
<path id="Vector_78" d="M-70 252.398C245.122 242.414 549.641 258.118 875.366 256.677C1066.29 256.677 1266.78 248.618 1450 252.398" stroke="#0E9FE9" stroke-width="0.49" stroke-miterlimit="10"/>
<path id="Vector_79" d="M-70 246.693C96.8293 242.414 262.38 226.582 430.488 240.988C699.268 245.267 971.052 252.584 1236.83 250.972C1307.27 249.546 1386.16 246.622 1450 246.693" stroke="#0E9FE9" stroke-width="0.49" stroke-miterlimit="10"/>
<path id="Vector_80" d="M-70 239.561C7.85366 238.135 78.0702 241.159 161.707 235.282C415.659 232.43 668.22 226.168 921.707 243.84C1097.8 246.693 1274.5 243.441 1450 239.561" stroke="#0E9FE9" stroke-width="0.49" stroke-miterlimit="10"/>
<path id="Vector_81" d="M-70 233.856C-1.41463 232.43 67.3376 217.939 133.902 229.577C408.244 225.298 681.177 237.907 958.78 239.561C1121.9 240.988 1293.18 246.921 1450 233.856" stroke="#0E9FE9" stroke-width="0.49" stroke-miterlimit="10"/>
<path id="Vector_82" d="M-70 228.151C285.902 216.74 645.197 222.474 995.854 233.856C1147.85 233.856 1291.99 241.915 1450 228.151" stroke="#0E9FE9" stroke-width="0.49" stroke-miterlimit="10"/>
<path id="Vector_83" d="M-70 222.446C-18.0976 219.593 39.6439 212.062 87.561 218.167C130.195 216.74 167.713 227.609 217.317 218.167C439.756 213.888 673.15 227.98 884.634 225.298C1073.71 228.151 1267.64 230.576 1450 222.446" stroke="#0E9FE9" stroke-width="0.49" stroke-miterlimit="10"/>
<path id="Vector_84" d="M-70 216.74C365.61 199.625 792.192 213.731 1236.83 221.019C1307.27 219.593 1371.94 207.769 1450 216.74" stroke="#0E9FE9" stroke-width="0.49" stroke-miterlimit="10"/>
<path id="Vector_85" d="M-70 209.609C263.659 201.051 607.16 208.026 930.976 213.888C1103.37 218.167 1279.37 207.583 1450 209.609" stroke="#0E9FE9" stroke-width="0.49" stroke-miterlimit="10"/>
<path id="Vector_86" d="M-70 203.904C-5.12195 202.477 60.2937 199.482 124.634 201.051C250.683 199.625 389.114 203.775 504.634 201.051C658.488 202.477 803.203 222.802 968.049 209.609C1129.32 211.035 1294.63 211.107 1450 203.904" stroke="#0E9FE9" stroke-width="0.49" stroke-miterlimit="10"/>
<path id="Vector_87" d="M-70 198.198C241.415 188.214 548.955 206.528 866.098 201.051C1060.73 205.33 1261.52 209.652 1450 198.198" stroke="#0E9FE9" stroke-width="0.49" stroke-miterlimit="10"/>
<path id="Vector_88" d="M-70 192.493C91.2683 188.214 250.053 171.897 411.951 186.788C538 188.214 655.374 177.346 791.951 193.92C945.805 198.198 1111.76 185.647 1255.37 195.346C1320.24 195.346 1385.81 191.78 1450 192.493" stroke="#0E9FE9" stroke-width="0.49" stroke-miterlimit="10"/>
<path id="Vector_89" d="M-70 186.788C102.39 181.083 279.47 193.705 449.024 181.083C601.024 182.509 755.564 189.498 903.171 189.64C1084.83 192.493 1270.53 198.427 1450 186.788" stroke="#0E9FE9" stroke-width="0.49" stroke-miterlimit="10"/>
<path id="Vector_90" d="M-70 179.656C0.439025 178.23 70.3034 164.609 143.171 175.377C578.78 168.246 1004.14 189.469 1450 179.656" stroke="#0E9FE9" stroke-width="0.49" stroke-miterlimit="10"/>
<path id="Vector_91" d="M-70 173.951C-5.12195 172.525 65.8917 162.013 124.634 171.099C250.683 169.672 378.363 161.4 504.634 171.099C662.195 172.525 811.452 180.74 977.317 179.656C1134.88 181.083 1299.2 171.099 1450 173.951" stroke="#0E9FE9" stroke-width="0.49" stroke-miterlimit="10"/>
<path id="Vector_92" d="M-70 168.246C-10.6829 165.393 45.6127 170.685 106.098 163.967C152.439 162.541 187.9 171.327 245.122 163.967C365.61 161.114 492.326 160.658 606.585 166.82C665.902 168.246 714.264 156.293 782.683 171.099C1005.12 175.377 1222.8 182.951 1450 168.246" stroke="#0E9FE9" stroke-width="0.49" stroke-miterlimit="10"/>
<path id="Vector_93" d="M-70 162.541C93.122 158.262 266.124 141.36 421.22 156.835C695.561 161.114 974.981 183.037 1246.1 166.82C1314.68 165.393 1370.57 175.919 1450 162.541" stroke="#0E9FE9" stroke-width="0.49" stroke-miterlimit="10"/>
<path id="Vector_94" d="M-70 156.835C102.39 151.13 283.4 144.883 449.024 151.13C601.024 152.556 758.789 159.931 903.171 159.688C1084.83 162.541 1269.31 167.576 1450 156.835" stroke="#0E9FE9" stroke-width="0.49" stroke-miterlimit="10"/>
<path id="Vector_95" d="M-70 149.704C115.366 146.851 292.539 133.487 486.098 146.851C638.098 149.704 793.694 152.371 940.244 155.409C1110.78 156.835 1272.2 169.301 1450 149.704" stroke="#0E9FE9" stroke-width="0.49" stroke-miterlimit="10"/>
<path id="Vector_96" d="M-70 143.999C-8.82927 142.572 46.762 139.862 115.366 141.146C248.829 139.72 374.693 129.208 513.902 141.146C601.024 142.572 690.779 141.859 773.415 146.851C843.854 148.278 921.244 147.393 986.585 149.704C1140.44 151.13 1304.08 137.01 1450 143.999" stroke="#0E9FE9" stroke-width="0.49" stroke-miterlimit="10"/>
<path id="Vector_97" d="M-70 138.293C-14.3902 136.867 49.5795 140.504 96.8293 134.014C143.171 132.588 188.4 144.655 235.854 134.014C449.024 131.162 660.416 128.438 875.366 141.146C1066.29 143.999 1264.63 156.079 1450 138.293" stroke="#0E9FE9" stroke-width="0.49" stroke-miterlimit="10"/>
<path id="Vector_98" d="M-70 132.588C96.8293 128.309 271.759 133.701 430.488 126.883C582.488 128.309 729.872 146.88 884.634 135.441C1005.12 138.293 1115.75 151.144 1246.1 135.441C1314.68 135.441 1374.95 143.114 1450 132.588" stroke="#0E9FE9" stroke-width="0.49" stroke-miterlimit="10"/>
<path id="Vector_99" d="M-70 126.883C106.098 119.751 274.947 104.747 458.293 122.604C712.244 125.457 963.007 128.623 1218.29 131.162C1296.15 129.736 1366.84 137.48 1450 126.883" stroke="#0E9FE9" stroke-width="0.49" stroke-miterlimit="10"/>
<path id="Vector_100" d="M-70 119.751C-1.41463 118.325 72.4351 115.187 133.902 116.899C254.39 115.472 367.816 114.66 495.366 116.899C647.366 118.325 797.197 131.533 949.512 125.457C1116.34 126.883 1276.59 134.842 1450 119.751" stroke="#0E9FE9" stroke-width="0.49" stroke-miterlimit="10"/>
<path id="Vector_101" d="M-70 114.046C-8.82927 112.62 51.841 118.91 115.366 111.194C248.829 109.767 390.208 114.759 513.902 111.194C675.171 112.62 827.653 120.493 995.854 119.751C1147.85 119.751 1300.72 113.205 1450 114.046" stroke="#0E9FE9" stroke-width="0.49" stroke-miterlimit="10"/>
<path id="Vector_102" d="M-70 108.341C245.122 98.3567 550.141 99.512 875.366 112.62C1066.29 112.62 1250.14 112.663 1450 108.341" stroke="#0E9FE9" stroke-width="0.49" stroke-miterlimit="10"/>
<path id="Vector_103" d="M-70 102.636C96.8293 98.3567 266.105 88.9573 430.488 96.9304C699.268 101.209 976.186 106.529 1236.83 106.915C1307.27 105.488 1386.85 118.682 1450 102.636" stroke="#0E9FE9" stroke-width="0.49" stroke-miterlimit="10"/>
<path id="Vector_104" d="M-70 95.5041C263.659 86.9462 604.917 104.048 930.976 99.783C1103.37 104.062 1271.99 116.385 1450 95.5041" stroke="#0E9FE9" stroke-width="0.49" stroke-miterlimit="10"/>
<path id="Vector_105" d="M-70 89.7989C-1.41463 88.3726 74.5112 101.552 133.902 85.52C408.244 81.241 690.297 106.401 958.78 95.5041C1121.9 96.9304 1289.58 85.4201 1450 89.7989" stroke="#0E9FE9" stroke-width="0.49" stroke-miterlimit="10"/>
<path id="Vector_106" d="M-70 84.0937C-10.6829 82.6674 48.4302 82.1825 106.098 79.8148C161.707 78.3885 224.695 90.0129 272.927 79.8148C356.341 78.3885 446.763 92.566 523.171 81.2411C610.293 82.6674 698.1 74.5232 782.683 86.9463C856.829 88.3727 932.978 103.434 1005.12 89.799C1153.41 91.2253 1310.09 87.6024 1450 84.0937" stroke="#0E9FE9" stroke-width="0.49" stroke-miterlimit="10"/>
<path id="Vector_107" d="M-70 78.3885C87.561 74.1095 248.792 81.6119 402.683 72.6832C532.439 74.1095 672.279 83.7371 791.951 79.8148C945.805 84.0937 1111.78 69.2601 1255.37 81.2411C1320.24 81.2411 1388.68 75.379 1450 78.3885" stroke="#0E9FE9" stroke-width="0.49" stroke-miterlimit="10"/>
<path id="Vector_108" d="M-70 72.6832C365.61 55.5675 811.359 84.0508 1236.83 76.9621C1307.27 75.5358 1387.85 71.3282 1450 72.6832" stroke="#0E9FE9" stroke-width="0.49" stroke-miterlimit="10"/>
<path id="Vector_109" d="M-70 65.5516C263.659 56.9938 606.604 78.26 930.976 69.8306C1103.37 74.1095 1274.7 77.0905 1450 65.5516" stroke="#0E9FE9" stroke-width="0.49" stroke-miterlimit="10"/>
<path id="Vector_110" d="M-70 59.8464C-5.12195 58.4201 55.6039 52.3012 124.634 56.9938C250.683 55.5675 383.331 62.1713 504.634 56.9938C658.488 58.4201 816.382 53.428 968.049 65.5516C1129.32 66.9779 1287.84 51.4597 1450 59.8464" stroke="#0E9FE9" stroke-width="0.49" stroke-miterlimit="10"/>
<path id="Vector_111" d="M-70 54.1412C213.61 45.5833 500.111 44.9985 782.683 56.9938C862.39 58.4201 944.062 59.3757 1023.66 58.4201C1166.39 59.8464 1307.71 73.2537 1450 54.1412" stroke="#0E9FE9" stroke-width="0.49" stroke-miterlimit="10"/>
<path id="Vector_112" d="M-70 48.4359C91.2683 44.157 255.336 52.7434 411.951 42.7307C538 44.157 673.15 31.577 791.951 49.8622C945.805 54.1412 1099.94 66.9779 1255.37 51.2885C1320.24 51.2885 1377.43 60.802 1450 48.4359" stroke="#0E9FE9" stroke-width="0.49" stroke-miterlimit="10"/>
<path id="Vector_113" d="M-70 42.7307C102.39 37.0255 284.846 33.4597 449.024 37.0255C601.024 38.4518 753.766 46.0113 903.171 45.5834C1084.83 48.436 1271.47 50.6753 1450 42.7307" stroke="#0E9FE9" stroke-width="0.49" stroke-miterlimit="10"/>
<path id="Vector_114" d="M-70 35.5992C0.439025 34.1729 76.0127 31.2917 143.171 31.3203C578.78 24.1887 1010.52 60.8734 1450 35.5992" stroke="#0E9FE9" stroke-width="0.49" stroke-miterlimit="10"/>
<path id="Vector_115" d="M-70 29.8939C-5.12195 28.4676 53.9912 38.4233 124.634 25.615C408.244 21.3361 694.912 18.2838 977.317 35.5992C1134.88 37.0255 1285.78 24.4597 1450 29.8939" stroke="#0E9FE9" stroke-width="0.49" stroke-miterlimit="10"/>
<path id="Vector_116" d="M-70 24.1887C-14.3902 22.7624 49.6907 29.894 96.8293 19.9098C146.878 18.4835 201.209 32.4043 245.122 19.9098C341.512 17.0572 427.763 11.9367 532.439 21.3361C619.561 21.3361 715.08 11.5944 791.951 27.0413C875.366 28.4677 949.271 42.7593 1042.2 28.4677C1177.51 29.894 1320.04 16.8718 1450 24.1887" stroke="#0E9FE9" stroke-width="0.49" stroke-miterlimit="10"/>
<path id="Vector_117" d="M-70 18.4834C93.122 14.2045 264.919 19.4105 421.22 12.7782C695.561 17.0571 976.483 21.9922 1246.1 22.7624C1314.68 21.3361 1377.47 24.2172 1450 18.4834" stroke="#0E9FE9" stroke-width="0.49" stroke-miterlimit="10"/>
<path id="Vector_118" d="M-70 12.7782C106.098 5.64665 289.202 -4.5372 458.293 7.07296C610.293 8.49927 753.21 27.3123 912.439 15.6308C1092.24 18.4834 1259.59 0.839988 1450 12.7782" stroke="#0E9FE9" stroke-width="0.49" stroke-miterlimit="10"/>
<path id="Vector_119" d="M-70 5.64666C0.439025 4.22035 68.4312 -7.7749 143.171 1.36774C411.951 -2.91119 683.79 18.4264 949.512 11.3519C1116.34 12.7782 1283.95 21.6784 1450 5.64666" stroke="#0E9FE9" stroke-width="0.49" stroke-miterlimit="10"/>
<path id="Vector_120" d="M-70 -0.0585488C-8.82927 -1.48486 53.88 -9.01577 115.366 -2.91117C248.829 -4.33748 375.026 0.540501 513.902 -2.91117C601.024 -1.48486 679.972 13.5627 773.415 2.79407C843.854 4.22038 905.34 12.1792 986.585 5.64669C1140.44 7.073 1303.04 1.45334 1450 -0.0585488" stroke="#0E9FE9" stroke-width="0.49" stroke-miterlimit="10"/>
<path id="Vector_121" d="M-70 -5.7638C-14.3902 -7.19011 38.8098 -21.6957 96.8293 -10.0427C139.463 -11.469 191.051 -22.1949 226.585 -10.0427C443.463 -14.3217 656.226 10.2964 875.366 -2.91118C1066.29 -0.0585628 1248.95 -5.52133 1450 -5.7638" stroke="#0E9FE9" stroke-width="0.49" stroke-miterlimit="10"/>
</g>
</g>
</g>
<defs>
<clipPath id="clip0_418_2978">
<rect width="1450" height="720" fill="white"/>
</clipPath>
</defs>
</svg>
