<svg width="266" height="32" viewBox="0 0 266 32" fill="none" xmlns="http://www.w3.org/2000/svg">
<g id="Frame 20">
<path id="Vector" d="M23.0003 6.3125H3.8663C3.61118 6.309 3.35944 6.25546 3.12625 6.15511C2.89307 6.05476 2.68327 5.90969 2.50952 5.72864C2.33576 5.54759 2.20165 5.33431 2.11526 5.10166C2.02887 4.86902 1.99201 4.62183 2.00688 4.375C2.00564 3.8838 2.19697 3.41048 2.54217 3.05079C2.88736 2.69109 3.36066 2.47188 3.8663 2.4375H23.0003C23.2654 2.4375 23.5197 2.33544 23.7072 2.15376C23.8947 1.97208 24 1.72568 24 1.46875C24 1.21182 23.8947 0.965416 23.7072 0.78374C23.5197 0.602064 23.2654 0.5 23.0003 0.5H3.8663C2.83021 0.535162 1.84871 0.958891 1.12881 1.68182C0.408903 2.40475 0.00687264 3.37036 0.00750783 4.375C-0.00250261 4.53308 -0.00250261 4.69161 0.00750783 4.84969C-0.00212397 4.92691 -0.00212397 5.00497 0.00750783 5.08219V27.625C0.00687264 28.6296 0.408903 29.5953 1.12881 30.3182C1.84871 31.0411 2.83021 31.4648 3.8663 31.5H23.0003C23.2654 31.5 23.5197 31.3979 23.7072 31.2163C23.8947 31.0346 24 30.7882 24 30.5312V7.34906C24.0006 7.0855 23.8975 6.83163 23.7118 6.63907C23.5261 6.44652 23.2717 6.32974 23.0003 6.3125ZM22.0006 29.5625H3.8663C3.36066 29.5281 2.88736 29.3089 2.54217 28.9492C2.19697 28.5895 2.00564 28.1162 2.00688 27.625V7.81406C2.57529 8.11793 3.21741 8.26847 3.8663 8.25H22.0006V29.5625Z" fill="white"/>
<text id="LIVRO DO CURSO" fill="white" xml:space="preserve" style="white-space: pre" font-family="'montserrat', sans-serif" font-size="24" font-weight="bold" letter-spacing="0em"><tspan x="44" y="24.604">LIVRO DO CURSO</tspan></text>
</g>
</svg>
