<svg width="45" height="42" viewBox="0 0 45 42" fill="none" xmlns="http://www.w3.org/2000/svg">
<rect width="42" height="45" rx="21" transform="matrix(0 -1 -1 0 45 42)" fill="#075585"/>
<path d="M15.429 33.7152C15.0541 33.3402 14.8434 32.8315 14.8434 32.3012C14.8434 31.7709 15.0541 31.2623 15.429 30.8872L25.329 20.9872L15.429 11.0872C15.0647 10.71 14.8631 10.2048 14.8677 9.6804C14.8722 9.15601 15.0826 8.65438 15.4534 8.28357C15.8242 7.91275 16.3258 7.70242 16.8502 7.69786C17.3746 7.6933 17.8798 7.89489 18.257 8.25921L29.571 19.5732C29.946 19.9483 30.1566 20.4569 30.1566 20.9872C30.1566 21.5175 29.946 22.0262 29.571 22.4012L18.257 33.7152C17.882 34.0902 17.3733 34.3008 16.843 34.3008C16.3127 34.3008 15.8041 34.0902 15.429 33.7152Z" fill="white"/>
</svg>
