<svg width="45" height="42" viewBox="0 0 45 42" fill="none" xmlns="http://www.w3.org/2000/svg">
<rect y="42" width="42" height="45" rx="21" transform="rotate(-90 0 42)" fill="#075585"/>
<path d="M29.571 33.7152C29.9459 33.3402 30.1565 32.8315 30.1565 32.3012C30.1565 31.7709 29.9459 31.2623 29.571 30.8872L19.671 20.9872L29.571 11.0872C29.9353 10.71 30.1369 10.2048 30.1323 9.6804C30.1277 9.15601 29.9174 8.65438 29.5466 8.28357C29.1758 7.91275 28.6742 7.70242 28.1498 7.69786C27.6254 7.6933 27.1202 7.89489 26.743 8.25921L15.429 19.5732C15.054 19.9483 14.8434 20.4569 14.8434 20.9872C14.8434 21.5175 15.054 22.0262 15.429 22.4012L26.743 33.7152C27.118 34.0902 27.6266 34.3008 28.157 34.3008C28.6873 34.3008 29.1959 34.0902 29.571 33.7152Z" fill="white"/>
</svg>
