<svg width="365" height="42" viewBox="0 0 365 42" fill="none" xmlns="http://www.w3.org/2000/svg">
<g id="Frame 22">
<g id="Frame 12">
<g id="Group 6">
<path id="Vector" d="M27.3933 28.8968C27.3933 29.1291 27.301 29.3519 27.1368 29.5161C26.9725 29.6804 26.7497 29.7727 26.5174 29.7727H14.2552C14.0625 29.7727 13.8786 29.9479 13.721 30.0617L10.7517 32.4003V18.3863C10.7517 18.154 10.844 17.9313 11.0083 17.767C11.1725 17.6028 11.3953 17.5105 11.6276 17.5105H15.0085V15.7587H11.6276C10.9307 15.7587 10.2624 16.0356 9.76961 16.5283C9.27684 17.0211 9 17.6895 9 18.3863V34.152C9.0013 34.3147 9.04788 34.4738 9.13451 34.6115C9.22115 34.7492 9.34441 34.86 9.49049 34.9316C9.63122 34.9956 9.78639 35.0212 9.94023 35.0058C10.0941 34.9904 10.2411 34.9346 10.3664 34.844L14.8771 31.5244H26.6488C26.9808 31.5342 27.3112 31.4758 27.6197 31.3527C27.9281 31.2296 28.208 31.0445 28.4421 30.8089C28.6761 30.5732 28.8592 30.292 28.9801 29.9827C29.1011 29.6734 29.1572 29.3426 29.1451 29.0107V28.0209H27.3933V28.8968Z" fill="white"/>
<path id="Vector_2" d="M35.2763 17.7032V26.2166L32.2107 23.8255C32.0578 23.7069 31.8699 23.6422 31.6764 23.6416H19.5106C19.2783 23.6416 19.0555 23.5493 18.8912 23.385C18.727 23.2208 18.6347 22.998 18.6347 22.7657V12.2552C18.6347 12.0229 18.727 11.8002 18.8912 11.6359C19.0555 11.4716 19.2783 11.3794 19.5106 11.3794H26.9555C26.9579 10.7871 27.0404 10.1978 27.2007 9.62762H19.5106C18.8137 9.62762 18.1453 9.90446 17.6525 10.3972C17.1598 10.89 16.8829 11.5584 16.8829 12.2552V22.7657C16.8829 23.4626 17.1598 24.1309 17.6525 24.6237C18.1453 25.1165 18.8137 25.3933 19.5106 25.3933H31.3786L35.5653 28.6428C35.6898 28.7348 35.8364 28.7922 35.9902 28.8091C36.1441 28.8261 36.2997 28.8019 36.4412 28.7392C36.5902 28.6682 36.7162 28.5565 36.8045 28.417C36.8928 28.2776 36.9399 28.116 36.9404 27.9509V16.9587C36.423 17.283 35.8629 17.5336 35.2763 17.7032Z" fill="white"/>
<path id="Vector_3" d="M33.5244 15.7587C35.943 15.7587 37.9037 13.798 37.9037 11.3794C37.9037 8.96071 35.943 7 33.5244 7C31.1057 7 29.145 8.96071 29.145 11.3794C29.145 13.798 31.1057 15.7587 33.5244 15.7587Z" fill="white"/>
</g>
</g>
<text id="TOMADA DE OPINI&#195;&#131;O" fill="white" xml:space="preserve" style="white-space: pre" font-family="'Montserrat', sans-serif" font-size="24" font-weight="bold" letter-spacing="0em"><tspan x="65" y="29.604">TOMADA DE OPINI&#xc3;O</tspan></text>
</g>
</svg>
