<svg width="1260" height="472" viewBox="0 0 1260 472" fill="none" xmlns="http://www.w3.org/2000/svg">
<path fill-rule="evenodd" clip-rule="evenodd" d="M119.923 0.0932363C171.415 2.78447 30.0362 171.255 4.73864 98.054C-24.6855 13.0111 91.3963 -1.34209 119.923 0.0932363Z" fill="#F2A71B"/>
<path d="M65.9963 52.6087C68.0474 53.0583 69.7192 53.9995 71.0116 55.4325C72.3322 56.8373 72.9925 58.6496 72.9925 60.8693C72.9925 62.7799 72.4867 64.4798 71.4752 65.9689C70.4637 67.4581 69.0308 68.6241 67.1764 69.4671C65.35 70.2819 63.1866 70.6893 60.6859 70.6893C58.3819 70.6893 56.1201 70.3381 53.9004 69.6356C51.6807 68.9051 49.8263 67.9498 48.3372 66.7697L51.7931 60.195C53.1137 61.2908 54.4483 62.1196 55.797 62.6816C57.1456 63.2154 58.5084 63.4823 59.8851 63.4823C60.6719 63.4823 61.3181 63.398 61.8238 63.2295C62.3577 63.0328 62.751 62.7378 63.0039 62.3444C63.2849 61.951 63.4254 61.4593 63.4254 60.8693C63.4254 60.0264 63.1304 59.3801 62.5403 58.9306C61.9503 58.4529 61.0652 58.2141 59.8851 58.2141H54.364V53.1566L63.0882 44.8539L64.2683 47.7198H49.9387V40.6814H71.5595V46.2025L61.4445 55.0953L60.4752 51.3865L65.9963 52.6087Z" fill="white"/>
<path d="M197.092 29.618H211.295V34.9284H197.092V29.618ZM197.598 41.756H213.656V47.235H190.813V17.7329H213.108V23.2119H197.598V41.756ZM228.782 47.7407C226.422 47.7407 224.16 47.4317 221.996 46.8135C219.833 46.1673 218.091 45.3384 216.77 44.3269L219.088 39.1851C220.353 40.0842 221.842 40.8288 223.556 41.4189C225.298 41.9808 227.054 42.2618 228.824 42.2618C230.172 42.2618 231.254 42.1353 232.069 41.8825C232.912 41.6015 233.53 41.2222 233.923 40.7445C234.317 40.2669 234.514 39.719 234.514 39.1008C234.514 38.3141 234.204 37.696 233.586 37.2464C232.968 36.7688 232.153 36.3895 231.142 36.1085C230.13 35.7994 229.006 35.5184 227.77 35.2656C226.562 34.9846 225.34 34.6474 224.103 34.2541C222.895 33.8607 221.785 33.355 220.774 32.7368C219.762 32.1187 218.934 31.3039 218.287 30.2924C217.669 29.2809 217.36 27.9884 217.36 26.4149C217.36 24.7291 217.81 23.1978 218.709 21.821C219.636 20.4162 221.013 19.3063 222.839 18.4915C224.694 17.6486 227.012 17.2271 229.793 17.2271C231.648 17.2271 233.474 17.4519 235.272 17.9015C237.07 18.3229 238.658 18.9692 240.035 19.8402L237.927 25.0241C236.551 24.2374 235.174 23.6614 233.797 23.2961C232.42 22.9028 231.072 22.7061 229.751 22.7061C228.43 22.7061 227.349 22.8606 226.506 23.1697C225.663 23.4788 225.059 23.8862 224.694 24.3919C224.328 24.8696 224.146 25.4315 224.146 26.0778C224.146 26.8364 224.455 27.4545 225.073 27.9322C225.691 28.3817 226.506 28.747 227.517 29.028C228.529 29.309 229.639 29.5899 230.847 29.8709C232.083 30.1519 233.305 30.475 234.514 30.8403C235.75 31.2055 236.874 31.6972 237.885 32.3154C238.897 32.9335 239.712 33.7483 240.33 34.7598C240.976 35.7713 241.299 37.0497 241.299 38.5951C241.299 40.2528 240.835 41.7701 239.908 43.1468C238.981 44.5236 237.59 45.6334 235.736 46.4764C233.909 47.3193 231.591 47.7407 228.782 47.7407ZM251.664 47.235V23.2961H242.223V17.7329H267.932V23.2961H258.492V47.235H251.664ZM271.606 47.235V17.7329H284.376C287.017 17.7329 289.293 18.1684 291.204 19.0394C293.114 19.8823 294.589 21.1046 295.629 22.7061C296.669 24.3076 297.188 26.2183 297.188 28.4379C297.188 30.6295 296.669 32.5261 295.629 34.1276C294.589 35.7011 293.114 36.9093 291.204 37.7522C289.293 38.5951 287.017 39.0165 284.376 39.0165H275.399L278.433 36.0242V47.235H271.606ZM290.361 47.235L282.985 36.5299H290.276L297.736 47.235H290.361ZM278.433 36.7828L275.399 33.5797H283.997C286.104 33.5797 287.677 33.1302 288.717 32.2311C289.757 31.3039 290.276 30.0395 290.276 28.4379C290.276 26.8083 289.757 25.5439 288.717 24.6448C287.677 23.7457 286.104 23.2961 283.997 23.2961H275.399L278.433 20.0509V36.7828ZM298.72 47.235L311.87 17.7329H318.613L331.805 47.235H324.64L313.851 21.1889H316.548L305.717 47.235H298.72ZM305.295 40.9131L307.107 35.7292H322.28L324.134 40.9131H305.295ZM339.495 47.235V23.2961H330.055V17.7329H355.763V23.2961H346.323V47.235H339.495ZM365.717 29.618H379.92V34.9284H365.717V29.618ZM366.223 41.756H382.28V47.235H359.437V17.7329H381.732V23.2119H366.223V41.756ZM366.77 15.3306L372.46 9.26158H379.541L371.912 15.3306H366.77ZM401.958 47.7407C399.626 47.7407 397.476 47.3755 395.51 46.6449C393.571 45.8863 391.871 44.8186 390.41 43.4419C388.977 42.0651 387.853 40.4495 387.038 38.5951C386.252 36.7407 385.858 34.7036 385.858 32.4839C385.858 30.2643 386.252 28.2272 387.038 26.3728C387.853 24.5184 388.991 22.9028 390.452 21.526C391.913 20.1493 393.627 19.0956 395.594 18.3651C397.561 17.6065 399.724 17.2271 402.084 17.2271C404.697 17.2271 407.044 17.6627 409.123 18.5337C411.23 19.4047 413 20.6691 414.433 22.3268L410.05 26.3728C408.982 25.2489 407.816 24.42 406.552 23.8862C405.287 23.3242 403.911 23.0433 402.422 23.0433C400.989 23.0433 399.682 23.268 398.502 23.7176C397.322 24.1672 396.296 24.8134 395.425 25.6563C394.582 26.4992 393.922 27.4967 393.445 28.6487C392.995 29.8007 392.77 31.0791 392.77 32.4839C392.77 33.8607 392.995 35.1251 393.445 36.2771C393.922 37.4291 394.582 38.4406 395.425 39.3116C396.296 40.1545 397.308 40.8007 398.46 41.2503C399.64 41.6998 400.932 41.9246 402.337 41.9246C403.686 41.9246 404.992 41.7139 406.257 41.2924C407.549 40.8429 408.8 40.0983 410.008 39.0587L413.885 43.9898C412.284 45.1979 410.415 46.1251 408.28 46.7714C406.173 47.4176 404.065 47.7407 401.958 47.7407ZM407.648 43.1047V32.0203H413.885V43.9898L407.648 43.1047ZM420.228 47.235V17.7329H427.055V47.235H420.228ZM430.179 47.235L443.329 17.7329H450.072L463.264 47.235H456.099L445.31 21.1889H448.007L437.175 47.235H430.179ZM436.754 40.9131L438.566 35.7292H453.739L455.593 40.9131H436.754ZM476.018 47.7407C473.658 47.7407 471.396 47.4317 469.233 46.8135C467.069 46.1673 465.327 45.3384 464.007 44.3269L466.325 39.1851C467.589 40.0842 469.078 40.8288 470.792 41.4189C472.534 41.9808 474.29 42.2618 476.06 42.2618C477.409 42.2618 478.491 42.1353 479.305 41.8825C480.148 41.6015 480.767 41.2222 481.16 40.7445C481.553 40.2669 481.75 39.719 481.75 39.1008C481.75 38.3141 481.441 37.696 480.823 37.2464C480.205 36.7688 479.39 36.3895 478.378 36.1085C477.367 35.7994 476.243 35.5184 475.007 35.2656C473.798 34.9846 472.576 34.6474 471.34 34.2541C470.132 33.8607 469.022 33.355 468.01 32.7368C466.999 32.1187 466.17 31.3039 465.524 30.2924C464.906 29.2809 464.597 27.9884 464.597 26.4149C464.597 24.7291 465.046 23.1978 465.945 21.821C466.872 20.4162 468.249 19.3063 470.076 18.4915C471.93 17.6486 474.248 17.2271 477.03 17.2271C478.884 17.2271 480.71 17.4519 482.509 17.9015C484.307 18.3229 485.894 18.9692 487.271 19.8402L485.164 25.0241C483.787 24.2374 482.41 23.6614 481.033 23.2961C479.657 22.9028 478.308 22.7061 476.987 22.7061C475.667 22.7061 474.585 22.8606 473.742 23.1697C472.899 23.4788 472.295 23.8862 471.93 24.3919C471.565 24.8696 471.382 25.4315 471.382 26.0778C471.382 26.8364 471.691 27.4545 472.309 27.9322C472.927 28.3817 473.742 28.747 474.754 29.028C475.765 29.309 476.875 29.5899 478.083 29.8709C479.32 30.1519 480.542 30.475 481.75 30.8403C482.986 31.2055 484.11 31.6972 485.122 32.3154C486.133 32.9335 486.948 33.7483 487.566 34.7598C488.212 35.7713 488.535 37.0497 488.535 38.5951C488.535 40.2528 488.072 41.7701 487.145 43.1468C486.217 44.5236 484.827 45.6334 482.972 46.4764C481.146 47.3193 478.828 47.7407 476.018 47.7407ZM505.137 47.235V17.7329H518.539C521.742 17.7329 524.566 18.351 527.01 19.5873C529.455 20.7955 531.365 22.4954 532.742 24.687C534.119 26.8785 534.807 29.4775 534.807 32.4839C534.807 35.4622 534.119 38.0612 532.742 40.2809C531.365 42.4725 529.455 44.1864 527.01 45.4227C524.566 46.6309 521.742 47.235 518.539 47.235H505.137ZM511.964 41.6296H518.202C520.169 41.6296 521.868 41.2643 523.301 40.5338C524.763 39.7752 525.886 38.7075 526.673 37.3307C527.488 35.9539 527.895 34.3384 527.895 32.4839C527.895 30.6014 527.488 28.9858 526.673 27.6372C525.886 26.2604 524.763 25.2068 523.301 24.4762C521.868 23.7176 520.169 23.3383 518.202 23.3383H511.964V41.6296ZM546.236 29.618H560.439V34.9284H546.236V29.618ZM546.742 41.756H562.799V47.235H539.956V17.7329H562.251V23.2119H546.742V41.756ZM586.279 47.235V23.2961H576.838V17.7329H602.547V23.2961H593.106V47.235H586.279ZM606.221 47.235V17.7329H618.991C621.632 17.7329 623.908 18.1684 625.819 19.0394C627.729 19.8823 629.204 21.1046 630.244 22.7061C631.283 24.3076 631.803 26.2183 631.803 28.4379C631.803 30.6295 631.283 32.5261 630.244 34.1276C629.204 35.7011 627.729 36.9093 625.819 37.7522C623.908 38.5951 621.632 39.0165 618.991 39.0165H610.014L613.048 36.0242V47.235H606.221ZM624.976 47.235L617.6 36.5299H624.891L632.351 47.235H624.976ZM613.048 36.7828L610.014 33.5797H618.612C620.719 33.5797 622.292 33.1302 623.332 32.2311C624.372 31.3039 624.891 30.0395 624.891 28.4379C624.891 26.8083 624.372 25.5439 623.332 24.6448C622.292 23.7457 620.719 23.2961 618.612 23.2961H610.014L613.048 20.0509V36.7828ZM633.335 47.235L646.485 17.7329H653.228L666.42 47.235H659.255L648.466 21.1889H651.163L640.332 47.235H633.335ZM639.91 40.9131L641.722 35.7292H656.895L658.749 40.9131H639.91ZM674.11 47.235V23.2961H664.669V17.7329H690.378V23.2961H680.938V47.235H674.11ZM688.693 47.235L701.842 17.7329H708.586L721.777 47.235H714.613L703.823 21.1889H706.521L695.689 47.235H688.693ZM695.268 40.9131L697.08 35.7292H712.252L714.107 40.9131H695.268ZM724.838 47.235V17.7329H730.486L743.045 38.5529H740.053L752.402 17.7329H758.007L758.091 47.235H751.685L751.643 27.5529H752.823L742.961 44.1162H739.884L729.811 27.5529H731.244V47.235H724.838ZM771.371 29.618H785.574V34.9284H771.371V29.618ZM771.876 41.756H787.934V47.235H765.091V17.7329H787.386V23.2119H771.876V41.756ZM793.366 47.235V17.7329H799.014L816.42 38.9744H813.681V17.7329H820.424V47.235H814.819L797.37 25.9935H800.11V47.235H793.366ZM833.515 47.235V23.2961H824.075V17.7329H849.784V23.2961H840.343V47.235H833.515ZM867.375 47.7407C865.043 47.7407 862.88 47.3614 860.885 46.6028C858.918 45.8442 857.204 44.7765 855.743 43.3997C854.31 42.0229 853.186 40.4074 852.371 38.5529C851.585 36.6985 851.191 34.6755 851.191 32.4839C851.191 30.2924 851.585 28.2694 852.371 26.4149C853.186 24.5605 854.324 22.9449 855.785 21.5682C857.246 20.1914 858.96 19.1237 860.927 18.3651C862.894 17.6065 865.029 17.2271 867.333 17.2271C869.665 17.2271 871.8 17.6065 873.739 18.3651C875.706 19.1237 877.406 20.1914 878.839 21.5682C880.3 22.9449 881.438 24.5605 882.253 26.4149C883.067 28.2413 883.475 30.2643 883.475 32.4839C883.475 34.6755 883.067 36.7126 882.253 38.5951C881.438 40.4495 880.3 42.0651 878.839 43.4419C877.406 44.7905 875.706 45.8442 873.739 46.6028C871.8 47.3614 869.679 47.7407 867.375 47.7407ZM867.333 41.9246C868.654 41.9246 869.862 41.6998 870.958 41.2503C872.081 40.8007 873.065 40.1545 873.908 39.3116C874.751 38.4686 875.397 37.4712 875.846 36.3192C876.324 35.1672 876.563 33.8888 876.563 32.4839C876.563 31.0791 876.324 29.8007 875.846 28.6487C875.397 27.4967 874.751 26.4992 873.908 25.6563C873.093 24.8134 872.124 24.1672 871 23.7176C869.876 23.268 868.654 23.0433 867.333 23.0433C866.012 23.0433 864.79 23.268 863.666 23.7176C862.571 24.1672 861.601 24.8134 860.758 25.6563C859.915 26.4992 859.255 27.4967 858.777 28.6487C858.328 29.8007 858.103 31.0791 858.103 32.4839C858.103 33.8607 858.328 35.1391 858.777 36.3192C859.255 37.4712 859.901 38.4686 860.716 39.3116C861.559 40.1545 862.542 40.8007 863.666 41.2503C864.79 41.6998 866.012 41.9246 867.333 41.9246ZM202.748 98.235V68.7329H216.151C219.354 68.7329 222.178 69.351 224.622 70.5873C227.067 71.7955 228.977 73.4954 230.354 75.687C231.731 77.8785 232.419 80.4775 232.419 83.4839C232.419 86.4622 231.731 89.0612 230.354 91.2809C228.977 93.4725 227.067 95.1864 224.622 96.4227C222.178 97.6309 219.354 98.235 216.151 98.235H202.748ZM209.576 92.6296H215.814C217.78 92.6296 219.48 92.2643 220.913 91.5338C222.374 90.7752 223.498 89.7075 224.285 88.3307C225.1 86.9539 225.507 85.3384 225.507 83.4839C225.507 81.6014 225.1 79.9858 224.285 78.6372C223.498 77.2604 222.374 76.2068 220.913 75.4762C219.48 74.7176 217.78 74.3383 215.814 74.3383H209.576V92.6296ZM233.279 98.235L246.429 68.7329H253.172L266.364 98.235H259.199L248.409 72.1889H251.107L240.275 98.235H233.279ZM239.854 91.9131L241.666 86.7292H256.839L258.693 91.9131H239.854ZM281.36 98.235V68.7329H294.763C297.966 68.7329 300.79 69.351 303.234 70.5873C305.678 71.7955 307.589 73.4954 308.966 75.687C310.343 77.8785 311.031 80.4775 311.031 83.4839C311.031 86.4622 310.343 89.0612 308.966 91.2809C307.589 93.4725 305.678 95.1864 303.234 96.4227C300.79 97.6309 297.966 98.235 294.763 98.235H281.36ZM288.188 92.6296H294.425C296.392 92.6296 298.092 92.2643 299.525 91.5338C300.986 90.7752 302.11 89.7075 302.897 88.3307C303.712 86.9539 304.119 85.3384 304.119 83.4839C304.119 81.6014 303.712 79.9858 302.897 78.6372C302.11 77.2604 300.986 76.2068 299.525 75.4762C298.092 74.7176 296.392 74.3383 294.425 74.3383H288.188V92.6296ZM322.46 80.618H336.663V85.9284H322.46V80.618ZM322.965 92.756H339.023V98.235H316.18V68.7329H338.475V74.2119H322.965V92.756ZM354.149 98.7407C351.789 98.7407 349.527 98.4317 347.364 97.8135C345.2 97.1673 343.458 96.3384 342.138 95.3269L344.456 90.1851C345.72 91.0842 347.209 91.8288 348.923 92.4189C350.665 92.9808 352.421 93.2618 354.191 93.2618C355.54 93.2618 356.622 93.1353 357.436 92.8825C358.279 92.6015 358.898 92.2222 359.291 91.7445C359.684 91.2669 359.881 90.719 359.881 90.1008C359.881 89.3141 359.572 88.696 358.954 88.2464C358.336 87.7688 357.521 87.3895 356.509 87.1085C355.498 86.7994 354.374 86.5184 353.138 86.2656C351.929 85.9846 350.707 85.6474 349.471 85.2541C348.263 84.8607 347.153 84.355 346.141 83.7368C345.13 83.1187 344.301 82.3039 343.655 81.2924C343.037 80.2809 342.728 78.9884 342.728 77.4149C342.728 75.7291 343.177 74.1978 344.076 72.821C345.003 71.4162 346.38 70.3063 348.207 69.4915C350.061 68.6486 352.379 68.2271 355.161 68.2271C357.015 68.2271 358.841 68.4519 360.64 68.9015C362.438 69.3229 364.025 69.9692 365.402 70.8402L363.295 76.0241C361.918 75.2374 360.541 74.6614 359.164 74.2961C357.788 73.9028 356.439 73.7061 355.118 73.7061C353.798 73.7061 352.716 73.8606 351.873 74.1697C351.03 74.4788 350.426 74.8862 350.061 75.3919C349.696 75.8696 349.513 76.4315 349.513 77.0778C349.513 77.8364 349.822 78.4545 350.44 78.9322C351.058 79.3817 351.873 79.747 352.885 80.028C353.896 80.309 355.006 80.5899 356.214 80.8709C357.451 81.1519 358.673 81.475 359.881 81.8403C361.117 82.2055 362.241 82.6972 363.253 83.3154C364.264 83.9335 365.079 84.7483 365.697 85.7598C366.343 86.7713 366.666 88.0497 366.666 89.5951C366.666 91.2528 366.203 92.7701 365.276 94.1468C364.348 95.5236 362.958 96.6334 361.103 97.4764C359.277 98.3193 356.959 98.7407 354.149 98.7407ZM371.332 98.235V68.7329H376.979L394.386 89.9744H391.646V68.7329H398.389V98.235H392.784L375.336 76.9935H378.075V98.235H371.332ZM418.477 98.7407C414.29 98.7407 411.017 97.5747 408.657 95.2426C406.297 92.9106 405.117 89.581 405.117 85.2541V68.7329H411.944V85.0012C411.944 87.8109 412.52 89.8339 413.672 91.0702C414.824 92.3065 416.44 92.9246 418.519 92.9246C420.598 92.9246 422.214 92.3065 423.366 91.0702C424.518 89.8339 425.094 87.8109 425.094 85.0012V68.7329H431.837V85.2541C431.837 89.581 430.657 92.9106 428.297 95.2426C425.937 97.5747 422.663 98.7407 418.477 98.7407ZM444.201 98.235V74.2961H434.761V68.7329H460.47V74.2961H451.029V98.235H444.201ZM464.143 98.235V68.7329H476.913C479.555 68.7329 481.83 69.1684 483.741 70.0394C485.652 70.8823 487.127 72.1046 488.166 73.7061C489.206 75.3076 489.726 77.2183 489.726 79.4379C489.726 81.6295 489.206 83.5261 488.166 85.1276C487.127 86.7011 485.652 87.9093 483.741 88.7522C481.83 89.5951 479.555 90.0165 476.913 90.0165H467.936L470.971 87.0242V98.235H464.143ZM482.898 98.235L475.523 87.5299H482.814L490.274 98.235H482.898ZM470.971 87.7828L467.936 84.5797H476.534C478.641 84.5797 480.215 84.1302 481.254 83.2311C482.294 82.3039 482.814 81.0395 482.814 79.4379C482.814 77.8083 482.294 76.5439 481.254 75.6448C480.215 74.7457 478.641 74.2961 476.534 74.2961H467.936L470.971 71.0509V87.7828ZM495.135 98.235V68.7329H501.963V98.235H495.135ZM523.083 98.7407C520.807 98.7407 518.686 98.3755 516.719 97.6449C514.78 96.8863 513.095 95.8186 511.662 94.4419C510.229 93.0651 509.105 91.4495 508.29 89.5951C507.503 87.7407 507.11 85.7036 507.11 83.4839C507.11 81.2643 507.503 79.2272 508.29 77.3728C509.105 75.5184 510.229 73.9028 511.662 72.526C513.123 71.1493 514.823 70.0956 516.761 69.3651C518.7 68.6065 520.821 68.2271 523.125 68.2271C525.682 68.2271 527.986 68.6767 530.037 69.5758C532.116 70.4468 533.858 71.7393 535.263 73.4532L530.88 77.4992C529.869 76.3472 528.745 75.4903 527.508 74.9283C526.272 74.3383 524.924 74.0433 523.462 74.0433C522.086 74.0433 520.821 74.268 519.669 74.7176C518.517 75.1672 517.52 75.8134 516.677 76.6563C515.834 77.4992 515.174 78.4967 514.696 79.6487C514.247 80.8007 514.022 82.0791 514.022 83.4839C514.022 84.8888 514.247 86.1672 514.696 87.3192C515.174 88.4712 515.834 89.4686 516.677 90.3116C517.52 91.1545 518.517 91.8007 519.669 92.2503C520.821 92.6998 522.086 92.9246 523.462 92.9246C524.924 92.9246 526.272 92.6436 527.508 92.0817C528.745 91.4916 529.869 90.6066 530.88 89.4265L535.263 93.4725C533.858 95.1864 532.116 96.493 530.037 97.3921C527.986 98.2912 525.668 98.7407 523.083 98.7407ZM520.807 108.013C520.077 108.013 519.36 107.929 518.658 107.76C517.984 107.591 517.393 107.381 516.888 107.128L517.899 104.304C518.321 104.501 518.756 104.655 519.206 104.768C519.655 104.88 520.133 104.936 520.639 104.936C521.425 104.936 521.987 104.81 522.325 104.557C522.662 104.304 522.83 103.981 522.83 103.588C522.83 103.222 522.662 102.927 522.325 102.702C522.015 102.478 521.496 102.365 520.765 102.365H519.332L520.428 97.8978H523.926L523.336 100.342C524.6 100.483 525.528 100.876 526.118 101.522C526.708 102.197 527.003 102.969 527.003 103.84C527.003 105.105 526.441 106.116 525.317 106.875C524.193 107.634 522.69 108.013 520.807 108.013ZM535.42 98.235L548.57 68.7329H555.313L568.505 98.235H561.34L550.551 72.1889H553.248L542.417 98.235H535.42ZM541.995 91.9131L543.807 86.7292H558.98L560.834 91.9131H541.995ZM555.102 66.457C554.372 66.457 553.726 66.3306 553.164 66.0777C552.602 65.7967 552.096 65.4877 551.646 65.1505C551.197 64.7852 550.775 64.4762 550.382 64.2233C549.989 63.9423 549.595 63.8018 549.202 63.8018C548.64 63.8018 548.176 64.0126 547.811 64.434C547.446 64.8274 547.235 65.4034 547.179 66.162H543.85C543.906 64.2795 544.369 62.7903 545.24 61.6945C546.111 60.5706 547.291 60.0087 548.781 60.0087C549.511 60.0087 550.157 60.1492 550.719 60.4302C551.281 60.683 551.787 60.9921 552.237 61.3574C552.714 61.7226 553.15 62.0458 553.543 62.3267C553.936 62.5796 554.316 62.706 554.681 62.706C555.271 62.706 555.749 62.5094 556.114 62.116C556.479 61.6945 556.676 61.1326 556.704 60.4302H560.034C560.005 62.2284 559.542 63.6894 558.643 64.8133C557.772 65.9091 556.592 66.457 555.102 66.457ZM585.484 98.7407C583.152 98.7407 580.988 98.3614 578.993 97.6028C577.026 96.8442 575.313 95.7765 573.851 94.3997C572.418 93.0229 571.295 91.4074 570.48 89.5529C569.693 87.6985 569.3 85.6755 569.3 83.4839C569.3 81.2924 569.693 79.2694 570.48 77.4149C571.295 75.5605 572.433 73.9449 573.894 72.5682C575.355 71.1914 577.069 70.1237 579.035 69.3651C581.002 68.6065 583.138 68.2271 585.442 68.2271C587.774 68.2271 589.909 68.6065 591.848 69.3651C593.815 70.1237 595.514 71.1914 596.947 72.5682C598.408 73.9449 599.546 75.5605 600.361 77.4149C601.176 79.2413 601.583 81.2643 601.583 83.4839C601.583 85.6755 601.176 87.7126 600.361 89.5951C599.546 91.4495 598.408 93.0651 596.947 94.4419C595.514 95.7905 593.815 96.8442 591.848 97.6028C589.909 98.3614 587.788 98.7407 585.484 98.7407ZM585.442 92.9246C586.762 92.9246 587.97 92.6998 589.066 92.2503C590.19 91.8007 591.173 91.1545 592.016 90.3116C592.859 89.4686 593.505 88.4712 593.955 87.3192C594.433 86.1672 594.671 84.8888 594.671 83.4839C594.671 82.0791 594.433 80.8007 593.955 79.6487C593.505 78.4967 592.859 77.4992 592.016 76.6563C591.201 75.8134 590.232 75.1672 589.108 74.7176C587.984 74.268 586.762 74.0433 585.442 74.0433C584.121 74.0433 582.899 74.268 581.775 74.7176C580.679 75.1672 579.71 75.8134 578.867 76.6563C578.024 77.4992 577.364 78.4967 576.886 79.6487C576.436 80.8007 576.212 82.0791 576.212 83.4839C576.212 84.8607 576.436 86.1391 576.886 87.3192C577.364 88.4712 578.01 89.4686 578.825 90.3116C579.668 91.1545 580.651 91.8007 581.775 92.2503C582.899 92.6998 584.121 92.9246 585.442 92.9246Z" fill="#F6F5F5"/>
<path fill-rule="evenodd" clip-rule="evenodd" d="M1187.94 457.431C1135.35 506.129 1437.36 559.483 1398.8 458.863C1354.04 342.219 1217.24 430.306 1187.94 457.431Z" fill="#F2A71B"/>
<path fill-rule="evenodd" clip-rule="evenodd" d="M1160.61 424.666C1169.87 484.734 1351.7 298.622 1262.36 277.675C1158.54 253.236 1155.4 391.186 1160.61 424.666Z" fill="#F2A71B"/>
<path fill-rule="evenodd" clip-rule="evenodd" d="M1117.02 421.892C1157.56 451.523 1154.68 237.75 1090.32 277.317C1015.63 323.33 1094.46 405.42 1117.02 421.892Z" fill="#F2A71B"/>
<path fill-rule="evenodd" clip-rule="evenodd" d="M1089.87 449.106C1128.88 443.108 1008.08 325.927 994.42 383.577C978.6 450.448 1068.21 452.507 1089.87 449.106Z" fill="#F2A71B"/>
<path fill-rule="evenodd" clip-rule="evenodd" d="M1090.77 480.975C1110.01 459.759 987.766 449.016 1006.73 487.778C1028.66 532.717 1080.08 492.792 1090.77 480.975Z" fill="#F2A71B"/>
<path d="M1236.47 457.341C1257.95 473.723 1282.49 485.719 1308.11 494.134C1335.52 503.086 1364.11 507.92 1392.87 510.426C1407.7 511.68 1422.53 512.396 1437.36 512.754C1452.19 513.112 1467.02 513.201 1481.85 511.859C1507.74 509.531 1533.98 502.191 1554.21 485.361C1563.73 477.394 1572.54 467.099 1576.05 455.014C1579.55 442.929 1575.51 429.322 1568.59 418.4C1561.58 407.389 1552.23 397.721 1542.61 389.038C1532.81 380.175 1522.12 372.208 1510.88 365.136C1487.78 350.634 1461.45 337.385 1433.49 337.743C1418.84 337.922 1404.37 341.145 1390.44 345.173C1377.41 348.843 1364.73 353.588 1352.33 359.049C1327.61 369.97 1304.33 383.756 1281.95 398.795C1276.47 402.466 1270.99 406.315 1265.5 410.164C1260.29 413.835 1254.99 417.505 1250.04 421.533C1245.1 425.562 1241.15 429.411 1238.45 434.693C1235.75 440.153 1235.39 446.241 1237.46 451.97C1239.53 457.699 1243.48 462.533 1248.07 466.472C1252.65 470.411 1247.53 467.009 1247.26 467.009C1246.54 467.009 1245.55 466.651 1245.01 466.204C1235.75 458.326 1229.19 445.883 1234.94 433.977C1237.46 428.695 1241.78 424.487 1246.18 420.817C1251.21 416.61 1256.7 412.939 1262 409.18C1284.74 393.066 1308.29 377.848 1333.28 365.315C1358.26 352.782 1384.96 342.667 1412.64 338.101C1427.11 335.774 1441.67 335.774 1456.05 339.086C1469.9 342.308 1483.11 348.038 1495.6 354.662C1519.42 367.284 1541.62 383.219 1559.69 403.271C1568.5 413.029 1577.04 424.04 1580 437.02C1581.44 443.287 1581.35 449.822 1579.55 455.998C1577.67 462.354 1574.16 468.173 1570.12 473.455C1554.48 493.686 1530.12 505.234 1505.49 510.247C1490.75 513.291 1475.74 514.276 1460.73 514.455C1445.45 514.634 1430.17 514.186 1414.98 513.291C1384.78 511.68 1354.58 508.009 1325.28 500.4C1298.85 493.418 1273.05 483.212 1249.86 468.621C1244.2 465.04 1238.72 461.28 1233.42 457.162C1232.79 456.715 1233.96 456.625 1234.23 456.625C1235.03 456.625 1235.84 456.983 1236.47 457.431V457.341Z" fill="white"/>
<path d="M1212.02 390.917C1231.44 379.817 1249.06 366.12 1265.24 350.812C1281.41 335.594 1296.15 318.854 1310.09 301.577C1317.19 292.804 1324.02 283.941 1330.76 274.989C1337.59 265.948 1344.42 256.906 1350.98 247.686C1363.93 229.334 1375.79 209.103 1378.49 186.365C1379.21 180.277 1379.21 174.011 1377.41 168.103C1375.61 162.194 1373.18 158.793 1369.59 155.212C1362.13 147.513 1351.88 143.216 1341.37 141.605C1329.59 139.725 1317.55 140.799 1305.86 142.59C1294.45 144.291 1283.03 146.35 1271.8 149.125C1260.65 151.9 1249.69 155.749 1239.8 161.657C1229.91 167.566 1221.1 176.249 1213.19 185.022C1205.28 193.795 1198 203.105 1193.33 214.026C1188.66 224.948 1186.05 237.928 1184.07 250.192C1182.09 262.636 1180.75 275.258 1180.3 287.791C1179.85 300.502 1180.39 313.125 1181.73 325.747C1182.9 336.937 1183.08 348.306 1184.88 359.496C1185.69 365.046 1186.95 370.596 1188.84 375.878C1190.72 381.16 1193.06 386.083 1196.39 390.291C1199.26 393.871 1204.3 396.557 1208.34 393.066C1212.38 389.574 1212.38 393.603 1211.49 394.408C1207.62 397.721 1201.6 396.915 1197.55 394.408C1192.97 391.544 1190.27 386.352 1187.94 381.607C1182.81 371.133 1181.02 359.496 1180.03 348.037C1179.04 336.579 1179.22 336.489 1178.68 330.671C1178.14 324.852 1177.42 318.048 1177.06 311.692C1176.34 298.891 1176.52 286.09 1177.6 273.288C1178.68 260.219 1180.57 247.149 1183.35 234.347C1185.96 222.262 1190 210.535 1196.83 200.151C1200.16 195.138 1203.94 190.483 1207.89 186.007C1211.94 181.441 1216.16 176.876 1220.56 172.668C1229.28 164.432 1239.17 157.898 1250.4 153.422C1261.37 149.035 1272.88 146.35 1284.47 144.112C1296.33 141.874 1308.29 139.725 1320.33 139.009C1332.47 138.293 1344.96 139.367 1356.2 144.112C1365.54 148.05 1374.26 154.764 1378.76 163.985C1383.97 174.548 1382.44 187.26 1379.75 198.271C1376.96 209.64 1372.02 220.293 1366.17 230.319C1360.24 240.524 1353.41 250.103 1346.4 259.592C1339.57 268.812 1332.65 278.033 1325.64 287.164C1311.52 305.426 1296.87 323.24 1280.78 339.801C1265.24 356.094 1248.07 371.133 1229.1 383.666C1224.43 386.799 1219.66 389.753 1214.81 392.529C1213.91 393.066 1210.77 391.723 1212.11 390.917H1212.02Z" fill="white"/>
<path d="M1137.24 362.898C1145.87 345.084 1151.26 325.926 1153.69 306.322C1156.12 286.717 1155.76 266.217 1152.97 246.433C1150.09 226.112 1144.7 206.149 1137.69 186.902C1134.28 177.592 1130.59 168.282 1126.01 159.42C1121.69 151.274 1116.57 142.948 1109.38 136.861C1106.14 134.086 1102.28 131.848 1098.05 131.132C1093.11 130.236 1087.9 131.132 1083.04 132.295C1075.4 134.265 1068.12 137.577 1061.56 142.053C1048.44 150.916 1038.01 163.985 1032.98 179.025C1027.94 194.064 1028.93 198.271 1028.48 208.119C1028.03 217.966 1028.3 228.798 1030.64 238.913C1034.69 256.996 1043.94 273.647 1055.18 288.328C1066.41 303.009 1061.02 295.669 1063.9 299.339C1066.77 303.099 1069.47 306.948 1072.17 310.798C1077.56 318.586 1082.68 326.374 1088.35 333.894C1093.74 341.055 1099.67 347.68 1106.05 353.857C1112.43 360.033 1111.98 359.138 1115.22 361.376C1117.74 363.167 1120.79 365.673 1123.94 366.031C1127.08 366.389 1130.5 364.778 1133.38 363.704C1136.25 362.63 1137.33 365.047 1135.35 365.852C1131.94 367.105 1128.34 368.627 1124.66 368.359C1120.97 368.09 1118.1 366.21 1115.31 364.42C1108.21 359.675 1102.01 354.036 1096.26 347.859C1082.95 333.625 1073.25 316.616 1061.65 301.04C1058.77 297.191 1055.63 293.431 1052.66 289.581C1049.7 285.822 1046.91 281.883 1044.3 277.854C1039.18 269.887 1034.69 261.472 1031.36 252.61C1028.03 243.747 1025.7 234.079 1025.07 224.411C1024.44 214.743 1024.71 213.311 1025.07 207.85C1025.34 202.568 1025.7 197.197 1026.42 192.005C1027.67 183.232 1030.28 174.907 1034.51 167.119C1038.37 159.957 1043.49 153.422 1049.52 147.872C1055.54 142.322 1062.37 137.667 1069.83 134.354C1073.6 132.654 1077.47 131.311 1081.42 130.326C1086.46 129.073 1091.67 128.267 1096.88 128.983C1106.14 130.236 1113.51 136.503 1119.18 143.664C1125.38 151.542 1130.14 160.494 1134.19 169.715C1142.54 188.782 1148.93 208.924 1153.33 229.245C1157.64 249.566 1159.71 270.335 1158.72 291.103C1157.64 311.066 1153.78 331.208 1146.5 350.186C1139.22 369.164 1142.81 359.317 1140.66 363.793C1138.5 368.269 1136.61 364.151 1137.24 362.898Z" fill="white"/>
<path d="M1080.53 387.963C1076.57 373.103 1066.5 360.928 1056.53 349.559C1046.55 338.19 1036.03 327.359 1024.71 317.332C1013.38 307.306 1001.16 298.265 988.036 290.566C974.913 282.867 974.464 282.688 967.094 280.182C963.318 278.928 959.274 278.302 955.229 278.481C951.094 278.66 946.96 279.645 943.005 280.898C935.994 283.136 928.085 285.911 923.141 291.64C918.377 297.101 917.029 304.531 916.4 311.514C915.231 325.568 916.49 340.16 921.254 353.498C923.59 360.033 926.736 366.3 930.871 371.85C935.185 377.669 940.578 382.592 946.6 386.71C959.543 395.483 974.823 399.87 990.103 402.555C998.463 404.077 1006.91 405.062 1015.27 406.136C1023.63 407.21 1031.9 408.195 1040.35 408.732C1048.71 409.269 1057.16 409.269 1065.51 408.284C1069.65 407.837 1073.78 407.121 1077.83 406.136C1081.33 405.241 1085.29 404.256 1087.72 401.481C1089.6 399.332 1090.32 395.483 1088.08 393.335C1085.83 391.186 1088.52 392.618 1088.88 392.618C1089.6 392.618 1090.59 392.887 1091.13 393.424C1093.38 395.662 1093.2 399.243 1091.49 401.749C1089.78 404.256 1085.83 406.046 1082.5 406.942C1074.14 409.269 1065.42 410.254 1056.8 410.522C1039.27 410.97 1021.74 408.463 1004.48 406.046C987.767 403.808 970.869 400.765 955.499 393.514C941.837 387.068 930.062 377.311 922.692 364.062C915.591 351.26 912.715 336.579 912.445 322.077C912.355 314.826 912.445 307.217 914.602 300.234C916.759 293.252 917.119 293.52 919.456 290.745C921.883 287.791 925.118 285.642 928.444 284.031C931.77 282.42 935.814 280.808 939.679 279.555C943.724 278.212 947.949 277.228 952.263 276.959C960.982 276.332 969.071 279.108 976.801 282.867C990.912 289.76 1004.22 298.444 1016.53 308.201C1028.84 317.959 1040.26 328.791 1051.04 340.249C1056.44 346.068 1061.74 351.977 1066.68 358.153C1071.63 364.241 1076.3 370.686 1079.72 377.848C1081.42 381.249 1082.77 384.83 1083.76 388.501C1084.75 392.171 1080.62 388.859 1080.35 387.963H1080.53Z" fill="white"/>
<path d="M1059.22 440.78C1038.91 433.261 1017.16 430.038 995.498 431.291C990.105 431.649 984.622 432.186 979.229 433.081C974.016 433.977 968.803 435.051 963.859 437.11C955.23 440.691 947.411 447.763 946.332 457.52C945.253 467.457 950.916 476.767 958.107 483.212C961.882 486.614 966.106 489.389 970.331 492.075C974.735 494.761 979.229 497.536 984.352 498.699C989.655 499.863 995.318 499.326 1000.71 498.61C1005.74 497.894 1010.69 496.73 1015.45 495.298C1024.98 492.343 1034.15 488.047 1042.78 483.033C1051.67 477.931 1060.12 472.023 1068.48 465.935C1072.08 463.339 1076.39 460.385 1076.66 455.551C1076.93 450.717 1073.34 446.42 1069.38 444.003C1067.4 442.75 1065.25 441.765 1063.09 440.78C1060.93 439.795 1061.65 440.154 1062.19 439.527C1062.73 438.9 1063.99 439.348 1064.44 439.527C1069.11 441.586 1074.05 443.824 1077.29 448.031C1080.17 451.791 1081.25 456.894 1078.46 461.012C1077.11 462.981 1075.22 464.503 1073.34 465.935C1071.27 467.547 1069.11 469.068 1066.95 470.59C1062.55 473.723 1058.06 476.857 1053.38 479.721C1035.5 491.09 1015 500.579 993.34 501.027C971.679 501.474 981.925 500.042 976.622 497.625C971.679 495.298 966.915 492.254 962.421 489.121C953.972 483.302 946.152 475.693 943.546 465.398C940.939 455.103 942.467 455.372 944.355 450.717C946.242 446.062 949.388 442.66 953.163 439.885C962.061 433.35 973.656 431.47 984.352 430.217C1007.09 427.531 1030.46 429.769 1052.3 436.662C1055 437.557 1057.7 438.453 1060.39 439.437C1060.84 439.616 1061.74 440.154 1061.29 440.691C1060.84 441.228 1059.49 440.87 1059.04 440.691L1059.22 440.78Z" fill="white"/>
</svg>
