<svg width="566" height="232" viewBox="0 0 566 232" fill="none" xmlns="http://www.w3.org/2000/svg">
<g id="Component 8">
<g id="Group">
<path id="Vector" d="M565.491 164.939H49.22C26.4953 164.939 8.07397 152.474 8.07397 137.098V8.07422H524.345C547.07 8.07422 565.491 20.5395 565.491 35.9159V164.939Z" fill="#F2A71B"/>
</g>
<g id="Group_2">
<g id="Group_3">
<g id="Group_4" opacity="0.9">
<path id="Vector_2" d="M171.904 175.458C202.722 144.64 202.722 94.6727 171.904 63.854C141.085 33.0353 91.1179 33.0353 60.2992 63.854C29.4805 94.6727 29.4805 144.64 60.2992 175.458C91.1179 206.277 141.085 206.277 171.904 175.458Z" fill="white"/>
<path id="Vector_3" d="M171.817 175.31C202.634 144.493 202.634 94.5286 171.817 63.7116C141 32.8947 91.0357 32.8948 60.2186 63.7119C29.4015 94.529 29.4014 144.493 60.2183 175.31C91.0353 206.127 141 206.127 171.817 175.31Z" fill="#FEFEFE"/>
<path id="Vector_4" d="M171.73 175.162C202.545 144.347 202.545 94.3855 171.73 63.5701C140.915 32.7548 90.953 32.7548 60.1377 63.5701C29.3223 94.3854 29.3223 144.347 60.1377 175.162C90.953 205.978 140.915 205.978 171.73 175.162Z" fill="#FCFCFC"/>
<path id="Vector_5" d="M171.643 175.015C202.457 144.201 202.457 94.2424 171.643 63.4288C140.83 32.6152 90.8709 32.6152 60.0573 63.4288C29.2437 94.2423 29.2437 144.201 60.0573 175.015C90.8709 205.828 140.83 205.828 171.643 175.015Z" fill="#FBFBFB"/>
<path id="Vector_6" d="M171.556 174.866C202.368 144.054 202.368 94.0981 171.556 63.2862C140.745 32.4742 90.7885 32.4742 59.9765 63.2862C29.1645 94.0981 29.1646 144.054 59.9765 174.866C90.7885 205.678 140.745 205.678 171.556 174.866Z" fill="#F9F9F9"/>
<path id="Vector_7" d="M171.469 174.717C202.28 143.907 202.28 93.9541 171.469 63.1439C140.659 32.3337 90.706 32.3337 59.8958 63.1439C29.0856 93.9541 29.0856 143.907 59.8958 174.717C90.706 205.528 140.659 205.528 171.469 174.717Z" fill="#F8F8F8"/>
<path id="Vector_8" d="M171.383 174.57C202.191 143.761 202.191 93.811 171.383 63.0026C140.574 32.1942 90.624 32.1941 59.8155 63.0026C29.0071 93.811 29.0071 143.761 59.8156 174.57C90.624 205.378 140.574 205.378 171.383 174.57Z" fill="#F6F6F6"/>
<path id="Vector_9" d="M171.296 174.422C202.103 143.615 202.103 93.6673 171.296 62.8605C140.489 32.0537 90.5414 32.0537 59.7346 62.8605C28.9278 93.6673 28.9278 143.615 59.7346 174.422C90.5414 205.229 140.489 205.229 171.296 174.422Z" fill="#F5F5F5"/>
<path id="Vector_10" d="M171.209 174.274C202.014 143.469 202.014 93.5237 171.209 62.7187C140.404 31.9136 90.4589 31.9136 59.6539 62.7187C28.8489 93.5237 28.8489 143.469 59.6539 174.274C90.4589 205.079 140.404 205.079 171.209 174.274Z" fill="#F3F3F3"/>
<path id="Vector_11" d="M171.122 174.126C201.926 143.322 201.926 93.38 171.122 62.5766C140.319 31.7731 90.3768 31.7731 59.5734 62.5765C28.7699 93.38 28.7699 143.322 59.5734 174.126C90.3768 204.929 140.319 204.929 171.122 174.126Z" fill="#F2F2F2"/>
<path id="Vector_12" d="M171.035 173.977C201.837 143.175 201.837 93.2359 171.035 62.4343C140.234 31.6326 90.2944 31.6326 59.4928 62.4342C28.6911 93.2359 28.6911 143.175 59.4928 173.977C90.2944 204.779 140.234 204.779 171.035 173.977Z" fill="#F0F0F0"/>
<path id="Vector_13" d="M170.948 173.829C201.748 143.029 201.748 93.0928 170.948 62.2929C140.149 31.493 90.212 31.493 59.4122 62.2929C28.6123 93.0928 28.6123 143.029 59.4122 173.829C90.212 204.629 140.148 204.629 170.948 173.829Z" fill="#EFEFEF"/>
<path id="Vector_14" d="M170.862 173.681C201.66 142.883 201.66 92.9491 170.862 62.1508C140.064 31.3526 90.1299 31.3526 59.3316 62.1508C28.5333 92.9491 28.5333 142.883 59.3316 173.681C90.1299 204.479 140.064 204.479 170.862 173.681Z" fill="#EDEDED"/>
<path id="Vector_15" d="M170.775 173.533C201.571 142.736 201.571 92.8055 170.775 62.009C139.978 31.2125 90.0474 31.2125 59.2509 62.009C28.4544 92.8055 28.4544 142.736 59.2509 173.533C90.0474 204.329 139.978 204.329 170.775 173.533Z" fill="#ECECEC"/>
<path id="Vector_16" d="M170.688 173.385C201.483 142.59 201.483 92.6619 170.688 61.8672C139.893 31.0725 89.9651 31.0725 59.1704 61.8672C28.3757 92.6619 28.3757 142.59 59.1704 173.385C89.9651 204.179 139.893 204.179 170.688 173.385Z" fill="#EAEAEA"/>
<path id="Vector_17" d="M170.602 173.237C201.395 142.444 201.395 92.5182 170.602 61.7251C139.808 30.932 89.883 30.932 59.0898 61.7251C28.2967 92.5182 28.2967 142.444 59.0899 173.237C89.883 204.03 139.808 204.03 170.602 173.237Z" fill="#E9E9E9"/>
<path id="Vector_18" d="M170.514 173.089C201.306 142.297 201.306 92.3746 170.514 61.5833C139.723 30.7919 89.8005 30.7919 59.0091 61.5833C28.2178 92.3746 28.2178 142.297 59.0091 173.089C89.8005 203.88 139.723 203.88 170.514 173.089Z" fill="#E7E7E7"/>
<path id="Vector_19" d="M170.428 172.941C201.218 142.151 201.218 92.2309 170.428 61.4412C139.638 30.6514 89.7181 30.6514 58.9283 61.4412C28.1386 92.2309 28.1386 142.151 58.9283 172.941C89.7181 203.73 139.638 203.73 170.428 172.941Z" fill="#E6E6E6"/>
<path id="Vector_20" d="M170.341 172.792C201.129 142.004 201.129 92.0873 170.341 61.2994C139.553 30.5114 89.6359 30.5114 58.848 61.2994C28.06 92.0873 28.06 142.004 58.848 172.792C89.6359 203.58 139.553 203.58 170.341 172.792Z" fill="#E4E4E4"/>
<path id="Vector_21" d="M170.254 172.644C201.04 141.858 201.04 91.9432 170.254 61.1571C139.468 30.3709 89.5536 30.3709 58.7674 61.1571C27.9812 91.9432 27.9812 141.858 58.7674 172.644C89.5536 203.43 139.468 203.43 170.254 172.644Z" fill="#E3E3E3"/>
<path id="Vector_22" d="M170.167 172.496C200.952 141.711 200.952 91.7995 170.167 61.0149C139.383 30.2304 89.471 30.2304 58.6865 61.0149C27.9019 91.7995 27.9019 141.711 58.6865 172.496C89.471 203.28 139.383 203.28 170.167 172.496Z" fill="#E1E1E1"/>
<path id="Vector_23" d="M170.081 172.348C200.863 141.565 200.863 91.6564 170.081 60.8736C139.298 30.0908 89.3889 30.0908 58.6061 60.8736C27.8233 91.6564 27.8233 141.565 58.6061 172.348C89.3889 203.131 139.298 203.131 170.081 172.348Z" fill="#E0E0E0"/>
<path id="Vector_24" d="M169.994 172.2C200.775 141.419 200.775 91.5129 169.994 60.7318C139.213 29.9508 89.3067 29.9508 58.5256 60.7318C27.7446 91.5129 27.7446 141.419 58.5256 172.2C89.3067 202.981 139.213 202.981 169.994 172.2Z" fill="#DEDEDE"/>
<path id="Vector_25" d="M169.907 172.052C200.686 141.272 200.686 91.3691 169.907 60.5897C139.127 29.8103 89.224 29.8103 58.4446 60.5897C27.6652 91.3691 27.6652 141.272 58.4446 172.052C89.224 202.831 139.127 202.831 169.907 172.052Z" fill="#DDDDDD"/>
<path id="Vector_26" d="M169.82 171.903C200.598 141.126 200.598 91.2251 169.82 60.4474C139.042 29.6698 89.142 29.6698 58.3643 60.4474C27.5867 91.2251 27.5867 141.126 58.3643 171.903C89.142 202.681 139.042 202.681 169.82 171.903Z" fill="#DBDBDB"/>
<path id="Vector_27" d="M169.733 171.755C200.509 140.979 200.509 91.0813 169.733 60.3053C138.957 29.5293 89.0595 29.5293 58.2834 60.3053C27.5074 91.0814 27.5074 140.979 58.2834 171.755C89.0595 202.531 138.957 202.531 169.733 171.755Z" fill="#DADADA"/>
<path id="Vector_28" d="M169.646 171.607C200.42 140.833 200.42 90.9383 169.646 60.164C138.872 29.3897 88.977 29.3897 58.2027 60.164C27.4284 90.9383 27.4284 140.833 58.2027 171.607C88.977 202.382 138.872 202.382 169.646 171.607Z" fill="#D8D8D8"/>
<path id="Vector_29" d="M169.56 171.46C200.332 140.687 200.332 90.7952 169.56 60.0227C138.787 29.2502 88.895 29.2502 58.1225 60.0227C27.35 90.7952 27.35 140.687 58.1225 171.46C88.895 202.232 138.787 202.232 169.56 171.46Z" fill="#D7D7D7"/>
<path id="Vector_30" d="M169.473 171.311C200.243 140.54 200.243 90.651 169.473 59.8801C138.702 29.1092 88.8122 29.1092 58.0413 59.8801C27.2704 90.651 27.2704 140.54 58.0413 171.311C88.8122 202.082 138.702 202.082 169.473 171.311Z" fill="#D5D5D5"/>
<path id="Vector_31" d="M169.386 171.163C200.155 140.394 200.155 90.5074 169.386 59.7383C138.616 28.9692 88.7298 28.9691 57.9607 59.7383C27.1916 90.5074 27.1916 140.394 57.9607 171.163C88.7298 201.932 138.616 201.932 169.386 171.163Z" fill="#D4D4D4"/>
<path id="Vector_32" d="M169.299 171.015C200.066 140.248 200.066 90.3637 169.299 59.5964C138.532 28.829 88.6479 28.8291 57.8804 59.5966C27.1129 90.3642 27.1128 140.248 57.8801 171.015C88.6475 201.783 138.531 201.783 169.299 171.015Z" fill="#D2D2D2"/>
<path id="Vector_33" d="M169.212 170.867C199.978 140.101 199.978 90.2201 169.212 59.4544C138.446 28.6886 88.5653 28.6886 57.7996 59.4543C27.0338 90.2201 27.0338 140.101 57.7996 170.867C88.5653 201.633 138.446 201.633 169.212 170.867Z" fill="#D1D1D1"/>
<path id="Vector_34" d="M169.125 170.719C199.889 139.955 199.889 90.0765 169.125 59.3125C138.361 28.5486 88.4829 28.5486 57.719 59.3125C26.955 90.0765 26.955 139.955 57.719 170.719C88.4829 201.483 138.361 201.483 169.125 170.719Z" fill="#CFCFCF"/>
<path id="Vector_35" d="M169.039 170.571C199.801 139.808 199.801 89.9328 169.039 59.1704C138.276 28.4081 88.4008 28.4081 57.6384 59.1704C26.876 89.9328 26.8761 139.808 57.6384 170.571C88.4008 201.333 138.276 201.333 169.039 170.571Z" fill="#CECECE"/>
<path id="Vector_36" d="M168.952 170.423C199.712 139.662 199.712 89.7892 168.952 59.0286C138.191 28.268 88.3183 28.268 57.5577 59.0286C26.7971 89.7892 26.7971 139.662 57.5577 170.423C88.3183 201.183 138.191 201.183 168.952 170.423Z" fill="#CCCCCC"/>
<path id="Vector_37" d="M168.865 170.274C199.624 139.516 199.624 89.6456 168.865 58.8868C138.106 28.128 88.236 28.128 57.4772 58.8868C26.7184 89.6456 26.7184 139.516 57.4772 170.274C88.236 201.033 138.106 201.033 168.865 170.274Z" fill="#CBCBCB"/>
<path id="Vector_38" d="M168.778 170.126C199.535 139.369 199.535 89.5019 168.778 58.7447C138.021 27.9875 88.1537 27.9875 57.3965 58.7447C26.6393 89.5019 26.6393 139.369 57.3965 170.126C88.1537 200.884 138.021 200.884 168.778 170.126Z" fill="#C9C9C9"/>
<path id="Vector_39" d="M168.691 169.978C199.447 139.223 199.447 89.3583 168.691 58.6029C137.936 27.8475 88.0714 27.8475 57.3159 58.6029C26.5605 89.3583 26.5605 139.223 57.3159 169.978C88.0714 200.734 137.936 200.734 168.691 169.978Z" fill="#C8C8C8"/>
<path id="Vector_40" d="M168.604 169.83C199.358 139.076 199.358 89.2146 168.604 58.4608C137.851 27.707 87.9888 27.707 57.235 58.4608C26.4812 89.2146 26.4812 139.076 57.235 169.83C87.9888 200.584 137.851 200.584 168.604 169.83Z" fill="#C6C6C6"/>
<path id="Vector_41" d="M168.518 169.682C199.27 138.93 199.27 89.071 168.518 58.319C137.766 27.5669 87.9067 27.5669 57.1547 58.319C26.4026 89.071 26.4026 138.93 57.1547 169.682C87.9067 200.434 137.766 200.434 168.518 169.682Z" fill="#C5C5C5"/>
<path id="Vector_42" d="M168.431 169.534C199.181 138.784 199.181 88.9274 168.431 58.1772C137.68 27.4269 87.8243 27.4269 57.0741 58.1772C26.3238 88.9274 26.3238 138.783 57.0741 169.534C87.8243 200.284 137.68 200.284 168.431 169.534Z" fill="#C3C3C3"/>
<path id="Vector_43" d="M168.344 169.386C199.093 138.637 199.093 88.7837 168.344 58.035C137.595 27.2864 87.7418 27.2864 56.9931 58.0351C26.2445 88.7837 26.2445 138.637 56.9931 169.386C87.7418 200.135 137.595 200.135 168.344 169.386Z" fill="#C2C2C2"/>
<path id="Vector_44" d="M168.257 169.238C199.004 138.491 199.004 88.6401 168.257 57.8932C137.51 27.1463 87.6597 27.1464 56.9128 57.8933C26.1659 88.6401 26.1659 138.491 56.9128 169.238C87.6597 199.985 137.51 199.985 168.257 169.238Z" fill="#C0C0C0"/>
<path id="Vector_45" d="M168.17 169.089C198.915 138.344 198.915 88.4966 168.17 57.7515C137.425 27.0063 87.5774 27.0063 56.8323 57.7514C26.0872 88.4966 26.0872 138.344 56.8323 169.089C87.5774 199.835 137.425 199.835 168.17 169.089Z" fill="#BFBFBF"/>
<path id="Vector_46" d="M168.083 168.941C198.827 138.197 198.827 88.3524 168.083 57.6088C137.34 26.8653 87.4948 26.8653 56.7513 57.6089C26.0077 88.3524 26.0077 138.197 56.7513 168.941C87.4948 199.684 137.34 199.684 168.083 168.941Z" fill="#BDBDBD"/>
<path id="Vector_47" d="M167.997 168.793C198.738 138.051 198.738 88.2093 167.997 57.4675C137.255 26.7258 87.4128 26.7258 56.671 57.4675C25.9293 88.2093 25.9293 138.051 56.671 168.793C87.4128 199.535 137.255 199.535 167.997 168.793Z" fill="#BCBCBC"/>
<path id="Vector_48" d="M167.91 168.645C198.65 137.905 198.65 88.0656 167.91 57.3254C137.17 26.5853 87.3302 26.5853 56.5901 57.3254C25.85 88.0655 25.85 137.905 56.5901 168.645C87.3302 199.385 137.17 199.385 167.91 168.645Z" fill="#BABABA"/>
<path id="Vector_49" d="M167.823 168.497C198.561 137.759 198.561 87.922 167.823 57.1836C137.085 26.4452 87.2479 26.4452 56.5095 57.1836C25.7712 87.922 25.7711 137.759 56.5095 168.497C87.2479 199.235 137.085 199.235 167.823 168.497Z" fill="#B9B9B9"/>
<path id="Vector_50" d="M167.736 168.349C198.473 137.612 198.473 87.7784 167.736 57.0418C137 26.3052 87.1659 26.3052 56.4293 57.0418C25.6927 87.7784 25.6927 137.612 56.4293 168.349C87.1659 199.085 137 199.085 167.736 168.349Z" fill="#B7B7B7"/>
<path id="Vector_51" d="M167.65 168.201C198.385 137.466 198.385 87.6346 167.65 56.8997C136.915 26.1647 87.0833 26.1647 56.3484 56.8997C25.6134 87.6347 25.6134 137.466 56.3484 168.201C87.0833 198.936 136.915 198.936 167.65 168.201Z" fill="#B6B6B6"/>
<path id="Vector_52" d="M167.563 168.053C198.296 137.319 198.296 87.4911 167.563 56.7579C136.829 26.0247 87.001 26.0247 56.2678 56.7579C25.5346 87.4911 25.5346 137.319 56.2678 168.053C87.001 198.786 136.829 198.786 167.563 168.053Z" fill="#B4B4B4"/>
<path id="Vector_53" d="M167.476 167.904C198.207 137.173 198.207 87.3475 167.476 56.6161C136.744 25.8846 86.9188 25.8846 56.1874 56.6161C25.456 87.3475 25.456 137.173 56.1874 167.904C86.9188 198.636 136.744 198.636 167.476 167.904Z" fill="#B3B3B3"/>
<path id="Vector_54" d="M167.389 167.756C198.119 137.026 198.119 87.2033 167.389 56.4735C136.659 25.7437 86.8364 25.7436 56.1066 56.4735C25.3768 87.2033 25.3768 137.026 56.1066 167.756C86.8364 198.486 136.659 198.486 167.389 167.756Z" fill="#B1B1B1"/>
<path id="Vector_55" d="M167.302 167.608C198.03 136.88 198.03 87.0597 167.302 56.3317C136.574 25.6036 86.7539 25.6036 56.0259 56.3317C25.2978 87.0597 25.2978 136.88 56.0259 167.608C86.7539 198.336 136.574 198.336 167.302 167.608Z" fill="#B0B0B0"/>
<path id="Vector_56" d="M167.216 167.46C197.942 136.734 197.942 86.9165 167.215 56.1901C136.489 25.4636 86.6717 25.4636 55.9452 56.19C25.2188 86.9165 25.2188 136.734 55.9452 167.46C86.6717 198.187 136.489 198.187 167.216 167.46Z" fill="#AEAEAE"/>
<path id="Vector_57" d="M167.129 167.312C197.853 136.587 197.853 86.7729 167.129 56.0482C136.404 25.3236 86.5894 25.3236 55.8647 56.0482C25.1401 86.7729 25.1401 136.587 55.8647 167.312C86.5894 198.037 136.404 198.037 167.129 167.312Z" fill="#ADADAD"/>
<path id="Vector_58" d="M167.042 167.164C197.765 136.441 197.765 86.6293 167.042 55.9064C136.319 25.1835 86.507 25.1835 55.7841 55.9064C25.0612 86.6293 25.0612 136.441 55.7841 167.164C86.507 197.887 136.319 197.887 167.042 167.164Z" fill="#ABABAB"/>
<path id="Vector_59" d="M166.955 167.016C197.676 136.295 197.676 86.4856 166.955 55.7643C136.234 25.043 86.4245 25.043 55.7032 55.7643C24.9819 86.4856 24.9819 136.295 55.7032 167.016C86.4245 197.737 136.234 197.737 166.955 167.016Z" fill="#AAAAAA"/>
<path id="Vector_60" d="M166.868 166.868C197.587 136.148 197.587 86.342 166.868 55.6225C136.148 24.903 86.3421 24.903 55.6226 55.6225C24.9031 86.342 24.9031 136.148 55.6226 166.868C86.3421 197.587 136.148 197.587 166.868 166.868Z" fill="#A8A8A8"/>
<path id="Vector_61" d="M111.164 189.758C154.605 189.758 189.822 154.542 189.822 111.1C189.822 67.658 154.605 32.4414 111.164 32.4414C67.7217 32.4414 32.5051 67.658 32.5051 111.1C32.5051 154.542 67.7217 189.758 111.164 189.758Z" fill="#A7A7A7"/>
<path id="Vector_62" d="M111.08 189.609C154.519 189.609 189.734 154.395 189.734 110.955C189.734 67.5155 154.519 32.3008 111.08 32.3008C67.6403 32.3008 32.4255 67.5155 32.4255 110.955C32.4255 154.395 67.6403 189.609 111.08 189.609Z" fill="#A5A5A5"/>
<path id="Vector_63" d="M110.996 189.46C154.433 189.46 189.646 154.247 189.646 110.81C189.646 67.3729 154.433 32.1602 110.996 32.1602C67.5592 32.1602 32.3464 67.3729 32.3464 110.81C32.3464 154.247 67.5592 189.46 110.996 189.46Z" fill="#A4A4A4"/>
<path id="Vector_64" d="M110.913 189.31C154.347 189.31 189.558 154.1 189.558 110.665C189.558 67.2299 154.347 32.019 110.913 32.019C67.4777 32.019 32.2668 67.2299 32.2668 110.665C32.2668 154.1 67.4777 189.31 110.913 189.31Z" fill="#A2A2A2"/>
<path id="Vector_65" d="M110.829 189.162C154.261 189.162 189.47 153.953 189.47 110.521C189.47 67.0882 154.261 31.8794 110.829 31.8794C67.3965 31.8794 32.1876 67.0882 32.1876 110.521C32.1876 153.953 67.3965 189.162 110.829 189.162Z" fill="#A1A1A1"/>
<path id="Vector_66" d="M110.745 189.012C154.175 189.012 189.382 153.805 189.382 110.375C189.382 66.9451 154.175 31.7383 110.745 31.7383C67.3153 31.7383 32.1085 66.9451 32.1085 110.375C32.1085 153.805 67.3153 189.012 110.745 189.012Z" fill="#9F9F9F"/>
<path id="Vector_67" d="M110.661 188.863C154.089 188.863 189.294 153.658 189.294 110.23C189.294 66.8026 154.089 31.5977 110.661 31.5977C67.2339 31.5977 32.0289 66.8026 32.0289 110.23C32.0289 153.658 67.2339 188.863 110.661 188.863Z" fill="#9E9E9E"/>
<path id="Vector_68" d="M110.578 188.713C154.003 188.713 189.206 153.51 189.206 110.085C189.206 66.66 154.003 31.457 110.578 31.457C67.1526 31.457 31.9497 66.66 31.9497 110.085C31.9497 153.51 67.1526 188.713 110.578 188.713Z" fill="#9C9C9C"/>
<path id="Vector_69" d="M110.494 188.564C153.917 188.564 189.118 153.363 189.118 109.94C189.118 66.517 153.917 31.3159 110.494 31.3159C67.0712 31.3159 31.8701 66.517 31.8701 109.94C31.8701 153.363 67.0712 188.564 110.494 188.564Z" fill="#9B9B9B"/>
<path id="Vector_70" d="M110.41 188.414C153.83 188.414 189.03 153.215 189.03 109.795C189.03 66.3748 153.83 31.1758 110.41 31.1758C66.99 31.1758 31.7909 66.3748 31.7909 109.795C31.7909 153.215 66.99 188.414 110.41 188.414Z" fill="#999999"/>
<path id="Vector_71" d="M110.326 188.265C153.744 188.265 188.941 153.068 188.941 109.65C188.941 66.2322 153.744 31.0352 110.326 31.0352C66.9087 31.0352 31.7117 66.2322 31.7117 109.65C31.7117 153.068 66.9087 188.265 110.326 188.265Z" fill="#989898"/>
<path id="Vector_72" d="M110.243 188.116C153.658 188.116 188.854 152.921 188.854 109.505C188.854 66.0897 153.658 30.8945 110.243 30.8945C66.8274 30.8945 31.6322 66.0897 31.6322 109.505C31.6322 152.921 66.8274 188.116 110.243 188.116Z" fill="#969696"/>
<path id="Vector_73" d="M110.159 187.966C153.572 187.966 188.765 152.772 188.765 109.36C188.765 65.9466 153.572 30.7534 110.159 30.7534C66.7462 30.7534 31.5531 65.9466 31.5531 109.36C31.5531 152.772 66.7462 187.966 110.159 187.966Z" fill="#959595"/>
<path id="Vector_74" d="M110.075 187.817C153.486 187.817 188.677 152.626 188.677 109.215C188.677 65.8049 153.486 30.6138 110.075 30.6138C66.665 30.6138 31.4739 65.8049 31.4739 109.215C31.4739 152.626 66.665 187.817 110.075 187.817Z" fill="#939393"/>
<path id="Vector_75" d="M109.992 187.668C153.4 187.668 188.589 152.478 188.589 109.07C188.589 65.6619 153.4 30.4727 109.992 30.4727C66.5835 30.4727 31.3943 65.6619 31.3943 109.07C31.3943 152.478 66.5835 187.668 109.992 187.668Z" fill="#929292"/>
<path id="Vector_76" d="M109.908 187.518C153.314 187.518 188.501 152.331 188.501 108.925C188.501 65.5193 153.314 30.332 109.908 30.332C66.5023 30.332 31.3151 65.5193 31.3151 108.925C31.3151 152.331 66.5023 187.518 109.908 187.518Z" fill="#909090"/>
<path id="Vector_77" d="M109.824 187.369C153.228 187.369 188.413 152.184 188.413 108.78C188.413 65.3768 153.228 30.1914 109.824 30.1914C66.4209 30.1914 31.2355 65.3768 31.2355 108.78C31.2355 152.184 66.4209 187.369 109.824 187.369Z" fill="#8F8F8F"/>
<path id="Vector_78" d="M109.741 187.219C153.141 187.219 188.325 152.036 188.325 108.635C188.325 65.2341 153.141 30.0508 109.741 30.0508C66.3396 30.0508 31.1562 65.2341 31.1562 108.635C31.1562 152.036 66.3396 187.219 109.741 187.219Z" fill="#8D8D8D"/>
<path id="Vector_79" d="M109.657 187.07C153.055 187.07 188.237 151.888 188.237 108.49C188.237 65.0915 153.055 29.9102 109.657 29.9102C66.2585 29.9102 31.0771 65.0915 31.0771 108.49C31.0771 151.888 66.2585 187.07 109.657 187.07Z" fill="#8C8C8C"/>
<path id="Vector_80" d="M109.573 186.921C152.969 186.921 188.149 151.741 188.149 108.345C188.149 64.949 152.969 29.7695 109.573 29.7695C66.1771 29.7695 30.9976 64.949 30.9976 108.345C30.9976 151.741 66.1771 186.921 109.573 186.921Z" fill="#8A8A8A"/>
<path id="Vector_81" d="M109.489 186.771C152.883 186.771 188.06 151.594 188.06 108.2C188.06 64.8064 152.883 29.6289 109.489 29.6289C66.0958 29.6289 30.9183 64.8064 30.9183 108.2C30.9183 151.594 66.0958 186.771 109.489 186.771Z" fill="#898989"/>
<path id="Vector_82" d="M109.406 186.621C152.797 186.621 187.972 151.446 187.972 108.055C187.972 64.6637 152.797 29.4883 109.406 29.4883C66.0147 29.4883 30.8392 64.6637 30.8392 108.055C30.8392 151.446 66.0147 186.621 109.406 186.621Z" fill="#878787"/>
<path id="Vector_83" d="M109.322 186.472C152.711 186.472 187.884 151.298 187.884 107.91C187.884 64.5207 152.711 29.3472 109.322 29.3472C65.9332 29.3472 30.7596 64.5207 30.7596 107.91C30.7596 151.298 65.9332 186.472 109.322 186.472Z" fill="#868686"/>
<path id="Vector_84" d="M109.238 186.323C152.625 186.323 187.796 151.151 187.796 107.765C187.796 64.3786 152.625 29.207 109.238 29.207C65.852 29.207 30.6804 64.3786 30.6804 107.765C30.6804 151.151 65.852 186.323 109.238 186.323Z" fill="#848484"/>
<path id="Vector_85" d="M109.155 186.173C152.539 186.173 187.708 151.004 187.708 107.62C187.708 64.2356 152.539 29.0659 109.155 29.0659C65.7706 29.0659 30.601 64.2356 30.601 107.62C30.601 151.004 65.7706 186.173 109.155 186.173Z" fill="#838383"/>
<path id="Vector_86" d="M109.071 186.024C152.452 186.024 187.62 150.857 187.62 107.475C187.62 64.0935 152.452 28.9258 109.071 28.9258C65.6894 28.9258 30.5217 64.0935 30.5217 107.475C30.5217 150.857 65.6894 186.024 109.071 186.024Z" fill="#818181"/>
<path id="Vector_87" d="M108.987 185.874C152.366 185.874 187.532 150.709 187.532 107.33C187.532 63.9508 152.366 28.7852 108.987 28.7852C65.6082 28.7852 30.4425 63.9508 30.4425 107.33C30.4425 150.709 65.6082 185.874 108.987 185.874Z" fill="#808080"/>
<path id="Vector_88" d="M108.903 185.725C152.28 185.725 187.444 150.561 187.444 107.185C187.444 63.8078 152.28 28.644 108.903 28.644C65.5262 28.644 30.3624 63.8078 30.3624 107.185C30.3624 150.561 65.5262 185.725 108.903 185.725Z" fill="#7E7E7E"/>
<path id="Vector_89" d="M108.819 185.576C152.193 185.576 187.355 150.414 187.355 107.04C187.355 63.6657 152.193 28.5039 108.819 28.5039C65.445 28.5039 30.2832 63.6657 30.2832 107.04C30.2832 150.414 65.445 185.576 108.819 185.576Z" fill="#7D7D7D"/>
<path id="Vector_90" d="M108.736 185.426C152.107 185.426 187.267 150.266 187.267 106.895C187.267 63.523 152.107 28.3633 108.736 28.3633C65.3638 28.3633 30.2041 63.523 30.2041 106.895C30.2041 150.266 65.3638 185.426 108.736 185.426Z" fill="#7B7B7B"/>
<path id="Vector_91" d="M108.652 185.277C152.021 185.277 187.179 150.119 187.179 106.75C187.179 63.3801 152.021 28.2222 108.652 28.2222C65.2825 28.2222 30.1246 63.3801 30.1246 106.75C30.1246 150.119 65.2825 185.277 108.652 185.277Z" fill="#7A7A7A"/>
<path id="Vector_92" d="M108.568 185.127C151.935 185.127 187.091 149.971 187.091 106.604C187.091 63.2374 151.935 28.0815 108.568 28.0815C65.2013 28.0815 30.0454 63.2374 30.0454 106.604C30.0454 149.971 65.2013 185.127 108.568 185.127Z" fill="#787878"/>
<path id="Vector_93" d="M108.484 184.978C151.849 184.978 187.003 149.824 187.003 106.46C187.003 63.0949 151.849 27.9409 108.484 27.9409C65.1198 27.9409 29.9658 63.0949 29.9658 106.46C29.9658 149.824 65.1198 184.978 108.484 184.978Z" fill="#777777"/>
<path id="Vector_94" d="M108.401 184.829C151.763 184.829 186.915 149.677 186.915 106.314C186.915 62.9523 151.763 27.8003 108.401 27.8003C65.0386 27.8003 29.8866 62.9523 29.8866 106.314C29.8866 149.677 65.0386 184.829 108.401 184.829Z" fill="#757575"/>
<path id="Vector_95" d="M108.317 184.679C151.677 184.679 186.827 149.529 186.827 106.17C186.827 62.8101 151.677 27.6602 108.317 27.6602C64.9573 27.6602 29.8074 62.8101 29.8074 106.17C29.8074 149.529 64.9573 184.679 108.317 184.679Z" fill="#747474"/>
<path id="Vector_96" d="M108.233 184.53C151.591 184.53 186.739 149.382 186.739 106.025C186.739 62.6671 151.591 27.519 108.233 27.519C64.8759 27.519 29.7278 62.6671 29.7278 106.025C29.7278 149.382 64.8759 184.53 108.233 184.53Z" fill="#727272"/>
<path id="Vector_97" d="M108.15 184.38C151.504 184.38 186.65 149.234 186.65 105.879C186.65 62.5245 151.504 27.3784 108.15 27.3784C64.7946 27.3784 29.6486 62.5245 29.6486 105.879C29.6486 149.234 64.7946 184.38 108.15 184.38Z" fill="#717171"/>
<path id="Vector_98" d="M108.066 184.231C151.418 184.231 186.562 149.087 186.562 105.735C186.562 62.3823 151.418 27.2383 108.066 27.2383C64.7135 27.2383 29.5695 62.3823 29.5695 105.735C29.5695 149.087 64.7135 184.231 108.066 184.231Z" fill="#6F6F6F"/>
<path id="Vector_99" d="M107.982 184.082C151.332 184.082 186.474 148.94 186.474 105.589C186.474 62.2394 151.332 27.0972 107.982 27.0972C64.6321 27.0972 29.4899 62.2394 29.4899 105.589C29.4899 148.94 64.6321 184.082 107.982 184.082Z" fill="#6E6E6E"/>
<path id="Vector_100" d="M107.899 183.932C151.246 183.932 186.386 148.792 186.386 105.444C186.386 62.0967 151.246 26.9565 107.899 26.9565C64.5509 26.9565 29.4108 62.0967 29.4108 105.444C29.4108 148.792 64.5509 183.932 107.899 183.932Z" fill="#6C6C6C"/>
<path id="Vector_101" d="M107.815 183.783C151.16 183.783 186.298 148.645 186.298 105.3C186.298 61.9542 151.16 26.8159 107.815 26.8159C64.4695 26.8159 29.3312 61.9542 29.3312 105.3C29.3312 148.645 64.4695 183.783 107.815 183.783Z" fill="#6B6B6B"/>
<path id="Vector_102" d="M107.731 183.633C151.074 183.633 186.21 148.497 186.21 105.154C186.21 61.8116 151.074 26.6753 107.731 26.6753C64.3884 26.6753 29.2521 61.8116 29.2521 105.154C29.2521 148.497 64.3884 183.633 107.731 183.633Z" fill="#696969"/>
<path id="Vector_103" d="M107.647 183.484C150.988 183.484 186.122 148.35 186.122 105.01C186.122 61.6694 150.988 26.5352 107.647 26.5352C64.3071 26.5352 29.1729 61.6694 29.1729 105.01C29.1729 148.35 64.3071 183.484 107.647 183.484Z" fill="#686868"/>
</g>
<path id="Vector_104" d="M107.322 183.693C150.906 183.693 186.239 148.361 186.239 104.776C186.239 61.1912 150.906 25.8589 107.322 25.8589C63.7369 25.8589 28.4045 61.1912 28.4045 104.776C28.4045 148.361 63.7369 183.693 107.322 183.693Z" fill="url(#paint0_linear_647_4272)"/>
<path id="Vector_105" d="M107.322 180.546C149.168 180.546 183.092 146.622 183.092 104.776C183.092 62.9288 149.168 29.0054 107.322 29.0054C65.4749 29.0054 31.5514 62.9288 31.5514 104.776C31.5514 146.622 65.4749 180.546 107.322 180.546Z" fill="white"/>
</g>
</g>
<g id="Group_5">
<path id="Vector_106" d="M90.6827 134.652C109.233 134.652 124.271 119.614 124.271 101.063C124.271 82.5131 109.233 67.4751 90.6827 67.4751C72.1323 67.4751 57.0942 82.5131 57.0942 101.063C57.0942 119.614 72.1323 134.652 90.6827 134.652Z" fill="#F2A71B"/>
</g>
<g id="Group_6">
<text id="Em Crian&#195;&#167;as" fill="#393C40" xml:space="preserve" style="white-space: pre" font-family="'Montserrat', sans-serif" font-size="24" font-weight="bold" letter-spacing="0em"><tspan x="287" y="116.104">Em Crian&#xe7;as</tspan></text>
<g id="Group_7">
<path id="Vector_107" d="M344.873 53.8709L367.292 66.8988L388.194 53.0571" stroke="#393C40" stroke-width="5.4515" stroke-miterlimit="10"/>
<path id="Vector_108" d="M344.873 67.7127L367.292 80.7405L388.194 66.8989" stroke="#393C40" stroke-width="5.4515" stroke-miterlimit="10"/>
</g>
</g>
<g id="icones mae e filho-01" clip-path="url(#clip0_647_4272)">
<path id="Vector_109" d="M110.322 160.885C108.891 159.278 102.25 147.004 101.218 144.515C100.348 142.411 100.189 140.554 101.129 138.425C101.858 136.777 107.59 128.443 107.59 127.819V122.419C107.023 122.464 106.508 123.022 106.048 123.367C104.207 124.755 101.268 127.634 99.3243 128.44C92.7386 131.174 87.9215 122.725 92.9528 117.802C99.0291 113.674 104.693 107.896 110.745 103.871C112.072 102.989 112.846 102.533 114.502 102.391C118.541 102.04 126.156 102.04 130.194 102.391C132.543 102.593 133.332 103.5 135.022 104.898C139.505 109.934 146.6 114.212 150.926 119.153C155.845 124.769 149.721 132.886 143.444 129.067C140.887 127.513 138.616 124.371 136.064 122.68V128.079C136.064 128.683 141.641 136.729 142.381 138.304C143.541 140.772 143.295 142.411 142.208 144.81C141.041 147.389 134.834 159.244 133.358 160.777C132.261 161.917 130.947 162.363 129.774 162.489C127.498 162.737 125.228 161.72 123.922 159.826C123.465 159.165 123.144 158.409 123.026 157.556C122.376 152.828 127.159 148.387 128.614 144.262C128.729 143.938 128.818 143.791 128.716 143.414C128.614 143.037 126.041 140.749 125.693 140.643C124.93 140.411 119.478 140.467 118.415 140.575C117.007 140.714 115.675 142.511 114.896 143.63C116.678 148.969 123.12 155.053 119.437 160.011C118.07 161.849 115.839 162.879 113.58 162.584C112.483 162.439 111.302 161.981 110.325 160.885H110.322ZM134.236 123.999V120.18C134.236 119.788 135.45 119.611 135.8 119.922L144.032 127.426C146.594 129.13 149.998 128.143 150.777 125.006C151.438 122.345 150.466 121.25 148.742 119.516C144.531 115.284 137.493 108.899 132.794 105.306C132.394 105.001 131.971 104.727 131.55 104.453C126.129 104.485 119.606 103.71 114.238 104.234C112.501 104.403 110.604 106.241 109.183 107.303C104.742 110.622 98.9534 114.818 94.9278 118.479C92.8875 120.333 91.6075 122.582 93.3656 125.306C94.9278 127.729 97.5035 127.524 99.6822 126.167C102.488 124.423 105.152 121.597 107.924 119.719C108.324 119.24 109.418 119.846 109.418 120.183V124.002H134.236V123.999ZM134.236 125.843H109.418L109.659 128.103L117.778 138.618L125.492 138.771L134.1 127.945L134.236 125.843ZM108.376 129.531C107.08 132.541 104.763 135.312 103.274 138.217C102.268 140.18 101.668 141.175 102.577 143.409C105.641 147.823 107.773 154.571 110.871 158.752C113.198 161.891 116.691 161.193 118.146 158.696C118.946 157.324 118.935 155.62 118.214 154.203L113.081 144.123C112.757 141.547 116.263 140.504 116.171 139.453L108.376 129.531ZM134.904 129.805L127.47 139.197C127.182 140.285 130.706 141.86 130.568 143.87L125.207 154.055C125.066 154.324 124.936 154.6 124.842 154.89C123.462 159.104 128.253 162.497 131.56 159.974C132.086 159.573 132.501 159.044 132.814 158.459L141.229 142.771C141.323 141.715 141.422 140.643 141.088 139.608C140.672 138.333 136.482 131.575 135.5 130.229C135.338 130.005 135.257 129.707 134.904 129.802V129.805Z" fill="#393C40"/>
<path id="Vector_110" d="M111.978 80.5476C123.013 68.8266 141.203 85.0227 130.568 97.5786C119.721 110.385 100.354 92.8955 111.978 80.5476ZM129.034 81.6012C118.956 71.1497 103.311 86.5003 113.193 96.9149C123.144 107.401 139.008 91.9446 129.034 81.6012Z" fill="#393C40"/>
</g>
</g>
<defs>
<linearGradient id="paint0_linear_647_4272" x1="51.5208" y1="48.971" x2="163.123" y2="160.581" gradientUnits="userSpaceOnUse">
<stop stop-color="white"/>
<stop offset="0.2253" stop-color="#F6F7F7"/>
<stop offset="0.5884" stop-color="#DFE0E1"/>
<stop offset="1" stop-color="#BCBEC0"/>
</linearGradient>
<clipPath id="clip0_647_4272">
<rect width="66.8984" height="88.2367" fill="white" transform="translate(90.9042 76.4956)"/>
</clipPath>
</defs>
</svg>
