<svg width="567" height="384" viewBox="0 0 567 384" fill="none" xmlns="http://www.w3.org/2000/svg">
<g id="Component 8/MODAL">
<g id="Group 1291">
<g id="Group 1288">
<g id="Group 1242">
<g id="Group 1241">
<g id="Group 1142">
<rect id="Rectangle 200" x="9" y="116" width="556.754" height="268" rx="12" fill="#FFFBEB"/>
</g>
</g>
</g>
<text id="Ocorre diminui&#195;&#167;&#195;&#163;o gradual do peso e da altura em rela&#195;&#167;&#195;&#163;o &#195;&#160; idade, al&#195;&#169;m de baixa energia e cansa&#195;&#167;o, fadiga constante e uma ligeira deteriora&#195;&#167;&#195;&#163;o do estado geral de sa&#195;&#186;de." fill="#242628" xml:space="preserve" style="white-space: pre" font-family="'Montserrat', sans-serif" font-size="18" letter-spacing="0em"><tspan x="89.3977" y="245.953">Ocorre diminui&#xe7;&#xe3;o gradual do peso e da altura </tspan><tspan x="89.3977" y="270.953">em rela&#xe7;&#xe3;o &#xe0; idade, al&#xe9;m de baixa energia e </tspan><tspan x="89.3977" y="295.953">cansa&#xe7;o, fadiga constante e uma ligeira </tspan><tspan x="89.3977" y="320.953">deteriora&#xe7;&#xe3;o do estado geral de sa&#xfa;de.</tspan></text>
</g>
<g id="Group">
<path id="Vector" d="M566.245 164.939H49.9743C27.2497 164.939 8.82837 152.071 8.82837 136.197V3H525.099C547.824 3 566.245 15.8685 566.245 31.7423V164.939Z" fill="#F8C227"/>
</g>
<g id="Group_2">
<g id="Group_3">
<g id="Group_4" opacity="0.9">
<path id="Vector_2" d="M172.658 175.458C203.477 144.64 203.477 94.6727 172.658 63.854C141.839 33.0353 91.8722 33.0353 61.0535 63.854C30.2347 94.6727 30.2347 144.64 61.0535 175.458C91.8722 206.277 141.839 206.277 172.658 175.458Z" fill="white"/>
<path id="Vector_3" d="M172.571 175.31C203.388 144.493 203.388 94.5286 172.571 63.7116C141.754 32.8947 91.79 32.8948 60.9729 63.7119C30.1558 94.529 30.1557 144.493 60.9726 175.31C91.7896 206.127 141.754 206.127 172.571 175.31Z" fill="#FEFEFE"/>
<path id="Vector_4" d="M172.484 175.162C203.3 144.347 203.3 94.3855 172.484 63.5701C141.669 32.7548 91.7074 32.7548 60.8921 63.5701C30.0767 94.3854 30.0767 144.347 60.8921 175.162C91.7074 205.978 141.669 205.978 172.484 175.162Z" fill="#FCFCFC"/>
<path id="Vector_5" d="M172.398 175.015C203.211 144.201 203.211 94.2424 172.398 63.4288C141.584 32.6152 91.6253 32.6152 60.8117 63.4288C29.9981 94.2423 29.9981 144.201 60.8117 175.015C91.6253 205.828 141.584 205.828 172.398 175.015Z" fill="#FBFBFB"/>
<path id="Vector_6" d="M172.311 174.866C203.123 144.054 203.123 94.0981 172.311 63.2862C141.499 32.4742 91.5429 32.4742 60.7309 63.2862C29.9189 94.0981 29.9189 144.054 60.7309 174.866C91.5429 205.678 141.499 205.678 172.311 174.866Z" fill="#F9F9F9"/>
<path id="Vector_7" d="M172.224 174.717C203.034 143.907 203.034 93.9541 172.224 63.1439C141.414 32.3337 91.4605 32.3337 60.6503 63.1439C29.8401 93.9541 29.8401 143.907 60.6503 174.717C91.4605 205.528 141.414 205.528 172.224 174.717Z" fill="#F8F8F8"/>
<path id="Vector_8" d="M172.137 174.57C202.946 143.761 202.946 93.811 172.137 63.0026C141.329 32.1942 91.3784 32.1941 60.5699 63.0026C29.7615 93.811 29.7615 143.761 60.57 174.57C91.3784 205.378 141.329 205.378 172.137 174.57Z" fill="#F6F6F6"/>
<path id="Vector_9" d="M172.05 174.422C202.857 143.615 202.857 93.6673 172.05 62.8605C141.243 32.0537 91.2957 32.0537 60.4889 62.8605C29.6821 93.6673 29.6821 143.615 60.4889 174.422C91.2957 205.229 141.243 205.229 172.05 174.422Z" fill="#F5F5F5"/>
<path id="Vector_10" d="M171.963 174.274C202.768 143.469 202.768 93.5237 171.963 62.7187C141.158 31.9136 91.2133 31.9136 60.4083 62.7187C29.6033 93.5237 29.6033 143.469 60.4083 174.274C91.2133 205.079 141.158 205.079 171.963 174.274Z" fill="#F3F3F3"/>
<path id="Vector_11" d="M171.877 174.126C202.68 143.322 202.68 93.38 171.877 62.5766C141.073 31.7731 91.1312 31.7731 60.3278 62.5765C29.5243 93.38 29.5243 143.322 60.3278 174.126C91.1312 204.929 141.073 204.929 171.877 174.126Z" fill="#F2F2F2"/>
<path id="Vector_12" d="M171.79 173.977C202.591 143.175 202.591 93.2359 171.79 62.4343C140.988 31.6326 91.0488 31.6326 60.2472 62.4342C29.4455 93.2359 29.4455 143.175 60.2472 173.977C91.0488 204.779 140.988 204.779 171.79 173.977Z" fill="#F0F0F0"/>
<path id="Vector_13" d="M171.703 173.829C202.503 143.029 202.503 93.0928 171.703 62.2929C140.903 31.493 90.9664 31.493 60.1666 62.2929C29.3667 93.0928 29.3667 143.029 60.1666 173.829C90.9664 204.629 140.903 204.629 171.703 173.829Z" fill="#EFEFEF"/>
<path id="Vector_14" d="M171.616 173.681C202.415 142.883 202.415 92.9491 171.616 62.1508C140.818 31.3526 90.8843 31.3526 60.086 62.1508C29.2877 92.9491 29.2877 142.883 60.086 173.681C90.8843 204.479 140.818 204.479 171.616 173.681Z" fill="#EDEDED"/>
<path id="Vector_15" d="M171.529 173.533C202.326 142.736 202.326 92.8055 171.529 62.009C140.733 31.2125 90.8019 31.2125 60.0054 62.009C29.2089 92.8055 29.2089 142.736 60.0054 173.533C90.8019 204.329 140.733 204.329 171.529 173.533Z" fill="#ECECEC"/>
<path id="Vector_16" d="M171.442 173.385C202.237 142.59 202.237 92.6619 171.442 61.8672C140.648 31.0725 90.7195 31.0725 59.9248 61.8672C29.1301 92.6619 29.1301 142.59 59.9248 173.385C90.7195 204.179 140.648 204.179 171.442 173.385Z" fill="#EAEAEA"/>
<path id="Vector_17" d="M171.356 173.237C202.149 142.444 202.149 92.5182 171.356 61.7251C140.563 30.932 90.6373 30.932 59.8442 61.7251C29.0511 92.5182 29.0511 142.444 59.8442 173.237C90.6374 204.03 140.563 204.03 171.356 173.237Z" fill="#E9E9E9"/>
<path id="Vector_18" d="M171.269 173.089C202.06 142.297 202.06 92.3746 171.269 61.5833C140.478 30.7919 90.555 30.7919 59.7636 61.5833C28.9723 92.3746 28.9723 142.297 59.7636 173.089C90.555 203.88 140.478 203.88 171.269 173.089Z" fill="#E7E7E7"/>
<path id="Vector_19" d="M171.182 172.941C201.972 142.151 201.972 92.2309 171.182 61.4412C140.392 30.6514 90.4723 30.6514 59.6826 61.4412C28.8929 92.2309 28.8929 142.151 59.6826 172.941C90.4723 203.73 140.392 203.73 171.182 172.941Z" fill="#E6E6E6"/>
<path id="Vector_20" d="M171.095 172.792C201.883 142.004 201.883 92.0873 171.095 61.2994C140.307 30.5114 90.3902 30.5114 59.6023 61.2994C28.8143 92.0873 28.8143 142.004 59.6022 172.792C90.3902 203.58 140.307 203.58 171.095 172.792Z" fill="#E4E4E4"/>
<path id="Vector_21" d="M171.008 172.644C201.795 141.858 201.795 91.9432 171.008 61.1571C140.222 30.3709 90.3079 30.3709 59.5217 61.1571C28.7355 91.9432 28.7355 141.858 59.5217 172.644C90.3079 203.43 140.222 203.43 171.008 172.644Z" fill="#E3E3E3"/>
<path id="Vector_22" d="M170.922 172.496C201.706 141.711 201.706 91.7995 170.922 61.0149C140.137 30.2304 90.2254 30.2304 59.4409 61.0149C28.6563 91.7995 28.6563 141.711 59.4409 172.496C90.2254 203.28 140.137 203.28 170.922 172.496Z" fill="#E1E1E1"/>
<path id="Vector_23" d="M170.835 172.348C201.618 141.565 201.618 91.6564 170.835 60.8736C140.052 30.0908 90.1433 30.0908 59.3605 60.8736C28.5777 91.6564 28.5777 141.565 59.3605 172.348C90.1433 203.131 140.052 203.131 170.835 172.348Z" fill="#E0E0E0"/>
<path id="Vector_24" d="M170.748 172.2C201.529 141.419 201.529 91.5129 170.748 60.7318C139.967 29.9508 90.0609 29.9508 59.2799 60.7318C28.4989 91.5129 28.4989 141.419 59.2799 172.2C90.0609 202.981 139.967 202.981 170.748 172.2Z" fill="#DEDEDE"/>
<path id="Vector_25" d="M170.661 172.052C201.441 141.272 201.441 91.3691 170.661 60.5897C139.882 29.8103 89.9785 29.8103 59.1991 60.5897C28.4197 91.3691 28.4197 141.272 59.1991 172.052C89.9785 202.831 139.882 202.831 170.661 172.052Z" fill="#DDDDDD"/>
<path id="Vector_26" d="M170.574 171.903C201.352 141.126 201.352 91.2251 170.575 60.4474C139.797 29.6698 89.8964 29.6698 59.1187 60.4474C28.3411 91.2251 28.3411 141.126 59.1187 171.903C89.8964 202.681 139.797 202.681 170.574 171.903Z" fill="#DBDBDB"/>
<path id="Vector_27" d="M170.488 171.755C201.264 140.979 201.264 91.0813 170.488 60.3053C139.712 29.5293 89.8137 29.5293 59.0377 60.3053C28.2617 91.0814 28.2617 140.979 59.0377 171.755C89.8137 202.531 139.712 202.531 170.488 171.755Z" fill="#DADADA"/>
<path id="Vector_28" d="M170.401 171.607C201.175 140.833 201.175 90.9383 170.401 60.164C139.626 29.3897 89.7314 29.3897 58.9571 60.164C28.1828 90.9383 28.1828 140.833 58.9571 171.607C89.7314 202.382 139.626 202.382 170.401 171.607Z" fill="#D8D8D8"/>
<path id="Vector_29" d="M170.314 171.46C201.086 140.687 201.086 90.7952 170.314 60.0227C139.541 29.2502 89.6493 29.2502 58.8767 60.0227C28.1042 90.7952 28.1042 140.687 58.8767 171.46C89.6493 202.232 139.541 202.232 170.314 171.46Z" fill="#D7D7D7"/>
<path id="Vector_30" d="M170.227 171.311C200.998 140.54 200.998 90.651 170.227 59.8801C139.456 29.1092 89.5666 29.1092 58.7957 59.8801C28.0248 90.651 28.0248 140.54 58.7957 171.311C89.5666 202.082 139.456 202.082 170.227 171.311Z" fill="#D5D5D5"/>
<path id="Vector_31" d="M170.14 171.163C200.909 140.394 200.909 90.5074 170.14 59.7383C139.371 28.9692 89.4842 28.9691 58.7151 59.7383C27.946 90.5074 27.946 140.394 58.7151 171.163C89.4842 201.932 139.371 201.932 170.14 171.163Z" fill="#D4D4D4"/>
<path id="Vector_32" d="M170.053 171.015C200.821 140.248 200.821 90.3637 170.054 59.5964C139.286 28.829 89.4023 28.8291 58.6348 59.5966C27.8673 90.3642 27.8672 140.248 58.6345 171.015C89.4019 201.783 139.286 201.783 170.053 171.015Z" fill="#D2D2D2"/>
<path id="Vector_33" d="M169.967 170.867C200.732 140.101 200.732 90.2201 169.967 59.4544C139.201 28.6886 89.3197 28.6886 58.554 59.4543C27.7882 90.2201 27.7882 140.101 58.554 170.867C89.3197 201.633 139.201 201.633 169.967 170.867Z" fill="#D1D1D1"/>
<path id="Vector_34" d="M169.88 170.719C200.644 139.955 200.644 90.0765 169.88 59.3125C139.116 28.5486 89.2373 28.5486 58.4734 59.3125C27.7094 90.0765 27.7094 139.955 58.4734 170.719C89.2373 201.483 139.116 201.483 169.88 170.719Z" fill="#CFCFCF"/>
<path id="Vector_35" d="M169.793 170.571C200.555 139.808 200.556 89.9328 169.793 59.1704C139.031 28.4081 89.1551 28.4081 58.3928 59.1704C27.6304 89.9328 27.6304 139.808 58.3928 170.571C89.1552 201.333 139.031 201.333 169.793 170.571Z" fill="#CECECE"/>
<path id="Vector_36" d="M169.706 170.423C200.467 139.662 200.467 89.7892 169.706 59.0286C138.946 28.268 89.0728 28.268 58.3122 59.0286C27.5516 89.7892 27.5516 139.662 58.3122 170.423C89.0728 201.183 138.946 201.183 169.706 170.423Z" fill="#CCCCCC"/>
<path id="Vector_37" d="M169.619 170.274C200.378 139.516 200.378 89.6456 169.619 58.8868C138.86 28.128 88.9904 28.128 58.2316 58.8868C27.4728 89.6456 27.4728 139.516 58.2316 170.274C88.9904 201.033 138.86 201.033 169.619 170.274Z" fill="#CBCBCB"/>
<path id="Vector_38" d="M169.532 170.126C200.29 139.369 200.29 89.5019 169.532 58.7447C138.775 27.9875 88.908 27.9875 58.1508 58.7447C27.3936 89.5019 27.3936 139.369 58.1508 170.126C88.908 200.884 138.775 200.884 169.532 170.126Z" fill="#C9C9C9"/>
<path id="Vector_39" d="M169.445 169.978C200.201 139.223 200.201 89.3583 169.445 58.6029C138.69 27.8475 88.8256 27.8475 58.0702 58.6029C27.3148 89.3583 27.3148 139.223 58.0702 169.978C88.8256 200.734 138.69 200.734 169.445 169.978Z" fill="#C8C8C8"/>
<path id="Vector_40" d="M169.359 169.83C200.113 139.076 200.113 89.2146 169.359 58.4608C138.605 27.707 88.7432 27.707 57.9894 58.4608C27.2356 89.2146 27.2356 139.076 57.9894 169.83C88.7432 200.584 138.605 200.584 169.359 169.83Z" fill="#C6C6C6"/>
<path id="Vector_41" d="M169.272 169.682C200.024 138.93 200.024 89.071 169.272 58.319C138.52 27.5669 88.6611 27.5669 57.9091 58.319C27.157 89.071 27.157 138.93 57.909 169.682C88.6611 200.434 138.52 200.434 169.272 169.682Z" fill="#C5C5C5"/>
<path id="Vector_42" d="M169.185 169.534C199.935 138.784 199.935 88.9274 169.185 58.1772C138.435 27.4269 88.5787 27.4269 57.8285 58.1772C27.0782 88.9274 27.0782 138.783 57.8285 169.534C88.5787 200.284 138.435 200.284 169.185 169.534Z" fill="#C3C3C3"/>
<path id="Vector_43" d="M169.098 169.386C199.847 138.637 199.847 88.7837 169.098 58.035C138.35 27.2864 88.4961 27.2864 57.7474 58.0351C26.9987 88.7837 26.9987 138.637 57.7474 169.386C88.4961 200.135 138.35 200.135 169.098 169.386Z" fill="#C2C2C2"/>
<path id="Vector_44" d="M169.012 169.238C199.759 138.491 199.759 88.6401 169.012 57.8932C138.265 27.1463 88.4142 27.1464 57.6673 57.8933C26.9204 88.6401 26.9204 138.491 57.6673 169.238C88.4142 199.985 138.265 199.985 169.012 169.238Z" fill="#C0C0C0"/>
<path id="Vector_45" d="M168.925 169.089C199.67 138.344 199.67 88.4966 168.925 57.7515C138.18 27.0063 88.3318 27.0063 57.5867 57.7514C26.8416 88.4966 26.8416 138.344 57.5867 169.089C88.3318 199.835 138.18 199.835 168.925 169.089Z" fill="#BFBFBF"/>
<path id="Vector_46" d="M168.838 168.941C199.581 138.197 199.581 88.3524 168.838 57.6088C138.094 26.8653 88.2492 26.8653 57.5057 57.6089C26.7621 88.3524 26.7621 138.197 57.5057 168.941C88.2492 199.684 138.094 199.684 168.838 168.941Z" fill="#BDBDBD"/>
<path id="Vector_47" d="M168.751 168.793C199.493 138.051 199.493 88.2093 168.751 57.4675C138.009 26.7258 88.167 26.7258 57.4253 57.4675C26.6836 88.2093 26.6836 138.051 57.4253 168.793C88.1671 199.535 138.009 199.535 168.751 168.793Z" fill="#BCBCBC"/>
<path id="Vector_48" d="M168.664 168.645C199.405 137.905 199.405 88.0656 168.664 57.3254C137.924 26.5853 88.0846 26.5853 57.3445 57.3254C26.6044 88.0655 26.6044 137.905 57.3445 168.645C88.0846 199.385 137.924 199.385 168.664 168.645Z" fill="#BABABA"/>
<path id="Vector_49" d="M168.577 168.497C199.316 137.759 199.316 87.922 168.577 57.1836C137.839 26.4452 88.0023 26.4452 57.2639 57.1836C26.5255 87.922 26.5255 137.759 57.2639 168.497C88.0023 199.235 137.839 199.235 168.577 168.497Z" fill="#B9B9B9"/>
<path id="Vector_50" d="M168.491 168.349C199.227 137.612 199.227 87.7784 168.491 57.0418C137.754 26.3052 87.9201 26.3052 57.1836 57.0418C26.447 87.7784 26.447 137.612 57.1836 168.349C87.9201 199.085 137.754 199.085 168.491 168.349Z" fill="#B7B7B7"/>
<path id="Vector_51" d="M168.404 168.201C199.139 137.466 199.139 87.6346 168.404 56.8997C137.669 26.1647 87.8377 26.1647 57.1028 56.8997C26.3678 87.6347 26.3678 137.466 57.1027 168.201C87.8377 198.936 137.669 198.936 168.404 168.201Z" fill="#B6B6B6"/>
<path id="Vector_52" d="M168.317 168.053C199.05 137.319 199.05 87.4911 168.317 56.7579C137.584 26.0247 87.7554 26.0247 57.0222 56.7579C26.2889 87.4911 26.2889 137.319 57.0222 168.053C87.7554 198.786 137.584 198.786 168.317 168.053Z" fill="#B4B4B4"/>
<path id="Vector_53" d="M168.23 167.904C198.962 137.173 198.962 87.3475 168.23 56.6161C137.499 25.8846 87.6732 25.8846 56.9418 56.6161C26.2104 87.3475 26.2104 137.173 56.9418 167.904C87.6732 198.636 137.499 198.636 168.23 167.904Z" fill="#B3B3B3"/>
<path id="Vector_54" d="M168.144 167.756C198.873 137.026 198.873 87.2033 168.144 56.4735C137.414 25.7437 87.5908 25.7436 56.861 56.4735C26.1312 87.2033 26.1312 137.026 56.861 167.756C87.5908 198.486 137.414 198.486 168.144 167.756Z" fill="#B1B1B1"/>
<path id="Vector_55" d="M168.057 167.608C198.785 136.88 198.785 87.0597 168.057 56.3317C137.328 25.6036 87.5084 25.6036 56.7804 56.3317C26.0523 87.0597 26.0523 136.88 56.7804 167.608C87.5085 198.336 137.328 198.336 168.057 167.608Z" fill="#B0B0B0"/>
<path id="Vector_56" d="M167.97 167.46C198.696 136.734 198.696 86.9165 167.97 56.1901C137.243 25.4636 87.426 25.4636 56.6996 56.19C25.9732 86.9165 25.9732 136.734 56.6996 167.46C87.4261 198.187 137.243 198.187 167.97 167.46Z" fill="#AEAEAE"/>
<path id="Vector_57" d="M167.883 167.312C198.608 136.587 198.608 86.7729 167.883 56.0482C137.158 25.3236 87.3437 25.3236 56.619 56.0482C25.8943 86.7729 25.8943 136.587 56.619 167.312C87.3437 198.037 137.158 198.037 167.883 167.312Z" fill="#ADADAD"/>
<path id="Vector_58" d="M167.796 167.164C198.519 136.441 198.519 86.6293 167.796 55.9064C137.073 25.1835 87.2616 25.1835 56.5387 55.9064C25.8157 86.6293 25.8157 136.441 56.5387 167.164C87.2616 197.887 137.073 197.887 167.796 167.164Z" fill="#ABABAB"/>
<path id="Vector_59" d="M167.709 167.016C198.431 136.295 198.431 86.4856 167.709 55.7643C136.988 25.043 87.1789 25.043 56.4576 55.7643C25.7363 86.4856 25.7363 136.295 56.4576 167.016C87.1789 197.737 136.988 197.737 167.709 167.016Z" fill="#AAAAAA"/>
<path id="Vector_60" d="M167.622 166.868C198.342 136.148 198.342 86.342 167.622 55.6225C136.903 24.903 87.0965 24.903 56.377 55.6225C25.6575 86.342 25.6575 136.148 56.377 166.868C87.0965 197.587 136.903 197.587 167.622 166.868Z" fill="#A8A8A8"/>
<path id="Vector_61" d="M111.918 189.758C155.36 189.758 190.576 154.542 190.576 111.1C190.576 67.658 155.36 32.4414 111.918 32.4414C68.4761 32.4414 33.2595 67.658 33.2595 111.1C33.2595 154.542 68.4761 189.758 111.918 189.758Z" fill="#A7A7A7"/>
<path id="Vector_62" d="M111.834 189.609C155.274 189.609 190.489 154.395 190.489 110.955C190.489 67.5155 155.274 32.3008 111.834 32.3008C68.3947 32.3008 33.1799 67.5155 33.1799 110.955C33.1799 154.395 68.3947 189.609 111.834 189.609Z" fill="#A5A5A5"/>
<path id="Vector_63" d="M111.751 189.46C155.188 189.46 190.4 154.247 190.4 110.81C190.4 67.3729 155.188 32.1602 111.751 32.1602C68.3136 32.1602 33.1008 67.3729 33.1008 110.81C33.1008 154.247 68.3136 189.46 111.751 189.46Z" fill="#A4A4A4"/>
<path id="Vector_64" d="M111.667 189.31C155.102 189.31 190.313 154.1 190.313 110.665C190.313 67.2299 155.102 32.019 111.667 32.019C68.2321 32.019 33.0212 67.2299 33.0212 110.665C33.0212 154.1 68.2321 189.31 111.667 189.31Z" fill="#A2A2A2"/>
<path id="Vector_65" d="M111.583 189.162C155.015 189.162 190.224 153.953 190.224 110.521C190.224 67.0882 155.015 31.8794 111.583 31.8794C68.1507 31.8794 32.9419 67.0882 32.9419 110.521C32.9419 153.953 68.1507 189.162 111.583 189.162Z" fill="#A1A1A1"/>
<path id="Vector_66" d="M111.499 189.012C154.929 189.012 190.136 153.805 190.136 110.375C190.136 66.9451 154.929 31.7383 111.499 31.7383C68.0696 31.7383 32.8628 66.9451 32.8628 110.375C32.8628 153.805 68.0696 189.012 111.499 189.012Z" fill="#9F9F9F"/>
<path id="Vector_67" d="M111.416 188.863C154.843 188.863 190.048 153.658 190.048 110.23C190.048 66.8026 154.843 31.5977 111.416 31.5977C67.9882 31.5977 32.7832 66.8026 32.7832 110.23C32.7832 153.658 67.9882 188.863 111.416 188.863Z" fill="#9E9E9E"/>
<path id="Vector_68" d="M111.332 188.713C154.757 188.713 189.96 153.51 189.96 110.085C189.96 66.66 154.757 31.457 111.332 31.457C67.907 31.457 32.7041 66.66 32.7041 110.085C32.7041 153.51 67.907 188.713 111.332 188.713Z" fill="#9C9C9C"/>
<path id="Vector_69" d="M111.248 188.564C154.671 188.564 189.872 153.363 189.872 109.94C189.872 66.517 154.671 31.3159 111.248 31.3159C67.8256 31.3159 32.6245 66.517 32.6245 109.94C32.6245 153.363 67.8256 188.564 111.248 188.564Z" fill="#9B9B9B"/>
<path id="Vector_70" d="M111.165 188.414C154.585 188.414 189.784 153.215 189.784 109.795C189.784 66.3748 154.585 31.1758 111.165 31.1758C67.7445 31.1758 32.5454 66.3748 32.5454 109.795C32.5454 153.215 67.7445 188.414 111.165 188.414Z" fill="#999999"/>
<path id="Vector_71" d="M111.081 188.265C154.499 188.265 189.696 153.068 189.696 109.65C189.696 66.2322 154.499 31.0352 111.081 31.0352C67.6631 31.0352 32.4661 66.2322 32.4661 109.65C32.4661 153.068 67.6631 188.265 111.081 188.265Z" fill="#989898"/>
<path id="Vector_72" d="M110.997 188.116C154.413 188.116 189.608 152.921 189.608 109.505C189.608 66.0897 154.413 30.8945 110.997 30.8945C67.5819 30.8945 32.3867 66.0897 32.3867 109.505C32.3867 152.921 67.5819 188.116 110.997 188.116Z" fill="#969696"/>
<path id="Vector_73" d="M110.913 187.966C154.326 187.966 189.52 152.772 189.52 109.36C189.52 65.9466 154.326 30.7534 110.913 30.7534C67.5005 30.7534 32.3074 65.9466 32.3074 109.36C32.3074 152.772 67.5005 187.966 110.913 187.966Z" fill="#959595"/>
<path id="Vector_74" d="M110.83 187.817C154.24 187.817 189.431 152.626 189.431 109.215C189.431 65.8049 154.24 30.6138 110.83 30.6138C67.4194 30.6138 32.2283 65.8049 32.2283 109.215C32.2283 152.626 67.4194 187.817 110.83 187.817Z" fill="#939393"/>
<path id="Vector_75" d="M110.746 187.668C154.154 187.668 189.344 152.478 189.344 109.07C189.344 65.6619 154.154 30.4727 110.746 30.4727C67.3379 30.4727 32.1487 65.6619 32.1487 109.07C32.1487 152.478 67.3379 187.668 110.746 187.668Z" fill="#929292"/>
<path id="Vector_76" d="M110.662 187.518C154.068 187.518 189.255 152.331 189.255 108.925C189.255 65.5193 154.068 30.332 110.662 30.332C67.2566 30.332 32.0693 65.5193 32.0693 108.925C32.0693 152.331 67.2566 187.518 110.662 187.518Z" fill="#909090"/>
<path id="Vector_77" d="M110.579 187.369C153.982 187.369 189.168 152.184 189.168 108.78C189.168 65.3768 153.982 30.1914 110.579 30.1914C67.1754 30.1914 31.99 65.3768 31.99 108.78C31.99 152.184 67.1754 187.369 110.579 187.369Z" fill="#8F8F8F"/>
<path id="Vector_78" d="M110.495 187.219C153.896 187.219 189.079 152.036 189.079 108.635C189.079 65.2341 153.896 30.0508 110.495 30.0508C67.094 30.0508 31.9106 65.2341 31.9106 108.635C31.9106 152.036 67.094 187.219 110.495 187.219Z" fill="#8D8D8D"/>
<path id="Vector_79" d="M110.411 187.07C153.81 187.07 188.991 151.888 188.991 108.49C188.991 65.0915 153.81 29.9102 110.411 29.9102C67.0129 29.9102 31.8315 65.0915 31.8315 108.49C31.8315 151.888 67.0129 187.07 110.411 187.07Z" fill="#8C8C8C"/>
<path id="Vector_80" d="M110.328 186.921C153.724 186.921 188.903 151.741 188.903 108.345C188.903 64.949 153.724 29.7695 110.328 29.7695C66.9314 29.7695 31.752 64.949 31.752 108.345C31.752 151.741 66.9314 186.921 110.328 186.921Z" fill="#8A8A8A"/>
<path id="Vector_81" d="M110.244 186.771C153.638 186.771 188.815 151.594 188.815 108.2C188.815 64.8064 153.638 29.6289 110.244 29.6289C66.8503 29.6289 31.6729 64.8064 31.6729 108.2C31.6729 151.594 66.8503 186.771 110.244 186.771Z" fill="#898989"/>
<path id="Vector_82" d="M110.16 186.621C153.551 186.621 188.727 151.446 188.727 108.055C188.727 64.6637 153.551 29.4883 110.16 29.4883C66.7692 29.4883 31.5938 64.6637 31.5938 108.055C31.5938 151.446 66.7692 186.621 110.16 186.621Z" fill="#878787"/>
<path id="Vector_83" d="M110.076 186.472C153.465 186.472 188.639 151.298 188.639 107.91C188.639 64.5207 153.465 29.3472 110.076 29.3472C66.6875 29.3472 31.5139 64.5207 31.5139 107.91C31.5139 151.298 66.6875 186.472 110.076 186.472Z" fill="#868686"/>
<path id="Vector_84" d="M109.993 186.323C153.379 186.323 188.551 151.151 188.551 107.765C188.551 64.3786 153.379 29.207 109.993 29.207C66.6064 29.207 31.4348 64.3786 31.4348 107.765C31.4348 151.151 66.6064 186.323 109.993 186.323Z" fill="#848484"/>
<path id="Vector_85" d="M109.909 186.173C153.293 186.173 188.463 151.004 188.463 107.62C188.463 64.2356 153.293 29.0659 109.909 29.0659C66.5249 29.0659 31.3552 64.2356 31.3552 107.62C31.3552 151.004 66.5249 186.173 109.909 186.173Z" fill="#838383"/>
<path id="Vector_86" d="M109.825 186.024C153.207 186.024 188.375 150.857 188.375 107.475C188.375 64.0935 153.207 28.9258 109.825 28.9258C66.4438 28.9258 31.2761 64.0935 31.2761 107.475C31.2761 150.857 66.4438 186.024 109.825 186.024Z" fill="#818181"/>
<path id="Vector_87" d="M109.742 185.874C153.121 185.874 188.286 150.709 188.286 107.33C188.286 63.9508 153.121 28.7852 109.742 28.7852C66.3627 28.7852 31.197 63.9508 31.197 107.33C31.197 150.709 66.3627 185.874 109.742 185.874Z" fill="#808080"/>
<path id="Vector_88" d="M109.657 185.725C153.034 185.725 188.198 150.561 188.198 107.185C188.198 63.8078 153.034 28.644 109.657 28.644C66.2807 28.644 31.1169 63.8078 31.1169 107.185C31.1169 150.561 66.2807 185.725 109.657 185.725Z" fill="#7E7E7E"/>
<path id="Vector_89" d="M109.574 185.576C152.948 185.576 188.11 150.414 188.11 107.04C188.11 63.6657 152.948 28.5039 109.574 28.5039C66.1994 28.5039 31.0376 63.6657 31.0376 107.04C31.0376 150.414 66.1994 185.576 109.574 185.576Z" fill="#7D7D7D"/>
<path id="Vector_90" d="M109.49 185.426C152.862 185.426 188.021 150.266 188.021 106.895C188.021 63.523 152.862 28.3633 109.49 28.3633C66.1182 28.3633 30.9585 63.523 30.9585 106.895C30.9585 150.266 66.1182 185.426 109.49 185.426Z" fill="#7B7B7B"/>
<path id="Vector_91" d="M109.406 185.277C152.776 185.277 187.934 150.119 187.934 106.75C187.934 63.3801 152.776 28.2222 109.406 28.2222C66.0368 28.2222 30.8789 63.3801 30.8789 106.75C30.8789 150.119 66.0368 185.277 109.406 185.277Z" fill="#7A7A7A"/>
<path id="Vector_92" d="M109.323 185.127C152.69 185.127 187.845 149.971 187.845 106.604C187.845 63.2374 152.69 28.0815 109.323 28.0815C65.9557 28.0815 30.7998 63.2374 30.7998 106.604C30.7998 149.971 65.9557 185.127 109.323 185.127Z" fill="#787878"/>
<path id="Vector_93" d="M109.239 184.978C152.604 184.978 187.758 149.824 187.758 106.46C187.758 63.0949 152.604 27.9409 109.239 27.9409C65.8742 27.9409 30.7202 63.0949 30.7202 106.46C30.7202 149.824 65.8742 184.978 109.239 184.978Z" fill="#777777"/>
<path id="Vector_94" d="M109.155 184.829C152.517 184.829 187.669 149.677 187.669 106.314C187.669 62.9523 152.517 27.8003 109.155 27.8003C65.7928 27.8003 30.6409 62.9523 30.6409 106.314C30.6409 149.677 65.7928 184.829 109.155 184.829Z" fill="#757575"/>
<path id="Vector_95" d="M109.071 184.679C152.431 184.679 187.581 149.529 187.581 106.17C187.581 62.8101 152.431 27.6602 109.071 27.6602C65.7117 27.6602 30.5618 62.8101 30.5618 106.17C30.5618 149.529 65.7117 184.679 109.071 184.679Z" fill="#747474"/>
<path id="Vector_96" d="M108.988 184.53C152.345 184.53 187.493 149.382 187.493 106.025C187.493 62.6671 152.345 27.519 108.988 27.519C65.6303 27.519 30.4822 62.6671 30.4822 106.025C30.4822 149.382 65.6303 184.53 108.988 184.53Z" fill="#727272"/>
<path id="Vector_97" d="M108.904 184.38C152.259 184.38 187.405 149.234 187.405 105.879C187.405 62.5245 152.259 27.3784 108.904 27.3784C65.5491 27.3784 30.4031 62.5245 30.4031 105.879C30.4031 149.234 65.5491 184.38 108.904 184.38Z" fill="#717171"/>
<path id="Vector_98" d="M108.82 184.231C152.173 184.231 187.317 149.087 187.317 105.735C187.317 62.3823 152.173 27.2383 108.82 27.2383C65.468 27.2383 30.324 62.3823 30.324 105.735C30.324 149.087 65.468 184.231 108.82 184.231Z" fill="#6F6F6F"/>
<path id="Vector_99" d="M108.737 184.082C152.087 184.082 187.229 148.94 187.229 105.589C187.229 62.2394 152.087 27.0972 108.737 27.0972C65.3866 27.0972 30.2444 62.2394 30.2444 105.589C30.2444 148.94 65.3866 184.082 108.737 184.082Z" fill="#6E6E6E"/>
<path id="Vector_100" d="M108.653 183.932C152 183.932 187.141 148.792 187.141 105.444C187.141 62.0967 152 26.9565 108.653 26.9565C65.3052 26.9565 30.165 62.0967 30.165 105.444C30.165 148.792 65.3052 183.932 108.653 183.932Z" fill="#6C6C6C"/>
<path id="Vector_101" d="M108.569 183.783C151.914 183.783 187.053 148.645 187.053 105.3C187.053 61.9542 151.914 26.8159 108.569 26.8159C65.2238 26.8159 30.0854 61.9542 30.0854 105.3C30.0854 148.645 65.2238 183.783 108.569 183.783Z" fill="#6B6B6B"/>
<path id="Vector_102" d="M108.485 183.633C151.828 183.633 186.965 148.497 186.965 105.154C186.965 61.8116 151.828 26.6753 108.485 26.6753C65.1426 26.6753 30.0063 61.8116 30.0063 105.154C30.0063 148.497 65.1426 183.633 108.485 183.633Z" fill="#696969"/>
<path id="Vector_103" d="M108.402 183.484C151.742 183.484 186.876 148.35 186.876 105.01C186.876 61.6694 151.742 26.5352 108.402 26.5352C65.0615 26.5352 29.9272 61.6694 29.9272 105.01C29.9272 148.35 65.0615 183.484 108.402 183.484Z" fill="#686868"/>
</g>
<path id="Vector_104" d="M108.076 183.693C151.661 183.693 186.993 148.361 186.993 104.776C186.993 61.1912 151.661 25.8589 108.076 25.8589C64.4913 25.8589 29.1589 61.1912 29.1589 104.776C29.1589 148.361 64.4913 183.693 108.076 183.693Z" fill="url(#paint0_linear_647_4142)"/>
<path id="Vector_105" d="M108.076 180.546C149.923 180.546 183.846 146.622 183.846 104.776C183.846 62.9288 149.923 29.0054 108.076 29.0054C66.2294 29.0054 32.3059 62.9288 32.3059 104.776C32.3059 146.622 66.2294 180.546 108.076 180.546Z" fill="white"/>
</g>
</g>
<g id="Group_5">
<path id="Vector_106" d="M91.437 134.652C109.987 134.652 125.025 119.614 125.025 101.063C125.025 82.5131 109.987 67.4751 91.437 67.4751C72.8867 67.4751 57.8486 82.5131 57.8486 101.063C57.8486 119.614 72.8867 134.652 91.437 134.652Z" fill="#F8C227"/>
</g>
<g id="Group_6">
<text id="Em Crian&#195;&#167;as" fill="#393C40" xml:space="preserve" style="white-space: pre" font-family="'Montserrat', sans-serif" font-size="24" font-weight="bold" letter-spacing="0em"><tspan x="287.754" y="116.104">Em Crian&#xe7;as</tspan></text>
<g id="Group_7">
<path id="Vector_107" d="M345.627 53.8714L368.047 66.8992L388.948 53.0576" stroke="#393C40" stroke-width="5.4515" stroke-miterlimit="10"/>
<path id="Vector_108" d="M345.627 67.7131L368.047 80.741L388.948 66.8994" stroke="#393C40" stroke-width="5.4515" stroke-miterlimit="10"/>
</g>
</g>
<g id="icones mae e filho-01" clip-path="url(#clip0_647_4142)">
<path id="Vector_109" d="M111.077 160.885C109.645 159.279 103.005 147.005 101.973 144.516C101.103 142.411 100.944 140.554 101.884 138.426C102.613 136.777 108.344 128.443 108.344 127.819V122.42C107.778 122.464 107.263 123.023 106.803 123.368C104.961 124.756 102.023 127.635 100.079 128.441C93.4933 131.175 88.6761 122.725 93.7075 117.802C99.7838 113.675 105.447 107.896 111.5 103.871C112.827 102.989 113.6 102.533 115.257 102.391C119.295 102.041 126.91 102.041 130.949 102.391C133.297 102.594 134.086 103.5 135.776 104.899C140.259 109.935 147.354 114.212 151.68 119.153C156.599 124.769 150.476 132.887 144.199 129.068C141.641 127.514 139.371 124.371 136.819 122.68V128.08C136.819 128.683 142.396 136.73 143.135 138.305C144.295 140.773 144.05 142.411 142.963 144.811C141.795 147.389 135.588 159.245 134.112 160.777C133.015 161.918 131.701 162.363 130.528 162.49C128.253 162.737 125.983 161.72 124.677 159.827C124.22 159.166 123.898 158.41 123.781 157.556C123.13 152.828 127.913 148.387 129.368 144.263C129.483 143.939 129.572 143.791 129.47 143.415C129.368 143.038 126.795 140.749 126.448 140.644C125.685 140.412 120.233 140.467 119.17 140.575C117.762 140.715 116.43 142.511 115.651 143.631C117.433 148.97 123.875 155.054 120.191 160.011C118.825 161.85 116.594 162.879 114.334 162.584C113.237 162.44 112.056 161.981 111.079 160.885H111.077ZM134.99 124V120.181C134.99 119.788 136.205 119.612 136.555 119.923L144.786 127.427C147.349 129.131 150.753 128.143 151.531 125.006C152.192 122.346 151.221 121.25 149.496 119.517C145.285 115.284 138.248 108.9 133.548 105.307C133.148 105.001 132.725 104.727 132.305 104.454C126.884 104.485 120.361 103.711 114.993 104.235C113.256 104.403 111.359 106.242 109.938 107.303C105.497 110.622 99.708 114.818 95.6824 118.479C93.6422 120.333 92.3621 122.583 94.1202 125.306C95.6824 127.73 98.2582 127.524 100.437 126.168C103.242 124.424 105.907 121.598 108.679 119.72C109.078 119.24 110.173 119.846 110.173 120.183V124.003H134.99V124ZM134.99 125.844H110.173L110.413 128.104L118.532 138.618L126.247 138.771L134.854 127.946L134.99 125.844ZM109.131 129.531C107.835 132.542 105.518 135.313 104.029 138.218C103.023 140.18 102.422 141.176 103.331 143.409C106.396 147.824 108.527 154.572 111.625 158.752C113.953 161.892 117.446 161.194 118.901 158.697C119.7 157.324 119.69 155.62 118.969 154.203L113.835 144.123C113.512 141.547 117.017 140.504 116.926 139.453L109.131 129.531ZM135.659 129.805L128.224 139.198C127.937 140.286 131.461 141.861 131.322 143.87L125.962 154.056C125.821 154.324 125.69 154.601 125.596 154.891C124.217 159.105 129.008 162.497 132.315 159.974C132.84 159.574 133.256 159.044 133.569 158.46L141.983 142.772C142.077 141.716 142.177 140.644 141.842 139.609C141.427 138.334 137.237 131.575 136.255 130.229C136.093 130.005 136.012 129.708 135.659 129.802V129.805Z" fill="#393C40"/>
<path id="Vector_110" d="M112.733 80.5481C123.767 68.8271 141.957 85.0231 131.322 97.5791C120.476 110.385 101.108 92.896 112.733 80.5481ZM129.789 81.6017C119.711 71.1502 104.065 86.5008 113.948 96.9153C123.898 107.401 139.763 91.9451 129.789 81.6017Z" fill="#393C40"/>
</g>
</g>

</g>
<defs>
<linearGradient id="paint0_linear_647_4142" x1="52.2752" y1="48.971" x2="163.877" y2="160.581" gradientUnits="userSpaceOnUse">
<stop stop-color="white"/>
<stop offset="0.2253" stop-color="#F6F7F7"/>
<stop offset="0.5884" stop-color="#DFE0E1"/>
<stop offset="1" stop-color="#BCBEC0"/>
</linearGradient>
<clipPath id="clip0_647_4142">
<rect width="66.8984" height="88.2367" fill="white" transform="translate(91.6587 76.4961)"/>
</clipPath>
</defs>
</svg>
